<svg width="20" height="16" viewBox="0 0 20 16" fill="none" xmlns="http://www.w3.org/2000/svg">
<path d="M13.3333 3.23334C13.3332 3.73477 13.1349 4.21584 12.7817 4.57168C11.9683 5.39168 11.1792 6.24668 10.335 7.03668C10.2407 7.12254 10.1171 7.16894 9.98967 7.1663C9.8622 7.16366 9.74061 7.11219 9.65 7.02251L7.21833 4.57251C6.86486 4.21644 6.6665 3.73507 6.6665 3.23334C6.6665 2.73162 6.86486 2.25024 7.21833 1.89418C7.39471 1.71649 7.6045 1.57547 7.83563 1.47924C8.06675 1.38301 8.31464 1.33346 8.565 1.33346C8.81536 1.33346 9.06324 1.38301 9.29436 1.47924C9.52549 1.57547 9.73529 1.71649 9.91166 1.89418L10 1.98334L10.0883 1.89418C10.3531 1.62656 10.6915 1.44379 11.0604 1.36911C11.4294 1.29444 11.8122 1.33125 12.1602 1.47485C12.5082 1.61846 12.8056 1.86236 13.0145 2.17551C13.2234 2.48867 13.3344 2.8569 13.3333 3.23334Z" stroke="#474F7A" stroke-width="1.5" stroke-linejoin="round"/>
<path d="M15 14.6667L18.1867 11.48C18.2805 11.3863 18.3332 11.2592 18.3333 11.1267V6.75C18.3333 6.41848 18.2016 6.10054 17.9672 5.86612C17.7328 5.6317 17.4149 5.5 17.0833 5.5C16.7518 5.5 16.4339 5.6317 16.1995 5.86612C15.965 6.10054 15.8333 6.41848 15.8333 6.75V10.5" stroke="#474F7A" stroke-width="1.5" stroke-linecap="round" stroke-linejoin="round"/>
<path d="M15 11.3333L15.715 10.6183C15.7526 10.5808 15.7824 10.5363 15.8027 10.4872C15.823 10.4382 15.8334 10.3856 15.8333 10.3325C15.8332 10.2576 15.8123 10.1841 15.7728 10.1204C15.7334 10.0567 15.677 10.0052 15.61 9.97167L15.2408 9.7875C14.9281 9.63112 14.5741 9.57707 14.2289 9.63301C13.8837 9.68894 13.5649 9.85202 13.3175 10.0992L12.5717 10.845C12.2591 11.1575 12.0834 11.5813 12.0833 12.0233V14.6667M5 14.6667L1.81333 11.48C1.71954 11.3863 1.66678 11.2592 1.66666 11.1267V6.75C1.66666 6.41848 1.79836 6.10054 2.03278 5.86612C2.2672 5.6317 2.58514 5.5 2.91666 5.5C3.24818 5.5 3.56613 5.6317 3.80055 5.86612C4.03497 6.10054 4.16666 6.41848 4.16666 6.75V10.5" stroke="#474F7A" stroke-width="1.5" stroke-linecap="round" stroke-linejoin="round"/>
<path d="M5 11.3334L4.285 10.6184C4.24747 10.5808 4.2177 10.5363 4.1974 10.4872C4.1771 10.4382 4.16665 10.3856 4.16666 10.3325C4.16666 10.18 4.25333 10.0409 4.39 9.9717L4.75916 9.78753C5.07192 9.63115 5.42595 9.5771 5.77112 9.63303C6.11629 9.68897 6.43513 9.85205 6.6825 10.0992L7.42833 10.845C7.74091 11.1575 7.91657 11.5814 7.91666 12.0234V14.6667" stroke="#474F7A" stroke-width="1.5" stroke-linecap="round" stroke-linejoin="round"/>
</svg>
