<svg width="280" height="320" viewBox="0 0 280 320" fill="none" xmlns="http://www.w3.org/2000/svg">
<g clip-path="url(#clip0_755_667)">
<rect width="280" height="320" rx="20" fill="#8C74B2"/>
<g opacity="0.3">
<ellipse cx="219.5" cy="78.7992" rx="219.5" ry="78.7992" transform="matrix(-1 0 0 1 201 256.402)" fill="url(#paint0_linear_755_667)"/>
<ellipse cx="186.532" cy="67.0246" rx="186.532" ry="67.0246" transform="matrix(-1 0 0 1 168.032 268.176)" fill="#474F7A"/>
<path d="M109 289.715C189.5 229.682 291.833 209.982 311 213.379L290 323.426H-47.5L-94.5 193C-64.6667 226.014 -7.25531 376.412 109 289.715Z" fill="url(#paint1_linear_755_667)"/>
<path d="M109 307.83C207.8 265.39 270.833 261.575 290 264.972V341.541H-47.5L-104 261.836C-74.1667 294.851 10.2 350.269 109 307.83Z" fill="#474F7A"/>
</g>
<g filter="url(#filter0_f_755_667)">
<circle cy="237" r="14" fill="#FECE27" fill-opacity="0.4"/>
</g>
<circle cy="237" r="7" fill="#FECE27"/>
<g filter="url(#filter1_f_755_667)">
<circle cx="119" cy="48" r="7" fill="#FECE27" fill-opacity="0.4"/>
</g>
<circle cx="119" cy="48" r="3.5" fill="#FECE27"/>
<g filter="url(#filter2_f_755_667)">
<circle cx="158.5" cy="267.5" r="8.5" fill="#FECE27" fill-opacity="0.4"/>
</g>
<circle cx="158.5" cy="267.5" r="4.25" fill="#FECE27"/>
<g filter="url(#filter3_f_755_667)">
<circle cx="255.5" cy="180.5" r="5.5" fill="#FECE27" fill-opacity="0.4"/>
</g>
<circle cx="255.5" cy="180.5" r="2.75" fill="#FECE27"/>
<g filter="url(#filter4_f_755_667)">
<circle cx="280.5" cy="316.5" r="24.5" fill="#FECE27" fill-opacity="0.4"/>
</g>
<circle cx="280.5" cy="316.5" r="12.25" fill="#FECE27"/>
</g>
<defs>
<filter id="filter0_f_755_667" x="-34" y="203" width="68" height="68" filterUnits="userSpaceOnUse" color-interpolation-filters="sRGB">
<feFlood flood-opacity="0" result="BackgroundImageFix"/>
<feBlend mode="normal" in="SourceGraphic" in2="BackgroundImageFix" result="shape"/>
<feGaussianBlur stdDeviation="10" result="effect1_foregroundBlur_755_667"/>
</filter>
<filter id="filter1_f_755_667" x="92" y="21" width="54" height="54" filterUnits="userSpaceOnUse" color-interpolation-filters="sRGB">
<feFlood flood-opacity="0" result="BackgroundImageFix"/>
<feBlend mode="normal" in="SourceGraphic" in2="BackgroundImageFix" result="shape"/>
<feGaussianBlur stdDeviation="10" result="effect1_foregroundBlur_755_667"/>
</filter>
<filter id="filter2_f_755_667" x="130" y="239" width="57" height="57" filterUnits="userSpaceOnUse" color-interpolation-filters="sRGB">
<feFlood flood-opacity="0" result="BackgroundImageFix"/>
<feBlend mode="normal" in="SourceGraphic" in2="BackgroundImageFix" result="shape"/>
<feGaussianBlur stdDeviation="10" result="effect1_foregroundBlur_755_667"/>
</filter>
<filter id="filter3_f_755_667" x="230" y="155" width="51" height="51" filterUnits="userSpaceOnUse" color-interpolation-filters="sRGB">
<feFlood flood-opacity="0" result="BackgroundImageFix"/>
<feBlend mode="normal" in="SourceGraphic" in2="BackgroundImageFix" result="shape"/>
<feGaussianBlur stdDeviation="10" result="effect1_foregroundBlur_755_667"/>
</filter>
<filter id="filter4_f_755_667" x="236" y="272" width="89" height="89" filterUnits="userSpaceOnUse" color-interpolation-filters="sRGB">
<feFlood flood-opacity="0" result="BackgroundImageFix"/>
<feBlend mode="normal" in="SourceGraphic" in2="BackgroundImageFix" result="shape"/>
<feGaussianBlur stdDeviation="10" result="effect1_foregroundBlur_755_667"/>
</filter>
<linearGradient id="paint0_linear_755_667" x1="111" y1="-22.1906" x2="120.533" y2="20.3669" gradientUnits="userSpaceOnUse">
<stop stop-color="#B6A8CD"/>
<stop offset="1" stop-color="#8C74B2"/>
</linearGradient>
<linearGradient id="paint1_linear_755_667" x1="108" y1="275.875" x2="253.494" y2="273.667" gradientUnits="userSpaceOnUse">
<stop stop-color="#8D91AB"/>
<stop offset="0.786402" stop-color="#474F7A"/>
</linearGradient>
<clipPath id="clip0_755_667">
<rect width="280" height="320" rx="20" fill="white"/>
</clipPath>
</defs>
</svg>
