<svg xmlns="http://www.w3.org/2000/svg" width="280" height="320" fill="none"><g clip-path="url(#a)"><rect width="280" height="320" fill="#8C74B2" rx="20"/><g opacity=".3"><ellipse cx="219.5" cy="78.799" fill="url(#b)" rx="219.5" ry="78.799" transform="matrix(-1 0 0 1 201 256.402)"/><ellipse cx="186.532" cy="67.025" fill="#474F7A" rx="186.532" ry="67.025" transform="matrix(-1 0 0 1 168.032 268.176)"/><path fill="url(#c)" d="M109 289.715c80.5-60.033 182.833-79.733 202-76.336l-21 110.047H-47.5L-94.5 193c29.833 33.014 87.245 183.412 203.5 96.715"/><path fill="#474F7A" d="M109 307.83c98.8-42.44 161.833-46.255 181-42.858v76.569H-47.5l-56.5-79.705c29.833 33.015 114.2 88.433 213 45.994"/></g><g filter="url(#d)"><circle cy="237" r="14" fill="#FECE27" fill-opacity=".4"/></g><circle cy="237" r="7" fill="#FECE27"/><g filter="url(#e)"><circle cx="119" cy="48" r="7" fill="#FECE27" fill-opacity=".4"/></g><circle cx="119" cy="48" r="3.5" fill="#FECE27"/><g filter="url(#f)"><circle cx="158.5" cy="267.5" r="8.5" fill="#FECE27" fill-opacity=".4"/></g><circle cx="158.5" cy="267.5" r="4.25" fill="#FECE27"/><g filter="url(#g)"><circle cx="255.5" cy="180.5" r="5.5" fill="#FECE27" fill-opacity=".4"/></g><circle cx="255.5" cy="180.5" r="2.75" fill="#FECE27"/><g filter="url(#h)"><circle cx="280.5" cy="316.5" r="24.5" fill="#FECE27" fill-opacity=".4"/></g><circle cx="280.5" cy="316.5" r="12.25" fill="#FECE27"/></g><defs><filter id="d" width="68" height="68" x="-34" y="203" color-interpolation-filters="sRGB" filterUnits="userSpaceOnUse"><feFlood flood-opacity="0" result="BackgroundImageFix"/><feBlend in="SourceGraphic" in2="BackgroundImageFix" result="shape"/><feGaussianBlur result="effect1_foregroundBlur_755_667" stdDeviation="10"/></filter><filter id="e" width="54" height="54" x="92" y="21" color-interpolation-filters="sRGB" filterUnits="userSpaceOnUse"><feFlood flood-opacity="0" result="BackgroundImageFix"/><feBlend in="SourceGraphic" in2="BackgroundImageFix" result="shape"/><feGaussianBlur result="effect1_foregroundBlur_755_667" stdDeviation="10"/></filter><filter id="f" width="57" height="57" x="130" y="239" color-interpolation-filters="sRGB" filterUnits="userSpaceOnUse"><feFlood flood-opacity="0" result="BackgroundImageFix"/><feBlend in="SourceGraphic" in2="BackgroundImageFix" result="shape"/><feGaussianBlur result="effect1_foregroundBlur_755_667" stdDeviation="10"/></filter><filter id="g" width="51" height="51" x="230" y="155" color-interpolation-filters="sRGB" filterUnits="userSpaceOnUse"><feFlood flood-opacity="0" result="BackgroundImageFix"/><feBlend in="SourceGraphic" in2="BackgroundImageFix" result="shape"/><feGaussianBlur result="effect1_foregroundBlur_755_667" stdDeviation="10"/></filter><filter id="h" width="89" height="89" x="236" y="272" color-interpolation-filters="sRGB" filterUnits="userSpaceOnUse"><feFlood flood-opacity="0" result="BackgroundImageFix"/><feBlend in="SourceGraphic" in2="BackgroundImageFix" result="shape"/><feGaussianBlur result="effect1_foregroundBlur_755_667" stdDeviation="10"/></filter><linearGradient id="b" x1="111" x2="120.533" y1="-22.191" y2="20.367" gradientUnits="userSpaceOnUse"><stop stop-color="#B6A8CD"/><stop offset="1" stop-color="#8C74B2"/></linearGradient><linearGradient id="c" x1="108" x2="253.494" y1="275.875" y2="273.667" gradientUnits="userSpaceOnUse"><stop stop-color="#8D91AB"/><stop offset=".786" stop-color="#474F7A"/></linearGradient><clipPath id="a"><rect width="280" height="320" fill="#fff" rx="20"/></clipPath></defs></svg>