<svg xmlns="http://www.w3.org/2000/svg" width="1280" height="1280" viewBox="0 0 1120 1280"><path fill="#8874AD" d="M0 0h1120v1280H0z"/><path d="M1119 1204h1v76h-77v-1l17-3 15-5 12-7 11-9 10-14 5-11 4-15zM0 1206h1l3 15 4 12 7 13 10 12 14 10 10 5 21 5 8 1v1H0zM1048 0h72v75h-1l-4-20-5-12-5-9-11-13-14-10-11-5-21-5zM0 0h72v1L54 5l-12 5-11 7-12 11L9 43 4 58 1 72H0z"/><path fill="#FDD642" d="m0 916 16 7 6 5 5 8 2 7v12l-4 9-9 8-15 6H0zm1115 300h2l-1 8-5 13-9 14-4 5-11 9-14 8-5 1 5-22 4-9 4-6 7-8 9-6 10-5zm-482-165 6 1 6 4 5 6 2 6-1 8-4 6-5 4-6 2-9-1-8-7-3-6v-9l6-8 5-4zM471 177h9l8 5 3 6v8l-4 6-4 3-4 1h-9l-6-4-3-5v-10l4-6zm549 533 7 1 5 5 2 9-3 5-7 3h-6l-6-4-2-5v-6l4-5z"/></svg>