<?xml version="1.0" encoding="UTF-8"?>
<svg version="1.1" xmlns="http://www.w3.org/2000/svg" width="4630" height="1293">
<path d="M0 0 C1527.9 0 3055.8 0 4630 0 C4630 426.69 4630 853.38 4630 1293 C3102.1 1293 1574.2 1293 0 1293 C0 866.31 0 439.62 0 0 Z M43 43 C43 440.98 43 838.96 43 1249 C1542.19 1249 3041.38 1249 4586 1249 C4586 851.02 4586 453.04 4586 43 C3086.81 43 1587.62 43 43 43 Z " fill="#AD88C6" transform="translate(0,0)"/>
<path d="M0 0 C42.96507732 -0.29772321 85.93003537 -0.52671008 128.89594034 -0.66384928 C133.97140007 -0.68010797 139.04685776 -0.6969342 144.12231445 -0.71411133 C145.63792701 -0.71922638 145.63792701 -0.71922638 147.184158 -0.72444477 C163.53277065 -0.78097252 179.88078748 -0.88344922 196.22904696 -1.00298635 C213.01088671 -1.124668 229.79241498 -1.1967874 246.57467777 -1.22315043 C256.92599957 -1.24096581 267.2756372 -1.29717453 277.62644038 -1.40291407 C284.72982668 -1.47177142 291.83234572 -1.49237091 298.93604132 -1.47551791 C303.03186974 -1.46721083 307.12476168 -1.47969918 311.22006416 -1.54967117 C338.35538769 -1.99092287 338.35538769 -1.99092287 345.64081556 4.57143098 C348.06111754 7.22206217 350.00389047 10.01499109 352 13 C354.1816779 15.13892848 354.1816779 15.13892848 356.23046875 16.73657227 C360.83121932 20.65576077 365.05456753 24.92983964 369.3125 29.21484375 C370.16682617 30.07058487 371.02115234 30.92632599 371.90136719 31.80799866 C374.60328862 34.51547381 377.30169359 37.22642254 380 39.9375 C381.84221577 41.78473675 383.68466143 43.63174427 385.52734375 45.47851562 C390.02089061 49.98303003 394.5115632 54.49039405 399 59 C405.8310984 54.2968907 411.53539326 48.70993073 417.34375 42.81640625 C418.32154267 41.83232351 419.29986545 40.84876724 420.27868652 39.8657074 C422.83787904 37.29331319 425.39142424 34.71539438 427.94329834 32.13574219 C432.02460461 28.01107054 436.11274557 23.89320342 440.20429993 19.77869987 C441.61796355 18.35496545 443.02796752 16.9276002 444.43786621 15.50013733 C449.45618171 10.44434455 454.58172258 5.62310721 460 1 C460.33 0.67 460.66 0.34 461 0 C463.30053835 -0.09443335 465.60402173 -0.11742128 467.90649414 -0.11352539 C468.62840439 -0.11367142 469.35031464 -0.11381744 470.09410095 -0.1139679 C472.49114947 -0.11326869 474.88812123 -0.10547595 477.28515625 -0.09765625 C478.94282489 -0.0957921 480.60049407 -0.09436818 482.25816345 -0.09336853 C486.62954214 -0.08954312 491.00088781 -0.07971265 495.37225342 -0.06866455 C499.82954461 -0.05845092 504.28684111 -0.05387101 508.74414062 -0.04882812 C517.49610893 -0.0380904 526.24805036 -0.02101371 535 0 C534.16365027 4.65900512 532.52227413 8.71338315 530.59765625 13.015625 C530.24871307 13.80657562 529.8997699 14.59752625 529.54025269 15.41244507 C528.385585 18.02701703 527.22397528 20.63844597 526.0625 23.25 C525.24694025 25.09400089 524.43192631 26.93824326 523.61743164 28.78271484 C521.92321357 32.6181441 520.22664407 36.45251985 518.52832031 40.28613281 C515.01861254 48.21254396 511.53376755 56.14984534 508.05075073 64.0880127 C506.92894122 66.64450461 505.80643928 69.20069166 504.68383789 71.75683594 C499.60281264 83.32931501 494.54564546 94.91205739 489.5 106.5 C481.46019514 124.96439628 473.36869087 143.40585147 465.26611328 161.84277344 C461.88325339 169.54074161 458.50375036 177.24018351 455.12399292 184.93951416 C453.24946601 189.20973643 451.37472203 193.47986339 449.5 197.75 C448.74999896 199.45833288 447.99999896 201.16666621 447.25 202.875 C445.75 206.29166667 444.25 209.70833333 442.75 213.125 C442.37875504 213.97061493 442.00751007 214.81622986 441.62501526 215.68746948 C440.87496856 217.39590637 440.12491769 219.10434143 439.37486267 220.81277466 C437.50054311 225.08200869 435.6262957 229.35127437 433.75219727 233.62060547 C430.36915483 241.32722804 426.98558771 249.03361805 423.59933472 256.73883057 C415.87498286 274.3152374 408.16487301 291.89756367 400.5 309.5 C394.84572304 322.48333068 389.1806369 335.46186547 383.49365234 348.4309082 C382.71928872 350.19715511 381.94534786 351.96358744 381.171875 353.73022461 C380.09111907 356.19831534 379.00866926 358.66565662 377.92578125 361.1328125 C377.61703568 361.83862457 377.3082901 362.54443665 376.9901886 363.27163696 C374.08041063 369.89151723 371.03221646 376.43019767 368 383 C319.49 383 270.98 383 221 383 C221 276.74 221 170.48 221 61 C207.47 61 193.94 61 180 61 C180 192.01 180 323.02 180 458 C252.6 458 325.2 458 400 458 C403.10609487 581.14568047 403.10609487 581.14568047 403.73397805 630.99560137 C403.88280134 642.79993962 404.03576431 654.60421665 404.19850152 666.40837195 C404.21928062 667.91628951 404.23994521 669.42420864 404.26049382 670.93212936 C404.58661932 694.79499912 405.16238337 718.64342592 405.874886 742.49763225 C406.60845745 767.10307728 407.07677636 791.70061498 407.23145424 816.31680426 C407.2536283 819.82685681 407.27870189 823.33688308 407.30554771 826.84690285 C407.31333507 827.88270253 407.31333507 827.88270253 407.32127975 828.93942745 C407.39986061 838.53327269 407.65544545 848.10759747 408.05699815 857.69315887 C410.21935089 909.35567215 411.68935245 955.93717805 375.01012135 996.11140537 C351.68530852 1020.69713765 323.51894597 1045.23150575 288.23579991 1047.18295777 C280.78546495 1047.34596443 273.43524976 1046.89244166 266.01208353 1046.30130672 C260.05686439 1045.90432282 254.10436798 1045.88185707 248.13873516 1045.84079853 C236.37574497 1045.74748732 224.65545148 1045.30929193 212.91259766 1044.6328125 C201.60904345 1043.98225509 190.32536168 1043.54891993 179.00439453 1043.36132812 C177.9452593 1043.34370513 177.9452593 1043.34370513 176.86472739 1043.32572612 C174.02335337 1043.2789828 171.18197016 1043.23287242 168.34056927 1043.18779151 C155.4138339 1042.97748909 142.49203028 1042.58070943 129.5703125 1042.171875 C128.27982199 1042.13384734 126.98933148 1042.09581968 125.6597352 1042.05663967 C118.2541129 1041.83238416 110.85973152 1041.5297327 103.46278 1041.10520554 C101.23839738 1040.98717463 99.01261439 1040.89261008 96.78614807 1040.82436752 C85.14150884 1040.44629318 76.82968416 1039.50410722 68.49606323 1030.81719971 C65.72541359 1027.71908221 63.148609 1024.47917835 60.60002772 1021.1971161 C56.7603499 1016.50914329 52.50915956 1012.94812155 47.64593883 1009.34941264 C24.65948506 992.3156834 0.0526136 971.94385504 -4.67753015 942.30063547 C-7.69677455 920.33987018 -7.04907504 897.92530792 -6.46858575 875.82360528 C-6.17461654 864.1706201 -6.21244101 852.52366145 -6.2561105 840.86787956 C-6.32779779 819.37345807 -6.14689261 797.88844662 -5.81515312 776.39676094 C-5.48819599 755.15981336 -5.2771987 733.92643344 -5.21824837 712.68702507 C-5.21635571 712.02382311 -5.21446306 711.36062114 -5.21251306 710.67732215 C-5.19528344 704.61866241 -5.17946093 698.55999968 -5.16532445 692.50133192 C-5.13018897 677.45020894 -5.07744578 662.39917539 -5.01268864 647.34815121 C-5.00975618 646.66328697 -5.00682371 645.97842273 -5.00380239 645.27280503 C-4.86013458 612.07860735 -4.51343919 578.88696689 -4.14916992 545.69458008 C-4.02311156 534.19771252 -3.89795881 522.70083619 -3.77655029 511.20391846 C-3.76901809 510.49073366 -3.76148588 509.77754886 -3.75372543 509.04275239 C-3.40382865 475.79514243 -3.19958295 442.54708903 -3.03213656 409.29811805 C-3.02124324 407.13560724 -3.01028758 404.97309675 -2.99931921 402.81058632 C-2.92672168 388.47771213 -2.85661764 374.14482643 -2.78818195 359.8119318 C-2.65202751 331.30089868 -2.50123733 302.78994863 -2.34036935 274.27904444 C-2.33271111 272.92174076 -2.3250631 271.56443701 -2.31742539 270.20713321 C-1.81045811 180.1359249 -0.93679073 90.06764682 0 0 Z M180 519 C180 670.14 180 821.28 180 977 C193.53 977 207.06 977 221 977 C221 825.86 221 674.72 221 519 C207.47 519 193.94 519 180 519 Z " fill="#AD88C6" transform="translate(1452,127)"/>
<path d="M0 0 C65.5317745 -8.18865692 65.5317745 -8.18865692 84.89001179 5.84385014 C97.74214939 15.86016908 108.27495434 28.89225106 117.9675293 41.89086914 C121.53344603 46.59283488 125.40306407 50.32643613 130 54 C131.16797834 54.97760169 132.33477674 55.9566161 133.5 56.9375 C134.325 57.618125 135.15 58.29875 136 59 C136.458302 58.53947739 136.916604 58.07895477 137.38879395 57.60447693 C142.1880748 52.78295793 146.99096294 47.9650536 151.79589844 43.14916992 C153.58522535 41.35483496 155.37365111 39.55960086 157.16113281 37.76342773 C159.74043351 35.17190627 162.32302923 32.58370701 164.90625 29.99609375 C165.69616333 29.20101913 166.48607666 28.40594452 167.29992676 27.58677673 C171.2709765 23.61533244 175.25227832 19.77124917 179.63519096 16.25479221 C181.60293708 14.37859056 182.84272883 12.83716367 184.33316231 10.62103748 C188.30498965 5.17780412 192.47051244 0.89886737 199.1644311 -0.80589712 C208.16075523 -2.00657502 217.22987503 -1.79175409 226.28499222 -1.6249187 C230.43473456 -1.56402412 234.58420427 -1.58494938 238.73426819 -1.59555054 C245.91080608 -1.60286478 253.08555162 -1.55922991 260.26163864 -1.48022079 C270.63651614 -1.36606766 281.01053375 -1.32994341 291.38597114 -1.31238891 C308.22199718 -1.28180572 325.05706946 -1.18879602 341.89257812 -1.05615234 C358.23920953 -0.92749497 374.58558118 -0.82847197 390.93261719 -0.76904297 C392.44598725 -0.76352578 392.44598725 -0.76352578 393.98993044 -0.75789712 C399.05174008 -0.73962558 404.11355156 -0.72193392 409.17536426 -0.70453048 C451.11757269 -0.55957627 493.05873158 -0.31315179 535 0 C536.32233785 90.52922118 537.54632031 181.05961482 538.26042175 271.59590149 C538.27115944 272.95360592 538.28189722 274.31131035 538.29263507 275.66901477 C538.51779469 304.18217444 538.7269692 332.69543346 538.91773522 361.20884374 C539.01361345 375.53702228 539.11255566 389.86517838 539.214398 404.19331577 C539.2297405 406.35434758 539.24499546 408.51537999 539.26024678 410.67641243 C539.49522442 443.86248986 539.79496309 477.04638333 540.28717041 510.22973633 C540.29771162 510.9404833 540.30825282 511.65123028 540.31911346 512.38351504 C540.48941687 523.83920906 540.6652737 535.29481785 540.84186991 546.75041631 C541.35189276 579.84054229 541.81925043 612.92894537 542.01776409 646.02261829 C542.02394739 647.04845335 542.02394739 647.04845335 542.03025561 648.09501235 C542.12012494 663.12633795 542.18897963 678.15768428 542.23807568 693.18919603 C542.25821384 699.24198765 542.2813625 705.29476708 542.30554771 711.34754372 C542.30812161 712.00989719 542.3106955 712.67225066 542.31334739 713.35467545 C542.39966631 735.17323132 542.75225744 756.97866182 543.22606661 778.79194068 C543.68423204 800.15368553 543.8513946 821.50309705 543.73960606 842.8695633 C543.68684308 854.41435867 543.75059682 865.92553282 544.17882156 877.46340752 C545.73676112 921.11235865 543.97801231 955.70268284 513.4014056 989.24416347 C508.35862836 994.62702224 503.13985294 999.81359873 497.83500671 1004.93717957 C496.98305483 1005.76272328 496.13110295 1006.58826699 495.25333434 1007.43882717 C469.69523717 1032.00240638 446.41617264 1049.02224849 409.76970291 1048.65954137 C408.74155849 1048.60515676 407.71341408 1048.55077216 406.65411377 1048.49473953 C400.32494383 1048.22809829 394.03736779 1048.2600482 387.70469475 1048.37642992 C374.87631513 1048.61218447 362.10317026 1048.41327356 349.28214812 1047.96782963 C339.05918268 1047.62351955 328.90339538 1047.68343728 318.68164062 1048.03857422 C305.21823692 1048.50618401 291.81365513 1048.55135793 278.34405518 1048.30381393 C273.3297047 1048.2208928 268.35620349 1048.28366016 263.34588623 1048.49473953 C226.11930175 1049.8364229 199.62444403 1033.12078724 172.91830491 1008.65988691 C142.25642753 979.87915004 127.88933796 951.91858994 126.36068939 909.76485528 C125.85957461 891.71031083 126.27180085 873.71566024 127.02753566 855.67527941 C127.42338861 846.0651411 127.62214338 836.4647406 127.69445229 826.84690285 C127.69974524 826.15486337 127.70503819 825.46282389 127.71049153 824.74981352 C127.73655846 821.23247395 127.75975932 817.71512165 127.78186098 814.1977552 C127.94182557 789.55041363 128.45529801 764.92271259 129.19116211 740.28637695 C129.90327347 716.41696711 130.44618453 692.55301394 130.77026367 668.67504883 C130.78039119 667.93366622 130.7905187 667.19228361 130.80095311 666.42843486 C130.90251607 658.98029447 131.00074822 651.5321132 131.09654528 644.08389654 C131.29161249 628.92330922 131.50884788 613.76306653 131.73957825 598.60298157 C131.75543524 597.55839716 131.75543524 597.55839716 131.77161257 596.49271005 C132.47508055 550.31838644 133.74514367 504.16341908 135 458 C194.07 458 253.14 458 314 458 C314 629.27 314 800.54 314 977 C327.53 977 341.06 977 355 977 C355 674.72 355 372.44 355 61 C341.47 61 327.94 61 314 61 C314 167.26 314 273.52 314 383 C265.49 383 216.98 383 167 383 C147.60853432 339.65437084 147.60853432 339.65437084 142.48294067 327.8135376 C140.76423744 323.8436699 139.03765809 319.87722206 137.3125 315.91015625 C136.95873795 315.09621399 136.60497589 314.28227173 136.24049377 313.44366455 C132.20410883 304.16070848 128.13441927 294.89241129 124.0625 285.625 C123.68956818 284.77610199 123.31663635 283.92720398 122.93240356 283.05258179 C121.04394384 278.75399655 119.15513603 274.45556441 117.26611328 270.15722656 C113.88289063 262.45843291 110.50301794 254.75816853 107.12289429 247.05801392 C105.25390329 242.80035134 103.38477854 238.54274748 101.515625 234.28515625 C101.14519577 233.44137924 100.77476654 232.59760223 100.39311218 231.72825623 C98.10325726 226.51249799 95.8129548 221.29693651 93.52233887 216.08151245 C86.0578794 199.08590117 78.59694546 182.08880927 71.16088867 165.08074951 C66.20089906 153.7368034 61.2277438 142.39866598 56.25 131.0625 C55.87199249 130.20158752 55.49398499 129.34067505 55.10452271 128.45367432 C51.26473729 119.70874836 47.423955 110.96426121 43.58129883 102.22059631 C41.69965829 97.93889527 39.81847927 93.65699158 37.9375 89.375 C37.38174286 88.10993118 37.38174286 88.10993118 36.8147583 86.81930542 C32.70072301 77.45290267 28.59577689 68.08264186 24.51171875 58.703125 C23.96198898 57.44065445 23.96198898 57.44065445 23.40115356 56.15267944 C21.95343889 52.82723623 20.50602684 49.50166317 19.06030273 46.175354 C15.50158652 37.98753616 11.92962063 29.80716057 8.26953125 21.6640625 C7.98180847 21.02276398 7.69408569 20.38146545 7.39764404 19.72073364 C6.07287743 16.76949106 4.74214182 13.82123007 3.40087891 10.87744141 C2.9476123 9.87116699 2.4943457 8.86489258 2.02734375 7.828125 C1.63281006 6.9609082 1.23827637 6.09369141 0.83178711 5.20019531 C0 3 0 3 0 0 Z " fill="#AD88C6" transform="translate(876,127)"/>
<path d="M0 0 C1.18336085 -0.0039821 2.3667217 -0.00796419 3.58594197 -0.01206696 C4.89234397 -0.00624128 6.19874597 -0.00041559 7.54473591 0.00558662 C8.94150839 0.00471493 10.33828056 0.00296462 11.73505098 0.00040829 C15.5820465 -0.00407639 19.42893124 0.00395377 23.27591264 0.01396441 C27.42109294 0.02258052 31.56626671 0.01968006 35.71145344 0.01815987 C42.8961832 0.01710985 50.0808767 0.02339864 57.26559734 0.03463554 C67.65356381 0.05087177 78.0415127 0.05609662 88.42949048 0.05861153 C105.28223137 0.06299158 122.13495292 0.0763091 138.9876833 0.09521675 C155.36105471 0.11356752 171.73442087 0.12772795 188.10780048 0.13623238 C189.11661682 0.13675782 190.12543315 0.13728327 191.16481968 0.13782464 C196.22562383 0.14043467 201.28642801 0.14296209 206.34723222 0.14544845 C248.34889668 0.16619062 290.35053986 0.20142459 332.35218525 0.24609566 C333.6745231 90.77531684 334.89850556 181.30571047 335.612607 271.84199715 C335.62334469 273.19970158 335.63408247 274.557406 335.64482032 275.91511043 C335.86997994 304.4282701 336.07915445 332.94152912 336.26992047 361.4549394 C336.3657987 375.78311794 336.4647409 390.11127403 336.56658325 404.43941143 C336.58192575 406.60044323 336.59718071 408.76147564 336.61243202 410.92250809 C336.84740967 444.10858552 337.14714834 477.29247899 337.63935566 510.47583199 C337.64989687 511.18657896 337.66043807 511.89732593 337.67129871 512.62961069 C337.84160212 524.08530472 338.01745895 535.54091351 338.19405516 546.99651197 C338.70407801 580.08663795 339.17143568 613.17504103 339.36994934 646.26871395 C339.37407154 646.95260399 339.37819374 647.63649403 339.38244086 648.34110801 C339.47231019 663.3724336 339.54116487 678.40377994 339.59026093 693.43529169 C339.61039909 699.48808331 339.63354775 705.54086274 339.65773296 711.59363937 C339.66030685 712.25599284 339.66288075 712.91834632 339.66553263 713.6007711 C339.75185156 735.41932698 340.10444269 757.22475747 340.57825186 779.03803634 C341.03641729 800.39978118 341.20357985 821.74919271 341.09179131 843.11565896 C341.03902828 854.66046559 341.10301946 866.17161447 341.53100681 877.70950317 C343.31937438 928.07847229 337.064115 965.10260238 301.99941672 1003.23223056 C299.74633701 1005.73328554 297.6016053 1008.29686328 295.46705321 1010.89928987 C282.85789612 1025.62708198 274.51454547 1028.53013214 255.35218525 1038.24609566 C221.69218525 1038.24609566 188.03218525 1038.24609566 153.35218525 1038.24609566 C153.35218525 715.83609566 153.35218525 393.42609566 153.35218525 61.24609566 C139.49218525 61.24609566 125.63218525 61.24609566 111.35218525 61.24609566 C111.35218525 383.65609566 111.35218525 706.06609566 111.35218525 1038.24609566 C52.28218525 1038.24609566 -6.78781475 1038.24609566 -67.64781475 1038.24609566 C-67.7369688 993.61553506 -67.7369688 993.61553506 -67.77000713 976.30313301 C-67.77206409 975.22544985 -67.77412104 974.14776669 -67.77624033 973.03742646 C-67.91221905 901.68943023 -68.03512513 830.34144707 -68.11358929 758.99336433 C-68.11512324 757.60224849 -68.11665721 756.21113264 -68.11819119 754.82001679 C-68.1503408 725.62005956 -68.18022467 696.42010036 -68.20749121 667.22013817 C-68.22119054 652.55200654 -68.23532525 637.88387535 -68.24987161 623.21574453 C-68.25206334 621.00311386 -68.25424265 618.79048317 -68.25642143 616.57785249 C-68.29008082 582.50688712 -68.33307686 548.43596497 -68.40312481 514.36505318 C-68.4046307 513.63251136 -68.40613658 512.89996955 -68.4076881 512.1452295 C-68.43202415 500.33450398 -68.45714387 488.52378013 -68.4823676 476.71305648 C-68.55500876 442.6940591 -68.62185407 408.67509497 -68.65035248 374.65602779 C-68.65094136 373.95643357 -68.65153025 373.25683934 -68.65213698 372.53604529 C-68.66496047 357.17814554 -68.67480382 341.82024537 -68.68182556 326.46234191 C-68.6847034 320.28281043 -68.68801022 314.1032792 -68.69146442 307.92374802 C-68.69183212 307.24742585 -68.69219982 306.57110368 -68.69257866 305.87428691 C-68.70463883 284.08408961 -68.75161781 262.29413929 -68.81691904 240.50404167 C-68.88436681 217.94284473 -68.91297449 195.38185984 -68.8963299 172.82055499 C-68.88794977 159.80952144 -68.91038893 146.79938258 -68.97658772 133.78851023 C-69.01777441 125.10173292 -69.01916001 116.41554284 -68.9879647 107.72872531 C-68.97132394 102.77573522 -68.97219447 97.82443924 -69.02152976 92.87162944 C-69.0660894 88.36405606 -69.05985671 83.85949589 -69.01335448 79.35196819 C-69.00550695 77.73292425 -69.01605401 76.1136581 -69.04740245 74.49489867 C-69.18128934 67.11236796 -69.09177094 61.02152692 -63.81836789 55.36650819 C-61.53598955 53.18237262 -59.12828706 51.20023193 -56.64781475 49.24609566 C-55.27694957 48.05074 -53.90961408 46.85129198 -52.54942608 45.64380074 C-51.91461315 45.10035011 -51.27980022 44.55689949 -50.62575054 43.99698067 C-46.64835623 40.47615855 -42.95773288 36.65612387 -39.2220335 32.88281441 C-38.3526263 32.00962059 -37.48321911 31.13642677 -36.58746624 30.23677254 C-33.83429718 27.47147259 -31.08441157 24.70294365 -28.33531475 21.93359566 C-24.69624726 18.26797717 -21.05391117 14.60565264 -17.4095335 10.94531441 C-16.15797718 9.68131058 -16.15797718 9.68131058 -14.88113689 8.39177132 C-14.10635494 7.61368614 -13.33157299 6.83560097 -12.5333128 6.03393745 C-11.85350857 5.34889641 -11.17370434 4.66385536 -10.47329998 3.9580555 C-6.90206331 0.60891103 -4.78094125 -0.00354013 0 0 Z " fill="#AD88C6" transform="translate(4169.647814750671,126.75390434265137)"/>
<path d="M0 0 C13.26684463 0.62477549 26.5293586 1.04614406 39.80767263 1.33347853 C40.75197977 1.35397096 41.69628691 1.3744634 42.66920941 1.39557681 C47.40990012 1.49742214 52.15065242 1.5959787 56.891446 1.69290527 C95.79180302 2.49243419 134.65541696 3.85746825 173.52349294 5.6181465 C174.86305154 96.03782367 176.10292324 186.45874801 176.82625783 276.88569411 C176.83713497 278.24183511 176.8480122 279.59797611 176.8588895 280.95411711 C177.08697513 309.43468027 177.29886598 337.91534551 177.49210784 366.39616616 C177.58923095 380.70804849 177.68945811 395.01990776 177.79262338 409.33174782 C177.80816514 411.4903165 177.82361821 413.6488858 177.8390676 415.80745514 C178.07708642 448.95424463 178.38069711 482.09879026 178.8793279 515.24278029 C178.89534506 516.30756956 178.89534506 516.30756956 178.91168579 517.39386973 C179.08420013 528.83520055 179.26234112 540.27644377 179.44123129 551.71767639 C179.95790344 584.76785384 180.43132106 617.81626042 180.63239682 650.87008246 C180.63657256 651.55320303 180.6407483 652.2363236 180.64505057 652.94014479 C180.73608877 667.95485536 180.80583686 682.96958723 180.85556961 697.98448903 C180.87596919 704.03066699 180.8994185 710.07683242 180.9239179 716.12299498 C180.92652522 716.78462311 180.92913253 717.44625125 180.93181886 718.12792871 C181.00878796 737.31268201 181.26689357 756.48719055 181.68514533 775.66749717 C185.88986026 968.69912895 185.88986026 968.69912895 146.59242643 1010.48830747 C120.24173529 1036.84790507 84.54977797 1052.67280594 47.15261091 1052.70523032 C39.64003793 1052.62771259 32.15480927 1052.19229989 24.66081965 1051.68330875 C15.8506302 1051.09814765 7.08022339 1051.05806293 -1.75311839 1050.99729689 C-24.79751329 1050.59441016 -47.82583051 1049.50540803 -70.85150706 1048.4931465 C-122.53775706 1046.8843965 -174.22400706 1045.2756465 -227.47650706 1043.6181465 C-227.47650706 852.2181465 -227.47650706 660.8181465 -227.47650706 463.6181465 C-154.54650706 463.6181465 -81.61650706 463.6181465 -6.47650706 463.6181465 C-6.47650706 332.6081465 -6.47650706 201.5981465 -6.47650706 66.6181465 C-20.00650706 66.6181465 -33.53650706 66.6181465 -47.47650706 66.6181465 C-47.47650706 172.8781465 -47.47650706 279.1381465 -47.47650706 388.6181465 C-106.87650706 388.6181465 -166.27650706 388.6181465 -227.47650706 388.6181465 C-230.62235229 315.22405372 -230.62235229 315.22405372 -231.28510081 284.0087715 C-231.43770319 276.8699556 -231.59526841 269.73127571 -231.76117503 262.59275588 C-231.78174743 261.69865311 -231.80231984 260.80455034 -231.82351565 259.88335355 C-232.15848344 245.6370928 -232.77047407 231.41661483 -233.49442516 217.18541516 C-234.2368542 202.46263023 -234.65959831 187.75280911 -234.81540965 173.01210042 C-234.91097313 164.767232 -235.13176779 156.57529081 -235.72345149 148.3498474 C-238.47582766 108.64749178 -229.0944319 76.45712511 -203.08314716 45.54480251 C-150.71567287 -14.34174593 -72.3837467 -3.44647427 0 0 Z M-47.47650706 525.6181465 C-47.47650706 676.4281465 -47.47650706 827.2381465 -47.47650706 982.6181465 C-33.94650706 982.6181465 -20.41650706 982.6181465 -6.47650706 982.6181465 C-6.47650706 831.8081465 -6.47650706 680.9981465 -6.47650706 525.6181465 C-20.00650706 525.6181465 -33.53650706 525.6181465 -47.47650706 525.6181465 Z " fill="#AD88C6" transform="translate(354.4765070602298,121.38185349851847)"/>
<path d="M0 0 C4.14762947 0.0741389 8.29487616 0.04852106 12.44298279 0.03566134 C19.61164117 0.02679145 26.77764833 0.07964657 33.94563973 0.1757046 C44.30857584 0.31448679 54.67024369 0.35820054 65.03400826 0.37950046 C81.85196619 0.41661178 98.66851409 0.52948067 115.4857074 0.69064486 C131.81180804 0.84693905 148.13752426 0.96714747 164.46422303 1.03927767 C165.97641083 1.04597712 165.97641083 1.04597712 167.51914788 1.05281191 C172.57714485 1.07499923 177.63514452 1.09648187 182.69314599 1.11761427 C224.58534793 1.29355053 266.47599836 1.59270864 308.36681092 1.97311556 C309.68914877 92.50233674 310.91313123 183.03273038 311.62723267 273.56901705 C311.63797036 274.92672148 311.64870813 276.28442591 311.65944599 277.64213034 C311.88460561 306.15529001 312.09378011 334.66854902 312.28454614 363.18195931 C312.38042436 377.51013784 312.47936657 391.83829394 312.58120892 406.16643134 C312.59655142 408.32746314 312.61180638 410.48849555 312.62705769 412.649528 C312.86203533 445.83560542 313.16177401 479.0194989 313.65398133 512.20285189 C313.66452253 512.91359887 313.67506374 513.62434584 313.68592438 514.3566306 C313.85622779 525.81232462 314.03208461 537.26793341 314.20868083 548.72353188 C314.71870368 581.81365785 315.18606135 614.90206094 315.38457501 647.99573386 C315.38869721 648.6796239 315.39281941 649.36351393 315.39706653 650.06812791 C315.48693586 665.09945351 315.55579054 680.13079985 315.6048866 695.1623116 C315.62502476 701.21510322 315.64817342 707.26788264 315.67235863 713.32065928 C315.67493252 713.98301275 315.67750641 714.64536622 315.6801583 715.32779101 C315.76647723 737.14634689 316.11906836 758.95177738 316.59287753 780.76505624 C317.05104296 802.12680109 317.21820552 823.47621261 317.10641698 844.84267887 C317.053654 856.38747423 317.11740774 867.89864838 317.54563248 879.43652308 C319.10357204 923.08547422 317.34482323 957.6757984 286.76821652 991.21727904 C281.72543927 996.60013781 276.50666386 1001.78671429 271.20181763 1006.91029513 C270.34986575 1007.73583884 269.49791386 1008.56138255 268.62014525 1009.41194273 C243.06204809 1033.97552194 219.78298356 1050.99536406 183.13651383 1050.63265693 C182.10836941 1050.57827233 181.080225 1050.52388772 180.02092469 1050.4678551 C173.69175474 1050.20121386 167.40417871 1050.23316376 161.07150567 1050.34954548 C148.24312604 1050.58530004 135.46998118 1050.38638912 122.64895904 1049.94094519 C112.4259936 1049.59663512 102.2702063 1049.65655284 92.04845154 1050.01168978 C78.58504784 1050.47929957 65.18046604 1050.52447349 51.71086609 1050.2769295 C46.69651562 1050.19400836 41.72301441 1050.25677573 36.71269715 1050.4678551 C-0.51388733 1051.80953846 -27.00874505 1035.09390281 -53.71488418 1010.63300247 C-84.37676156 981.8522656 -98.74385112 953.89170551 -100.2724997 911.73797084 C-100.77361447 893.6834264 -100.36138823 875.68877581 -99.60565342 857.64839498 C-99.20980047 848.03825666 -99.0110457 838.43785617 -98.9387368 828.82001841 C-98.93344384 828.12797893 -98.92815089 827.43593945 -98.92269755 826.72292908 C-98.89663062 823.20558951 -98.87342976 819.68823721 -98.8513281 816.17087076 C-98.69136351 791.5235292 -98.17789107 766.89582816 -97.44202697 742.25949252 C-96.72991561 718.39008268 -96.18700455 694.5261295 -95.86292541 670.64816439 C-95.8527979 669.90678178 -95.84267038 669.16539917 -95.83223597 668.40155043 C-95.73067301 660.95341003 -95.63244086 653.50522877 -95.53664381 646.05701211 C-95.34157659 630.89642478 -95.1243412 615.7361821 -94.89361084 600.57609713 C-94.88303951 599.87970753 -94.87246818 599.18331793 -94.86157651 598.46582561 C-94.15810853 552.291502 -92.88804541 506.13653465 -91.63318908 459.97311556 C-32.56318908 459.97311556 26.50681092 459.97311556 87.36681092 459.97311556 C87.36681092 631.24311556 87.36681092 802.51311556 87.36681092 978.97311556 C101.22681092 978.97311556 115.08681092 978.97311556 129.36681092 978.97311556 C129.36681092 676.69311556 129.36681092 374.41311556 129.36681092 62.97311556 C115.50681092 62.97311556 101.64681092 62.97311556 87.36681092 62.97311556 C87.36681092 169.23311556 87.36681092 275.49311556 87.36681092 384.97311556 C28.29681092 384.97311556 -30.77318908 384.97311556 -91.63318908 384.97311556 C-93.08511765 305.36799503 -93.08511765 305.36799503 -93.39100158 271.91452181 C-93.46146579 264.2597084 -93.53419765 256.60492166 -93.61072814 248.95016634 C-93.6202231 247.9910053 -93.62971806 247.03184426 -93.63950074 246.04361773 C-93.79532325 230.63562521 -94.07868197 215.23255829 -94.41068974 199.82746944 C-94.74952302 183.97127028 -94.94774794 168.11761545 -95.02037489 152.2579459 C-95.06499734 143.36653662 -95.17149621 134.4854017 -95.43947113 125.59768069 C-97.21174604 65.09651541 -97.21174604 65.09651541 -81.31588709 46.95181072 C-74.79730192 40.12796294 -67.57541012 34.21263247 -59.79028976 28.89543688 C-53.85584898 24.81477368 -48.59864794 20.45134351 -44.29507053 14.63862097 C-32.27145958 -0.91872064 -18.10411847 -0.4066403 0 0 Z " fill="#AD88C6" transform="translate(2427.6331890821457,125.02688443660736)"/>
<path d="M0 0 C9.39253004 0.21003005 18.7837601 0.25109723 28.17830524 0.28408217 C44.92445869 0.34721777 61.66646541 0.53926453 78.41037304 0.81485792 C94.65430575 1.08194039 110.89710353 1.28676634 127.14279492 1.40958448 C128.14776744 1.41720346 129.15273996 1.42482244 130.18816619 1.4326723 C135.23091091 1.47052433 140.27366354 1.50717044 145.31642146 1.5432175 C187.00922996 1.84280368 228.69747699 2.3526368 270.38620312 3.00260206 C271.70854097 93.53182324 272.93252343 184.06221688 273.64662487 274.59850355 C273.65736257 275.95620798 273.66810034 277.31391241 273.67883819 278.67161683 C273.90399781 307.1847765 274.11317232 335.69803552 274.30393834 364.2114458 C274.39981657 378.53962434 274.49875878 392.86778044 274.60060112 407.19591783 C274.61594362 409.35694963 274.63119858 411.51798205 274.6464499 413.67901449 C274.88142754 446.86509192 275.18116621 480.04898539 275.67337353 513.23233839 C275.68391474 513.94308536 275.69445594 514.65383233 275.70531658 515.3861171 C275.87561999 526.84181112 276.05147682 538.29741991 276.22807304 549.75301837 C276.73809588 582.84314435 277.20545356 615.93154743 277.40396721 649.02522035 C277.40808941 649.70911039 277.41221161 650.39300043 277.41645873 651.09761441 C277.50632806 666.12894001 277.57518275 681.16028634 277.62427881 696.19179809 C277.64441696 702.24458971 277.66756562 708.29736914 277.69175084 714.35014578 C277.69432473 715.01249925 277.69689862 715.67485272 277.69955051 716.35727751 C277.78586944 738.17583338 278.13846056 759.98126387 278.61226974 781.79454274 C279.07043516 803.15628758 279.23759772 824.50569911 279.12580918 845.87216536 C279.07304621 857.41696073 279.13679994 868.92813487 279.56502469 880.46600958 C281.12296424 924.11496071 279.36421543 958.70528489 248.78760872 992.24676553 C243.74483148 997.6296243 238.52605606 1002.81620079 233.22120984 1007.93978162 C232.36925795 1008.76532533 231.51730607 1009.59086904 230.63953746 1010.44142923 C205.08144029 1035.00500844 181.80237576 1052.02485055 145.15590603 1051.66214343 C144.12776162 1051.60775882 143.0996172 1051.55337422 142.04031689 1051.49734159 C135.71114695 1051.23070035 129.42357091 1051.26265026 123.09089787 1051.37903197 C110.26251825 1051.61478653 97.48937338 1051.41587562 84.66835124 1050.97043169 C74.4453858 1050.62612161 64.2895985 1050.68603934 54.06784375 1051.04117628 C40.60444004 1051.50878607 27.19985825 1051.55395999 13.7302583 1051.30641599 C8.71590783 1051.22349485 3.74240661 1051.28626222 -1.26791065 1051.49734159 C-38.49449513 1052.83902496 -64.98935285 1036.1233893 -91.69549197 1011.66248897 C-122.35736935 982.8817521 -136.72445892 954.921192 -138.25310749 912.76745734 C-138.75422227 894.71291289 -138.34199603 876.7182623 -137.58626122 858.67788147 C-137.19040827 849.06774316 -136.9916535 839.46734266 -136.91934459 829.84950491 C-136.91405164 829.15746543 -136.90875869 828.46542595 -136.90330534 827.75241558 C-136.87723842 824.23507601 -136.85403756 820.71772371 -136.83193589 817.20035725 C-136.67197131 792.55301569 -136.15849887 767.92531465 -135.42263477 743.28897901 C-134.71052341 719.41956917 -134.16761235 695.555616 -133.84353321 671.67765089 C-133.83340569 670.93626828 -133.82327818 670.19488567 -133.81284377 669.43103692 C-133.71128081 661.98289653 -133.61304866 654.53471526 -133.5172516 647.0864986 C-133.32218439 631.92591128 -133.104949 616.76566859 -132.87421863 601.60558363 C-132.8636473 600.90919403 -132.85307598 600.21280442 -132.84218431 599.49531211 C-132.13871632 553.3209885 -130.86865321 507.16602114 -129.61379688 461.00260206 C-70.54379688 461.00260206 -11.47379688 461.00260206 49.38620312 461.00260206 C49.38620312 632.27260206 49.38620312 803.54260206 49.38620312 980.00260206 C63.24620312 980.00260206 77.10620312 980.00260206 91.38620312 980.00260206 C91.38620312 677.72260206 91.38620312 375.44260206 91.38620312 64.00260206 C77.52620312 64.00260206 63.66620312 64.00260206 49.38620312 64.00260206 C49.38620312 170.26260206 49.38620312 276.52260206 49.38620312 386.00260206 C-9.68379688 386.00260206 -68.75379688 386.00260206 -129.61379688 386.00260206 C-130.58174926 305.91350534 -130.58174926 305.91350534 -130.78567188 272.35807081 C-130.83265359 264.67885911 -130.88114309 256.99965919 -130.93215625 249.32047315 C-130.93848622 248.35814712 -130.94481619 247.39582109 -130.95133798 246.40433367 C-131.05543658 230.91211769 -131.24447952 215.42206179 -131.46546398 199.93112238 C-131.6907159 184.00700671 -131.82337547 168.0840136 -131.87192075 152.15837045 C-131.90469159 142.34717525 -132.00775111 132.5420832 -132.20379208 122.73276987 C-132.33167869 115.98578255 -132.36878097 109.24190087 -132.33782994 102.49379255 C-132.32259748 98.61029167 -132.34413405 94.73735768 -132.47472828 90.85579153 C-132.919046 76.9656326 -132.60180367 64.92173105 -122.82325741 54.22260519 C-116.84462116 48.04135041 -110.24429164 42.54076728 -103.41754406 37.3244433 C-99.57644141 34.25132864 -96.99971661 31.17198259 -94.39560296 26.97426834 C-73.1562971 -6.63960162 -35.02989853 -0.80501418 0 0 Z " fill="#AD88C6" transform="translate(3348.613796878606,123.99739794060588)"/>
<path d="M0 0 C14.52 0 29.04 0 44 0 C44 106.26 44 212.52 44 322 C57.86 322 71.72 322 86 322 C86 215.74 86 109.48 86 0 C145.07 0 204.14 0 265 0 C266.55007019 110.35725503 266.55007019 110.35725503 266.97505188 144.54460144 C266.99784392 146.37346103 266.99784392 146.37346103 267.0210964 148.23926727 C267.53213258 189.3573908 267.93608949 230.47591968 268.26042175 271.59590149 C268.27115944 272.95360592 268.28189722 274.31131035 268.29263507 275.66901477 C268.51779469 304.18217444 268.7269692 332.69543346 268.91773522 361.20884374 C269.01361345 375.53702228 269.11255566 389.86517838 269.214398 404.19331577 C269.2297405 406.35434758 269.24499546 408.51537999 269.26024678 410.67641243 C269.49522442 443.86248986 269.79496309 477.04638333 270.28717041 510.22973633 C270.29771162 510.9404833 270.30825282 511.65123028 270.31911346 512.38351504 C270.48941687 523.83920906 270.6652737 535.29481785 270.84186991 546.75041631 C271.35189276 579.84054229 271.81925043 612.92894537 272.01776409 646.02261829 C272.02188629 646.70650833 272.02600849 647.39039837 272.03025561 648.09501235 C272.12012494 663.12633795 272.18897963 678.15768428 272.23807568 693.18919603 C272.25821384 699.24198765 272.2813625 705.29476708 272.30554771 711.34754372 C272.30812161 712.00989719 272.3106955 712.67225066 272.31334739 713.35467545 C272.39966631 735.17323132 272.75225744 756.97866182 273.22606661 778.79194068 C273.68423204 800.15368553 273.8513946 821.50309705 273.73960606 842.8695633 C273.68684308 854.41435867 273.75059682 865.92553282 274.17882156 877.46340752 C275.73676112 921.11235865 273.97801231 955.70268284 243.4014056 989.24416347 C238.35862836 994.62702224 233.13985294 999.81359873 227.83500671 1004.93717957 C226.98305483 1005.76272328 226.13110295 1006.58826699 225.25333434 1007.43882717 C199.69523717 1032.00240638 176.41617264 1049.02224849 139.76970291 1048.65954137 C138.74155849 1048.60515676 137.71341408 1048.55077216 136.65411377 1048.49473953 C130.32494383 1048.22809829 124.03736779 1048.2600482 117.70469475 1048.37642992 C104.87631513 1048.61218447 92.10317026 1048.41327356 79.28214812 1047.96782963 C69.05918268 1047.62351955 58.90339538 1047.68343728 48.68164062 1048.03857422 C35.21823692 1048.50618401 21.81365513 1048.55135793 8.34405518 1048.30381393 C3.3297047 1048.2208928 -1.64379651 1048.28366016 -6.65411377 1048.49473953 C-43.88069825 1049.8364229 -70.37555597 1033.12078724 -97.08169509 1008.65988691 C-127.74357247 979.87915004 -142.11066204 951.91858994 -143.63931061 909.76485528 C-144.14042539 891.71031083 -143.72819915 873.71566024 -142.97246434 855.67527941 C-142.57661139 846.0651411 -142.37785662 836.4647406 -142.30554771 826.84690285 C-142.30025476 826.15486337 -142.29496181 825.46282389 -142.28950847 824.74981352 C-142.26344154 821.23247395 -142.24024068 817.71512165 -142.21813902 814.1977552 C-142.05817443 789.55041363 -141.54470199 764.92271259 -140.80883789 740.28637695 C-140.09672653 716.41696711 -139.55381547 692.55301394 -139.22973633 668.67504883 C-139.21960881 667.93366622 -139.2094813 667.19228361 -139.19904689 666.42843486 C-139.09748393 658.98029447 -138.99925178 651.5321132 -138.90345472 644.08389654 C-138.70838751 628.92330922 -138.49115212 613.76306653 -138.26042175 598.60298157 C-138.24985043 597.90659197 -138.2392791 597.21020236 -138.22838743 596.49271005 C-137.52491945 550.31838644 -136.25485633 504.16341908 -135 458 C-75.93 458 -16.86 458 44 458 C44 629.27 44 800.54 44 977 C57.86 977 71.72 977 86 977 C86 780.98 86 584.96 86 383 C2.18 383 -81.64 383 -168 383 C-162.38093465 368.39043009 -162.38093465 368.39043009 -160.16015625 363.51171875 C-159.66233643 362.41118164 -159.1645166 361.31064453 -158.65161133 360.17675781 C-158.12720459 359.02530273 -157.60279785 357.87384766 -157.0625 356.6875 C-155.89860661 354.1143776 -154.73810865 351.5397307 -153.578125 348.96484375 C-153.28146439 348.30686798 -152.98480377 347.64889221 -152.67915344 346.97097778 C-149.50485278 339.9200504 -146.40400044 332.83753495 -143.3125 325.75 C-142.73642512 324.42992483 -142.16033442 323.10985656 -141.58422852 321.78979492 C-140.68571993 319.73093429 -139.78723031 317.67206547 -138.88893127 315.6131134 C-135.32628365 307.45045745 -131.74321009 299.29677633 -128.16098022 291.1427002 C-122.43085468 278.09940834 -116.70667456 265.05356969 -111 252 C-105.76067448 240.01613996 -100.50846566 228.03797359 -95.25 216.0625 C-94.87199249 215.20158752 -94.49398499 214.34067505 -94.10452271 213.45367432 C-90.26470614 204.70867743 -86.423888 195.96412142 -82.58120728 187.22038269 C-74.86300215 169.65752818 -67.15860964 152.08893479 -59.5 134.5 C-51.46595533 116.0488327 -43.3805007 97.62047424 -35.28369141 79.19677734 C-31.81783947 71.31031532 -28.35409574 63.42292775 -24.89080811 55.53533936 C-23.76293609 52.96695797 -22.63466647 50.39875153 -21.50634766 47.83056641 C-17.9238937 39.67450238 -14.34957213 31.51502914 -10.79296875 23.34765625 C-10.13381372 21.83535709 -9.47463466 20.32306841 -8.81542969 18.81079102 C-7.59080118 16.00121274 -6.3692352 13.19033034 -5.14941406 10.37866211 C-4.60883829 9.13780826 -4.06815502 7.89700123 -3.52734375 6.65625 C-3.06062256 5.58181641 -2.59390137 4.50738281 -2.11303711 3.40039062 C-1 1 -1 1 0 0 Z " fill="#AD88C6" transform="translate(2029,127)"/>
<path d="M0 0 C26.29605176 -1.78613894 52.54072752 -3.21036642 78.88275337 -4.04134941 C91.12437349 -4.43808599 103.32436447 -4.9762694 115.53955078 -5.88427734 C163.52378464 -9.36195756 213.50594777 -9.69644427 252.5172348 22.57472992 C284.27709439 50.25141903 293.36016738 82.49964182 296.20743838 122.94024029 C299.02582769 166.17581199 297.35600995 209.61882912 295.61818135 252.86328518 C294.99456615 268.55057131 294.57245497 284.23421734 294.28466797 299.93115234 C294.26417554 301.04571823 294.2436831 302.16028412 294.22256969 303.30862473 C294.12073282 308.903416 294.0221742 314.49825932 293.92524123 320.0931375 C293.12418968 366.08678124 291.69127059 412.02879681 290 458 C326.3 458 362.6 458 400 458 C402.55017892 551.81550319 402.55017892 551.81550319 403.26042175 598.60298157 C403.27105215 599.30144916 403.28168254 599.99991675 403.29263507 600.71955002 C403.52331743 615.91468683 403.73658807 631.11002169 403.93203037 646.30565159 C404.02803961 653.76216108 404.12787917 661.21861709 404.22973633 668.67504883 C404.244839 669.78780497 404.244839 669.78780497 404.26024678 670.92304103 C404.58594642 694.78894084 405.16229325 718.64040874 405.874886 742.49763225 C406.60845745 767.10307728 407.07677636 791.70061498 407.23145424 816.31680426 C407.2536283 819.82685681 407.27870189 823.33688308 407.30554771 826.84690285 C407.31333507 827.88270253 407.31333507 827.88270253 407.32127975 828.93942745 C407.3998606 838.53327172 407.6554442 848.107596 408.05699554 857.6931565 C410.22134707 909.40188241 411.73849375 955.89828563 374.88605118 995.99851227 C349.89134631 1022.18533212 320.13911409 1047.33981374 282.44879103 1048.69640088 C277.72044284 1048.73412552 273.0124423 1048.5729417 268.2887013 1048.3759954 C263.19227194 1048.21686002 258.11143328 1048.32073987 253.01439804 1048.41710025 C240.24452715 1048.65825684 227.53608655 1048.46409688 214.77418321 1048.02355615 C204.6026238 1047.68339612 194.49971298 1047.75019485 184.32983398 1048.11401367 C172.24641586 1048.54616297 160.2114604 1048.69152276 148.12036079 1048.47051841 C141.81882811 1048.35545321 135.5641052 1048.32596349 129.26642036 1048.60046959 C91.84591771 1050.00067976 65.25283004 1032.74772673 38.46767874 1008.18198566 C7.63922719 979.21859523 -7.19563679 951.1927023 -8.75190331 908.73700084 C-9.25739615 890.71955581 -8.8419909 872.76883238 -8.076002 854.76528489 C-7.67490034 845.17756106 -7.47365778 835.59985468 -7.40042496 826.00420761 C-7.39506327 825.31362322 -7.38970157 824.62303883 -7.38417741 823.91152764 C-7.35777169 820.40153744 -7.33426962 816.89153416 -7.31188108 813.38151632 C-7.14986752 788.7898952 -6.62981826 764.21848174 -5.88427734 739.63818359 C-5.16283447 715.82414168 -4.6129174 692.01571535 -4.28466797 668.19287109 C-4.26927941 667.08323555 -4.26927941 667.08323555 -4.25357996 665.95118313 C-4.1506974 658.51932688 -4.05118959 651.08742858 -3.95414894 643.65549387 C-3.75655204 628.52824807 -3.53649544 613.40135676 -3.30276489 598.27462769 C-3.29205628 597.57978086 -3.28134766 596.88493404 -3.27031454 596.16903125 C-2.5577921 550.10230854 -1.27122641 504.05550487 0 458 C36.63 458 73.26 458 111 458 C111 327.32 111 196.64 111 62 C74.37 62 37.74 62 0 62 C0 41.54 0 21.08 0 0 Z M180 520 C180 670.81 180 821.62 180 977 C193.53 977 207.06 977 221 977 C221 826.19 221 675.38 221 520 C207.47 520 193.94 520 180 520 Z " fill="#AD88C6" transform="translate(2777,127)"/>
<path d="M0 0 C64.68 0 129.36 0 196 0 C200.62 10.56 205.24 21.12 210 32 C212.57194951 37.86430294 215.14390345 43.72857981 217.71936035 49.59133911 C218.81671004 52.08935957 219.91375212 54.58751496 221.01074219 57.08569336 C223.34025313 62.39056839 225.67009543 67.69529784 228 73 C231.08360305 80.0207149 234.16703704 87.04150399 237.25 94.0625 C237.62733276 94.92181122 238.00466553 95.78112244 238.39343262 96.66647339 C243.55125671 108.41335822 248.69974607 120.16427953 253.83911133 131.91925049 C261.10241892 148.53109371 268.39488655 165.13012854 275.68554688 181.72998047 C279.83143051 191.16982182 283.97549384 200.61046245 288.11987305 210.05096436 C289.241362 212.60559596 290.36286351 215.16022204 291.484375 217.71484375 C291.85481934 218.55865601 292.22526367 219.40246826 292.60693359 220.27185059 C294.89677485 225.48757251 297.18706078 230.70309895 299.47766113 235.91848755 C306.9421206 252.91409883 314.40305454 269.91119073 321.83911133 286.91925049 C326.79910088 298.26319647 331.77218233 309.60136655 336.75 320.9375 C337.1270105 321.79608612 337.504021 322.65467224 337.89245605 323.53927612 C340.5946757 329.69298032 343.2972947 335.84650909 346 342 C363.60926783 382.09259524 363.60926783 382.09259524 371.08044434 399.15084839 C371.68572579 400.53257826 372.29126896 401.91419351 372.89709473 403.29568481 C373.72383897 405.18115954 374.54956206 407.0670781 375.375 408.953125 C375.83648438 410.00661133 376.29796875 411.06009766 376.7734375 412.14550781 C377.17820312 413.08749023 377.58296875 414.02947266 378 415 C378.345786 415.70136015 378.691572 416.4027203 379.04783636 417.12533379 C380.34932866 421.05465411 380.37835887 424.73280385 380.46118069 428.84915161 C380.48655731 429.74526207 380.51193392 430.64137252 380.53807953 431.56463784 C380.62091343 434.5834521 380.68993889 437.60241554 380.75865173 440.62158203 C380.81464215 442.80255279 380.87126315 444.98350743 380.92846209 447.16444683 C381.08279019 453.17252422 381.2235067 459.18085246 381.36087787 465.18933892 C381.44955578 469.03300299 381.54170178 472.87656978 381.63480568 476.72012901 C382.4002497 508.45699563 383.00486473 540.19522378 383.44715881 571.93823242 C383.45764029 572.68989775 383.46812177 573.44156308 383.47892087 574.21600614 C383.71704559 591.35673506 383.93245506 608.49766844 384.12654763 625.63895031 C384.20865716 632.85519665 384.29401646 640.07140395 384.38061523 647.28759766 C384.39486925 648.48343818 384.39486925 648.48343818 384.40941122 649.7034371 C384.71726099 675.37855191 385.2806395 701.03990904 385.98395215 726.70698887 C386.70808807 753.18331231 387.16856108 779.65212495 387.31363825 806.13823612 C387.3344131 809.91173421 387.35805154 813.68520937 387.38342476 817.4586792 C387.38832333 818.20103954 387.3932219 818.94339987 387.39826891 819.70825598 C387.47278095 830.03169166 387.72381717 840.33722831 388.11932795 850.65316942 C392.15210876 955.94305046 392.15210876 955.94305046 354.89419651 996.54923439 C329.98014406 1022.63171378 299.77759012 1047.36701073 262.28891474 1048.67433274 C257.53560242 1048.70725766 252.80241676 1048.54311632 248.05384064 1048.34306383 C242.93253716 1048.18088266 237.82673302 1048.28229722 232.70469475 1048.37642992 C219.87631513 1048.61218447 207.10317026 1048.41327356 194.28214812 1047.96782963 C184.05918268 1047.62351955 173.90339538 1047.68343728 163.68164062 1048.03857422 C150.21823692 1048.50618401 136.81365513 1048.55135793 123.34405518 1048.30381393 C118.3297047 1048.2208928 113.35620349 1048.28366016 108.34588623 1048.49473953 C71.11930175 1049.8364229 44.62444403 1033.12078724 17.91830491 1008.65988691 C-12.74357247 979.87915004 -27.11066204 951.91858994 -28.63931061 909.76485528 C-29.14042539 891.71031083 -28.72819915 873.71566024 -27.97246434 855.67527941 C-27.57661139 846.0651411 -27.37785662 836.4647406 -27.30554771 826.84690285 C-27.30025476 826.15486337 -27.29496181 825.46282389 -27.28950847 824.74981352 C-27.26344154 821.23247395 -27.24024068 817.71512165 -27.21813902 814.1977552 C-27.05817443 789.55041363 -26.54470199 764.92271259 -25.80883789 740.28637695 C-25.09672653 716.41696711 -24.55381547 692.55301394 -24.22973633 668.67504883 C-24.21960881 667.93366622 -24.2094813 667.19228361 -24.19904689 666.42843486 C-24.09748393 658.98029447 -23.99925178 651.5321132 -23.90345472 644.08389654 C-23.70838751 628.92330922 -23.49115212 613.76306653 -23.26042175 598.60298157 C-23.24985043 597.90659197 -23.2392791 597.21020236 -23.22838743 596.49271005 C-22.52491945 550.31838644 -21.25485633 504.16341908 -20 458 C27.19 458 74.38 458 123 458 C128.16813369 468.33626738 133.0259797 478.60880009 137.47994328 489.24637872 C140.16583038 495.63210162 142.91190469 501.93961925 146.08061391 508.10282272 C158.55461814 532.38849215 161.30680013 553.258986 160.85704994 580.32425749 C160.78654639 585.67262705 160.81143302 591.02078669 160.82348633 596.36949158 C160.83178962 605.58970467 160.78251614 614.80807637 160.69168091 624.02782631 C160.56044631 637.35693406 160.51985731 650.68517108 160.49987304 664.01485469 C160.46504027 685.65208804 160.35907241 707.28834447 160.20703125 728.92504883 C160.05968168 749.91621081 159.94666663 770.90710541 159.87890625 791.89868164 C159.87470267 793.19726493 159.8704991 794.49584823 159.86616814 795.83378253 C159.84528429 802.34979061 159.82506574 808.86580055 159.80517769 815.38181174 C159.63988873 869.25525176 159.35412224 923.1274977 159 977 C172.86 977 186.72 977 201 977 C201.15845687 928.10954665 201.30493556 879.21914718 201.34913635 830.32844543 C201.34979747 829.60303339 201.35045859 828.87762134 201.35113974 828.1302271 C201.36540132 812.35911001 201.37631835 796.58799225 201.38379767 780.81687052 C201.38748669 773.08095693 201.39191355 765.34504383 201.39672852 757.60913086 C201.39719506 756.83937891 201.3976616 756.06962696 201.39814228 755.2765492 C201.41356663 730.39705964 201.47756436 705.51798798 201.56717696 680.63866425 C201.65912706 655.03828122 201.70122415 629.43827675 201.68198875 603.83772465 C201.67928499 600.20881101 201.67714188 596.57989724 201.67534065 592.95098305 C201.67496885 592.2368709 201.67459704 591.52275876 201.67421397 590.78700685 C201.66970067 579.36407631 201.71661176 567.94192821 201.78352317 556.51921715 C201.84992523 544.99132866 201.8591278 533.46462467 201.81635087 521.93659636 C201.79484383 515.70768346 201.79642714 509.48127824 201.86545753 503.25265503 C202.15974221 475.07468238 200.29839784 452.44105836 186.78048527 427.37120211 C184.24397385 422.5685268 182.12579969 417.61593539 180.01171875 412.6171875 C179.29151341 410.98345625 178.56858027 409.35092159 177.84155273 407.72021484 C175.49890839 402.45103087 173.16320592 397.17878959 170.828125 391.90625 C170.22429237 390.54359512 170.22429237 390.54359512 169.60826111 389.15341187 C165.36295617 379.57013646 161.14790747 369.97364781 156.9375 360.375 C156.56829437 359.53346375 156.19908875 358.69192749 155.81869507 357.82489014 C153.95678699 353.5809851 152.09522169 349.33692986 150.23388672 345.09277344 C147.99172056 339.98061008 145.74803997 334.8691124 143.50390625 329.7578125 C143.13245483 328.91178467 142.76100342 328.06575684 142.3782959 327.1940918 C141.25222221 324.62938358 140.12611734 322.06468905 139 319.5 C130.74483075 300.69916855 130.74483075 300.69916855 126.65066528 291.36383057 C118.62529293 273.0648487 110.58168811 254.77418799 102.5 236.5 C94.04388247 217.379158 85.63103094 198.23957636 77.23388672 179.09277344 C73.86641561 171.41490247 70.49551562 163.73853683 67.12490845 156.06204224 C66.0027047 153.5061601 64.88060527 150.9502322 63.75854492 148.39428711 C60.34700058 140.62313188 56.93518224 132.8520973 53.52233887 125.08151245 C46.06156681 108.09429694 38.60382047 91.10581645 31.17196655 74.10592651 C24.86615626 59.68253682 18.53729361 45.26927609 12.20516968 30.85742188 C11.49466199 29.23925256 10.78486949 27.62076901 10.07583618 26.00195312 C8.36854209 22.10519778 6.65083252 18.21378413 4.90966797 14.33203125 C4.58143539 13.59545288 4.25320282 12.85887451 3.9150238 12.09997559 C3.29881208 10.71783103 2.67834687 9.33757197 2.0528717 7.95959473 C0.78929512 5.11467829 0 3.15218301 0 0 Z " fill="#AD88C6" transform="translate(589,127)"/>
<path d="M0 0 C5.09642935 0.15913538 10.17726802 0.05525553 15.27430326 -0.04110485 C28.04417415 -0.28226145 40.75261474 -0.08810148 53.51451809 0.35243925 C63.68607749 0.69259928 73.78898832 0.62580055 83.95886731 0.26198173 C96.04228543 -0.17016757 108.07724089 -0.31552737 120.1683405 -0.09452301 C126.46987319 0.02054218 132.7245961 0.0500319 139.02228093 -0.22447419 C176.44278359 -1.62468436 203.03587125 15.62826867 229.82102256 40.19400974 C260.6494741 69.15740017 275.48433809 97.1832931 277.04060461 139.63899456 C277.54609744 157.65643959 277.13069219 175.60716302 276.36470329 193.61071051 C275.96360164 203.19843433 275.76235907 212.77614072 275.68912625 222.37178779 C275.68376456 223.06237218 275.67840287 223.75295657 275.6728787 224.46446776 C275.64647299 227.97445795 275.62297092 231.48446124 275.60058238 234.99447908 C275.43856882 259.5861002 274.91851955 284.15751366 274.17297864 308.7378118 C273.45153576 332.55185372 272.90161869 356.36028004 272.57336926 380.1831243 C272.5579807 381.29275984 272.5579807 381.29275984 272.54228126 382.42481226 C272.43939869 389.85666852 272.33989089 397.28856682 272.24285024 404.72050152 C272.04525334 419.84774733 271.82519674 434.97463864 271.59146619 450.10136771 C271.58075757 450.79621453 271.57004895 451.49106136 271.55901583 452.20696414 C270.84649339 498.27368686 269.55992771 544.32049053 268.2887013 590.3759954 C220.7687013 590.3759954 173.2487013 590.3759954 124.2887013 590.3759954 C95.90817032 526.14637267 95.90817032 526.14637267 91.2887013 515.3759954 C90.76385905 514.28182554 90.76385905 514.28182554 90.22841394 513.16555125 C89.0644292 509.71023918 89.0151669 506.52156285 89.04260564 502.92034793 C89.04029795 502.17507103 89.03799026 501.42979414 89.03561264 500.66193309 C89.03030555 498.15671555 89.0393026 495.65175345 89.04819226 493.14654899 C89.04732034 491.33557054 89.04556961 489.52459233 89.04301393 487.71361548 C89.03853377 482.73099071 89.04655329 477.74845163 89.05657005 472.76583779 C89.06519261 467.39505068 89.06228524 462.02426856 89.0607655 456.65347648 C89.0597159 447.3461496 89.06600043 438.03885073 89.07724118 428.7315309 C89.09348294 415.27464792 89.09870283 401.81777851 89.10121717 388.36088679 C89.10559635 366.52891987 89.11891151 344.69696788 89.13782239 322.86500907 C89.15617541 301.65504889 89.17033474 280.44509277 89.17883801 259.23512626 C89.17936346 257.92813581 89.17988891 256.62114537 89.18043028 255.27454915 C89.18304032 248.71787914 89.18556774 242.1612091 89.18805408 235.60453904 C89.20879354 181.19501362 89.24457489 126.78550645 89.2887013 72.3759954 C75.4287013 72.3759954 61.5687013 72.3759954 47.2887013 72.3759954 C47.04542878 121.11110182 46.8183555 169.84612565 46.72784925 218.58177543 C46.72649784 219.30566885 46.72514644 220.02956227 46.72375408 220.77539186 C46.69451788 236.51605724 46.66975212 252.25672671 46.64957698 267.99740625 C46.63965272 275.71914421 46.62874293 283.44088063 46.61731458 291.16261649 C46.61619424 291.93093009 46.6150739 292.69924369 46.61391961 293.49083952 C46.57729238 318.29363124 46.47587335 343.09563141 46.34003823 367.89806172 C46.20053493 393.43385484 46.12802493 418.96901359 46.13713759 444.50520586 C46.13840079 448.13059148 46.13891584 451.75597685 46.13897443 455.38136268 C46.13900912 456.09473317 46.13904381 456.80810366 46.13907955 457.54309144 C46.13772373 468.92323897 46.06790957 480.3019344 45.97101796 491.68162587 C45.87458559 503.18528502 45.85536331 514.68687782 45.90484354 526.19088389 C45.9294182 532.39965059 45.92399914 538.60391877 45.82721639 544.81208014 C45.3457333 577.5431395 50.76489102 602.05532827 65.71615481 631.23593855 C69.62056067 638.91683391 72.97350149 646.84442543 76.36767069 654.76020576 C78.1743645 658.95432381 80.02052043 663.13106582 81.86292005 667.30958915 C82.60054939 668.98643851 83.33803605 670.66335066 84.07532239 672.34035087 C84.44026807 673.17040641 84.80521375 674.00046195 85.18121839 674.85567069 C87.03816701 679.08157202 88.89196898 683.3088524 90.74573255 687.53615165 C98.40211647 704.99369742 106.07862498 722.44209025 113.7887013 739.8759954 C122.24481883 758.9968374 130.65767036 778.13641904 139.05481458 797.28322196 C142.42192352 804.96026717 145.79245325 812.63581062 149.16269422 820.31148124 C151.03816709 824.58292573 152.91342333 828.85446533 154.7887013 833.1259954 C155.53870026 834.83432919 156.28870026 836.54266252 157.0387013 838.2509954 C197.53870128 930.50099535 197.53870128 930.50099535 198.66368604 933.06346488 C199.41373274 934.77190177 200.1637836 936.48033682 200.91383862 938.18877006 C202.78815819 942.45800408 204.66240559 946.72726976 206.53650403 950.99660087 C210.2973538 959.56387432 214.05942274 968.13060904 217.82385755 976.6963079 C221.18289428 984.33984039 224.53899434 991.98465534 227.89172864 999.6309545 C229.83632334 1004.06575747 231.78226541 1008.4999611 233.73059583 1012.9331243 C235.74499631 1017.51709242 237.75566484 1022.10268102 239.76376843 1026.68941092 C240.52593015 1028.42862267 241.28936351 1030.16727774 242.05411267 1031.90535331 C243.10707067 1034.29903927 244.15547832 1036.69466708 245.2027638 1039.09083915 C245.51742093 1039.80331306 245.83207807 1040.51578696 246.15627027 1041.24985099 C248.2887013 1046.14781349 248.2887013 1046.14781349 248.2887013 1048.3759954 C183.6087013 1048.3759954 118.9287013 1048.3759954 52.2887013 1048.3759954 C44.34864112 1030.79443357 36.44197135 1013.24120981 28.81604505 995.52833915 C24.7869114 986.18811867 20.69398262 976.87595781 16.6012013 967.5634954 C16.22145154 966.6992797 15.84170178 965.835064 15.45044446 964.94465995 C13.5071363 960.5223369 11.56334113 956.10022817 9.6192677 951.67824149 C6.21281104 943.92925015 2.81086522 936.17827872 -0.5913341 928.42741752 C-2.46446259 924.16019206 -4.3378964 919.89310065 -6.2112987 915.6259954 C-6.96130016 913.9176627 -7.71130016 912.20932937 -8.4612987 910.5009954 C-8.8325487 909.6553704 -9.2037987 908.8097454 -9.5862987 907.9384954 C-48.96129862 818.25099559 -48.96129862 818.25099559 -50.08623767 815.68863273 C-50.83643946 813.9798409 -51.58664291 812.2710498 -52.33684802 810.56225944 C-54.20877432 806.29844705 -56.08067194 802.03462207 -57.95250964 797.77077079 C-61.36416029 789.99946374 -64.77604338 782.22825909 -68.18895984 774.45750785 C-75.65311713 757.46258458 -83.11458872 740.46654298 -90.54940295 723.45875907 C-94.01964897 715.52058231 -97.49603012 707.58513892 -100.98082995 699.65333915 C-101.35617877 698.7989022 -101.73152759 697.94446525 -102.11825061 697.06413627 C-105.30198258 689.81299382 -105.30198258 689.81299382 -108.4957341 682.56626356 C-109.21582533 680.9199759 -109.92535116 679.26901077 -110.62228167 677.61278546 C-112.79626006 672.5045509 -115.12135758 667.53885325 -117.72558673 662.63921636 C-132.09433163 635.40054601 -134.48893567 610.60021967 -134.8131609 580.15588236 C-134.8906954 574.35651495 -135.04558713 568.55941962 -135.19459751 562.7615223 C-135.58704598 547.28170116 -135.81022089 531.8009767 -135.99722858 516.31751053 C-136.05950318 511.17249286 -136.1275532 506.02757816 -136.19921613 500.88268304 C-136.58271646 473.30863783 -136.91978867 445.73455124 -137.0970695 418.15833449 C-137.13857795 411.80428878 -137.18067793 405.45024719 -137.22350574 399.09621024 C-137.23139481 397.91255465 -137.23139481 397.91255465 -137.23944325 396.70498683 C-137.41140437 371.20767403 -137.87637691 345.72724089 -138.513247 320.23760058 C-139.1709931 293.86289627 -139.56921197 267.49703574 -139.64131709 241.11389487 C-139.65159188 237.35778399 -139.66446658 233.6016859 -139.6788013 229.84558845 C-139.6828529 228.73744473 -139.6828529 228.73744473 -139.68698634 227.60691428 C-139.73039982 217.34787831 -139.94455133 207.10539769 -140.29811743 196.85254327 C-143.8859532 92.56092458 -143.8859532 92.56092458 -106.55634856 51.89579272 C-76.58318252 20.51571409 -44.6166515 -1.86019611 0 0 Z " fill="#AD88C6" transform="translate(3792.7112987041473,116.62400460243225)"/>
</svg>
