<svg xmlns="http://www.w3.org/2000/svg" width="20" height="20" fill="none"><path fill="#AD88C6" d="M10.822 2c.9.002 1.357.007 1.752.018l.155.006c.179.006.356.014.57.024.85.04 1.431.174 1.94.372a3.9 3.9 0 0 1 1.418.922c.407.4.722.884.923 1.418.197.51.332 1.09.372 1.942.01.213.017.39.024.57l.004.155c.012.394.017.85.019 1.75v1.645q.005.876-.018 1.75l-.005.156c-.006.18-.014.357-.024.57-.04.851-.176 1.431-.372 1.942a3.9 3.9 0 0 1-.923 1.417c-.4.407-.883.722-1.417.923-.51.197-1.09.332-1.942.372l-.57.024-.155.004c-.394.012-.85.017-1.75.019H9.177a63 63 0 0 1-1.75-.018l-.156-.005-.57-.024c-.85-.04-1.431-.175-1.942-.372a3.9 3.9 0 0 1-1.416-.923 3.9 3.9 0 0 1-.924-1.417c-.197-.51-.332-1.09-.372-1.943l-.024-.57-.004-.154a63 63 0 0 1-.02-1.75V9.176q-.003-.875.018-1.75l.006-.155c.006-.18.014-.357.024-.57.04-.852.174-1.432.372-1.942.2-.535.516-1.018.924-1.418.4-.406.883-.721 1.416-.922.51-.198 1.09-.332 1.943-.372.212-.01.39-.018.57-.024l.154-.005a63 63 0 0 1 1.75-.018zM10 6a4 4 0 1 0 0 8 4 4 0 0 0 0-8m0 1.6a2.4 2.4 0 1 1 0 4.8 2.4 2.4 0 0 1 0-4.8m4.2-2.8a1 1 0 1 0 0 2 1 1 0 0 0 0-2"/></svg>