<svg width="270" height="180" viewBox="0 0 270 180" fill="none" xmlns="http://www.w3.org/2000/svg">
<path d="M212.049 39.6647C211.478 38.7047 210.878 37.7555 210.249 36.8171C201.908 24.4547 187.548 15.9983 173.421 12.1751C167.223 10.5252 160.856 9.59508 154.446 9.4031C112.462 7.9811 95.7404 41.0831 81.866 49.6079C67.9916 58.1327 46.6292 72.7199 48.0692 103.32C49.5092 133.92 71.5484 162.72 114.241 164.52C156.933 166.32 159.781 147.089 183.616 139.971C199.392 135.263 210.616 119.358 216.088 104.663C223.569 84.6287 223.216 58.6115 212.049 39.6647Z" fill="#FF725E"/>
<path opacity="0.7" d="M212.049 39.6647C211.478 38.7047 210.878 37.7555 210.249 36.8171C201.908 24.4547 187.548 15.9983 173.421 12.1751C167.223 10.5252 160.856 9.59508 154.446 9.4031C112.462 7.9811 95.7404 41.0831 81.866 49.6079C67.9916 58.1327 46.6292 72.7199 48.0692 103.32C49.5092 133.92 71.5484 162.72 114.241 164.52C156.933 166.32 159.781 147.089 183.616 139.971C199.392 135.263 210.616 119.358 216.088 104.663C223.569 84.6287 223.216 58.6115 212.049 39.6647Z" fill="white"/>
<path d="M220.243 167.994H61.7492" stroke="#263238" stroke-width="0.5" stroke-linecap="round" stroke-linejoin="round"/>
<g opacity="0.3">
<path d="M131.071 14.5691V146.16H173.817V14.5691H131.071ZM171.664 17.4923V36.9323H153.873V17.4923H171.664ZM151.213 17.4923V36.9323H133.213V17.4923H151.213ZM133.213 39.9959H151.213V59.2667H133.213V39.9959ZM171.664 143.237H133.224V62.5967H171.664V143.237ZM153.873 59.2667V39.9959H171.664V59.2667H153.873Z" stroke="black" stroke-width="0.5" stroke-linecap="round" stroke-linejoin="round"/>
<path d="M173.652 14.5691V146.16H216.394V14.5691H173.652ZM214.245 17.4923V36.9323H196.454V17.4923H214.245ZM193.794 17.4923V36.9323H175.794V17.4923H193.794ZM175.794 39.9959H193.794V59.2667H175.794V39.9959ZM214.245 143.237H175.804V62.5967H214.245V143.237ZM196.454 59.2667V39.9959H214.245V59.2667H196.454Z" stroke="black" stroke-width="0.5" stroke-linecap="round" stroke-linejoin="round"/>
<path d="M162.096 84.4524L151.364 97.8084" stroke="black" stroke-width="0.5" stroke-linecap="round" stroke-linejoin="round"/>
<path d="M164.76 81.1367L163.053 83.2607" stroke="black" stroke-width="0.5" stroke-linecap="round" stroke-linejoin="round"/>
<path d="M139.696 107.546L137.497 110.131" stroke="black" stroke-width="0.5" stroke-linecap="round" stroke-linejoin="round"/>
<path d="M153.949 90.8027L141.342 105.613" stroke="black" stroke-width="0.5" stroke-linecap="round" stroke-linejoin="round"/>
<path d="M205.335 88.531L194.604 101.887" stroke="black" stroke-width="0.5" stroke-linecap="round" stroke-linejoin="round"/>
<path d="M207.999 85.2156L206.293 87.336" stroke="black" stroke-width="0.5" stroke-linecap="round" stroke-linejoin="round"/>
<path d="M182.936 111.625L180.74 114.21" stroke="black" stroke-width="0.5" stroke-linecap="round" stroke-linejoin="round"/>
<path d="M197.188 94.8779L184.581 109.692" stroke="black" stroke-width="0.5" stroke-linecap="round" stroke-linejoin="round"/>
<path d="M210.292 20.5452L205.155 26.9388" stroke="black" stroke-width="0.5" stroke-linecap="round" stroke-linejoin="round"/>
<path d="M211.567 18.9575L210.75 19.9763" stroke="black" stroke-width="0.5" stroke-linecap="round" stroke-linejoin="round"/>
<path d="M199.572 31.6006L198.517 32.8354" stroke="black" stroke-width="0.5" stroke-linecap="round" stroke-linejoin="round"/>
<path d="M206.394 23.5835L200.356 30.6755" stroke="black" stroke-width="0.5" stroke-linecap="round" stroke-linejoin="round"/>
<path d="M190.248 20.5452L185.11 26.9388" stroke="black" stroke-width="0.5" stroke-linecap="round" stroke-linejoin="round"/>
<path d="M191.522 18.9575L190.705 19.9763" stroke="black" stroke-width="0.5" stroke-linecap="round" stroke-linejoin="round"/>
<path d="M179.527 31.6006L178.476 32.8354" stroke="black" stroke-width="0.5" stroke-linecap="round" stroke-linejoin="round"/>
<path d="M186.349 23.5835L180.315 30.6755" stroke="black" stroke-width="0.5" stroke-linecap="round" stroke-linejoin="round"/>
<path d="M190.248 44.4958L185.11 50.8895" stroke="black" stroke-width="0.5" stroke-linecap="round" stroke-linejoin="round"/>
<path d="M191.522 42.9082L190.705 43.927" stroke="black" stroke-width="0.5" stroke-linecap="round" stroke-linejoin="round"/>
<path d="M179.527 55.5515L178.476 56.7863" stroke="black" stroke-width="0.5" stroke-linecap="round" stroke-linejoin="round"/>
<path d="M186.349 47.5342L180.315 54.6262" stroke="black" stroke-width="0.5" stroke-linecap="round" stroke-linejoin="round"/>
<path d="M208.125 44.4958L202.988 50.8895" stroke="black" stroke-width="0.5" stroke-linecap="round" stroke-linejoin="round"/>
<path d="M209.4 42.9082L208.582 43.927" stroke="black" stroke-width="0.5" stroke-linecap="round" stroke-linejoin="round"/>
<path d="M197.404 55.5515L196.353 56.7863" stroke="black" stroke-width="0.5" stroke-linecap="round" stroke-linejoin="round"/>
<path d="M204.226 47.5342L198.193 54.6262" stroke="black" stroke-width="0.5" stroke-linecap="round" stroke-linejoin="round"/>
<path d="M168.036 20.5452L162.898 26.9388" stroke="black" stroke-width="0.5" stroke-linecap="round" stroke-linejoin="round"/>
<path d="M169.31 18.9575L168.493 19.9763" stroke="black" stroke-width="0.5" stroke-linecap="round" stroke-linejoin="round"/>
<path d="M157.315 31.6006L156.264 32.8354" stroke="black" stroke-width="0.5" stroke-linecap="round" stroke-linejoin="round"/>
<path d="M164.137 23.5835L158.103 30.6755" stroke="black" stroke-width="0.5" stroke-linecap="round" stroke-linejoin="round"/>
<path d="M168.036 43.938L162.898 50.3316" stroke="black" stroke-width="0.5" stroke-linecap="round" stroke-linejoin="round"/>
<path d="M169.31 42.354L168.493 43.3692" stroke="black" stroke-width="0.5" stroke-linecap="round" stroke-linejoin="round"/>
<path d="M157.315 54.9934L156.264 56.2318" stroke="black" stroke-width="0.5" stroke-linecap="round" stroke-linejoin="round"/>
<path d="M164.137 46.98L158.103 54.0684" stroke="black" stroke-width="0.5" stroke-linecap="round" stroke-linejoin="round"/>
<path d="M148.534 43.938L143.397 50.3316" stroke="black" stroke-width="0.5" stroke-linecap="round" stroke-linejoin="round"/>
<path d="M149.809 42.354L148.992 43.3692" stroke="black" stroke-width="0.5" stroke-linecap="round" stroke-linejoin="round"/>
<path d="M137.81 54.9934L136.759 56.2318" stroke="black" stroke-width="0.5" stroke-linecap="round" stroke-linejoin="round"/>
<path d="M144.632 46.98L138.598 54.0684" stroke="black" stroke-width="0.5" stroke-linecap="round" stroke-linejoin="round"/>
<path d="M147.177 20.5452L142.04 26.9388" stroke="black" stroke-width="0.5" stroke-linecap="round" stroke-linejoin="round"/>
<path d="M148.455 18.9575L147.638 19.9763" stroke="black" stroke-width="0.5" stroke-linecap="round" stroke-linejoin="round"/>
<path d="M136.456 31.6006L135.405 32.8354" stroke="black" stroke-width="0.5" stroke-linecap="round" stroke-linejoin="round"/>
<path d="M143.278 23.5835L137.245 30.6755" stroke="black" stroke-width="0.5" stroke-linecap="round" stroke-linejoin="round"/>
</g>
<path d="M81.4232 123.739C81.4232 123.739 77.4632 121.547 77.1788 126.522C76.8944 131.497 76.1492 163.832 76.1492 163.832" stroke="#263238" stroke-width="0.5" stroke-miterlimit="10" stroke-linecap="round"/>
<path d="M75.1268 126.958C75.1268 126.958 78.3668 134.129 76.8872 163.393" stroke="#263238" stroke-width="0.5" stroke-miterlimit="10" stroke-linecap="round"/>
<path d="M78.3092 124.74C78.3092 124.74 76.7972 125.708 75.9368 124.603C75.0764 123.498 76.5092 121.464 75.2348 120.6C73.9604 119.736 71.7716 121.057 71.7716 121.057C71.7716 121.057 73.46 121.55 73.406 122.476C73.352 123.401 72.5348 123.746 72.4268 123.343C72.3188 122.94 71.5124 120.91 70.1408 121.752C69.7451 121.986 69.4009 122.299 69.1293 122.67C68.8577 123.041 68.6641 123.464 68.5604 123.912C68.5604 123.912 71.7536 123.57 71.948 124.772C72.1424 125.975 70.6376 124.56 69.32 124.484C68.0024 124.409 66.8 124.6 66.8864 125.399C66.9175 126.103 66.8765 126.809 66.764 127.505C67.4835 126.907 68.3922 126.586 69.3272 126.598C70.7672 126.684 70.724 127.606 69.4064 127.53C68.0888 127.454 66.9584 128.707 66.9584 128.707C66.9584 128.707 68.1572 130.752 69.6692 131.76C71.1812 132.768 71.7464 132.412 71.9228 131.63C72.0992 130.849 71.6924 128.84 72.614 128.894C73.5356 128.948 71.0876 132.372 72.254 132.574C73.4204 132.775 74.378 132.437 74.6876 131.663L74.9972 130.885C74.9972 130.885 74.5868 128.88 74.7668 128.095C74.9468 127.31 75.1592 128.12 75.368 129.056C75.5768 129.992 75.71 132.25 76.1132 132.142C76.5164 132.034 77.8016 130.392 78.104 129.748C78.4064 129.103 76.4084 127.138 76.43 126.742C76.4516 126.346 77.996 127.102 78.23 127.508C78.4045 127.818 78.5619 128.136 78.7016 128.462C78.7016 128.462 79.6628 127.858 79.6412 126.004C79.6196 124.15 78.3092 124.74 78.3092 124.74Z" fill="#92E3A9"/>
<path opacity="0.3" d="M78.3092 124.74C78.3092 124.74 76.7972 125.708 75.9368 124.603C75.0764 123.498 76.5092 121.464 75.2348 120.6C73.9604 119.736 71.7716 121.057 71.7716 121.057C71.7716 121.057 73.46 121.55 73.406 122.476C73.352 123.401 72.5348 123.746 72.4268 123.343C72.3188 122.94 71.5124 120.91 70.1408 121.752C69.7451 121.986 69.4009 122.299 69.1293 122.67C68.8577 123.041 68.6641 123.464 68.5604 123.912C68.5604 123.912 71.7536 123.57 71.948 124.772C72.1424 125.975 70.6376 124.56 69.32 124.484C68.0024 124.409 66.8 124.6 66.8864 125.399C66.9175 126.103 66.8765 126.809 66.764 127.505C67.4835 126.907 68.3922 126.586 69.3272 126.598C70.7672 126.684 70.724 127.606 69.4064 127.53C68.0888 127.454 66.9584 128.707 66.9584 128.707C66.9584 128.707 68.1572 130.752 69.6692 131.76C71.1812 132.768 71.7464 132.412 71.9228 131.63C72.0992 130.849 71.6924 128.84 72.614 128.894C73.5356 128.948 71.0876 132.372 72.254 132.574C73.4204 132.775 74.378 132.437 74.6876 131.663L74.9972 130.885C74.9972 130.885 74.5868 128.88 74.7668 128.095C74.9468 127.31 75.1592 128.12 75.368 129.056C75.5768 129.992 75.71 132.25 76.1132 132.142C76.5164 132.034 77.8016 130.392 78.104 129.748C78.4064 129.103 76.4084 127.138 76.43 126.742C76.4516 126.346 77.996 127.102 78.23 127.508C78.4045 127.818 78.5619 128.136 78.7016 128.462C78.7016 128.462 79.6628 127.858 79.6412 126.004C79.6196 124.15 78.3092 124.74 78.3092 124.74Z" fill="#263238"/>
<path d="M70.634 129.085C71.6168 127.865 73.0712 126.205 74.288 125.431" stroke="#263238" stroke-width="0.5" stroke-miterlimit="10" stroke-linecap="round"/>
<path d="M69.4892 130.568C69.4892 130.568 69.7448 130.208 70.1516 129.686" stroke="#263238" stroke-width="0.5" stroke-miterlimit="10" stroke-linecap="round"/>
<path d="M74.9288 125.734C74.9288 125.734 76.394 127.804 76.664 129.931" stroke="#263238" stroke-width="0.5" stroke-miterlimit="10" stroke-linecap="round"/>
<path d="M73.2692 126.957C73.2692 126.957 73.6796 126.716 73.5248 129.351" stroke="#263238" stroke-width="0.5" stroke-miterlimit="10" stroke-linecap="round"/>
<path d="M74.3492 124.509C74.3492 124.509 75.1844 123.764 74.7452 122.285" stroke="#263238" stroke-width="0.5" stroke-miterlimit="10" stroke-linecap="round"/>
<path d="M73.2116 125.762L72.614 124.672" stroke="#263238" stroke-width="0.5" stroke-miterlimit="10" stroke-linecap="round"/>
<path d="M71.9552 126.878C71.9552 126.878 70.058 125.438 68.87 125.374" stroke="#263238" stroke-width="0.5" stroke-miterlimit="10" stroke-linecap="round"/>
<path d="M83.6804 120.838C83.6804 120.838 83.6192 122.998 81.9236 123.116C80.228 123.235 79.1768 120.395 77.4416 121.075C75.7064 121.756 75.5408 124.855 75.5408 124.855C75.5408 124.855 77.186 123.502 78.0608 124.186C78.9356 124.87 78.7448 125.921 78.266 125.752C77.7872 125.582 75.206 125.01 75.116 126.958C75.08 127.513 75.1572 128.07 75.3428 128.595C75.5285 129.119 75.8187 129.601 76.196 130.01C76.196 130.01 78.032 126.583 79.364 127.206C80.696 127.829 78.2624 128.376 77.2868 129.64C76.3112 130.903 75.6884 132.242 76.5452 132.7C77.2761 133.154 77.9578 133.684 78.5792 134.28C78.4717 133.152 78.7704 132.022 79.4216 131.094C80.5016 129.701 81.38 130.374 80.4044 131.648C79.4288 132.923 79.9148 134.888 79.9148 134.888C79.9148 134.888 82.7948 135.086 84.8468 134.251C86.8988 133.416 86.9132 132.617 86.2508 131.904C85.5884 131.191 83.2988 130.234 83.9828 129.348C84.6668 128.462 86.4272 133.247 87.4316 132.206C88.436 131.166 88.7384 129.985 88.1732 129.146L87.608 128.308C87.608 128.308 85.322 127.354 84.6596 126.641C83.9972 125.928 84.9512 126.259 86.0312 126.691C87.1112 127.123 89.462 128.524 89.6312 128.048C89.8004 127.573 89.03 125.168 88.5908 124.423C88.1516 123.678 84.8216 124.34 84.44 124.063C84.0584 123.786 85.88 122.738 86.438 122.778C86.8668 122.815 87.2934 122.874 87.716 122.954C87.716 122.954 87.7664 121.579 85.8944 120.341C84.0224 119.102 83.6804 120.838 83.6804 120.838Z" fill="#92E3A9"/>
<path opacity="0.2" d="M83.6804 120.838C83.6804 120.838 83.6192 122.998 81.9236 123.116C80.228 123.235 79.1768 120.395 77.4416 121.075C75.7064 121.756 75.5408 124.855 75.5408 124.855C75.5408 124.855 77.186 123.502 78.0608 124.186C78.9356 124.87 78.7448 125.921 78.266 125.752C77.7872 125.582 75.206 125.01 75.116 126.958C75.08 127.513 75.1572 128.07 75.3428 128.595C75.5285 129.119 75.8187 129.601 76.196 130.01C76.196 130.01 78.032 126.583 79.364 127.206C80.696 127.829 78.2624 128.376 77.2868 129.64C76.3112 130.903 75.6884 132.242 76.5452 132.7C77.2761 133.154 77.9578 133.684 78.5792 134.28C78.4717 133.152 78.7704 132.022 79.4216 131.094C80.5016 129.701 81.38 130.374 80.4044 131.648C79.4288 132.923 79.9148 134.888 79.9148 134.888C79.9148 134.888 82.7948 135.086 84.8468 134.251C86.8988 133.416 86.9132 132.617 86.2508 131.904C85.5884 131.191 83.2988 130.234 83.9828 129.348C84.6668 128.462 86.4272 133.247 87.4316 132.206C88.436 131.166 88.7384 129.985 88.1732 129.146L87.608 128.308C87.608 128.308 85.322 127.354 84.6596 126.641C83.9972 125.928 84.9512 126.259 86.0312 126.691C87.1112 127.123 89.462 128.524 89.6312 128.048C89.8004 127.573 89.03 125.168 88.5908 124.423C88.1516 123.678 84.8216 124.34 84.44 124.063C84.0584 123.786 85.88 122.738 86.438 122.778C86.8668 122.815 87.2934 122.874 87.716 122.954C87.716 122.954 87.7664 121.579 85.8944 120.341C84.0224 119.102 83.6804 120.838 83.6804 120.838Z" fill="#263238"/>
<path d="M82.8056 131.468C82.2584 129.65 81.596 127.073 81.6392 125.32" stroke="#263238" stroke-width="0.5" stroke-miterlimit="10" stroke-linecap="round"/>
<path d="M83.5112 133.621C83.5112 133.621 83.3312 133.128 83.0828 132.357" stroke="#263238" stroke-width="0.5" stroke-miterlimit="10" stroke-linecap="round"/>
<path d="M82.3808 124.88C82.3808 124.88 85.448 124.826 87.7808 126.007" stroke="#263238" stroke-width="0.5" stroke-miterlimit="10" stroke-linecap="round"/>
<path d="M82.4744 127.375C82.4744 127.375 82.514 126.799 85.0448 128.75" stroke="#263238" stroke-width="0.5" stroke-miterlimit="10" stroke-linecap="round"/>
<path d="M80.7536 124.635C80.7536 124.635 80.5772 123.289 78.7952 122.724" stroke="#263238" stroke-width="0.5" stroke-miterlimit="10" stroke-linecap="round"/>
<path d="M81.2396 126.623L79.7384 126.475" stroke="#263238" stroke-width="0.5" stroke-miterlimit="10" stroke-linecap="round"/>
<path d="M81.4988 128.642C81.4988 128.642 78.77 129.564 77.8988 130.702" stroke="#263238" stroke-width="0.5" stroke-miterlimit="10" stroke-linecap="round"/>
<path d="M65.4752 135.299C65.4752 135.299 74.1152 141.005 73.9604 163.098" stroke="#263238" stroke-width="0.5" stroke-miterlimit="10" stroke-linecap="round"/>
<path d="M76.1168 133.79C76.1168 133.79 75.8432 136.292 73.8776 136.256C71.912 136.22 70.9652 132.84 68.8988 133.477C66.8324 134.114 66.3464 137.657 66.3464 137.657C66.3464 137.657 68.3732 136.253 69.3344 137.124C70.2956 137.995 69.9536 139.19 69.4208 138.953C68.888 138.715 65.9576 137.808 65.6732 140.033C65.5792 140.67 65.6152 141.32 65.7792 141.943C65.9431 142.566 66.2316 143.149 66.6272 143.658C66.6272 143.658 69.0716 139.874 70.5512 140.72C72.0308 141.566 69.1688 141.966 67.9232 143.334C66.6776 144.702 65.8316 146.196 66.7892 146.808C67.5843 147.396 68.3177 148.063 68.978 148.799C68.978 148.799 68.8772 146.707 70.2488 145.199C71.6204 143.69 72.578 144.565 71.3288 145.919C70.0796 147.272 70.454 149.63 70.454 149.63C70.454 149.63 73.7516 150.127 76.214 149.357C78.6764 148.586 78.734 147.665 78.0572 146.783C77.3804 145.901 74.8172 144.576 75.6812 143.618C76.5452 142.661 78.1292 148.349 79.3892 147.244C80.6492 146.138 81.1064 144.803 80.534 143.784L79.9616 142.762C79.9616 142.762 77.4128 141.44 76.7216 140.558C76.0304 139.676 77.0816 140.148 78.302 140.746C79.5224 141.343 82.0856 143.186 82.3232 142.65C82.5608 142.114 81.8984 139.266 81.4664 138.37C81.0344 137.473 77.1212 137.92 76.7108 137.545C76.3004 137.171 78.4784 136.152 79.1372 136.253C79.6284 136.336 80.1151 136.444 80.5952 136.577C80.5952 136.577 80.7824 134.996 78.7412 133.391C76.7 131.785 76.1168 133.79 76.1168 133.79Z" fill="#92E3A9"/>
<path opacity="0.3" d="M76.1168 133.79C76.1168 133.79 75.8432 136.292 73.8776 136.256C71.912 136.22 70.9652 132.84 68.8988 133.477C66.8324 134.114 66.3464 137.657 66.3464 137.657C66.3464 137.657 68.3732 136.253 69.3344 137.124C70.2956 137.995 69.9536 139.19 69.4208 138.953C68.888 138.715 65.9576 137.808 65.6732 140.033C65.5792 140.67 65.6152 141.32 65.7792 141.943C65.9431 142.566 66.2316 143.149 66.6272 143.658C66.6272 143.658 69.0716 139.874 70.5512 140.72C72.0308 141.566 69.1688 141.966 67.9232 143.334C66.6776 144.702 65.8316 146.196 66.7892 146.808C67.5843 147.396 68.3177 148.063 68.978 148.799C68.978 148.799 68.8772 146.707 70.2488 145.199C71.6204 143.69 72.578 144.565 71.3288 145.919C70.0796 147.272 70.454 149.63 70.454 149.63C70.454 149.63 73.7516 150.127 76.214 149.357C78.6764 148.586 78.734 147.665 78.0572 146.783C77.3804 145.901 74.8172 144.576 75.6812 143.618C76.5452 142.661 78.1292 148.349 79.3892 147.244C80.6492 146.138 81.1064 144.803 80.534 143.784L79.9616 142.762C79.9616 142.762 77.4128 141.44 76.7216 140.558C76.0304 139.676 77.0816 140.148 78.302 140.746C79.5224 141.343 82.0856 143.186 82.3232 142.65C82.5608 142.114 81.8984 139.266 81.4664 138.37C81.0344 137.473 77.1212 137.92 76.7108 137.545C76.3004 137.171 78.4784 136.152 79.1372 136.253C79.6284 136.336 80.1151 136.444 80.5952 136.577C80.5952 136.577 80.7824 134.996 78.7412 133.391C76.7 131.785 76.1168 133.79 76.1168 133.79Z" fill="#263238"/>
<path d="M74.1044 145.976C73.6436 143.816 73.1252 140.789 73.3412 138.776" stroke="#263238" stroke-width="0.5" stroke-miterlimit="10" stroke-linecap="round"/>
<path d="M74.7092 148.529C74.7092 148.529 74.5508 147.942 74.3492 147.031" stroke="#263238" stroke-width="0.5" stroke-miterlimit="10" stroke-linecap="round"/>
<path d="M74.2376 138.333C74.2376 138.333 77.7836 138.56 80.3576 140.133" stroke="#263238" stroke-width="0.5" stroke-miterlimit="10" stroke-linecap="round"/>
<path d="M74.1116 141.221C74.1116 141.221 74.2088 140.562 76.9484 143.053" stroke="#263238" stroke-width="0.5" stroke-miterlimit="10" stroke-linecap="round"/>
<path d="M72.3837 137.898C72.3837 137.898 72.3081 136.328 70.3029 135.508" stroke="#263238" stroke-width="0.5" stroke-miterlimit="10" stroke-linecap="round"/>
<path d="M72.7544 140.238L71.0372 139.925" stroke="#263238" stroke-width="0.5" stroke-miterlimit="10" stroke-linecap="round"/>
<path d="M72.866 142.589C72.866 142.589 69.626 143.399 68.5064 144.63" stroke="#263238" stroke-width="0.5" stroke-miterlimit="10" stroke-linecap="round"/>
<path d="M68.8412 152.712C68.8412 152.712 74.3996 156.96 74.9864 163.246L73.8128 142.175" stroke="#263238" stroke-width="0.5" stroke-miterlimit="10" stroke-linecap="round"/>
<path d="M82.3016 149.638C74.9865 148.32 74.9865 163.246 74.9865 163.246" stroke="#263238" stroke-width="0.5" stroke-miterlimit="10" stroke-linecap="round"/>
<path d="M75.8612 163.098C75.8612 163.098 71.6204 132.228 83.9108 132.228" stroke="#263238" stroke-width="0.5" stroke-miterlimit="10" stroke-linecap="round"/>
<path d="M79.5117 148.752C78.5145 147.625 76.3905 147.625 75.1413 150.502C73.8921 153.378 75.0153 152.874 75.0153 152.874C75.0153 152.874 77.3913 152.125 78.8889 151.625C80.3865 151.124 82.3845 149.875 82.5105 150.624C82.6365 151.373 81.5133 152.125 80.1381 152.374C78.7629 152.622 75.1413 153.623 75.5157 154.372C75.8901 155.12 76.7649 157.37 76.7649 157.37C77.8335 156.465 78.9603 155.63 80.1381 154.872C81.7617 153.871 82.7625 154.246 81.8877 155.372C81.0129 156.499 78.5145 157.745 79.0077 159.242C79.5009 160.74 82.5033 162.616 82.5033 162.616C82.5033 162.616 82.8633 159.494 83.7525 158.494C84.6417 157.493 84.6273 158.62 84.3789 160.369C84.2528 161.113 84.1687 161.863 84.1269 162.616L87.6261 163.865C88.1981 162.994 88.8232 162.16 89.4981 161.366L90.1245 160.744C90.1245 160.744 87.3741 158.371 87.2445 156.87C87.1149 155.369 89.1165 156.87 89.7429 157.122C90.3693 157.374 91.3665 159.12 91.3665 159.12C91.3665 159.12 91.9893 156.24 92.1153 155.246L92.2413 154.246C92.2413 154.246 89.6169 153.248 88.6161 153.248C87.6153 153.248 87.1185 153.997 87.1185 152.996C87.1185 151.996 88.1193 151.373 89.2425 151.499C90.2601 151.669 91.2628 151.92 92.2413 152.248C92.2413 152.248 92.9901 151.625 92.7381 149.749C92.4861 147.874 91.8669 147.877 90.3657 148.378C88.8645 148.878 87.8673 150.001 86.7441 150.001C85.6209 150.001 86.2437 148.626 86.9925 148.252C87.7413 147.877 89.6169 147.128 89.9913 147.002C90.3657 146.876 87.9933 145.127 86.7513 144.878C85.5093 144.63 83.8713 145.508 84.0045 146.754C84.2601 149.375 80.5125 149.875 79.5117 148.752Z" fill="#92E3A9"/>
<path d="M87.554 161.611C87.59 161.989 87.6188 162.367 87.6332 162.741" stroke="#263238" stroke-width="0.5" stroke-miterlimit="10" stroke-linecap="round"/>
<path d="M85.0448 152.64C86.1417 155.115 86.9312 157.716 87.3956 160.383" stroke="#263238" stroke-width="0.5" stroke-miterlimit="10" stroke-linecap="round"/>
<path d="M84.5948 151.643C83.9756 150.311 83.5148 149.483 83.5148 149.483C84.1957 149.16 84.7621 148.638 85.1384 147.985C85.4302 147.393 85.8583 146.878 86.3876 146.484" stroke="#263238" stroke-width="0.5" stroke-miterlimit="10" stroke-linecap="round"/>
<path d="M79.1372 153.749C79.1372 153.749 83.6336 151.873 83.6336 152.247" stroke="#263238" stroke-width="0.5" stroke-miterlimit="10" stroke-linecap="round"/>
<path d="M86.132 151.373C86.132 151.373 88.1336 150.375 89.8796 150.375" stroke="#263238" stroke-width="0.5" stroke-miterlimit="10" stroke-linecap="round"/>
<path d="M85.3832 154.372C84.5178 155.084 83.7233 155.879 83.0108 156.744C82.2805 157.607 81.6901 158.578 81.2612 159.624" stroke="#263238" stroke-width="0.5" stroke-miterlimit="10" stroke-linecap="round"/>
<path d="M86.7584 154.872C86.7584 154.872 89.3828 154.123 90.7544 155.372" stroke="#263238" stroke-width="0.5" stroke-miterlimit="10" stroke-linecap="round"/>
<path d="M91.5104 137.992C90.1496 137.189 88.6304 137.171 87.9104 136.321C87.1904 135.472 88.6304 135.043 89.3936 135.364C90.1568 135.684 91.9604 136.609 92.3024 136.804C92.6444 136.998 92.4068 134.064 91.7768 132.959C91.1468 131.854 89.4224 131.206 88.5584 132.109C86.7584 134.021 83.9072 131.515 84.1016 130.025C84.296 128.534 82.9028 126.929 79.9148 127.865C76.9268 128.801 78.0428 129.326 78.0428 129.326C78.0428 129.326 80.1632 130.63 81.524 131.432C82.8848 132.235 85.124 132.926 84.6524 133.513C84.1808 134.1 82.8524 133.74 81.7724 132.869C80.6924 131.998 77.5568 129.924 77.2292 130.698C76.9016 131.472 75.7892 133.607 75.7892 133.607C77.1735 133.819 78.5421 134.124 79.886 134.518C81.686 135.086 82.0784 136.087 80.6564 136.166C79.2344 136.246 76.6532 135.173 75.8468 136.526C75.0404 137.88 75.5948 141.379 75.5948 141.379C75.5948 141.379 78.1976 139.615 79.526 139.619C80.8544 139.622 80.0048 140.36 78.5216 141.318C77.8769 141.713 77.2543 142.143 76.6568 142.607L78.0068 146.066C79.0402 145.925 80.0815 145.851 81.1244 145.843L82.0028 145.904C82.0028 145.904 82.0028 142.272 83.0432 141.196C84.0836 140.119 84.2744 142.61 84.4832 143.248C84.692 143.885 84.0368 145.768 84.0368 145.768C84.0368 145.768 86.618 144.356 87.4532 143.795L88.292 143.237C88.292 143.237 87.3236 140.598 86.6684 139.846C86.0132 139.093 85.1204 139.205 85.8764 138.55C86.6324 137.894 87.7592 138.24 88.3964 139.169C88.948 140.055 89.4271 140.985 89.8292 141.948C89.8292 141.948 90.7904 142.103 92.0432 140.688C93.296 139.273 92.8712 138.798 91.5104 137.992ZM79.688 141.991C78.6872 141.491 81.0632 140.494 81.0632 140.494C81.938 140.368 80.6888 142.492 79.688 141.991ZM81.3692 137.329C80.9444 137.117 82.2224 136.688 82.2224 136.688C84.0692 137.045 81.7976 137.542 81.3692 137.329Z" fill="#92E3A9"/>
<path d="M79.6628 144.536C79.4036 144.81 79.1336 145.076 78.86 145.336" stroke="#263238" stroke-width="0.5" stroke-miterlimit="10" stroke-linecap="round"/>
<path d="M84.7892 136.764C83.635 139.212 82.1841 141.51 80.4692 143.604" stroke="#263238" stroke-width="0.5" stroke-miterlimit="10" stroke-linecap="round"/>
<path d="M85.25 135.767C85.8692 134.424 86.1572 133.56 86.1572 133.56C86.847 133.864 87.6134 133.949 88.3532 133.805C88.9913 133.638 89.66 133.624 90.3044 133.765" stroke="#263238" stroke-width="0.5" stroke-miterlimit="10" stroke-linecap="round"/>
<path d="M80.084 133.023C80.084 133.023 84.4472 135.183 84.1628 135.439" stroke="#263238" stroke-width="0.5" stroke-miterlimit="10" stroke-linecap="round"/>
<path d="M86.4633 136.753C86.4633 136.753 88.5261 137.606 89.6745 138.913" stroke="#263238" stroke-width="0.5" stroke-miterlimit="10" stroke-linecap="round"/>
<path d="M83.7093 138.15C82.6034 137.964 81.4822 137.886 80.3613 137.916C79.2335 137.929 78.1148 138.118 77.0457 138.478" stroke="#263238" stroke-width="0.5" stroke-miterlimit="10" stroke-linecap="round"/>
<path d="M84.2312 139.514C84.2312 139.514 86.5172 141.005 86.474 142.862" stroke="#263238" stroke-width="0.5" stroke-miterlimit="10" stroke-linecap="round"/>
<path d="M72.0992 155.3C71.0192 154.656 69.7952 154.642 69.2192 153.958C68.6432 153.274 69.7916 152.928 70.4144 153.187C71.0372 153.446 72.4808 154.188 72.7544 154.35C73.028 154.512 72.8372 152.147 72.3332 151.254C71.8292 150.361 70.436 149.846 69.7448 150.574C68.2796 152.111 66.0008 150.095 66.1448 148.896C66.2888 147.697 65.18 146.405 62.7752 147.161C60.3704 147.917 61.2668 148.338 61.2668 148.338C61.2668 148.338 62.9768 149.386 64.0712 150.03C65.1656 150.674 66.9764 151.236 66.5912 151.708C66.206 152.179 65.1512 151.888 64.2764 151.186C63.4016 150.484 60.8816 148.81 60.6224 149.432C60.3632 150.055 59.4596 151.772 59.4596 151.772C60.5733 151.94 61.6748 152.181 62.7572 152.492C64.2224 152.953 64.5212 153.76 63.3764 153.821C62.2316 153.882 60.1364 153.022 59.51 154.116C58.8836 155.21 59.294 158.04 59.294 158.04C59.294 158.04 61.3892 156.6 62.4692 156.618C63.5492 156.636 62.8544 157.216 61.6592 157.986C61.1411 158.302 60.6411 158.647 60.1616 159.019L61.2416 161.802C62.0771 161.69 62.9187 161.631 63.7616 161.626L64.4816 161.676C64.4816 161.676 64.4816 158.753 65.3204 157.885C66.1592 157.018 66.3068 159.023 66.4832 159.534C66.6596 160.045 66.1232 161.575 66.1232 161.575C66.1232 161.575 68.2004 160.441 68.8736 159.988L69.5468 159.538C69.5468 159.538 68.7692 157.417 68.24 156.809C67.7108 156.2 66.9944 156.294 67.6028 155.765C68.2112 155.236 69.1148 155.516 69.6332 156.265C70.0637 156.973 70.4369 157.715 70.7492 158.483C70.7492 158.483 71.5232 158.609 72.5492 157.468C73.5752 156.326 73.1936 155.948 72.0992 155.3ZM62.5844 158.519C61.7816 158.119 63.6932 157.32 63.6932 157.32C64.3952 157.212 63.3908 158.922 62.5844 158.519ZM63.9416 154.768C63.5816 154.595 64.6256 154.253 64.6256 154.253C66.1124 154.537 64.2692 154.937 63.9416 154.768Z" fill="#92E3A9"/>
<path d="M62.5629 160.56C62.3541 160.78 62.1417 160.996 61.9185 161.204" stroke="#263238" stroke-width="0.5" stroke-miterlimit="10" stroke-linecap="round"/>
<path d="M66.6884 154.31C65.7669 156.289 64.6036 158.147 63.2252 159.84" stroke="#263238" stroke-width="0.5" stroke-miterlimit="10" stroke-linecap="round"/>
<path d="M67.0628 153.508C67.5452 152.428 67.7828 151.708 67.7828 151.708C68.3381 151.952 68.9548 152.021 69.5504 151.906C70.0649 151.771 70.604 151.76 71.1236 151.873" stroke="#263238" stroke-width="0.5" stroke-miterlimit="10" stroke-linecap="round"/>
<path d="M62.9048 151.304C62.9048 151.304 66.4148 153.047 66.188 153.245" stroke="#263238" stroke-width="0.5" stroke-miterlimit="10" stroke-linecap="round"/>
<path d="M68.0385 154.303C68.0385 154.303 69.6981 154.991 70.6197 156.053" stroke="#263238" stroke-width="0.5" stroke-miterlimit="10" stroke-linecap="round"/>
<path d="M65.8208 155.43C64.9304 155.279 64.0273 155.215 63.1244 155.239C62.217 155.25 61.3168 155.403 60.4568 155.693" stroke="#263238" stroke-width="0.5" stroke-miterlimit="10" stroke-linecap="round"/>
<path d="M66.242 156.528C66.242 156.528 68.0816 157.727 68.042 159.221" stroke="#263238" stroke-width="0.5" stroke-miterlimit="10" stroke-linecap="round"/>
<path d="M67.6352 134.676C67.6352 134.676 66.2636 135.673 65.3888 134.676C64.514 133.679 65.7488 131.677 64.514 130.928C63.2792 130.179 61.274 131.551 61.274 131.551C61.274 131.551 62.8976 131.911 62.8976 132.8C62.8976 133.689 62.1488 134.049 62.0228 133.675C61.8968 133.301 61.022 131.425 59.7728 132.3C59.4122 132.542 59.1047 132.856 58.8689 133.221C58.6331 133.586 58.474 133.995 58.4012 134.424C58.4012 134.424 61.3964 133.923 61.6412 135.05C61.886 136.177 60.392 134.924 59.1428 134.924C57.8936 134.924 56.7704 135.173 56.8928 135.925C56.9612 136.589 56.9612 137.259 56.8928 137.923C57.54 137.317 58.3828 136.962 59.2688 136.922C60.6404 136.922 60.6404 137.797 59.3912 137.797C58.142 137.797 57.1448 139.046 57.1448 139.046C57.1448 139.046 58.394 140.918 59.8916 141.793C61.3892 142.668 61.8896 142.293 62.0156 141.545C62.1416 140.796 61.6556 138.92 62.516 138.92C63.3764 138.92 61.2668 142.293 62.39 142.419C63.5132 142.545 64.388 142.171 64.64 141.419L64.8884 140.67C64.8884 140.67 64.388 138.798 64.5284 138.045C64.6688 137.293 64.8884 138.045 65.1512 138.92C65.414 139.795 65.6516 141.919 66.026 141.8C66.4004 141.681 67.5092 140.04 67.7612 139.421C68.0132 138.801 66.0116 137.048 66.0116 136.674C66.0116 136.299 67.5128 136.922 67.7612 137.297C68.0096 137.671 68.2616 138.171 68.2616 138.171C68.2616 138.171 69.1364 137.549 69.0104 135.799C68.8844 134.049 67.6352 134.676 67.6352 134.676Z" fill="#92E3A9"/>
<path d="M60.6404 139.205C61.5008 137.999 62.7824 136.361 63.8804 135.547" stroke="#263238" stroke-width="0.5" stroke-miterlimit="10" stroke-linecap="round"/>
<path d="M59.6432 140.67C59.6432 140.67 59.8628 140.31 60.2192 139.802" stroke="#263238" stroke-width="0.5" stroke-miterlimit="10" stroke-linecap="round"/>
<path d="M64.514 135.799C64.514 135.799 66.0116 137.671 66.386 139.673" stroke="#263238" stroke-width="0.5" stroke-miterlimit="10" stroke-linecap="round"/>
<path d="M63.0164 137.048C63.0164 137.048 63.3764 136.796 63.3764 139.295" stroke="#263238" stroke-width="0.5" stroke-miterlimit="10" stroke-linecap="round"/>
<path d="M63.8876 134.676C63.8876 134.676 64.64 133.924 64.1396 132.552" stroke="#263238" stroke-width="0.5" stroke-miterlimit="10" stroke-linecap="round"/>
<path d="M62.8904 135.925L62.264 134.924" stroke="#263238" stroke-width="0.5" stroke-miterlimit="10" stroke-linecap="round"/>
<path d="M61.7672 137.048C61.7672 137.048 59.8916 135.799 58.7684 135.799" stroke="#263238" stroke-width="0.5" stroke-miterlimit="10" stroke-linecap="round"/>
<path d="M80.2496 162.662H70.5944V167.76H80.2496V162.662Z" fill="#263238" stroke="#263238" stroke-width="0.5" stroke-miterlimit="10" stroke-linecap="round"/>
<path opacity="0.2" d="M160.116 10.584H68.9564C66.8688 10.584 65.1764 12.2763 65.1764 14.364V124.844C65.1764 126.932 66.8688 128.624 68.9564 128.624H160.116C162.203 128.624 163.896 126.932 163.896 124.844V14.364C163.896 12.2763 162.203 10.584 160.116 10.584Z" fill="black"/>
<path d="M157.236 8.42407H66.0764C63.9888 8.42407 62.2964 10.1164 62.2964 12.2041V122.684C62.2964 124.772 63.9888 126.464 66.0764 126.464H157.236C159.323 126.464 161.016 124.772 161.016 122.684V12.2041C161.016 10.1164 159.323 8.42407 157.236 8.42407Z" fill="#E3E3E3" stroke="#263238" stroke-width="0.5" stroke-linecap="round" stroke-linejoin="round"/>
<path d="M146.594 8.42407H73.0136V126.464H146.594V8.42407Z" fill="white" stroke="#263238" stroke-width="0.5" stroke-linecap="round" stroke-linejoin="round"/>
<path d="M157.74 8.70117V126.695C158.641 126.595 159.475 126.165 160.08 125.489C160.685 124.813 161.019 123.937 161.019 123.03V12.366C161.019 11.4588 160.684 10.5836 160.079 9.90757C159.474 9.23155 158.641 8.80207 157.74 8.70117Z" fill="#B2B2B2" stroke="#263238" stroke-width="0.5" stroke-linecap="round" stroke-linejoin="round"/>
<path d="M161.019 54.4644H157.74V72.9684H161.019V54.4644Z" fill="#808080" stroke="#263238" stroke-width="0.5" stroke-linecap="round" stroke-linejoin="round"/>
<path d="M161.019 23.9221V12.3661C161.019 11.8817 160.924 11.402 160.738 10.9545C160.553 10.507 160.281 10.1005 159.938 9.75814C159.596 9.41578 159.189 9.14431 158.741 8.95927C158.293 8.77422 157.814 8.67922 157.329 8.67969H65.9864C65.502 8.67922 65.0222 8.77422 64.5746 8.95927C64.1269 9.14431 63.7201 9.41578 63.3774 9.75814C63.0347 10.1005 62.7628 10.507 62.5773 10.9545C62.3919 11.402 62.2964 11.8817 62.2964 12.3661V23.9221H161.019Z" fill="#B2B2B2" stroke="#263238" stroke-width="0.5" stroke-linecap="round" stroke-linejoin="round"/>
<path d="M109.716 14.6521H67.7144V17.4457H109.716V14.6521Z" fill="white" stroke="#263238" stroke-width="0.5" stroke-linecap="round" stroke-linejoin="round"/>
<path d="M161.016 18.9468H62.2964V23.922H161.016V18.9468Z" fill="#263238" stroke="#263238" stroke-width="0.5" stroke-linecap="round" stroke-linejoin="round"/>
<path d="M64.586 20.2393H67.1528" stroke="white" stroke-width="0.5" stroke-linecap="round" stroke-linejoin="round"/>
<path d="M64.586 21.3552H67.1528" stroke="white" stroke-width="0.5" stroke-linecap="round" stroke-linejoin="round"/>
<path d="M64.586 22.4712H67.1528" stroke="white" stroke-width="0.5" stroke-linecap="round" stroke-linejoin="round"/>
<path d="M77.8664 20.1924V23.094" stroke="white" stroke-width="0.5" stroke-linecap="round" stroke-linejoin="round"/>
<path d="M92.9972 20.1924V23.094" stroke="white" stroke-width="0.5" stroke-linecap="round" stroke-linejoin="round"/>
<path d="M108.128 20.1924V23.094" stroke="white" stroke-width="0.5" stroke-linecap="round" stroke-linejoin="round"/>
<path d="M123.255 20.1924V23.094" stroke="white" stroke-width="0.5" stroke-linecap="round" stroke-linejoin="round"/>
<path d="M138.386 20.1924V23.094" stroke="white" stroke-width="0.5" stroke-linecap="round" stroke-linejoin="round"/>
<path d="M161.019 12.9781V12.3661C161.019 11.8817 160.924 11.402 160.738 10.9545C160.553 10.507 160.281 10.1005 159.938 9.75814C159.596 9.41578 159.189 9.14431 158.741 8.95927C158.293 8.77422 157.814 8.67922 157.329 8.67969H65.9864C65.502 8.67922 65.0222 8.77422 64.5746 8.95927C64.1269 9.14431 63.7201 9.41578 63.3774 9.75814C63.0347 10.1005 62.7628 10.507 62.5773 10.9545C62.3919 11.402 62.2964 11.8817 62.2964 12.3661V12.9781H161.019Z" fill="#263238" stroke="#263238" stroke-width="0.5" stroke-linecap="round" stroke-linejoin="round"/>
<path d="M146.9 11.9412C147.508 11.9412 148.002 11.448 148.002 10.8396C148.002 10.2312 147.508 9.73804 146.9 9.73804C146.292 9.73804 145.798 10.2312 145.798 10.8396C145.798 11.448 146.292 11.9412 146.9 11.9412Z" fill="white" stroke="#263238" stroke-width="0.5" stroke-linecap="round" stroke-linejoin="round"/>
<path d="M150.374 11.9412C150.982 11.9412 151.476 11.448 151.476 10.8396C151.476 10.2312 150.982 9.73804 150.374 9.73804C149.766 9.73804 149.272 10.2312 149.272 10.8396C149.272 11.448 149.766 11.9412 150.374 11.9412Z" fill="white" stroke="#263238" stroke-width="0.5" stroke-linecap="round" stroke-linejoin="round"/>
<path d="M154.95 10.8396C154.95 10.6218 154.885 10.4088 154.764 10.2276C154.643 10.0465 154.471 9.90527 154.27 9.82189C154.068 9.73851 153.847 9.7167 153.633 9.7592C153.419 9.80171 153.223 9.90663 153.069 10.0607C152.915 10.2148 152.81 10.411 152.768 10.6247C152.725 10.8384 152.747 11.0599 152.83 11.2612C152.914 11.4625 153.055 11.6345 153.236 11.7556C153.417 11.8766 153.63 11.9412 153.848 11.9412C154.14 11.9412 154.42 11.8252 154.627 11.6186C154.834 11.412 154.95 11.1318 154.95 10.8396Z" fill="white" stroke="#263238" stroke-width="0.5" stroke-linecap="round" stroke-linejoin="round"/>
<path d="M62.2964 119.578V123.03C62.2964 124.009 62.6852 124.947 63.3772 125.639C64.0692 126.331 65.0077 126.72 65.9864 126.72H157.329C158.308 126.72 159.246 126.331 159.938 125.639C160.63 124.947 161.019 124.009 161.019 123.03V119.578H62.2964Z" fill="#B2B2B2" stroke="#263238" stroke-width="0.5" stroke-linecap="round" stroke-linejoin="round"/>
<path d="M134.865 40.709H80.1488V71.381H134.865V40.709Z" fill="#92E3A9" stroke="#263238" stroke-width="0.5" stroke-linecap="round" stroke-linejoin="round"/>
<path d="M134.862 57.9132L122.636 50.0364L110.198 62.4708L101.493 52.3152L80.7248 71.0352L80.1488 71.3844H134.862V57.9132Z" fill="white" stroke="#263238" stroke-width="0.5" stroke-linecap="round" stroke-linejoin="round"/>
<path d="M88.6448 52.1101C91.0485 52.1101 92.9972 50.1614 92.9972 47.7577C92.9972 45.3539 91.0485 43.4053 88.6448 43.4053C86.241 43.4053 84.2924 45.3539 84.2924 47.7577C84.2924 50.1614 86.241 52.1101 88.6448 52.1101Z" fill="white" stroke="#263238" stroke-width="0.5" stroke-linecap="round" stroke-linejoin="round"/>
<path d="M80.354 73.4546H134.656" stroke="#263238" stroke-width="0.5" stroke-miterlimit="10"/>
<path d="M80.354 75.9421H112.894" stroke="#263238" stroke-width="0.5" stroke-miterlimit="10"/>
<path d="M127.885 80.5969H134.862" stroke="#263238" stroke-width="0.5" stroke-miterlimit="10"/>
<path d="M119.583 80.5969H127.078" stroke="#263238" stroke-width="0.5" stroke-miterlimit="10"/>
<path d="M116.599 80.5969H118.777" stroke="#263238" stroke-width="0.5" stroke-miterlimit="10"/>
<path d="M106.36 80.5969H116.034" stroke="#263238" stroke-width="0.5" stroke-miterlimit="10"/>
<path d="M93.782 80.5969H105.313" stroke="#263238" stroke-width="0.5" stroke-miterlimit="10"/>
<path d="M84.5912 80.5969H92.5724" stroke="#263238" stroke-width="0.5" stroke-miterlimit="10"/>
<path d="M80.2244 80.5969H83.5436" stroke="#263238" stroke-width="0.5" stroke-miterlimit="10"/>
<path d="M87.2012 83.4805H80.2244" stroke="#263238" stroke-width="0.5" stroke-miterlimit="10"/>
<path d="M95.5064 83.4805H88.0076" stroke="#263238" stroke-width="0.5" stroke-miterlimit="10"/>
<path d="M98.4908 83.4805H96.3128" stroke="#263238" stroke-width="0.5" stroke-miterlimit="10"/>
<path d="M108.729 83.4805H99.0524" stroke="#263238" stroke-width="0.5" stroke-miterlimit="10"/>
<path d="M121.304 83.4805H109.777" stroke="#263238" stroke-width="0.5" stroke-miterlimit="10"/>
<path d="M130.495 83.4805H122.514" stroke="#263238" stroke-width="0.5" stroke-miterlimit="10"/>
<path d="M134.862 83.4805H131.542" stroke="#263238" stroke-width="0.5" stroke-miterlimit="10"/>
<path d="M127.885 86.238H134.862" stroke="#263238" stroke-width="0.5" stroke-miterlimit="10"/>
<path d="M119.583 86.238H127.078" stroke="#263238" stroke-width="0.5" stroke-miterlimit="10"/>
<path d="M116.599 86.238H118.777" stroke="#263238" stroke-width="0.5" stroke-miterlimit="10"/>
<path d="M106.36 86.238H116.034" stroke="#263238" stroke-width="0.5" stroke-miterlimit="10"/>
<path d="M93.782 86.238H105.313" stroke="#263238" stroke-width="0.5" stroke-miterlimit="10"/>
<path d="M84.5912 86.238H92.5724" stroke="#263238" stroke-width="0.5" stroke-miterlimit="10"/>
<path d="M80.2244 86.238H83.5436" stroke="#263238" stroke-width="0.5" stroke-miterlimit="10"/>
<path d="M87.2012 89.1216H80.2244" stroke="#263238" stroke-width="0.5" stroke-miterlimit="10"/>
<path d="M95.5064 89.1216H88.0076" stroke="#263238" stroke-width="0.5" stroke-miterlimit="10"/>
<path d="M98.4908 89.1216H96.3128" stroke="#263238" stroke-width="0.5" stroke-miterlimit="10"/>
<path d="M108.729 89.1216H99.0524" stroke="#263238" stroke-width="0.5" stroke-miterlimit="10"/>
<path d="M121.304 89.1216H109.777" stroke="#263238" stroke-width="0.5" stroke-miterlimit="10"/>
<path d="M130.495 89.1216H122.514" stroke="#263238" stroke-width="0.5" stroke-miterlimit="10"/>
<path d="M134.862 89.1216H131.542" stroke="#263238" stroke-width="0.5" stroke-miterlimit="10"/>
<path d="M127.885 91.8794H134.862" stroke="#263238" stroke-width="0.5" stroke-miterlimit="10"/>
<path d="M119.583 91.8794H127.078" stroke="#263238" stroke-width="0.5" stroke-miterlimit="10"/>
<path d="M116.599 91.8794H118.777" stroke="#263238" stroke-width="0.5" stroke-miterlimit="10"/>
<path d="M106.36 91.8794H116.034" stroke="#263238" stroke-width="0.5" stroke-miterlimit="10"/>
<path d="M93.782 91.8794H105.313" stroke="#263238" stroke-width="0.5" stroke-miterlimit="10"/>
<path d="M84.5912 91.8794H92.5724" stroke="#263238" stroke-width="0.5" stroke-miterlimit="10"/>
<path d="M80.2244 91.8794H83.5436" stroke="#263238" stroke-width="0.5" stroke-miterlimit="10"/>
<path d="M87.2012 94.7629H80.2244" stroke="#263238" stroke-width="0.5" stroke-miterlimit="10"/>
<path d="M95.5064 94.7629H88.0076" stroke="#263238" stroke-width="0.5" stroke-miterlimit="10"/>
<path d="M98.4908 94.7629H96.3128" stroke="#263238" stroke-width="0.5" stroke-miterlimit="10"/>
<path d="M108.729 94.7629H99.0524" stroke="#263238" stroke-width="0.5" stroke-miterlimit="10"/>
<path d="M121.304 94.7629H109.777" stroke="#263238" stroke-width="0.5" stroke-miterlimit="10"/>
<path d="M130.495 94.7629H122.514" stroke="#263238" stroke-width="0.5" stroke-miterlimit="10"/>
<path d="M134.862 94.7629H131.542" stroke="#263238" stroke-width="0.5" stroke-miterlimit="10"/>
<path d="M127.885 97.5205H134.862" stroke="#263238" stroke-width="0.5" stroke-miterlimit="10"/>
<path d="M119.583 97.5205H127.078" stroke="#263238" stroke-width="0.5" stroke-miterlimit="10"/>
<path d="M116.599 97.5205H118.777" stroke="#263238" stroke-width="0.5" stroke-miterlimit="10"/>
<path d="M106.36 97.5205H116.034" stroke="#263238" stroke-width="0.5" stroke-miterlimit="10"/>
<path d="M93.782 97.5205H105.313" stroke="#263238" stroke-width="0.5" stroke-miterlimit="10"/>
<path d="M84.5912 97.5205H92.5724" stroke="#263238" stroke-width="0.5" stroke-miterlimit="10"/>
<path d="M80.2244 97.5205H83.5436" stroke="#263238" stroke-width="0.5" stroke-miterlimit="10"/>
<path d="M87.2012 100.404H80.2244" stroke="#263238" stroke-width="0.5" stroke-miterlimit="10"/>
<path d="M95.5064 100.404H88.0076" stroke="#263238" stroke-width="0.5" stroke-miterlimit="10"/>
<path d="M98.4908 100.404H96.3128" stroke="#263238" stroke-width="0.5" stroke-miterlimit="10"/>
<path d="M108.729 100.404H99.0524" stroke="#263238" stroke-width="0.5" stroke-miterlimit="10"/>
<path d="M121.304 100.404H109.777" stroke="#263238" stroke-width="0.5" stroke-miterlimit="10"/>
<path d="M130.495 100.404H122.514" stroke="#263238" stroke-width="0.5" stroke-miterlimit="10"/>
<path d="M134.862 100.404H131.542" stroke="#263238" stroke-width="0.5" stroke-miterlimit="10"/>
<path d="M127.885 103.162H134.862" stroke="#263238" stroke-width="0.5" stroke-miterlimit="10"/>
<path d="M119.583 103.162H127.078" stroke="#263238" stroke-width="0.5" stroke-miterlimit="10"/>
<path d="M116.599 103.162H118.777" stroke="#263238" stroke-width="0.5" stroke-miterlimit="10"/>
<path d="M106.36 103.162H116.034" stroke="#263238" stroke-width="0.5" stroke-miterlimit="10"/>
<path d="M93.782 103.162H105.313" stroke="#263238" stroke-width="0.5" stroke-miterlimit="10"/>
<path d="M84.5912 103.162H92.5724" stroke="#263238" stroke-width="0.5" stroke-miterlimit="10"/>
<path d="M80.2244 103.162H83.5436" stroke="#263238" stroke-width="0.5" stroke-miterlimit="10"/>
<path d="M87.2012 106.045H80.2244" stroke="#263238" stroke-width="0.5" stroke-miterlimit="10"/>
<path d="M95.5064 106.045H88.0076" stroke="#263238" stroke-width="0.5" stroke-miterlimit="10"/>
<path d="M98.4908 106.045H96.3128" stroke="#263238" stroke-width="0.5" stroke-miterlimit="10"/>
<path d="M108.729 106.045H99.0524" stroke="#263238" stroke-width="0.5" stroke-miterlimit="10"/>
<path d="M121.304 106.045H109.777" stroke="#263238" stroke-width="0.5" stroke-miterlimit="10"/>
<path d="M130.495 106.045H122.514" stroke="#263238" stroke-width="0.5" stroke-miterlimit="10"/>
<path d="M134.862 106.045H131.542" stroke="#263238" stroke-width="0.5" stroke-miterlimit="10"/>
<path d="M127.885 108.803H134.862" stroke="#263238" stroke-width="0.5" stroke-miterlimit="10"/>
<path d="M119.583 108.803H127.078" stroke="#263238" stroke-width="0.5" stroke-miterlimit="10"/>
<path d="M116.599 108.803H118.777" stroke="#263238" stroke-width="0.5" stroke-miterlimit="10"/>
<path d="M106.36 108.803H116.034" stroke="#263238" stroke-width="0.5" stroke-miterlimit="10"/>
<path d="M93.782 108.803H105.313" stroke="#263238" stroke-width="0.5" stroke-miterlimit="10"/>
<path d="M84.5912 108.803H92.5724" stroke="#263238" stroke-width="0.5" stroke-miterlimit="10"/>
<path d="M80.2244 108.803H83.5436" stroke="#263238" stroke-width="0.5" stroke-miterlimit="10"/>
<path d="M87.2012 111.683H80.2244" stroke="#263238" stroke-width="0.5" stroke-miterlimit="10"/>
<path d="M95.5064 111.683H88.0076" stroke="#263238" stroke-width="0.5" stroke-miterlimit="10"/>
<path d="M98.4908 111.683H96.3128" stroke="#263238" stroke-width="0.5" stroke-miterlimit="10"/>
<path d="M108.729 111.683H99.0524" stroke="#263238" stroke-width="0.5" stroke-miterlimit="10"/>
<path d="M121.304 111.683H109.777" stroke="#263238" stroke-width="0.5" stroke-miterlimit="10"/>
<path d="M130.495 111.683H122.514" stroke="#263238" stroke-width="0.5" stroke-miterlimit="10"/>
<path d="M134.862 111.683H131.542" stroke="#263238" stroke-width="0.5" stroke-miterlimit="10"/>
<path d="M127.885 114.44H134.862" stroke="#263238" stroke-width="0.5" stroke-miterlimit="10"/>
<path d="M119.583 114.44H127.078" stroke="#263238" stroke-width="0.5" stroke-miterlimit="10"/>
<path d="M116.599 114.44H118.777" stroke="#263238" stroke-width="0.5" stroke-miterlimit="10"/>
<path d="M106.36 114.44H116.034" stroke="#263238" stroke-width="0.5" stroke-miterlimit="10"/>
<path d="M93.782 114.44H105.313" stroke="#263238" stroke-width="0.5" stroke-miterlimit="10"/>
<path d="M84.5912 114.44H92.5724" stroke="#263238" stroke-width="0.5" stroke-miterlimit="10"/>
<path d="M80.2244 114.44H83.5436" stroke="#263238" stroke-width="0.5" stroke-miterlimit="10"/>
<path d="M87.2012 117.324H80.2244" stroke="#263238" stroke-width="0.5" stroke-miterlimit="10"/>
<path d="M95.5064 117.324H88.0076" stroke="#263238" stroke-width="0.5" stroke-miterlimit="10"/>
<path d="M98.4908 117.324H96.3128" stroke="#263238" stroke-width="0.5" stroke-miterlimit="10"/>
<path d="M108.729 117.324H99.0524" stroke="#263238" stroke-width="0.5" stroke-miterlimit="10"/>
<path d="M121.304 117.324H109.777" stroke="#263238" stroke-width="0.5" stroke-miterlimit="10"/>
<path d="M130.495 117.324H122.514" stroke="#263238" stroke-width="0.5" stroke-miterlimit="10"/>
<path d="M134.862 117.324H131.542" stroke="#263238" stroke-width="0.5" stroke-miterlimit="10"/>
<path d="M157.39 117.407C157.39 117.407 149.11 119.387 146.23 123.527C143.35 127.667 136.51 140.627 134.71 143.147C132.91 145.667 126.79 149.267 125.71 154.487C124.63 159.707 125.89 163.307 131.47 166.187C137.05 169.067 144.43 163.127 148.75 161.507L148.93 167.987H193.93L195.55 160.247C195.55 160.247 205.45 161.147 208.15 160.247C210.85 159.347 214.45 161.507 214.81 159.347C215.17 157.187 213.55 152.687 211.39 148.907C209.23 145.127 209.23 146.207 207.07 140.987C204.91 135.767 203.29 130.907 201.49 126.407C199.69 121.907 195.936 118.08 192.451 116.925C188.966 115.769 180.97 116.507 177.91 116.147C174.85 115.787 157.39 117.407 157.39 117.407Z" fill="#AD88C6" stroke="#263238" stroke-width="0.5" stroke-linecap="round" stroke-linejoin="round"/>
<path d="M194.589 155.207C194.589 155.207 197.707 150.286 203.348 148.727" stroke="#263238" stroke-width="0.5" stroke-linecap="round" stroke-linejoin="round"/>
<path d="M203.197 144.36C203.676 144.115 204.169 143.896 204.673 143.705" stroke="#263238" stroke-width="0.5" stroke-linecap="round" stroke-linejoin="round"/>
<path d="M193.75 153.288C193.75 153.288 196.958 148.223 201.746 145.174" stroke="#263238" stroke-width="0.5" stroke-linecap="round" stroke-linejoin="round"/>
<path d="M195.91 135.238C194.11 139.763 191.468 147.499 191.95 152.806" stroke="#263238" stroke-width="0.5" stroke-linecap="round" stroke-linejoin="round"/>
<path d="M197.469 131.566C197.469 131.566 197.138 132.286 196.641 133.441" stroke="#263238" stroke-width="0.5" stroke-linecap="round" stroke-linejoin="round"/>
<path d="M134.959 149.785C137.417 150.468 139.623 151.852 141.309 153.767" stroke="#263238" stroke-width="0.5" stroke-linecap="round" stroke-linejoin="round"/>
<path d="M130.869 149.447C131.684 149.344 132.508 149.35 133.321 149.465" stroke="#263238" stroke-width="0.5" stroke-linecap="round" stroke-linejoin="round"/>
<path d="M137.569 146.477C139.682 147.982 142.389 150.48 143.469 153.886" stroke="#263238" stroke-width="0.5" stroke-linecap="round" stroke-linejoin="round"/>
<path d="M134.71 144.767C135.33 145.067 135.931 145.405 136.51 145.778" stroke="#263238" stroke-width="0.5" stroke-linecap="round" stroke-linejoin="round"/>
<path d="M165.102 126.472C165.102 126.472 167.424 130.342 173.23 130.212C179.037 130.083 181.485 123.761 181.485 120.535C181.485 117.31 179.422 115.117 174.004 116.406C168.586 117.695 162.52 117.828 165.102 126.472Z" fill="white" stroke="#263238" stroke-width="0.5" stroke-linecap="round" stroke-linejoin="round"/>
<path d="M166.005 118.858C166.005 118.858 164.457 124.15 165.102 126.472C165.559 128.009 166.21 129.482 167.038 130.856C167.038 130.856 171.423 126.727 172.078 126.212C172.734 125.698 176.722 130.212 177.241 130.727C177.759 131.242 180.722 129.438 181.626 125.179C182.529 120.92 181.885 115.891 180.981 114.602C180.078 113.314 179.044 113.184 179.044 113.184C179.044 113.184 169.36 112.151 166.005 118.858Z" fill="white" stroke="#263238" stroke-width="0.5" stroke-linecap="round" stroke-linejoin="round"/>
<path d="M166.909 119.376C166.909 119.376 170.649 125.698 171.812 125.824C172.975 125.95 178.13 121.698 179.552 118.213C180.974 114.728 179.808 110.988 179.808 110.988C179.808 110.988 175.423 116.536 172.456 118.343C169.49 120.15 166.909 119.376 166.909 119.376Z" fill="white" stroke="#263238" stroke-width="0.5" stroke-linecap="round" stroke-linejoin="round"/>
<path d="M172.456 118.343C170.87 119.363 168.958 119.749 167.1 119.423L166.974 119.488C167.218 119.894 168.147 121.432 169.155 122.893C169.988 123.076 170.86 122.935 171.592 122.497C175.315 120.532 178.206 113.918 178.206 113.918L176.553 114.739C175.228 116.136 173.709 117.576 172.456 118.343Z" fill="#263238" stroke="#263238" stroke-width="0.5" stroke-linecap="round" stroke-linejoin="round"/>
<path d="M154.006 85.0572C154.006 85.0572 145.705 98.3016 147.253 105.912C148.801 113.522 155.943 122.602 153.751 125.05C151.558 127.498 150.396 126.598 151.425 128.02C152.455 129.442 158.78 130.986 163.424 129.438C168.068 127.89 168.586 121.32 166.149 117.828C163.712 114.336 159.183 101.056 161.109 97.9596C163.035 94.8636 170.786 96.6708 173.493 97.9596C176.2 99.2484 179.689 106.862 179.3 110.344C178.911 113.825 180.463 121.828 185.751 121.954C191.04 122.08 192.458 116.914 192.458 116.914C192.458 116.914 188.977 117.688 188.977 115.751C188.977 113.814 191.814 111.366 190.525 105.948C189.236 100.53 186.266 99.4968 185.881 93.8196C185.496 88.1424 183.3 82.5948 178.911 79.3728C174.523 76.1508 162.909 71.514 154.006 85.0572Z" fill="#263238" stroke="#263238" stroke-width="0.5" stroke-linecap="round" stroke-linejoin="round"/>
<path d="M154.748 103.057C154.302 104.788 154.272 106.601 154.662 108.346C155.936 114.944 161.959 121.547 160.8 125.6C159.64 129.654 156.051 129.305 153.96 127.57" stroke="#6B6B6B" stroke-width="0.5" stroke-linecap="round" stroke-linejoin="round"/>
<path d="M157.095 99.5437C156.413 100.015 155.852 100.64 155.457 101.369" stroke="#6B6B6B" stroke-width="0.5" stroke-linecap="round" stroke-linejoin="round"/>
<path d="M158.701 120.514C159.429 121.525 159.838 122.731 159.874 123.977" stroke="#6B6B6B" stroke-width="0.5" stroke-linecap="round" stroke-linejoin="round"/>
<path d="M160.782 86.958C158.143 89.118 154.971 92.1348 152.696 95.7204C148.063 103.018 148.524 104.872 151.072 110.66C152.703 114.368 155.853 116.888 157.912 119.437" stroke="#6B6B6B" stroke-width="0.5" stroke-linecap="round" stroke-linejoin="round"/>
<path d="M165.663 83.4443C165.663 83.4443 164.349 84.2327 162.474 85.6367" stroke="#6B6B6B" stroke-width="0.5" stroke-linecap="round" stroke-linejoin="round"/>
<path d="M167.287 79.2756C167.287 79.2756 165.087 86.2236 165.433 87.6132" stroke="#6B6B6B" stroke-width="0.5" stroke-linecap="round" stroke-linejoin="round"/>
<path d="M185.751 119.2C186.298 119.609 186.906 119.932 187.551 120.157" stroke="#6B6B6B" stroke-width="0.5" stroke-linecap="round" stroke-linejoin="round"/>
<path d="M181.244 95.5657C183.274 97.0373 184.988 98.9018 186.284 101.048C190.687 107.996 187.328 109.616 185.244 113.44C184.092 115.553 184.142 117.101 184.851 118.22" stroke="#6B6B6B" stroke-width="0.5" stroke-linecap="round" stroke-linejoin="round"/>
<path d="M177.014 93.7512C177.905 93.8754 178.767 94.1531 179.563 94.572" stroke="#6B6B6B" stroke-width="0.5" stroke-linecap="round" stroke-linejoin="round"/>
<path d="M183.505 92.52C184.021 93.1246 184.483 93.7726 184.887 94.4568" stroke="#6B6B6B" stroke-width="0.5" stroke-linecap="round" stroke-linejoin="round"/>
<path d="M167.172 85.2983C167.172 85.2983 167.866 87.8471 174.12 87.9623C177.299 88.006 180.338 89.2855 182.59 91.5299" stroke="#6B6B6B" stroke-width="0.5" stroke-linecap="round" stroke-linejoin="round"/>
<path d="M165.876 88.2827C165.876 88.2827 158.78 94.6043 157.362 98.6039C155.943 102.604 160.602 112.021 161.102 113.44C161.653 114.952 163.161 116.359 164.198 117.54C165.883 119.455 168.406 121.993 171.204 121.615C174.692 121.144 178.27 115.744 179.808 112.925C181.345 110.106 181.629 105.84 181.629 105.84C181.629 105.84 183.429 105.97 183.429 103.518C183.429 101.066 183.685 97.3259 182.396 97.3259C181.545 97.3694 180.731 97.6863 180.074 98.2295C176.969 97.0281 174.058 95.376 171.434 93.3263C167.164 89.9603 165.876 88.2827 165.876 88.2827Z" fill="white" stroke="#263238" stroke-width="0.5" stroke-linecap="round" stroke-linejoin="round"/>
<path d="M166.264 111.118C166.316 111.364 166.42 111.597 166.569 111.8C166.718 112.003 166.91 112.172 167.13 112.294C167.351 112.416 167.595 112.49 167.846 112.509C168.097 112.529 168.35 112.494 168.586 112.406C170.52 111.892 170.779 111.247 170.779 111.247" stroke="#263238" stroke-width="0.5" stroke-linecap="round" stroke-linejoin="round"/>
<path d="M166.149 113.828C166.149 113.828 170.404 115.376 172.856 112.795" stroke="#263238" stroke-width="0.5" stroke-linecap="round" stroke-linejoin="round"/>
<path d="M169.749 100.667C169.749 100.667 171.427 98.7337 175.297 99.8929" stroke="#263238" stroke-width="0.5" stroke-linecap="round" stroke-linejoin="round"/>
<path d="M164.068 102.089C164.068 102.089 161.491 101.185 159.295 101.185" stroke="#263238" stroke-width="0.5" stroke-linecap="round" stroke-linejoin="round"/>
<path d="M166.65 103.637C164.732 102.797 162.678 102.315 160.587 102.215C157.232 102.089 156.717 102.604 156.847 103.118C156.976 103.633 157.102 109.055 160.069 109.57C163.035 110.084 165.876 109.57 166.39 108.151C166.905 106.733 166.65 103.637 166.65 103.637Z" stroke="#263238" stroke-width="0.5" stroke-linecap="round" stroke-linejoin="round"/>
<path d="M168.453 103.392C170.215 102.268 172.167 101.472 174.213 101.045C177.504 100.397 178.094 100.825 178.047 101.354C178 101.884 178.72 107.255 175.869 108.23C173.018 109.206 170.134 109.134 169.389 107.813C168.644 106.492 168.453 103.392 168.453 103.392Z" stroke="#263238" stroke-width="0.5" stroke-linecap="round" stroke-linejoin="round"/>
<path d="M166.65 103.637C166.891 103.422 167.192 103.284 167.512 103.24C167.833 103.196 168.159 103.249 168.45 103.392" stroke="#263238" stroke-width="0.5" stroke-linecap="round" stroke-linejoin="round"/>
<path d="M164.065 105.865C164.166 106.585 163.96 107.183 163.608 107.233C163.255 107.284 162.888 106.754 162.787 106.049C162.686 105.343 162.888 104.731 163.24 104.681C163.593 104.63 163.96 105.16 164.065 105.865Z" fill="#263238"/>
<path d="M173.223 105.221C173.324 105.941 173.122 106.539 172.77 106.589C172.417 106.639 172.05 106.11 171.945 105.405C171.841 104.699 172.046 104.087 172.399 104.037C172.752 103.986 173.122 104.515 173.223 105.221Z" fill="#263238"/>
<path d="M178.004 100.796L180.067 98.2188" stroke="#263238" stroke-width="0.5" stroke-linecap="round" stroke-linejoin="round"/>
<path d="M180.79 150.527C180.79 150.527 180.43 149.087 178.63 147.647C176.83 146.207 172.51 145.127 172.51 146.387C172.51 147.647 176.83 151.427 178.09 153.227C179.35 155.027 180.61 158.987 183.31 160.967C186.01 162.947 199.51 167.267 205.27 167.627C211.03 167.987 214.81 164.207 214.63 160.247C214.45 156.287 211.57 152.687 206.89 151.967C202.21 151.247 200.05 153.587 197.35 154.307C194.65 155.027 192.49 155.747 192.49 155.747C192.49 155.747 193.93 150.887 193.57 149.447C193.21 148.007 190.762 147.096 190.762 147.096L188.89 145.296C188.89 145.296 185.11 142.236 184.57 142.236C184.03 142.236 181.87 139.716 179.17 139.716C176.47 139.716 173.05 141.696 174.13 142.776C175.21 143.856 177.55 143.136 178.81 143.136C180.07 143.136 181.33 145.836 181.33 145.836C181.33 145.836 179.71 146.916 180.25 147.636C180.79 148.356 181.15 148.896 181.15 148.896L180.79 150.527Z" fill="white" stroke="#263238" stroke-width="0.5" stroke-linecap="round" stroke-linejoin="round"/>
<path d="M181.057 148.68C181.057 148.68 181.32 150.12 182.436 150.12C183.552 150.12 183.091 148.482 183.483 147.96C183.876 147.438 184.923 145.534 184.923 145.534" stroke="#263238" stroke-width="0.5" stroke-linecap="round" stroke-linejoin="round"/>
<path d="M190.172 147.359C190.172 147.359 187.616 149.785 187.418 149.918C187.22 150.052 186.633 151.427 186.172 152.147C185.712 152.867 184.599 153.065 184.272 152.147C183.944 151.229 184.401 149.785 184.794 149.13C185.186 148.475 186.435 146.506 186.435 146.506C186.435 146.506 187.288 145.26 188.469 145.26" stroke="#263238" stroke-width="0.5" stroke-linecap="round" stroke-linejoin="round"/>
<path d="M188.797 148.802C188.797 148.802 187.418 150.703 187.418 151.427C187.418 152.15 186.961 153.983 187.551 154.246C188.142 154.508 188.926 154.508 189.322 153.655C189.718 152.802 190.172 151.819 190.172 151.819C190.172 151.819 191.094 151.754 191.486 151.099" stroke="#263238" stroke-width="0.5" stroke-linecap="round" stroke-linejoin="round"/>
<path d="M190.172 151.819C190.367 152.258 190.719 152.609 191.158 152.802" stroke="#263238" stroke-width="0.5" stroke-linecap="round" stroke-linejoin="round"/>
<path d="M184.149 142.178C183.917 142.153 183.684 142.212 183.492 142.344C183.3 142.477 183.161 142.673 183.102 142.898C182.774 143.752 181.341 145.847 181.341 145.847" stroke="#263238" stroke-width="0.5" stroke-linecap="round" stroke-linejoin="round"/>
<path d="M182.958 146.769C183.075 147.243 183.163 147.724 183.22 148.209" stroke="#263238" stroke-width="0.5" stroke-linecap="round" stroke-linejoin="round"/>
<path d="M184.466 146.441C184.601 146.958 184.93 147.404 185.384 147.687" stroke="#263238" stroke-width="0.5" stroke-linecap="round" stroke-linejoin="round"/>
<path d="M192.49 155.747C192.49 155.747 191.112 160.366 190.032 161.568" stroke="#263238" stroke-width="0.5" stroke-linecap="round" stroke-linejoin="round"/>
<path d="M142.976 139.802L153.189 167.699C153.315 168.047 153.546 168.348 153.849 168.561C154.153 168.774 154.514 168.887 154.885 168.887H181.629C181.921 168.889 182.21 168.82 182.469 168.686C182.729 168.552 182.952 168.357 183.119 168.117C183.287 167.878 183.393 167.601 183.43 167.311C183.466 167.021 183.431 166.727 183.328 166.453L173.349 139.518C173.099 138.841 172.647 138.257 172.054 137.846C171.461 137.436 170.755 137.217 170.034 137.221L144.646 137.372C144.357 137.375 144.073 137.447 143.817 137.583C143.562 137.719 143.343 137.914 143.179 138.153C143.015 138.391 142.911 138.666 142.876 138.953C142.84 139.24 142.875 139.531 142.976 139.802Z" fill="#263238" stroke="#263238" stroke-width="0.5" stroke-linecap="round" stroke-linejoin="round"/>
<path d="M140.11 155.747L140.65 151.427C140.65 151.427 142.45 150.887 141.55 147.827C140.65 144.767 140.11 144.407 141.19 144.407C142.27 144.407 144.43 144.947 144.97 146.747C145.51 148.547 145.69 151.787 145.69 151.787C145.69 151.787 158.47 149.987 159.37 149.987C160.27 149.987 161.17 150.887 159.73 151.607C158.29 152.327 151.09 155.567 151.09 155.567C151.09 155.567 160.27 153.587 160.81 153.587C161.35 153.587 163.15 153.587 162.25 154.487C161.35 155.387 159.01 156.467 159.01 156.467C159.01 156.467 163.15 155.747 162.97 157.007C162.79 158.267 158.47 159.527 158.47 159.527C158.47 159.527 160.45 159.527 159.91 160.427C159.37 161.327 151.45 164.207 149.83 164.927C148.21 165.647 143.35 165.647 143.35 165.647C141.231 166.87 138.917 167.723 136.51 168.167C132.55 168.887 128.41 168.707 126.61 164.567C124.81 160.427 126.25 154.667 129.85 152.867C133.45 151.067 135.97 151.607 137.41 152.687C138.85 153.767 140.11 155.747 140.11 155.747Z" fill="white" stroke="#263238" stroke-width="0.5" stroke-linecap="round" stroke-linejoin="round"/>
<path d="M151.09 155.567L147.49 156.647" stroke="#263238" stroke-width="0.5" stroke-linecap="round" stroke-linejoin="round"/>
<path d="M159.01 156.467L148.57 159.707" stroke="#263238" stroke-width="0.5" stroke-linecap="round" stroke-linejoin="round"/>
<path d="M158.47 159.527L149.65 162.587" stroke="#263238" stroke-width="0.5" stroke-linecap="round" stroke-linejoin="round"/>
<path d="M140.11 155.747C140.11 155.747 139.39 157.187 137.23 155.747" stroke="#263238" stroke-width="0.5" stroke-linecap="round" stroke-linejoin="round"/>
<path d="M143.35 165.647L139.21 164.747" stroke="#263238" stroke-width="0.5" stroke-linecap="round" stroke-linejoin="round"/>
<path d="M145.69 151.787L141.91 152.507" stroke="#263238" stroke-width="0.5" stroke-linecap="round" stroke-linejoin="round"/>
<path d="M105.133 144.281C105.101 144.895 105.2 145.508 105.424 146.081C106.31 148.298 106.569 149.213 106.209 151.013" stroke="#263238" stroke-width="0.5" stroke-miterlimit="10" stroke-linecap="round"/>
<path d="M105.99 141.448C105.715 141.924 105.502 142.433 105.356 142.963" stroke="#263238" stroke-width="0.5" stroke-miterlimit="10" stroke-linecap="round"/>
<path d="M109.161 141.448C109.161 141.448 107.689 143.824 108.592 146.088C109.496 148.352 109.741 149.22 109.381 151.02" stroke="#263238" stroke-width="0.5" stroke-miterlimit="10" stroke-linecap="round"/>
<path d="M112.704 149.713C112.693 150.153 112.641 150.59 112.549 151.02" stroke="#263238" stroke-width="0.5" stroke-miterlimit="10" stroke-linecap="round"/>
<path d="M112.329 141.448C112.329 141.448 110.857 143.824 111.764 146.088C112.039 146.747 112.28 147.42 112.484 148.104" stroke="#263238" stroke-width="0.5" stroke-miterlimit="10" stroke-linecap="round"/>
<path d="M115.051 155.819C115.051 155.819 116.52 154.35 117.589 155.552C118.658 156.755 118.255 162.752 117.319 164.631C116.383 166.511 114.241 164.729 114.241 164.729V163.429C114.241 163.429 115.198 164.315 116.268 163.249C117.337 162.183 117.045 157.953 116.628 157.287C116.21 156.621 114.626 157.554 114.626 157.554L115.051 155.819Z" fill="white" stroke="#263238" stroke-width="0.5" stroke-linecap="round" stroke-linejoin="round"/>
<path d="M114.223 170.431H104.074L102.807 152.622H115.49L114.223 170.431Z" fill="white" stroke="#263238" stroke-width="0.5" stroke-linecap="round" stroke-linejoin="round"/>
</svg>
