<svg xmlns="http://www.w3.org/2000/svg" width="270" height="180" fill="none"><path fill="#FF725E" d="M212.049 39.665a63 63 0 0 0-1.8-2.848c-8.341-12.362-22.701-20.819-36.828-24.642a83.5 83.5 0 0 0-18.975-2.772c-41.984-1.422-58.706 31.68-72.58 40.205S46.629 72.72 48.069 103.32s23.48 59.4 66.172 61.2 45.54-17.431 69.375-24.549c15.776-4.708 27-20.613 32.472-35.308 7.481-20.034 7.128-46.051-4.039-64.998"/><path fill="#fff" d="M212.049 39.665a63 63 0 0 0-1.8-2.848c-8.341-12.362-22.701-20.819-36.828-24.642a83.5 83.5 0 0 0-18.975-2.772c-41.984-1.422-58.706 31.68-72.58 40.205S46.629 72.72 48.069 103.32s23.48 59.4 66.172 61.2 45.54-17.431 69.375-24.549c15.776-4.708 27-20.613 32.472-35.308 7.481-20.034 7.128-46.051-4.039-64.998" opacity=".7"/><path stroke="#263238" stroke-linecap="round" stroke-linejoin="round" stroke-width=".5" d="M220.243 167.994H61.749"/><g stroke="#000" stroke-linecap="round" stroke-linejoin="round" stroke-width=".5" opacity=".3"><path d="M131.071 14.57v131.59h42.746V14.57zm40.593 2.922v19.44h-17.791v-19.44zm-20.451 0v19.44h-18v-19.44zm-18 22.504h18v19.27h-18zm38.451 103.241h-38.44v-80.64h38.44zm-17.791-83.97V39.996h17.791v19.27z"/><path d="M173.652 14.57v131.59h42.742V14.57zm40.593 2.922v19.44h-17.791v-19.44zm-20.451 0v19.44h-18v-19.44zm-18 22.504h18v19.27h-18zm38.451 103.241h-38.441v-80.64h38.441zm-17.791-83.97V39.996h17.791v19.27zm-34.358 25.185-10.732 13.356m13.396-16.671-1.707 2.124m-23.357 24.285-2.199 2.585m16.452-19.328-12.607 14.81m63.993-17.082-10.731 13.356m13.395-16.671-1.706 2.12m-23.357 24.289-2.196 2.585m16.448-19.332-12.607 14.814m25.711-89.147-5.137 6.394m6.412-7.981-.817 1.018M199.572 31.6l-1.055 1.235m7.877-9.251-6.038 7.092m-10.108-10.131-5.138 6.394m6.412-7.981-.817 1.018M179.527 31.6l-1.051 1.235m7.873-9.251-6.034 7.092m9.933 13.82-5.138 6.393m6.412-7.981-.817 1.019m-11.178 11.625-1.051 1.234m7.873-9.252-6.034 7.092m27.81-10.13-5.137 6.393m6.412-7.981-.818 1.019m-11.178 11.625-1.051 1.234m7.873-9.252-6.033 7.092m-30.157-34.081-5.138 6.394m6.412-7.981-.817 1.018M157.315 31.6l-1.051 1.235m7.873-9.251-6.034 7.092m9.933 13.262-5.138 6.394m6.412-7.978-.817 1.015m-11.178 11.624-1.051 1.239m7.873-9.252-6.034 7.088m-9.569-10.13-5.137 6.394m6.412-7.978-.817 1.015M137.81 54.993l-1.051 1.239m7.873-9.252-6.034 7.088m8.579-33.523-5.137 6.394m6.415-7.981-.817 1.018M136.456 31.6l-1.051 1.235m7.873-9.251-6.033 7.092"/></g><path stroke="#263238" stroke-linecap="round" stroke-miterlimit="10" stroke-width=".5" d="M81.423 123.739s-3.96-2.192-4.244 2.783c-.285 4.975-1.03 37.31-1.03 37.31"/><path stroke="#263238" stroke-linecap="round" stroke-miterlimit="10" stroke-width=".5" d="M75.127 126.958s3.24 7.171 1.76 36.435"/><path fill="#92E3A9" d="M78.31 124.74s-1.513.968-2.373-.137.572-3.139-.702-4.003-3.463.457-3.463.457 1.688.493 1.634 1.419c-.054.925-.871 1.27-.98.867-.107-.403-.914-2.433-2.285-1.591a3.4 3.4 0 0 0-1.58 2.16s3.193-.342 3.387.86c.194 1.203-1.31-.212-2.628-.288s-2.52.116-2.434.915c.032.704-.01 1.41-.122 2.106a3.93 3.93 0 0 1 2.563-.907c1.44.086 1.397 1.008.08.932-1.318-.076-2.449 1.177-2.449 1.177s1.2 2.045 2.711 3.053c1.512 1.008 2.077.652 2.254-.13.176-.781-.23-2.79.691-2.736.922.054-1.526 3.478-.36 3.68s2.124-.137 2.434-.911l.31-.778s-.411-2.005-.231-2.79.392.025.601.961.342 3.194.745 3.086 1.689-1.75 1.991-2.394-1.696-2.61-1.674-3.006 1.566.36 1.8.766q.261.465.472.954s.96-.604.94-2.458c-.022-1.854-1.333-1.264-1.333-1.264"/><path fill="#263238" d="M78.31 124.74s-1.513.968-2.373-.137.572-3.139-.702-4.003-3.463.457-3.463.457 1.688.493 1.634 1.419c-.054.925-.871 1.27-.98.867-.107-.403-.914-2.433-2.285-1.591a3.4 3.4 0 0 0-1.58 2.16s3.193-.342 3.387.86c.194 1.203-1.31-.212-2.628-.288s-2.52.116-2.434.915c.032.704-.01 1.41-.122 2.106a3.93 3.93 0 0 1 2.563-.907c1.44.086 1.397 1.008.08.932-1.318-.076-2.449 1.177-2.449 1.177s1.2 2.045 2.711 3.053c1.512 1.008 2.077.652 2.254-.13.176-.781-.23-2.79.691-2.736.922.054-1.526 3.478-.36 3.68s2.124-.137 2.434-.911l.31-.778s-.411-2.005-.231-2.79.392.025.601.961.342 3.194.745 3.086 1.689-1.75 1.991-2.394-1.696-2.61-1.674-3.006 1.566.36 1.8.766q.261.465.472.954s.96-.604.94-2.458c-.022-1.854-1.333-1.264-1.333-1.264" opacity=".3"/><path stroke="#263238" stroke-linecap="round" stroke-miterlimit="10" stroke-width=".5" d="M70.634 129.085c.983-1.22 2.437-2.88 3.654-3.654m-4.798 5.137s.255-.36.662-.882m4.777-3.952s1.465 2.07 1.735 4.197m-3.394-2.974s.41-.241.255 2.394m.825-4.842s.834-.745.395-2.224m-1.533 3.477-.598-1.09m-.659 2.206s-1.897-1.44-3.085-1.504"/><path fill="#92E3A9" d="M83.68 120.838s-.06 2.16-1.756 2.278c-1.696.119-2.747-2.721-4.482-2.041s-1.901 3.78-1.901 3.78 1.645-1.353 2.52-.669.684 1.735.205 1.566-3.06-.742-3.15 1.206a4.1 4.1 0 0 0 1.08 3.052s1.836-3.427 3.168-2.804-1.102 1.17-2.077 2.434c-.976 1.263-1.599 2.602-.742 3.06.731.454 1.413.984 2.034 1.58a4.76 4.76 0 0 1 .843-3.186c1.08-1.393 1.958-.72.982.554-.975 1.275-.49 3.24-.49 3.24s2.88.198 4.933-.637 2.066-1.634 1.404-2.347c-.663-.713-2.952-1.67-2.268-2.556s2.444 3.899 3.449 2.858 1.306-2.221.741-3.06l-.565-.838s-2.286-.954-2.948-1.667c-.663-.713.291-.382 1.371.05s3.431 1.833 3.6 1.357c.17-.475-.601-2.88-1.04-3.625s-3.77-.083-4.151-.36c-.382-.277 1.44-1.325 1.998-1.285q.644.056 1.278.176s.05-1.375-1.822-2.613c-1.872-1.239-2.214.497-2.214.497"/><path fill="#263238" d="M83.68 120.838s-.06 2.16-1.756 2.278c-1.696.119-2.747-2.721-4.482-2.041s-1.901 3.78-1.901 3.78 1.645-1.353 2.52-.669.684 1.735.205 1.566-3.06-.742-3.15 1.206a4.1 4.1 0 0 0 1.08 3.052s1.836-3.427 3.168-2.804-1.102 1.17-2.077 2.434c-.976 1.263-1.599 2.602-.742 3.06.731.454 1.413.984 2.034 1.58a4.76 4.76 0 0 1 .843-3.186c1.08-1.393 1.958-.72.982.554-.975 1.275-.49 3.24-.49 3.24s2.88.198 4.933-.637 2.066-1.634 1.404-2.347c-.663-.713-2.952-1.67-2.268-2.556s2.444 3.899 3.449 2.858 1.306-2.221.741-3.06l-.565-.838s-2.286-.954-2.948-1.667c-.663-.713.291-.382 1.371.05s3.431 1.833 3.6 1.357c.17-.475-.601-2.88-1.04-3.625s-3.77-.083-4.151-.36c-.382-.277 1.44-1.325 1.998-1.285q.644.056 1.278.176s.05-1.375-1.822-2.613c-1.872-1.239-2.214.497-2.214.497" opacity=".2"/><path stroke="#263238" stroke-linecap="round" stroke-miterlimit="10" stroke-width=".5" d="M82.806 131.468c-.548-1.818-1.21-4.395-1.167-6.148m1.872 8.301s-.18-.493-.428-1.264m-.703-7.477s3.068-.054 5.4 1.127m-5.306 1.368s.04-.576 2.57 1.375m-4.29-4.115s-.177-1.346-1.959-1.911m2.445 3.899-1.502-.148m1.761 2.167s-2.729.922-3.6 2.06m-12.424 4.597s8.64 5.706 8.485 27.799"/><path fill="#92E3A9" d="M76.117 133.79s-.274 2.502-2.24 2.466c-1.965-.036-2.912-3.416-4.978-2.779-2.067.637-2.553 4.18-2.553 4.18s2.027-1.404 2.988-.533c.962.871.62 2.066.087 1.829-.533-.238-3.463-1.145-3.748 1.08a4.77 4.77 0 0 0 .954 3.625s2.445-3.784 3.924-2.938-1.382 1.246-2.628 2.614c-1.245 1.368-2.091 2.862-1.134 3.474a14.6 14.6 0 0 1 2.189 1.991s-.1-2.092 1.27-3.6c1.372-1.509 2.33-.634 1.08.72-1.248 1.353-.874 3.711-.874 3.711s3.298.497 5.76-.273c2.462-.771 2.52-1.692 1.843-2.574s-3.24-2.207-2.376-3.165c.864-.957 2.448 4.731 3.708 3.626 1.26-1.106 1.717-2.441 1.145-3.46l-.572-1.022s-2.55-1.322-3.24-2.204c-.692-.882.36-.41 1.58.188 1.22.597 3.784 2.44 4.021 1.904s-.425-3.384-.857-4.28-4.345-.45-4.755-.825 1.767-1.393 2.426-1.292q.737.125 1.458.324s.187-1.581-1.854-3.186c-2.041-1.606-2.624.399-2.624.399"/><path fill="#263238" d="M76.117 133.79s-.274 2.502-2.24 2.466c-1.965-.036-2.912-3.416-4.978-2.779-2.067.637-2.553 4.18-2.553 4.18s2.027-1.404 2.988-.533c.962.871.62 2.066.087 1.829-.533-.238-3.463-1.145-3.748 1.08a4.77 4.77 0 0 0 .954 3.625s2.445-3.784 3.924-2.938-1.382 1.246-2.628 2.614c-1.245 1.368-2.091 2.862-1.134 3.474a14.6 14.6 0 0 1 2.189 1.991s-.1-2.092 1.27-3.6c1.372-1.509 2.33-.634 1.08.72-1.248 1.353-.874 3.711-.874 3.711s3.298.497 5.76-.273c2.462-.771 2.52-1.692 1.843-2.574s-3.24-2.207-2.376-3.165c.864-.957 2.448 4.731 3.708 3.626 1.26-1.106 1.717-2.441 1.145-3.46l-.572-1.022s-2.55-1.322-3.24-2.204c-.692-.882.36-.41 1.58.188 1.22.597 3.784 2.44 4.021 1.904s-.425-3.384-.857-4.28-4.345-.45-4.755-.825 1.767-1.393 2.426-1.292q.737.125 1.458.324s.187-1.581-1.854-3.186c-2.041-1.606-2.624.399-2.624.399" opacity=".3"/><path stroke="#263238" stroke-linecap="round" stroke-miterlimit="10" stroke-width=".5" d="M74.104 145.976c-.46-2.16-.979-5.187-.763-7.2m1.369 9.753s-.16-.587-.36-1.498m-.112-8.698s3.546.227 6.12 1.8m-6.246 1.088s.097-.659 2.836 1.832m-4.564-5.155s-.076-1.57-2.081-2.39m2.451 4.73-1.717-.313m1.829 2.664s-3.24.81-4.36 2.041"/><path stroke="#263238" stroke-linecap="round" stroke-miterlimit="10" stroke-width=".5" d="M68.841 152.712s5.559 4.248 6.145 10.534l-1.173-21.071m8.489 7.463c-7.315-1.318-7.315 13.608-7.315 13.608"/><path stroke="#263238" stroke-linecap="round" stroke-miterlimit="10" stroke-width=".5" d="M75.861 163.098s-4.24-30.87 8.05-30.87"/><path fill="#92E3A9" d="M79.512 148.752c-.998-1.127-3.121-1.127-4.37 1.75s-.127 2.372-.127 2.372 2.376-.749 3.874-1.249 3.496-1.75 3.621-1.001c.126.749-.997 1.501-2.372 1.75-1.375.248-4.997 1.249-4.622 1.998.374.748 1.249 2.998 1.249 2.998a32 32 0 0 1 3.373-2.498c1.624-1.001 2.624-.626 1.75.5-.875 1.127-3.374 2.373-2.88 3.87.493 1.498 3.495 3.374 3.495 3.374s.36-3.122 1.25-4.122c.889-1.001.874.126.626 1.875q-.189 1.117-.252 2.247l3.5 1.249a25 25 0 0 1 1.871-2.499l.626-.622s-2.75-2.373-2.88-3.874 1.873 0 2.499.252 1.624 1.998 1.624 1.998.622-2.88.748-3.874l.126-1s-2.624-.998-3.625-.998-1.498.749-1.498-.252 1.001-1.623 2.125-1.497c1.017.17 2.02.421 2.998.749 0 0 .75-.623.497-2.499-.252-1.875-.871-1.872-2.372-1.371-1.501.5-2.499 1.623-3.622 1.623s-.5-1.375.249-1.749c.748-.375 2.624-1.124 2.998-1.25s-1.998-1.875-3.24-2.124c-1.242-.248-2.88.63-2.747 1.876.256 2.621-3.492 3.121-4.492 1.998"/><path stroke="#263238" stroke-linecap="round" stroke-miterlimit="10" stroke-width=".5" d="M87.554 161.611q.056.568.08 1.13m-2.589-10.101a33.2 33.2 0 0 1 2.35 7.743m-2.8-8.74c-.62-1.332-1.08-2.16-1.08-2.16a3.7 3.7 0 0 0 1.623-1.498 4.2 4.2 0 0 1 1.25-1.501m-7.251 7.265s4.497-1.876 4.497-1.502m2.498-.874s2.002-.998 3.748-.998m-4.497 3.997a17.4 17.4 0 0 0-2.372 2.372 10.8 10.8 0 0 0-1.75 2.88m5.497-4.752s2.625-.749 3.996.5"/><path fill="#92E3A9" d="M91.51 137.992c-1.36-.803-2.88-.821-3.6-1.671-.72-.849.72-1.278 1.484-.957.763.32 2.566 1.245 2.908 1.44s.105-2.74-.525-3.845-2.355-1.753-3.219-.85c-1.8 1.912-4.65-.594-4.456-2.084s-1.2-3.096-4.187-2.16-1.872 1.461-1.872 1.461 2.12 1.304 3.481 2.106c1.36.803 3.6 1.494 3.128 2.081-.471.587-1.8.227-2.88-.644s-4.215-2.945-4.543-2.171c-.327.774-1.44 2.909-1.44 2.909q2.08.319 4.097.911c1.8.568 2.192 1.569.77 1.648-1.422.08-4.003-.993-4.81.36-.806 1.354-.251 4.853-.251 4.853s2.603-1.764 3.931-1.76c1.328.003.479.741-1.004 1.699q-.969.593-1.865 1.289l1.35 3.459a25 25 0 0 1 3.117-.223l.879.061s0-3.632 1.04-4.708 1.231 1.414 1.44 2.052c.209.637-.446 2.52-.446 2.52s2.581-1.412 3.416-1.973l.839-.558s-.968-2.639-1.624-3.391c-.655-.753-1.548-.641-.792-1.296.756-.656 1.883-.31 2.52.619a19.4 19.4 0 0 1 1.433 2.779s.961.155 2.214-1.26.828-1.89-.533-2.696m-11.822 3.999c-1-.5 1.375-1.497 1.375-1.497.875-.126-.374 1.998-1.375 1.497m1.681-4.662c-.425-.212.853-.641.853-.641 1.847.357-.424.854-.853.641"/><path stroke="#263238" stroke-linecap="round" stroke-miterlimit="10" stroke-width=".5" d="M79.663 144.536q-.392.41-.803.8m5.93-8.572a33 33 0 0 1-4.32 6.84m4.78-7.837c.62-1.343.907-2.207.907-2.207.69.304 1.456.389 2.196.245a4.2 4.2 0 0 1 1.951-.04m-10.22-.742s4.363 2.16 4.079 2.416m2.3 1.314s2.063.853 3.212 2.16m-5.965-.763a17.4 17.4 0 0 0-3.349-.234 10.8 10.8 0 0 0-3.315.562m7.185 1.036s2.286 1.491 2.243 3.348"/><path fill="#92E3A9" d="M72.1 155.3c-1.08-.644-2.305-.658-2.88-1.342-.577-.684.572-1.03 1.194-.771.623.259 2.067 1.001 2.34 1.163.274.162.083-2.203-.42-3.096-.505-.893-1.898-1.408-2.59-.68-1.464 1.537-3.743-.479-3.6-1.678.145-1.199-.964-2.491-3.369-1.735s-1.508 1.177-1.508 1.177 1.71 1.048 2.804 1.692c1.095.644 2.905 1.206 2.52 1.678-.385.471-1.44.18-2.315-.522-.874-.702-3.394-2.376-3.654-1.754-.259.623-1.162 2.34-1.162 2.34a26 26 0 0 1 3.297.72c1.465.461 1.764 1.268.62 1.329s-3.24-.799-3.867.295-.216 3.924-.216 3.924 2.095-1.44 3.175-1.422.385.598-.81 1.368q-.778.475-1.497 1.033l1.08 2.783a20 20 0 0 1 2.52-.176l.72.05s0-2.923.838-3.791c.84-.867.987 1.138 1.163 1.649s-.36 2.041-.36 2.041 2.077-1.134 2.75-1.587l.674-.45s-.778-2.121-1.307-2.729c-.53-.609-1.246-.515-.637-1.044.608-.529 1.512-.249 2.03.5q.647 1.064 1.116 2.218s.774.126 1.8-1.015.645-1.52-.45-2.168m-9.516 3.219c-.802-.4 1.11-1.199 1.11-1.199.701-.108-.303 1.602-1.11 1.199m1.358-3.751c-.36-.173.684-.515.684-.515 1.486.284-.357.684-.684.515"/><path stroke="#263238" stroke-linecap="round" stroke-miterlimit="10" stroke-width=".5" d="M62.563 160.56c-.209.22-.421.436-.645.644m4.77-6.894a26.4 26.4 0 0 1-3.463 5.53m3.838-6.332c.482-1.08.72-1.8.72-1.8a3 3 0 0 0 1.767.198 3.4 3.4 0 0 1 1.574-.033m-8.219-.569s3.51 1.743 3.283 1.941m1.851 1.058s1.66.688 2.58 1.75m-4.799-.623a14 14 0 0 0-2.696-.191 8.7 8.7 0 0 0-2.667.454m5.785.835s1.84 1.199 1.8 2.693"/><path fill="#92E3A9" d="M67.635 134.676s-1.371.997-2.246 0 .36-2.999-.875-3.748-3.24.623-3.24.623 1.624.36 1.624 1.249-.75 1.249-.875.875c-.126-.374-1.001-2.25-2.25-1.375a3.2 3.2 0 0 0-1.372 2.124s2.995-.501 3.24.626-1.249-.126-2.498-.126-2.373.249-2.25 1.001a9.8 9.8 0 0 1 0 1.998 3.72 3.72 0 0 1 2.376-1.001c1.371 0 1.371.875.122.875s-2.246 1.249-2.246 1.249 1.249 1.872 2.747 2.747 1.998.5 2.124-.248c.126-.749-.36-2.625.5-2.625s-1.25 3.373-.126 3.499c1.123.126 1.998-.248 2.25-1l.248-.749s-.5-1.872-.36-2.625.36 0 .623.875.5 2.999.875 2.88c.374-.119 1.483-1.76 1.735-2.379.252-.62-1.75-2.373-1.75-2.747 0-.375 1.502.248 1.75.623.249.374.5.874.5.874s.875-.622.75-2.372c-.127-1.75-1.376-1.123-1.376-1.123"/><path stroke="#263238" stroke-linecap="round" stroke-miterlimit="10" stroke-width=".5" d="M60.64 139.205c.86-1.206 2.142-2.844 3.24-3.658m-4.237 5.123s.22-.36.576-.868m4.295-4.003s1.498 1.872 1.872 3.874m-3.37-2.625s.36-.252.36 2.247m.512-4.619s.752-.752.252-2.124m-1.25 3.373-.626-1.001m-.497 2.124s-1.875-1.249-2.999-1.249"/><path fill="#263238" stroke="#263238" stroke-linecap="round" stroke-miterlimit="10" stroke-width=".5" d="M80.25 162.662h-9.656v5.098h9.656z"/><path fill="#000" d="M160.116 10.584h-91.16a3.78 3.78 0 0 0-3.78 3.78v110.48a3.78 3.78 0 0 0 3.78 3.78h91.16a3.78 3.78 0 0 0 3.78-3.78V14.364a3.78 3.78 0 0 0-3.78-3.78" opacity=".2"/><path fill="#E3E3E3" stroke="#263238" stroke-linecap="round" stroke-linejoin="round" stroke-width=".5" d="M157.236 8.424h-91.16a3.78 3.78 0 0 0-3.78 3.78v110.48a3.78 3.78 0 0 0 3.78 3.78h91.16a3.78 3.78 0 0 0 3.78-3.78V12.204a3.78 3.78 0 0 0-3.78-3.78"/><path fill="#fff" stroke="#263238" stroke-linecap="round" stroke-linejoin="round" stroke-width=".5" d="M146.594 8.424h-73.58v118.04h73.58z"/><path fill="#B2B2B2" stroke="#263238" stroke-linecap="round" stroke-linejoin="round" stroke-width=".5" d="M157.74 8.701v117.994a3.69 3.69 0 0 0 3.279-3.665V12.366a3.687 3.687 0 0 0-3.279-3.665"/><path fill="gray" stroke="#263238" stroke-linecap="round" stroke-linejoin="round" stroke-width=".5" d="M161.019 54.464h-3.279v18.504h3.279z"/><path fill="#B2B2B2" stroke="#263238" stroke-linecap="round" stroke-linejoin="round" stroke-width=".5" d="M161.019 23.922V12.366a3.68 3.68 0 0 0-1.081-2.608 3.68 3.68 0 0 0-2.609-1.078H65.986a3.686 3.686 0 0 0-3.69 3.686v11.556z"/><path fill="#fff" stroke="#263238" stroke-linecap="round" stroke-linejoin="round" stroke-width=".5" d="M109.716 14.652H67.714v2.794h42.002z"/><path fill="#263238" stroke="#263238" stroke-linecap="round" stroke-linejoin="round" stroke-width=".5" d="M161.016 18.947h-98.72v4.975h98.72z"/><path stroke="#fff" stroke-linecap="round" stroke-linejoin="round" stroke-width=".5" d="M64.586 20.24h2.567m-2.567 1.115h2.567m-2.567 1.116h2.567m10.713-2.279v2.902m15.131-2.902v2.902m15.131-2.902v2.902m15.127-2.902v2.902m15.131-2.902v2.902"/><path fill="#263238" stroke="#263238" stroke-linecap="round" stroke-linejoin="round" stroke-width=".5" d="M161.019 12.978v-.612a3.68 3.68 0 0 0-1.081-2.608 3.68 3.68 0 0 0-2.609-1.078H65.986a3.686 3.686 0 0 0-3.69 3.686v.612z"/><path fill="#fff" stroke="#263238" stroke-linecap="round" stroke-linejoin="round" stroke-width=".5" d="M146.9 11.941a1.102 1.102 0 1 0 0-2.204 1.102 1.102 0 0 0 0 2.204m3.474 0a1.102 1.102 0 1 0 0-2.204 1.102 1.102 0 0 0 0 2.204m4.576-1.101a1.103 1.103 0 1 0-2.205.001 1.103 1.103 0 0 0 2.205-.001"/><path fill="#B2B2B2" stroke="#263238" stroke-linecap="round" stroke-linejoin="round" stroke-width=".5" d="M62.296 119.578v3.452a3.69 3.69 0 0 0 3.69 3.69h91.343a3.69 3.69 0 0 0 3.69-3.69v-3.452z"/><path fill="#92E3A9" stroke="#263238" stroke-linecap="round" stroke-linejoin="round" stroke-width=".5" d="M134.865 40.709H80.149v30.672h54.716z"/><path fill="#fff" stroke="#263238" stroke-linecap="round" stroke-linejoin="round" stroke-width=".5" d="m134.862 57.913-12.226-7.877-12.438 12.435-8.705-10.156-20.768 18.72-.576.35h54.713zM88.645 52.11a4.352 4.352 0 1 0 0-8.705 4.352 4.352 0 0 0 0 8.705"/><path stroke="#263238" stroke-miterlimit="10" stroke-width=".5" d="M80.354 73.455h54.302m-54.302 2.487h32.54m14.991 4.655h6.977m-15.279 0h7.495m-10.479 0h2.178m-12.417 0h9.674m-22.252 0h11.531m-20.722 0h7.981m-12.348 0h3.32m3.657 2.883h-6.977m15.282 0h-7.498m10.482 0h-2.177m12.416 0h-9.677m22.252 0h-11.527m20.718 0h-7.981m12.348 0h-3.32m-3.657 2.758h6.977m-15.279 0h7.495m-10.479 0h2.178m-12.417 0h9.674m-22.252 0h11.531m-20.722 0h7.981m-12.348 0h3.32m3.657 2.884h-6.977m15.282 0h-7.498m10.482 0h-2.177m12.416 0h-9.677m22.252 0h-11.527m20.718 0h-7.981m12.348 0h-3.32m-3.657 2.758h6.977m-15.279 0h7.495m-10.479 0h2.178m-12.417 0h9.674m-22.252 0h11.531m-20.722 0h7.981m-12.348 0h3.32m3.657 2.883h-6.977m15.282 0h-7.498m10.482 0h-2.177m12.416 0h-9.677m22.252 0h-11.527m20.718 0h-7.981m12.348 0h-3.32m-3.657 2.757h6.977m-15.279 0h7.495m-10.479 0h2.178m-12.417 0h9.674m-22.252 0h11.531m-20.722 0h7.981m-12.348 0h3.32m3.657 2.884h-6.977m15.282 0h-7.498m10.482 0h-2.177m12.416 0h-9.677m22.252 0h-11.527m20.718 0h-7.981m12.348 0h-3.32m-3.657 2.758h6.977m-15.279 0h7.495m-10.479 0h2.178m-12.417 0h9.674m-22.252 0h11.531m-20.722 0h7.981m-12.348 0h3.32m3.657 2.883h-6.977m15.282 0h-7.498m10.482 0h-2.177m12.416 0h-9.677m22.252 0h-11.527m20.718 0h-7.981m12.348 0h-3.32m-3.657 2.758h6.977m-15.279 0h7.495m-10.479 0h2.178m-12.417 0h9.674m-22.252 0h11.531m-20.722 0h7.981m-12.348 0h3.32m3.657 2.88h-6.977m15.282 0h-7.498m10.482 0h-2.177m12.416 0h-9.677m22.252 0h-11.527m20.718 0h-7.981m12.348 0h-3.32m-3.657 2.757h6.977m-15.279 0h7.495m-10.479 0h2.178m-12.417 0h9.674m-22.252 0h11.531m-20.722 0h7.981m-12.348 0h3.32m3.657 2.884h-6.977m15.282 0h-7.498m10.482 0h-2.177m12.416 0h-9.677m22.252 0h-11.527m20.718 0h-7.981m12.348 0h-3.32"/><path fill="#AD88C6" stroke="#263238" stroke-linecap="round" stroke-linejoin="round" stroke-width=".5" d="M157.39 117.407s-8.28 1.98-11.16 6.12-9.72 17.1-11.52 19.62-7.92 6.12-9 11.34.18 8.82 5.76 11.7 12.96-3.06 17.28-4.68l.18 6.48h45l1.62-7.74s9.9.9 12.6 0 6.3 1.26 6.66-.9-1.26-6.66-3.42-10.44-2.16-2.7-4.32-7.92-3.78-10.08-5.58-14.58-5.554-8.327-9.039-9.482c-3.485-1.156-11.481-.418-14.541-.778s-20.52 1.26-20.52 1.26"/><path stroke="#263238" stroke-linecap="round" stroke-linejoin="round" stroke-width=".5" d="M194.589 155.207s3.118-4.921 8.759-6.48m-.151-4.367a15 15 0 0 1 1.476-.655m-10.923 9.583s3.208-5.065 7.996-8.114m-5.836-9.936c-1.8 4.525-4.442 12.261-3.96 17.568m5.519-21.24s-.331.72-.828 1.875m-61.682 16.344a13.15 13.15 0 0 1 6.35 3.982m-10.44-4.32a9.2 9.2 0 0 1 2.452.018m4.248-2.988c2.113 1.505 4.82 4.003 5.9 7.409m-8.759-9.119q.93.45 1.8 1.011"/><path fill="#fff" stroke="#263238" stroke-linecap="round" stroke-linejoin="round" stroke-width=".5" d="M165.102 126.472s2.322 3.87 8.128 3.74c5.807-.129 8.255-6.451 8.255-9.677s-2.063-5.418-7.481-4.129-11.484 1.422-8.902 10.066"/><path fill="#fff" stroke="#263238" stroke-linecap="round" stroke-linejoin="round" stroke-width=".5" d="M166.005 118.858s-1.548 5.292-.903 7.614a19 19 0 0 0 1.936 4.384s4.385-4.129 5.04-4.644c.656-.514 4.644 4 5.163 4.515.518.515 3.481-1.289 4.385-5.548s.259-9.288-.645-10.577c-.903-1.288-1.937-1.418-1.937-1.418s-9.684-1.033-13.039 5.674"/><path fill="#fff" stroke="#263238" stroke-linecap="round" stroke-linejoin="round" stroke-width=".5" d="M166.909 119.376s3.74 6.322 4.903 6.448 6.318-4.126 7.74-7.611.256-7.225.256-7.225-4.385 5.548-7.352 7.355c-2.966 1.807-5.547 1.033-5.547 1.033"/><path fill="#263238" stroke="#263238" stroke-linecap="round" stroke-linejoin="round" stroke-width=".5" d="M172.456 118.343a7.5 7.5 0 0 1-5.356 1.08l-.126.065a69 69 0 0 0 2.181 3.405 3.35 3.35 0 0 0 2.437-.396c3.723-1.965 6.614-8.579 6.614-8.579l-1.653.821c-1.325 1.397-2.844 2.837-4.097 3.604"/><path fill="#263238" stroke="#263238" stroke-linecap="round" stroke-linejoin="round" stroke-width=".5" d="M154.006 85.057s-8.301 13.245-6.753 20.855 8.69 16.69 6.498 19.138c-2.193 2.448-3.355 1.548-2.326 2.97 1.03 1.422 7.355 2.966 11.999 1.418s5.162-8.118 2.725-11.61-6.966-16.772-5.04-19.868 9.677-1.29 12.384 0c2.707 1.288 6.196 8.902 5.807 12.384-.389 3.481 1.163 11.484 6.451 11.61 5.289.126 6.707-5.04 6.707-5.04s-3.481.774-3.481-1.163 2.837-4.385 1.548-9.803-4.259-6.451-4.644-12.128-2.581-11.225-6.97-14.447-16.002-7.859-24.905 5.684"/><path stroke="#6B6B6B" stroke-linecap="round" stroke-linejoin="round" stroke-width=".5" d="M154.748 103.057a11.3 11.3 0 0 0-.086 5.289c1.274 6.598 7.297 13.201 6.138 17.254-1.16 4.054-4.749 3.705-6.84 1.97m3.135-28.026a5.3 5.3 0 0 0-1.638 1.825"/><path stroke="#6B6B6B" stroke-linecap="round" stroke-linejoin="round" stroke-width=".5" d="M158.701 120.514a6.23 6.23 0 0 1 1.173 3.463m.908-37.019c-2.639 2.16-5.811 5.177-8.086 8.762-4.633 7.298-4.172 9.152-1.624 14.94 1.631 3.708 4.781 6.228 6.84 8.777m7.751-35.993s-1.314.789-3.189 2.193m4.813-6.361s-2.2 6.948-1.854 8.337m20.318 31.587a6.7 6.7 0 0 0 1.8.957m-6.307-24.591a18.7 18.7 0 0 1 5.04 5.482c4.403 6.948 1.044 8.568-1.04 12.392-1.152 2.113-1.102 3.661-.393 4.78m-7.837-24.469a7.8 7.8 0 0 1 2.549.821m3.942-2.052a14 14 0 0 1 1.382 1.937m-17.715-9.159s.694 2.55 6.948 2.664a12.24 12.24 0 0 1 8.47 3.568"/><path fill="#fff" stroke="#263238" stroke-linecap="round" stroke-linejoin="round" stroke-width=".5" d="M165.876 88.283s-7.096 6.321-8.514 10.32c-1.419 4.001 3.24 13.418 3.74 14.837.551 1.512 2.059 2.919 3.096 4.1 1.685 1.915 4.208 4.453 7.006 4.075 3.488-.471 7.066-5.871 8.604-8.69s1.821-7.085 1.821-7.085 1.8.13 1.8-2.322.256-6.192-1.033-6.192a3.96 3.96 0 0 0-2.322.904 34 34 0 0 1-8.64-4.904c-4.27-3.366-5.558-5.043-5.558-5.043"/><path stroke="#263238" stroke-linecap="round" stroke-linejoin="round" stroke-width=".5" d="M166.264 111.118a1.75 1.75 0 0 0 2.322 1.288c1.934-.514 2.193-1.159 2.193-1.159m-4.63 2.581s4.255 1.548 6.707-1.033m-3.107-12.128s1.678-1.933 5.548-.774m-11.229 2.196s-2.577-.904-4.773-.904m7.355 2.452a17.2 17.2 0 0 0-6.063-1.422c-3.355-.126-3.87.389-3.74.903.129.515.255 5.937 3.222 6.452s5.807 0 6.321-1.419c.515-1.418.26-4.514.26-4.514m1.803-.245a17.3 17.3 0 0 1 5.76-2.347c3.291-.648 3.881-.22 3.834.309-.047.53.673 5.901-2.178 6.876s-5.735.904-6.48-.417-.936-4.421-.936-4.421m-1.803.245a1.63 1.63 0 0 1 1.8-.245"/><path fill="#263238" d="M164.065 105.865c.101.72-.105 1.318-.457 1.368s-.72-.479-.821-1.184c-.101-.706.101-1.318.453-1.368.353-.051.72.479.825 1.184m9.158-.644c.101.72-.101 1.318-.453 1.368-.353.05-.72-.479-.825-1.184-.104-.706.101-1.318.454-1.368s.723.478.824 1.184"/><path stroke="#263238" stroke-linecap="round" stroke-linejoin="round" stroke-width=".5" d="m178.004 100.796 2.063-2.577"/><path fill="#fff" stroke="#263238" stroke-linecap="round" stroke-linejoin="round" stroke-width=".5" d="M180.79 150.527s-.36-1.44-2.16-2.88-6.12-2.52-6.12-1.26 4.32 5.04 5.58 6.84 2.52 5.76 5.22 7.74 16.2 6.3 21.96 6.66 9.54-3.42 9.36-7.38-3.06-7.56-7.74-8.28-6.84 1.62-9.54 2.34-4.86 1.44-4.86 1.44 1.44-4.86 1.08-6.3-2.808-2.351-2.808-2.351l-1.872-1.8s-3.78-3.06-4.32-3.06-2.7-2.52-5.4-2.52-6.12 1.98-5.04 3.06 3.42.36 4.68.36 2.52 2.7 2.52 2.7-1.62 1.08-1.08 1.8.9 1.26.9 1.26z"/><path stroke="#263238" stroke-linecap="round" stroke-linejoin="round" stroke-width=".5" d="M181.057 148.68s.263 1.44 1.379 1.44.655-1.638 1.047-2.16c.393-.522 1.44-2.426 1.44-2.426m5.249 1.825s-2.556 2.426-2.754 2.559c-.198.134-.785 1.509-1.246 2.229s-1.573.918-1.9 0c-.328-.918.129-2.362.522-3.017.392-.655 1.641-2.624 1.641-2.624s.853-1.246 2.034-1.246"/><path stroke="#263238" stroke-linecap="round" stroke-linejoin="round" stroke-width=".5" d="M188.797 148.802s-1.379 1.901-1.379 2.625c0 .723-.457 2.556.133 2.819s1.375.262 1.771-.591l.85-1.836s.922-.065 1.314-.72"/><path stroke="#263238" stroke-linecap="round" stroke-linejoin="round" stroke-width=".5" d="M190.172 151.819c.195.439.547.79.986.983m-7.009-10.624a.975.975 0 0 0-1.047.72c-.328.854-1.761 2.949-1.761 2.949m1.617.922q.176.712.262 1.44m1.246-1.768c.135.517.464.963.918 1.246m7.106 8.06s-1.378 4.619-2.458 5.821"/><path fill="#263238" stroke="#263238" stroke-linecap="round" stroke-linejoin="round" stroke-width=".5" d="m142.976 139.802 10.213 27.897a1.81 1.81 0 0 0 1.696 1.188h26.744a1.803 1.803 0 0 0 1.801-1.576c.036-.29.001-.584-.102-.858l-9.979-26.935a3.52 3.52 0 0 0-3.315-2.297l-25.388.151a1.8 1.8 0 0 0-1.467.781 1.8 1.8 0 0 0-.203 1.649"/><path fill="#fff" stroke="#263238" stroke-linecap="round" stroke-linejoin="round" stroke-width=".5" d="m140.11 155.747.54-4.32s1.8-.54.9-3.6-1.44-3.42-.36-3.42 3.24.54 3.78 2.34.72 5.04.72 5.04 12.78-1.8 13.68-1.8 1.8.9.36 1.62-8.64 3.96-8.64 3.96 9.18-1.98 9.72-1.98 2.34 0 1.44.9-3.24 1.98-3.24 1.98 4.14-.72 3.96.54-4.5 2.52-4.5 2.52 1.98 0 1.44.9-8.46 3.78-10.08 4.5-6.48.72-6.48.72a21.5 21.5 0 0 1-6.84 2.52c-3.96.72-8.1.54-9.9-3.6s-.36-9.9 3.24-11.7 6.12-1.26 7.56-.18 2.7 3.06 2.7 3.06"/><path stroke="#263238" stroke-linecap="round" stroke-linejoin="round" stroke-width=".5" d="m151.09 155.567-3.6 1.08m11.52-.18-10.44 3.24m9.9-.18-8.82 3.06m-9.54-6.84s-.72 1.44-2.88 0m6.12 9.9-4.14-.9m6.48-12.96-3.78.72"/><path stroke="#263238" stroke-linecap="round" stroke-miterlimit="10" stroke-width=".5" d="M105.133 144.281a4.3 4.3 0 0 0 .291 1.8c.886 2.217 1.145 3.132.785 4.932m-.219-9.565a6.5 6.5 0 0 0-.634 1.515m3.805-1.515s-1.472 2.376-.569 4.64c.904 2.264 1.149 3.132.789 4.932m3.323-1.307a7 7 0 0 1-.155 1.307m-.22-9.572s-1.472 2.376-.565 4.64q.413.99.72 2.016"/><path fill="#fff" stroke="#263238" stroke-linecap="round" stroke-linejoin="round" stroke-width=".5" d="M115.051 155.819s1.469-1.469 2.538-.267c1.069 1.203.666 7.2-.27 9.079s-3.078.098-3.078.098v-1.3s.957.886 2.027-.18c1.069-1.066.777-5.296.36-5.962s-2.002.267-2.002.267z"/><path fill="#fff" stroke="#263238" stroke-linecap="round" stroke-linejoin="round" stroke-width=".5" d="M114.223 170.431h-10.149l-1.267-17.809h12.683z"/></svg>