<svg xmlns="http://www.w3.org/2000/svg" width="270" height="180" fill="none"><path fill="#FF725E" d="M211.126 24.008c-25.72-3.362-40.325 10.955-74.904 12.514C101.88 33.84 88.785 19.04 62.757 21.546c-28.005 2.693-49.697 39.32-43.525 75.96 6.173 36.641 44.425 57.121 63.98 56.995 15.63-.101 29.435-6.48 47.257-8.013 17.629 2.116 30.745 8.946 46.336 9.565 19.508.777 59.833-18.403 69.826-54.774s-7.83-73.656-35.505-77.27"/><path fill="#fff" d="M211.126 24.008c-25.72-3.362-40.325 10.955-74.904 12.514C101.88 33.84 88.785 19.04 62.757 21.546c-28.005 2.693-49.697 39.32-43.525 75.96 6.173 36.641 44.425 57.121 63.98 56.995 15.63-.101 29.435-6.48 47.257-8.013 17.629 2.116 30.745 8.946 46.336 9.565 19.508.777 59.833-18.403 69.826-54.774s-7.83-73.656-35.505-77.27" opacity=".7"/><path stroke="#263238" stroke-linecap="round" stroke-linejoin="round" stroke-width=".5" d="M12.199 163.04h250.869"/><g fill="#000" opacity=".15"><path d="M72.125 28.663c-1.514 1.494-5.993 3.1-5.997 3.1s-.158-3.287-.14-3.496c.194-2.419 1.987-6.984 4.627-7.607 1.9-.45 3.587.98 3.841 2.844.255 1.865-1.04 3.885-2.331 5.16"/><path d="M69.413 89.215c.022.108.044.209.061.317l-1.406 1.303a84 84 0 0 1-.233-1.332 137 137 0 0 1-.642-4.093 35 35 0 0 1-4.081-.306c-.76 1.908-3.45 4.831-3.802 5.206a149 149 0 0 0 4.218 4.356l-1.679.648-1.133-1.196c-.893-.954-1.83-1.99-2.784-3.06-.437.281-4.027 2.57-6 2.859-1.793.259-4.143.09-5.502-1.264-1.36-1.353-1.435-3.542.068-4.788 2.091-1.731 6.797-.403 8.834.907.122.08 1.334 1.062 2.088 1.696-.388-.44-.768-.864-1.159-1.321-.785-.9-1.539-1.822-2.353-2.812l-1.144-1.487c-.39-.49-.742-1.058-1.119-1.587a64 64 0 0 1-2.432-3.895c-.785.687-3.619 3.081-5.355 3.6-1.735.518-4.078.72-5.627-.41-1.55-1.131-1.955-3.284-.656-4.746 1.793-2.03 6.66-1.44 8.87-.446.14.061 1.646.947 2.467 1.44-.463-.806-.925-1.61-1.367-2.44-1.273-2.398-2.485-4.868-3.705-7.327-.358-.752-.756-1.497-1.137-2.246-.276.248-3.586 3.168-5.527 3.762-1.728.529-4.078.72-5.623-.41-1.546-1.131-1.959-3.284-.657-4.745 1.794-2.03 6.657-1.44 8.87-.447.165.076 2.335 1.354 2.87 1.703-.836-1.645-1.683-3.28-2.583-4.856a57 57 0 0 0-4.017-6.15c-.13.116-3.562 3.18-5.556 3.788-1.729.53-4.078.72-5.627-.41-1.55-1.13-1.955-3.284-.653-4.745 1.793-2.03 6.657-1.44 8.87-.447.172.08 2.51 1.44 2.908 1.732-.086-.112-.16-.238-.25-.36a41 41 0 0 0-5.068-5.332 47 47 0 0 0-3.02-2.49c-.585.633-3.271 3.513-5.004 4.258-1.664.72-3.977 1.163-5.638.212-1.66-.95-2.303-3.045-1.173-4.644 1.575-2.214 6.456-2.16 8.77-1.418.125.04 1.355.587 2.245.997-.46-.338-.926-.698-1.37-1.015-1.668-1.195-3.271-2.182-4.695-3.05a78 78 0 0 0-2.263-1.295c-.897.324-4.52 1.591-6.367 1.44s-4.064-.749-5.1-2.373c-1.037-1.623-.646-3.776 1.094-4.662 2.41-1.238 6.721 1.08 8.432 2.794.147.151 2.191 2.74 2.152 2.758l-.054.018c.685.36 1.413.756 2.199 1.202 1.435.835 3.077 1.8 4.777 2.956a57 57 0 0 1 5.305 4.01 41.7 41.7 0 0 1 5.247 5.288q.03.035.054.072c-.298-.741-1.076-2.836-1.097-3.002-.567-2.362-.28-7.261 2.033-8.68 1.668-1.018 3.723-.194 4.534 1.502s.219 4.017-.613 5.63c-.933 1.818-4.405 4.565-4.681 4.784a57 57 0 0 1 4.304 6.26 107 107 0 0 1 2.195 3.878 39 39 0 0 1-.463-1.31c-.566-2.362-.28-7.262 2.034-8.676 1.668-1.023 3.723-.195 4.533 1.497s.22 4.018-.61 5.63c-.828 1.613-3.755 4.04-4.533 4.663.266.507.542 1.008.807 1.515 1.273 2.434 2.536 4.867 3.849 7.2.459.828.947 1.624 1.434 2.427a30 30 0 0 1-.398-1.138c-.566-2.362-.28-7.261 2.034-8.68 1.664-1.018 3.723-.194 4.533 1.502s.216 4.017-.613 5.63c-.828 1.613-3.472 3.802-4.394 4.55.52.803 1.037 1.61 1.575 2.37.38.507.717 1.022 1.119 1.511l1.176 1.465c.779.9 1.578 1.84 2.36 2.7.542.605 1.076 1.167 1.596 1.74-.47-.818-1.355-2.442-1.413-2.586a12.5 12.5 0 0 1-.606-6.278 4 4 0 0 1-.211-.68c-.384-1.84.75-3.752 2.69-3.96 2.697-.288 5.889 3.427 6.868 5.648.061.13.527 1.624.807 2.567-.079-.58-.165-1.145-.24-1.743-.158-1.184-.28-2.372-.416-3.646q-.067-.93-.133-1.876c-.043-.63-.04-1.292-.065-1.944-.021-1.512.03-3.05.115-4.594-1.033.137-4.713.566-6.456.047s-3.794-1.66-4.469-3.46c-.674-1.8.176-3.819 2.063-4.32 2.621-.69 6.34 2.495 7.643 4.54.082.13.853 1.703 1.259 2.574.06-.929.114-1.854.204-2.79.255-2.707.6-5.436.933-8.161.104-.835.193-1.67.29-2.52-.359.05-4.727.655-6.678.076-1.733-.519-3.795-1.66-4.466-3.46-.67-1.8.172-3.82 2.063-4.32 2.618-.691 6.337 2.495 7.64 4.54.1.154 1.204 2.422 1.46 3.01.207-1.833.397-3.666.512-5.48.17-2.447.18-4.903.032-7.351-.172.021-4.72.677-6.718.079-1.732-.515-3.794-1.66-4.465-3.456s.172-3.823 2.062-4.32c2.619-.695 6.338 2.491 7.64 4.536.104.162 1.291 2.603 1.478 3.06V43.2a42 42 0 0 0-1.324-7.2 59 59 0 0 0-1.151-3.751c-.836.209-4.663 1.12-6.517.781-1.793-.32-3.945-1.228-4.817-2.941-.872-1.714-.248-3.82 1.575-4.522 2.528-.979 6.574 1.779 8.095 3.669.082.1.807 1.242 1.323 2.077-.197-.537-.387-1.08-.585-1.606-.717-1.919-1.527-3.632-2.241-5.144a77 77 0 0 0-1.177-2.333c-.925-.227-4.64-1.177-6.097-2.311-1.456-1.134-2.945-2.923-2.923-4.842s1.535-3.503 3.475-3.283c2.694.302 5.022 4.618 5.499 6.998.04.205.319 3.5.272 3.488h-.053c.358.677.76 1.412 1.172 2.218.746 1.498 1.579 3.2 2.36 5.112a59 59 0 0 1 2.231 6.257 42.3 42.3 0 0 1 1.47 7.315 1 1 0 0 0 0 .09c.159-.781.675-2.948.736-3.11.825-2.286 3.755-6.21 6.456-6.12 1.951.072 3.228 1.9 2.956 3.762-.273 1.86-2.027 3.47-3.587 4.356-1.793 1-6.187 1.368-6.535 1.396a57.5 57.5 0 0 1 .14 7.604 104 104 0 0 1-.298 4.45c.158-.67.305-1.268.334-1.35.825-2.283 3.759-6.21 6.456-6.12 1.95.068 3.228 1.896 2.955 3.758-.272 1.86-2.026 3.474-3.587 4.36-1.56.885-5.347 1.288-6.34 1.378-.058.569-.105 1.141-.162 1.71-.273 2.736-.56 5.465-.757 8.15-.068.944-.104 1.88-.14 2.816.14-.598.266-1.098.29-1.17.826-2.286 3.76-6.21 6.457-6.12 1.95.072 3.228 1.9 2.955 3.762-.273 1.86-2.026 3.47-3.605 4.356-1.578.885-4.985 1.249-6.165 1.36 0 .962-.022 1.92 0 2.848.036.637.029 1.25.1 1.883s.119 1.253.176 1.872c.154 1.184.305 2.408.484 3.56.119.803.248 1.566.36 2.333.06-.943.21-2.786.243-2.938.47-2.383 2.776-6.706 5.466-7.023 1.94-.227 3.461 1.39 3.49 3.269s-1.478 3.74-2.902 4.856c-1.57 1.228-5.695 2.24-6.212 2.362.226 1.296.448 2.53.674 3.693"/><path d="M27.56 46.9c-.028.04-1.94-2.652-2.04-2.836-1.166-2.128-2.177-6.926-.32-8.906 1.338-1.44 3.537-1.174 4.767.244 1.23 1.419 1.266 3.816.89 5.591-.441 2.085-3.296 5.904-3.296 5.908"/></g><g fill="#000" opacity=".15"><path d="M173.624 38.117c1.514 1.494 5.993 3.1 5.997 3.1s.158-3.287.14-3.496c-.194-2.42-1.987-6.984-4.627-7.607-1.901-.45-3.587.98-3.838 2.844-.251 1.865 1.04 3.884 2.328 5.159"/><path d="M176.336 98.669c-.022.108-.04.209-.061.317l1.409 1.303c.075-.436.154-.875.233-1.332.223-1.29.434-2.671.639-4.093a35 35 0 0 0 4.085-.306c.757 1.907 3.45 4.83 3.798 5.205a147 147 0 0 1-4.218 4.356l1.679.645c.359-.386.746-.782 1.133-1.192a177 177 0 0 0 2.783-3.06c.438.281 4.032 2.57 6.005 2.858 1.793.26 4.139.09 5.498-1.263 1.359-1.354 1.435-3.543-.068-4.788-2.091-1.732-6.815-.404-8.834.907-.122.076-1.331 1.062-2.088 1.695.388-.439.768-.864 1.162-1.32.782-.9 1.536-1.822 2.35-2.812l1.144-1.487c.391-.49.742-1.059 1.122-1.588a66 66 0 0 0 2.429-3.895c.789.688 3.619 3.082 5.355 3.6 1.735.519 4.078.72 5.627-.41s1.955-3.284.656-4.745c-1.793-2.03-6.656-1.44-8.869-.447-.14.062-1.647.947-2.468 1.44.463-.806.929-1.609 1.366-2.44 1.274-2.401 2.486-4.867 3.709-7.326.359-.753.753-1.498 1.133-2.247.277.249 3.587 3.168 5.528 3.762 1.728.526 4.078.72 5.623-.41 1.546-1.13 1.959-3.283.657-4.745-1.794-2.03-6.657-1.44-8.87-.446-.165.072-2.335 1.35-2.869 1.703.835-1.646 1.682-3.28 2.582-4.857a57 57 0 0 1 4.017-6.149c.129.115 3.562 3.18 5.556 3.787 1.729.526 4.078.72 5.627-.41 1.55-1.13 1.955-3.283.653-4.745-1.793-2.03-6.657-1.44-8.87-.446-.172.076-2.51 1.44-2.909 1.731.087-.111.162-.237.252-.36a41 41 0 0 1 5.067-5.331 46 46 0 0 1 3.024-2.491c.581.633 3.267 3.513 5.021 4.258 1.661.72 3.974 1.163 5.635.213s2.306-3.05 1.173-4.644c-1.575-2.214-6.456-2.16-8.77-1.419-.125.04-1.352.587-2.245.998.459-.339.926-.699 1.37-1.016 1.668-1.195 3.271-2.185 4.695-3.049.818-.486 1.56-.907 2.263-1.296.897.324 4.52 1.592 6.367 1.44 1.847-.15 4.063-.806 5.1-2.419s.646-3.77-1.094-4.68c-2.41-1.238-6.721 1.08-8.432 2.794-.147.147-2.192 2.74-2.152 2.757l.054.018a76 76 0 0 0-2.199 1.203c-1.435.835-3.074 1.8-4.777 2.955a57 57 0 0 0-5.323 4.09 42 42 0 0 0-5.262 5.274l-.053.068c.297-.738 1.076-2.833 1.097-2.999.567-2.361.28-7.26-2.034-8.68-1.664-1.018-3.723-.194-4.533 1.502s-.215 4.018.613 5.63c.933 1.8 4.405 4.565 4.663 4.785a57 57 0 0 0-4.304 6.26 101 101 0 0 0-2.199 3.877 40 40 0 0 0 .463-1.31c.567-2.362.28-7.261-2.034-8.68-1.668-1.018-3.723-.194-4.533 1.502s-.219 4.017.609 5.63c.829 1.613 3.756 4.04 4.534 4.662-.265.508-.538 1.008-.807 1.516-1.273 2.433-2.536 4.867-3.848 7.218-.46.828-.947 1.623-1.435 2.426.208-.576.38-1.062.398-1.138.567-2.365.28-7.26-2.03-8.68-1.668-1.018-3.727-.194-4.534 1.502s-.218 4.018.61 5.63c.829 1.613 3.472 3.802 4.394 4.55-.52.804-1.037 1.61-1.575 2.37-.38.507-.717 1.022-1.119 1.512l-1.173 1.461c-.782.904-1.581 1.84-2.363 2.704-.542.605-1.076 1.166-1.596 1.739.47-.821 1.355-2.441 1.413-2.585.734-2.006.943-4.168.606-6.279q.135-.33.212-.68c.383-1.84-.75-3.751-2.69-3.96-2.698-.284-5.89 3.43-6.869 5.652-.057.13-.527 1.624-.807 2.567.079-.58.165-1.145.24-1.742.158-1.185.28-2.373.416-3.647l.133-1.876c.043-.63.043-1.292.065-1.944a66 66 0 0 0-.115-4.593c1.036.136 4.713.565 6.456.046s3.798-1.66 4.469-3.46-.176-3.819-2.062-4.32c-2.622-.69-6.342 2.496-7.644 4.54-.082.13-.853 1.703-1.259 2.574-.057-.928-.111-1.854-.2-2.79-.259-2.707-.603-5.436-.936-8.164-.105-.832-.194-1.667-.291-2.499.359.05 4.727.655 6.678.076 1.733-.519 3.795-1.66 4.466-3.46.67-1.8-.172-3.82-2.059-4.32-2.622-.691-6.341 2.495-7.643 4.54-.101.155-1.205 2.419-1.46 3.01-.208-1.833-.398-3.666-.513-5.48a57 57 0 0 1-.032-7.351c.172.022 4.72.677 6.718.08 1.732-.52 3.794-1.66 4.465-3.457s-.172-3.823-2.059-4.32c-2.621-.691-6.341 2.495-7.643 4.54-.104.162-1.291 2.602-1.474 3.06v-.432a41.7 41.7 0 0 1 1.363-7.258 50 50 0 0 1 1.151-3.751c.836.209 4.663 1.12 6.517.781 1.794-.32 3.946-1.231 4.821-2.941s.244-3.82-1.578-4.525c-2.511-.976-6.575 1.8-8.092 3.672-.082.1-.81 1.242-1.323 2.077.193-.537.383-1.08.581-1.606.735-1.919 1.528-3.632 2.241-5.144.413-.857.804-1.624 1.177-2.333.925-.227 4.641-1.177 6.097-2.311s2.945-2.923 2.923-4.842-1.531-3.503-3.468-3.276c-2.694.302-5.021 4.619-5.498 6.998-.043.206-.323 3.5-.277 3.489h.058c-.359.677-.764 1.41-1.177 2.217-.746 1.498-1.578 3.2-2.356 5.112a57 57 0 0 0-2.227 6.286 41.6 41.6 0 0 0-1.471 7.315v.09c-.158-.781-.674-2.948-.735-3.11-.825-2.286-3.755-6.21-6.456-6.12-1.951.072-3.228 1.9-2.956 3.762.273 1.86 2.027 3.47 3.587 4.356 1.793 1 6.187 1.368 6.539 1.397a57 57 0 0 0-.144 7.603c.061 1.476.172 2.962.298 4.45a37 37 0 0 0-.334-1.35c-.825-2.283-3.759-6.21-6.456-6.12-1.951.068-3.21 1.896-2.955 3.758.254 1.86 2.026 3.474 3.604 4.36 1.579.885 5.348 1.288 6.345 1.378.054.569.101 1.138.158 1.71.276 2.736.56 5.465.757 8.15.068.944.104 1.88.143 2.816a32 32 0 0 0-.294-1.17c-.825-2.286-3.755-6.21-6.456-6.12-1.951.072-3.21 1.9-2.955 3.762.254 1.86 2.026 3.47 3.586 4.356s4.986 1.249 6.166 1.36c0 .962.021 1.92 0 2.848-.04.637-.029 1.25-.104 1.883s-.115 1.253-.172 1.872c-.155 1.184-.309 2.408-.488 3.56-.118.803-.248 1.566-.359 2.333-.057-.943-.211-2.786-.244-2.937-.469-2.384-2.776-6.707-5.466-7.024-1.94-.227-3.461 1.39-3.49 3.269-.028 1.879 1.478 3.74 2.906 4.853 1.567 1.23 5.692 2.242 6.208 2.365-.24 1.274-.462 2.509-.688 3.672"/><path d="M218.188 56.354c.033.04 1.941-2.653 2.041-2.837 1.169-2.127 2.181-6.926.323-8.906-1.341-1.44-3.54-1.173-4.767.245-1.226 1.418-1.269 3.816-.893 5.59.441 2.085 3.296 5.905 3.296 5.908"/></g><path fill="#263238" stroke="#263238" stroke-linecap="round" stroke-linejoin="round" stroke-width=".5" d="M176.608 155.254v-13.292a7.8 7.8 0 0 1 2.273-5.505 7.75 7.75 0 0 1 5.485-2.281H111.22c-2.058 0-4.031.82-5.486 2.28a7.8 7.8 0 0 0-2.272 5.506v13.292a7.78 7.78 0 0 0 4.788 7.195 7.7 7.7 0 0 0 2.97.591h73.146a7.75 7.75 0 0 1-5.486-2.28 7.8 7.8 0 0 1-2.272-5.506"/><path fill="#949494" stroke="#263238" stroke-linecap="round" stroke-linejoin="round" stroke-width=".5" d="m249.504 135.23.871-.576a.264.264 0 0 0 .01-.425.27.27 0 0 0-.153-.053h-65.866a7.75 7.75 0 0 0-5.485 2.281 7.8 7.8 0 0 0-2.273 5.505v13.292c0 2.065.818 4.045 2.272 5.506a7.75 7.75 0 0 0 5.486 2.28h65.866a.25.25 0 0 0 .158-.049.26.26 0 0 0-.015-.429l-.871-.576z"/><path fill="#fff" stroke="#263238" stroke-linecap="round" stroke-linejoin="round" stroke-width=".5" d="M188.247 135.23h61.257V162h-61.257c-2.705 0-5.3-1.079-7.213-2.999a10.26 10.26 0 0 1-2.988-7.239v-6.293c0-2.716 1.075-5.32 2.988-7.24a10.18 10.18 0 0 1 7.213-2.999"/><path stroke="#263238" stroke-linecap="round" stroke-linejoin="round" stroke-width=".5" d="M180.281 140.155h25.698m-6.746 2.448h23.977m-9.476 3.028h-22.973m-9.906 9.223h15.074m-3.873 2.16h22.539m-25.269 2.02h6.03m10.914-6.196h38.331m4.451-6.199h-7.895m6.603-2.016h-8.041m8.041 12.971h-20.099"/><path fill="#8C8C8C" stroke="#263238" stroke-linecap="round" stroke-linejoin="round" stroke-width=".5" d="M173.158 126.252v-13.291a7.78 7.78 0 0 1 4.788-7.195 7.8 7.8 0 0 1 2.97-.592h-73.15a7.74 7.74 0 0 0-5.485 2.281 7.8 7.8 0 0 0-2.27 5.506v13.291c0 2.065.817 4.045 2.271 5.505a7.75 7.75 0 0 0 5.484 2.282h73.168a7.765 7.765 0 0 1-7.184-4.803 7.8 7.8 0 0 1-.592-2.984"/><path fill="#949494" stroke="#263238" stroke-linecap="round" stroke-linejoin="round" stroke-width=".5" d="m246.05 106.229.875-.576a.26.26 0 0 0-.144-.479h-65.865a7.75 7.75 0 0 0-7.169 4.806 7.8 7.8 0 0 0-.589 2.981v13.291a7.8 7.8 0 0 0 2.272 5.506 7.75 7.75 0 0 0 5.486 2.281h65.865a.26.26 0 0 0 .245-.187.27.27 0 0 0-.003-.163.27.27 0 0 0-.098-.129l-.875-.576z"/><path fill="#fff" stroke="#263238" stroke-linecap="round" stroke-linejoin="round" stroke-width=".5" d="M184.789 106.229h61.261v26.755h-61.261a10.18 10.18 0 0 1-7.205-2.995 10.26 10.26 0 0 1-2.992-7.229v-6.293a10.26 10.26 0 0 1 2.987-7.238 10.18 10.18 0 0 1 7.21-3"/><path stroke="#263238" stroke-linecap="round" stroke-linejoin="round" stroke-width=".5" d="M176.831 111.154h25.698m-6.747 2.448h23.977m-9.476 3.027h-22.972m-9.907 9.223h15.075m-3.877 2.16h22.542m-25.268 2.016h6.029m10.911-6.195h38.334m4.451-6.196h-7.894m6.603-2.016h-8.041m8.041 12.968h-20.1"/><path fill="#263238" stroke="#263238" stroke-linecap="round" stroke-linejoin="round" stroke-width=".5" d="m233.823 149.411-5.908-5.929-5.892 5.929V115.6h11.8z"/><path fill="#AD88C6" stroke="#263238" stroke-linecap="round" stroke-linejoin="round" stroke-width=".5" d="M179.567 97.25V83.957a7.8 7.8 0 0 0-2.273-5.504 7.75 7.75 0 0 0-5.485-2.28h73.147a7.73 7.73 0 0 1 5.485 2.279 7.8 7.8 0 0 1 2.273 5.505V97.25a7.8 7.8 0 0 1-2.273 5.504 7.75 7.75 0 0 1-5.485 2.279h-73.147c2.057 0 4.03-.82 5.485-2.28a7.8 7.8 0 0 0 2.273-5.504"/><path fill="#949494" stroke="#263238" stroke-linecap="round" stroke-linejoin="round" stroke-width=".5" d="m106.672 77.224-.872-.573a.26.26 0 0 1-.11-.294.26.26 0 0 1 .254-.185h65.865c2.057 0 4.03.82 5.485 2.28a7.8 7.8 0 0 1 2.273 5.504V97.25a7.8 7.8 0 0 1-2.273 5.504 7.74 7.74 0 0 1-5.485 2.28h-65.865a.26.26 0 0 1-.158-.05.25.25 0 0 1-.096-.135.26.26 0 0 1 .11-.294l.872-.573z"/><path fill="#fff" stroke="#263238" stroke-linecap="round" stroke-linejoin="round" stroke-width=".5" d="M167.928 103.982h-61.256V77.227h61.256a10.18 10.18 0 0 1 7.212 2.998 10.26 10.26 0 0 1 2.989 7.237v6.264a10.25 10.25 0 0 1-2.981 7.251 10.2 10.2 0 0 1-7.22 3.005"/><path stroke="#263238" stroke-linecap="round" stroke-linejoin="round" stroke-width=".5" d="M175.894 82.148h-25.702m6.75 2.452h-23.976m9.476 3.024h22.969m9.906 9.223h-15.075m3.877 2.163h-22.542m25.272 2.017h-6.033m-10.911-6.196h-38.334m-4.451-6.195h7.898m-6.603-2.02h8.038m-8.038 12.971h20.1"/><path fill="#263238" stroke="#263238" stroke-linecap="round" stroke-linejoin="round" stroke-width=".5" d="M240.802 98.302H188.48v1.206h52.322zm0-16.186H188.48v1.206h52.322zm-61.934-27.673a1.5 1.5 0 0 0-1.496-1.498H65.97a1.49 1.49 0 0 0-1.448.908 1.505 1.505 0 0 0 .854 1.999c.19.07.392.102.594.092h109.752l-8.027 104.04h-66.586l-3.766-4-5.022 4h-45.87a1.5 1.5 0 0 0-1.104.412 1.5 1.5 0 0 0-.464 1.087 1.5 1.5 0 0 0 .464 1.088 1.49 1.49 0 0 0 1.105.412h122.197q.146.043.298.054a1.494 1.494 0 0 0 1.603-1.383l8.25-106.822q.059-.19.068-.39"/><path fill="#fff" stroke="#263238" stroke-linecap="round" stroke-linejoin="round" stroke-width=".5" d="M97.69 157.514c.593.238 1.748 2.25 2.436 3.528h69.083l-5.556-13.284s-5.319-2.419-19.206-7.005-22.675-6.174-31.994-4.234-13.005 3.161-13.005 3.161-3.163-2.646-12.833-2.822-38.402 10.886-38.402 10.886l-2.027 13.284h48.528c.893-1.476 2.378-3.755 2.977-3.514"/><path fill="#fff" stroke="#263238" stroke-linecap="round" stroke-linejoin="round" stroke-width=".5" d="M109.964 42.56 98.663 145.44s12.331-5.155 20.293-5.4c6.528-.212 26.183 4.432 33.051 6.12 1.633.401 3.29.694 4.961.878l6.685.749 7.963-101.847s-13.099-3.093-22.596-6.189-28.267-5.443-39.056 2.808"/><path fill="#fff" stroke="#263238" stroke-linecap="round" stroke-linejoin="round" stroke-width=".5" d="M109.964 42.56 98.663 145.44s-7.96-5.155-14.11-5.4c-4.699-.198-19.081 3.812-25.63 5.72a48.5 48.5 0 0 1-6.973 1.48l-3.737.522L62.05 47.473s6.248-2.095 14.26-5.191 26.875-7.974 33.654.277m61.652 3.351 4.996 10.156-7.403 104.976-5.556-13.284z"/><path stroke="#263238" stroke-linecap="round" stroke-linejoin="round" stroke-width=".5" d="M94.714 161.042s-3.415-2.347-6.836-3.204c-3.422-.856-13.181.342-22.596 1.203m29.611-.346s-3.587-2.919-8.213-3.261"/><path stroke="#263238" stroke-linecap="round" stroke-linejoin="round" stroke-width=".5" d="M96.435 156.978s-5.649-4.637-12.668-4.637c-5.33 0-11.81 1.203-11.81 1.203m24.991-.688s-4.45-3.265-8.389-3.6-8.898.504-8.898.504m17.614-1.026s-3.25-2.923-7.7-3.6a28.9 28.9 0 0 0-8.39 0M99 149.936s5.48-3.96 14.705-2.923M98.66 153.72s2.739-2.059 9.755-2.059m-9.243 5.659s5.649-2.236 10.785-1.721 5.818.861 12.152 1.548m-19.856 2.581a19.8 19.8 0 0 1 8.73-1.033m.685-6.869s5.477.342 8.213 1.372m-41.078-7.729-3.421.857m-5.477 7.905-2.568.684m48.438-7.387 2.74.518m37.312 10.134s7.36.515 10.096.515m0-1.202-2.908-.169m-7.36-3.438s5.821.36 8.73.687m-115.362-3.434a58.4 58.4 0 0 0 10.269-2.063m-6.334 3.607s4.11-.342 6.506-1.202m102.866-.688s-4.792.688-11.639-.857a112 112 0 0 0-11.811-2.062m8.902 10.652 4.62.169M173.968 52.01l-1.883 24.396m2.913-18.039-.857 10.652m-2.224 29.376-1.715 22.507m-.853 6.527-1.711 22.507m2.991-54.118-1.108 14.605m-.262 2.574-1.108 14.605"/><path stroke="#B2B2B2" stroke-linecap="round" stroke-linejoin="round" stroke-width=".5" d="M112.873 54.385s7.256-5.101 20.322-2.916m-20.706 6.167s7.278-5.12 20.344-2.98m-20.724 6.231s7.295-5.137 20.362-3.05m-20.742 6.297s7.313-5.155 20.376-3.114m-20.76 6.365s7.335-5.173 20.398-3.179m-20.778 6.43s7.349-5.192 20.415-3.24m-20.799 6.49s7.371-5.212 20.444-3.315m-20.838 6.566s7.388-5.23 20.444-3.384m-20.803 6.635s7.406-5.249 20.469-3.449m-20.86 6.7s7.428-5.27 20.491-3.517m-20.871 6.768s7.442-5.289 20.508-3.6m-20.888 6.847s7.46-5.303 20.526-3.65m-20.91 6.901s7.482-5.325 20.548-3.716m-20.928 6.966s7.499-5.342 20.566-3.783m-20.95 7.035s7.532-5.361 20.584-3.853m-20.964 7.103s7.532-5.379 20.602-3.92m-20.982 7.171s7.553-5.4 20.619-3.985m-21.003 7.236s7.575-5.418 20.659-4.054m-21.039 7.304s7.593-5.436 20.659-4.122m-21.04 7.37s7.611-5.454 20.674-4.18m-21.057 7.43s7.632-5.472 20.695-4.251m-21.076 7.502s7.647-5.49 20.713-4.32m-21.096 7.571s7.668-5.512 20.734-4.388m-21.122 7.639s7.687-5.53 20.753-4.453m-21.111 7.704s7.704-5.548 20.77-4.522m-21.168 7.772s7.725-5.569 20.802-4.59m-21.183 7.841s7.744-5.587 20.803-4.658m15.484-82.282s10.161-1.44 24.436 6.073M138.88 55.17s10.319-1.375 24.483 6.052m-24.842-2.841s10.477-1.289 24.53 6.034m-24.867-2.819s10.635-1.206 24.572 6.016M137.829 64.8s10.796-1.12 24.623 5.998m-24.978-2.758s10.954-1.037 24.669 5.976m-25.02-2.783s11.118-.95 24.715 5.962m-25.071-2.747s11.27-.871 24.748 5.94m-25.099-2.728s11.427-.786 24.805 5.921m-25.16-2.707s11.585-.72 24.856 5.9m-25.211-2.689s11.746-.615 24.902 5.886M135.354 87.3s11.901-.533 24.949 5.864m-25.304-2.653s12.062-.446 24.996 5.847m-25.347-2.632s12.216-.36 25.038 5.828m-25.393-2.617s12.377-.28 25.106 5.811m-25.461-2.596s12.535-.198 25.135 5.789m-25.487-2.578s12.693-.111 25.178 5.76m-25.533-2.545s12.851-.029 25.229 5.76m-25.58-2.538s13.008.058 25.271 5.735m-25.627-2.531s13.167.14 25.322 5.713m-25.673-2.502s13.324.223 25.365 5.699m-25.72-2.484s13.482.306 25.411 5.677m-25.766-2.466s13.629.393 25.465 5.659m-25.817-2.444s13.798.475 25.505 5.641m-25.86-2.43s13.96.562 25.555 5.623m-25.906-2.408s14.113.644 25.598 5.602m-25.953-2.391s14.275.72 25.644 5.587M65.97 55.944s3.587-4.23 15.208-4.475M65.533 59.17s3.586-4.17 15.225-4.486m-15.666 7.715s3.586-4.111 15.246-4.504m-15.684 7.733s3.587-4.05 15.268-4.518m-15.706 7.744s3.587-3.99 15.287-4.533m-15.728 7.762s3.587-3.931 15.308-4.547m-15.745 7.772s3.586-3.87 15.325-4.56M62.9 78.538s3.587-3.81 15.347-4.576m-15.788 7.805s3.608-3.751 15.369-4.594m-15.807 7.819s3.608-3.69 15.387-4.604m-15.824 7.834c0-.018 3.608-3.633 15.404-4.623M61.146 91.44c0-.018 3.608-3.568 15.423-4.633M60.69 94.68c.019-.022 3.612-3.51 15.448-4.651m-15.87 7.891c.017-.025 3.611-3.452 15.465-4.68m-15.903 7.891c.018-.025 3.612-3.391 15.484-4.68m-15.925 7.909c.021-.028 3.615-3.33 15.508-4.68m-15.946 7.906c.022-.029 3.615-3.269 15.527-4.709m-15.964 7.938c.021-.032 3.615-3.211 15.544-4.723m-15.986 7.952c.025-.032 3.62-3.153 15.566-4.741m-16.003 7.967c.025-.032 3.619-3.089 15.587-4.752m-16.025 7.981c.025-.036 3.62-3.031 15.606-4.77m-16.058 7.996c.033-.036 3.623-2.97 15.628-4.781m-16.054 8.01c.032-.04 3.622-2.912 15.645-4.799m-16.083 8.028c.032-.043 3.623-2.851 15.667-4.813m-16.108 8.039c.036-.043 3.63-2.79 15.688-4.828m-16.126 8.057c.036-.047 3.63-2.732 15.706-4.842m-16.143 8.068c.035-.047 3.63-2.672 15.724-4.857M85.776 50.5s8.74-3.156 16.936 2.427m-17.338.778s8.712-3.14 17.012 2.39m-17.414.81s8.684-3.117 17.087 2.355m-17.485.86s8.655-3.1 17.159 2.318m-17.56.875a21.3 21.3 0 0 1 17.216 2.279m-17.614.925a21.63 21.63 0 0 1 17.305 2.243m-17.707.961a21.98 21.98 0 0 1 17.384 2.203m-17.782 1.001s8.536-3.027 17.456 2.16M82.57 76.13s8.507-3.01 17.531 2.127m-17.926 1.076s8.479-2.992 17.603 2.092m-18.005 1.112s8.45-2.97 17.679 2.052m-18.081 1.149s8.422-2.949 17.758 2.02m-18.156 1.184s8.393-2.93 17.83 1.98M80.572 92.16s8.364-2.912 17.904 1.944M80.174 95.35s8.331-2.88 17.976 1.904m-18.378 1.3s8.306-2.88 18.051 1.868m-18.449 1.336s8.274-2.859 18.127 1.828m-18.518 1.376s8.249-2.841 18.202 1.8m-18.611 1.404s8.217-2.823 18.274 1.756m-18.676 1.448s8.189-2.805 18.35 1.717m-18.752 1.487s8.16-2.787 18.425 1.681m-18.823 1.519s8.128-2.765 18.5 1.645m-18.902 1.559s8.103-2.743 18.576 1.609M76.572 124.2s8.07-2.725 18.651 1.57m-19.053 1.616s8.042-2.707 18.723 1.534m-19.12 1.67s8.012-2.689 18.794 1.494m-19.197 1.71s7.985-2.671 18.874 1.458"/><path fill="#263238" stroke="#263238" stroke-linecap="round" stroke-linejoin="round" stroke-width=".5" d="m112.55 40.741-4.996 45.792 4.473-6.332 3.418 3.679 4.734-45.925s-4.211.28-7.629 2.786M29.419 164.052s-.46.173-.058.576 2.016.695 3.454.58c1.248-.16 2.468-.49 3.626-.983.574-.231.172-1.501.172-1.501z"/><path fill="#fff" stroke="#263238" stroke-linecap="round" stroke-linejoin="round" stroke-width=".5" d="M31.997 153.551s.865 6.401.865 6.689-2.246 2.829-3.34 3.405 1.73 1.098 2.938.983 2.991-.461 3.336-.691c.344-.231.75-.407.807-1.213.057-.807-.402-3.294-.402-3.294l.1-6.092z"/><path fill="#263238" d="M36.226 159.516a8.8 8.8 0 0 1-3.425.094c.043.36.072.579.072.63a3.4 3.4 0 0 1-.639.9c.57-.105 1.729-.213 2.468.392.549.45.785 1.249.696 2.372a.5.5 0 0 0 .028.184 1.6 1.6 0 0 0 .38-.151q.223-.137.424-.306c.036-1.235-.302-2.16-1.012-2.74a2.7 2.7 0 0 0-.527-.335 9.6 9.6 0 0 0 1.675-.223z"/><path fill="#263238" d="M34.264 162.202a4 4 0 0 0-2.46-.562c-.28.306-.589.623-.897.922.872-.148 2.152-.206 2.87.324a1.72 1.72 0 0 1 .688 1.44v.018c.301-.062.581-.126.807-.191a2.53 2.53 0 0 0-1.008-1.951"/><path fill="#263238" stroke="#263238" stroke-linecap="round" stroke-linejoin="round" stroke-width=".5" d="M51.921 163.66a.48.48 0 0 0-.206.322.5.5 0 0 0 .091.372c.288.404 1.324.404 1.898.404s3.569.057 3.569.057 4.372-.057 5.02-.23c.65-.173.69-.519.46-.695a1.16 1.16 0 0 0-.689-.115 15.6 15.6 0 0 1-3.167.057c-1.266-.172-5.064-.115-5.638-.172a9 9 0 0 0-1.338 0"/><path fill="#fff" stroke="#263238" stroke-linecap="round" stroke-linejoin="round" stroke-width=".5" d="M49.884 153.817s1.922 5.8 1.98 6.088q.129.896.115 1.8c0 .806-.52 1.674.401 2.25.922.576 3.454.176 4.72.291q1.956.13 3.913 0c1.726-.057 2.36-.982 1.955-1.155s-.574.288-2.475-.81c-1.9-1.098-5.236-2.715-5.35-3.06-.116-.346-.747-5.429-.747-5.429z"/><path fill="#263238" d="M58.539 161.201a8.8 8.8 0 0 0-.531 3.092h.825a8.3 8.3 0 0 1 .437-2.707zm-4.042 3.067a7.96 7.96 0 0 1 1.757-4.298 12 12 0 0 1-.717-.432 8.7 8.7 0 0 0-1.858 4.712c.254.018.53.022.817.018m.646-5.054a5 5 0 0 1-.086-.468c-1.093.314-2.22.49-3.357.525.093.342.154.58.165.634l.029.191a14 14 0 0 0 3.558-.609 1 1 0 0 1-.309-.273"/><path fill="#fff" stroke="#263238" stroke-linecap="round" stroke-linejoin="round" stroke-width=".5" d="M45.361 72.41s.273 2.456.782 3.51c.51 1.055 1.733 1.912 1.435 4.094-.298 2.181-1.905 3.308-2.755 3.48a6 6 0 0 1-1.434.134l.168 2.423a16 16 0 0 1 4.15.389c1.772.493 4.663 1.48 5.947 1.677s6.19.45 7.173 1.534c.983 1.083.735 2.073.147 2.664-.588.59-3.683.439-7.761.439h-4.075s.933 2.416.785 4.144c-.147 1.728-1.62 4.784-1.62 4.784s.146 3.452.44 6.12.36 4.388.36 4.388 1.62 10.998 3.536 18.299 1.721 18.198 2.213 20.121c.49 1.922.77 3.83.77 3.83s-4.716.936-6.387 1.037a24 24 0 0 1-2.457.05l-.983-9.619s-1.915-12.773-2.016-12.96-2.847-9.569-2.847-9.569L39.21 140.04l-1.621 15.188-7.385-.921.147-18.396s-.39-10.703-.294-15.142 1.474-8.384 2.7-9.965 4.276-6.12 4.276-6.12l-.538-3.106-2.87-5.67s-6.606 4.766-7.736 5.558-2.51.198-2.87-1.678c-.358-1.875 8.426-9.651 9.803-10.638 1.377-.986 6.098-3.65 6.098-3.65l-.198-2.369s-1.671-.54-2.26-1.872 1.572-3.01 1.622-4.093-.786-3.06.588-3.553 6.69-1.203 6.69-1.203"/><path fill="#92E3A9" stroke="#263238" stroke-linecap="round" stroke-linejoin="round" stroke-width=".5" d="M46.778 155.542q1.23.038 2.457-.051c1.671-.101 6.388-1.037 6.388-1.037s-.294-1.922-.786-3.848c-.491-1.926-.294-12.823-2.213-20.12s-3.536-18.299-3.536-18.299-.05-1.728-.359-4.389a80 80 0 0 1-.294-3.47l-11.445.101.043.259s-3.045 4.54-4.275 6.12-2.604 5.526-2.701 9.965.294 15.141.294 15.141l-.147 18.393 7.37.936 1.636-15.203 1.722-16.672s2.75 9.36 2.847 9.569 2.016 12.96 2.016 12.96z"/><path stroke="#263238" stroke-linecap="round" stroke-linejoin="round" stroke-width=".5" d="m44.576 108.162 3.508-.05m-8.587.126 4.214-.062m2.45-.003.836 7.398m-.258-6.433 1.922 8.686m-9.741-8.942-1.665 6.304m1.188 1.45-.1.994m.77-7.718-.552 5.533"/><path stroke="#263238" stroke-miterlimit="10" stroke-width=".5" d="M40.717 75.647a2.06 2.06 0 0 1 1.603-.584m2.048-.784c.235-.271.565-.443.921-.48"/><path stroke="#263238" stroke-linecap="round" stroke-linejoin="round" stroke-width=".5" d="M47.84 75.722a1.76 1.76 0 0 1-1.079 1.62 1.74 1.74 0 0 1-1.903-.38 1.755 1.755 0 0 1 1.235-2.993 1.753 1.753 0 0 1 1.747 1.754m-4.405 4.06a2.53 2.53 0 0 0 2.116.195m-1.771-2.787a1.75 1.75 0 0 1-1.077 1.617 1.74 1.74 0 0 1-1.9-.38 1.751 1.751 0 0 1 1.233-2.986c.463 0 .906.184 1.233.512s.51.773.51 1.237"/><path fill="#263238" d="M42.843 77.09c.054.31-.028.584-.19.612-.161.03-.333-.198-.39-.504-.058-.306.028-.583.19-.612.16-.028.333.195.39.504m2.863-1.026c.057.306-.026.58-.187.609-.161.028-.337-.195-.39-.504-.055-.31.028-.58.186-.612.157-.033.337.198.39.507"/><path stroke="#263238" stroke-linecap="round" stroke-linejoin="round" stroke-width=".5" d="m40.39 77.81-2.604 1.231m5.947-2.361a.633.633 0 0 1 .856-.185.63.63 0 0 1 .22.232"/><path stroke="#263238" stroke-linecap="round" stroke-linejoin="round" stroke-width=".5" d="M44.192 76.23c.15.233.375.407.638.493.395.101 1.525.198 1.435.742a1.39 1.39 0 0 1-.785 1.033"/><path fill="#263238" stroke="#263238" stroke-linecap="round" stroke-linejoin="round" stroke-width=".5" d="M38.6 74.322s.305 2.038.05 3.366c-.254 1.328-1.37 1.832-1.219 2.905.15 1.073 1.794 2.65 1.794 2.65a4.64 4.64 0 0 1-3.555 1.681c-2.403.036-4.39-.868-4.39-4.892 0-4.025.56-8.565 3.454-9.99s8.328-.868 9.548-.407c1.22.46 2.59 2.037 2.13 2.8-.459.764-5.782 2.143-7.812 1.887"/><path fill="#fff" d="M38.572 79.682s-1.474-1.281-2.063-.64c-.588.64.147 1.774.685 2.415a.88.88 0 0 0 1.13.236.9.9 0 0 0 .305-.283"/><path stroke="#263238" stroke-linecap="round" stroke-linejoin="round" stroke-width=".5" d="M38.572 79.682s-1.474-1.281-2.063-.64c-.588.64.147 1.774.685 2.415a.88.88 0 0 0 1.13.236.9.9 0 0 0 .305-.283"/><path fill="#263238" stroke="#263238" stroke-linecap="round" stroke-linejoin="round" stroke-width=".5" d="m43.392 83.632-1.75-.238 1.847 2.235z"/><path fill="#fff" d="M59.669 92.207a4.4 4.4 0 0 1-1.94-.72c-.855-.62-1.184-2.52-1.941-3.9-.757-1.378-4.663-8.096-4.663-8.096a2.3 2.3 0 0 1-1.076-.33c-.52-.335-1.04-.764-1.843-.858-.804-.093-1.234.047-1.518-.046-.283-.094-.093-.904.57-1.08.664-.177 1.658.19 1.658.19.05-.51.002-1.026-.144-1.519-.236-.619-1.04-1.332-1.61-1.663s-1.184-.335-.947-.666.57-.428 1.28-.335c.71.094 1.94 1.38 1.94 1.38s1.077.856 1.324.856 1.234-.047 1.707.72.897 2.376.85 2.804a4 4 0 0 0 0 .807s5.341 6.246 6.456 7.337 1.894 3.6 1.704 4.23a3.5 3.5 0 0 1-.488 1.011"/><path stroke="#263238" stroke-linecap="round" stroke-linejoin="round" stroke-width=".5" d="M59.669 92.207a4.4 4.4 0 0 1-1.94-.72c-.855-.62-1.184-2.52-1.941-3.9-.757-1.378-4.663-8.096-4.663-8.096a2.3 2.3 0 0 1-1.076-.33c-.52-.335-1.04-.764-1.843-.858-.804-.093-1.234.047-1.518-.046-.283-.094-.093-.904.57-1.08.664-.177 1.658.19 1.658.19.05-.51.002-1.026-.144-1.519-.236-.619-1.04-1.332-1.61-1.663s-1.184-.335-.947-.666.57-.428 1.28-.335c.71.094 1.94 1.38 1.94 1.38s1.077.856 1.324.856 1.234-.047 1.707.72.897 2.376.85 2.804a4 4 0 0 0 0 .807s5.341 6.246 6.456 7.337 1.894 3.6 1.704 4.23a3.5 3.5 0 0 1-.488 1.011"/><path fill="#fff" stroke="#263238" stroke-linecap="round" stroke-linejoin="round" stroke-width=".5" d="M50.54 74.88a.74.74 0 0 0-.24-.288c-.717-.526-1.004.493-.983.965.032.373.128.739.284 1.08.05.122.136.263.276.255a.24.24 0 0 0 .176-.093c.265-.299.04-.76.19-1.116.086-.209.301-.36.33-.59a.4.4 0 0 0-.033-.213"/><path fill="#fff" stroke="#263238" stroke-linecap="round" stroke-linejoin="round" stroke-width=".5" d="M51.487 74.93a.74.74 0 0 0-.24-.288c-.717-.522-1.004.494-.983.965.032.374.128.74.284 1.08.05.119.136.263.276.256a.25.25 0 0 0 .175-.097c.266-.296.04-.756.19-1.113.087-.209.302-.36.33-.594a.44.44 0 0 0-.032-.209"/><path fill="#fff" stroke="#263238" stroke-linecap="round" stroke-linejoin="round" stroke-width=".5" d="M52.359 75.326a.65.65 0 0 0-.215-.259c-.635-.475-.908.447-.89.871.028.343.114.677.255.99.046.108.125.238.25.23a.23.23 0 0 0 .162-.086c.24-.266.032-.684.169-1.008.079-.187.272-.334.301-.536a.4.4 0 0 0-.032-.202"/><path stroke="#263238" stroke-linecap="round" stroke-linejoin="round" stroke-width=".5" d="M50.967 77.84c.049.419.177.826.377 1.198.244.25.573.397.922.414"/><path fill="#92E3A9" stroke="#263238" stroke-linecap="round" stroke-linejoin="round" stroke-width=".5" d="M48.302 101.682s1.474-3.06 1.621-4.785c.148-1.724-.785-4.143-.785-4.143s-2.79-5.314-3.587-6.657q-.586-.046-1.076-.05.516.744.872 1.577c.147.544 1.377 3.647 1.377 3.647l-3.095 3.103-4.785-2.214a13.8 13.8 0 0 0-1.176-3.989q-.38-.75-.86-1.44l-.625.36q.302.415.552.864c.833 1.48 1.03 4.482 1.03 4.482s-1.865 2.614-2.306 3.993q-.282.867-.686 1.684l1.736 3.453.259 1.483 11.552-.961c-.01-.252-.018-.407-.018-.407"/><path fill="#fff" d="M24.996 96.818s-2.607 2.078-2.65 3.18c-.043 1.101 8.82 9.24 9.497 9.719.678.479 1.31.634 1.69.465.38-.17 2.532-1.397 2.532-1.397s2.614-.213 2.783-.465c.168-.252.043-.298-.463-.342-.505-.043-1.14-.169-1.266-.169-.125 0-.76-.083-.76-.083s2.83-1.058 2.998-1.101.93-.087.8-.382-.929-.72-1.646-.932c-.718-.213-2.49-.382-2.995 0-.506.381-2.532 2.754-2.532 2.754a10.85 10.85 0 0 1-2.152-3.813c-.718-2.289-3.5-5.475-4.43-6.12"/><path stroke="#263238" stroke-linecap="round" stroke-linejoin="round" stroke-width=".5" d="M24.996 96.818s-2.607 2.078-2.65 3.18c-.043 1.101 8.82 9.24 9.497 9.719.678.479 1.31.634 1.69.465.38-.17 2.532-1.397 2.532-1.397s2.614-.213 2.783-.465c.168-.252.043-.298-.463-.342-.505-.043-1.14-.169-1.266-.169-.125 0-.76-.083-.76-.083s2.83-1.058 2.998-1.101.93-.087.8-.382-.929-.72-1.646-.932c-.718-.213-2.49-.382-2.995 0-.506.381-2.532 2.754-2.532 2.754a10.85 10.85 0 0 1-2.152-3.813c-.718-2.289-3.5-5.475-4.43-6.12"/><path stroke="#263238" stroke-linecap="round" stroke-linejoin="round" stroke-width=".5" d="M36.233 106.826s1.055-.381 1.815-.637c.76-.255 1.349-.464 1.729-.212m-3.881.043a10.6 10.6 0 0 1 2.615-.72m-2.87.295a5 5 0 0 1 1.224-.551"/></svg>