<svg xmlns="http://www.w3.org/2000/svg" width="270" height="180" fill="none"><path fill="#F5F5F5" d="M170.504 120.331h26.539a6.203 6.203 0 0 0 6.203-6.203v-9.652a6.203 6.203 0 0 0-6.203-6.202h-26.539a6.203 6.203 0 0 0-6.203 6.202v9.652a6.203 6.203 0 0 0 6.203 6.203"/><path fill="#F5F5F5" d="M170.554 118.693h4.932l.224.543s-.677 4.601-6.585 5.552c0 0 2.574-2.952 1.429-6.095"/><path fill="#E0E0E0" d="M182.564 106.766v6.354h-1.8v-2.477h-2.448v2.477h-1.8v-6.354h1.8v2.394h2.448v-2.383zm6.188 4.327h-3.574a1.14 1.14 0 0 0 1.209.789c.419.013.827-.14 1.134-.425l.907.943a2.66 2.66 0 0 1-2.098.799c-1.75 0-2.88-1.08-2.88-2.552 0-1.473 1.152-2.52 2.703-2.52 1.44 0 2.632.925 2.632 2.549-.004.118-.022.284-.033.417m-3.6-.907h2.013a1.025 1.025 0 0 0-1.006-.841 1.02 1.02 0 0 0-1.007.841m3.021 4.518.435-1.224c.163.096.348.146.537.144.299 0 .507-.198.507-.644v-4.781h1.732v4.791c0 1.199-.72 1.97-2.005 1.97a2.5 2.5 0 0 1-1.206-.256m1.289-7.967a.95.95 0 0 1 .326-.687 1 1 0 0 1 .338-.191c.125-.04.257-.053.387-.04.637 0 1.055.36 1.055.889a1.06 1.06 0 0 1-1.745.685 1.06 1.06 0 0 1-.361-.656"/><path fill="#F5F5F5" d="M171.573 32.066h17.428a6.203 6.203 0 0 0 6.203-6.203V21.37a6.203 6.203 0 0 0-6.203-6.202h-17.428a6.203 6.203 0 0 0-6.203 6.202v4.493a6.203 6.203 0 0 0 6.203 6.203"/><path fill="#F5F5F5" d="M170.162 30.813h3.776l.173.414s-.522 3.525-5.04 4.255c-.007 0 1.966-2.26 1.091-4.669m-4.856 30.467h5.864l.266.648s-.802 5.472-7.83 6.602c0-.003 3.06-3.513 1.7-7.25"/><path fill="#F5F5F5" d="M160.921 64.232h38.732a4.88 4.88 0 0 0 4.878-4.878V48.918a4.88 4.88 0 0 0-4.878-4.878h-38.732a4.88 4.88 0 0 0-4.878 4.878v10.436a4.88 4.88 0 0 0 4.878 4.878"/><path fill="#E0E0E0" d="M169.334 55.98c0 1.009-.832 1.596-2.39 1.596h-3.14v-5.814h2.974c1.526 0 2.275.622 2.275 1.522a1.38 1.38 0 0 1-.781 1.26 1.47 1.47 0 0 1 1.062 1.437m-3.902-3.03v1.13h1.13c.547 0 .828-.19.828-.565s-.281-.558-.828-.558zm2.242 2.85c0-.399-.298-.59-.864-.59h-1.378v1.178h1.378c.566 0 .864-.191.864-.587m2.16-.484c0-1.353 1.08-2.318 2.542-2.318s2.542.965 2.542 2.318-1.055 2.333-2.542 2.333-2.542-.972-2.542-2.333m3.489 0a.96.96 0 0 0-.232-.748.96.96 0 0 0-.715-.323.953.953 0 0 0-.947 1.071c0 .688.414 1.08.947 1.08s.947-.392.947-1.08m7.117-.316v2.574h-1.577V55.26c0-.648-.281-.922-.738-.922s-.896.313-.896 1.062v2.16h-1.581v-4.5h1.505v.49a1.93 1.93 0 0 1 1.44-.565c1.044.014 1.847.622 1.847 2.016m-.295 4.029.396-1.12a.95.95 0 0 0 .489.134c.278 0 .468-.184.468-.59v-4.378h1.577v4.384c0 1.098-.673 1.8-1.836 1.8a2.3 2.3 0 0 1-1.094-.23m1.177-7.294a.86.86 0 0 1 .3-.628.88.88 0 0 1 .665-.21.85.85 0 0 1 .961.817.973.973 0 0 1-1.926.021m2.502 3.582c0-1.353 1.08-2.318 2.542-2.318s2.541.965 2.541 2.318-1.055 2.333-2.541 2.333c-1.487 0-2.542-.972-2.542-2.333m3.488 0a.95.95 0 0 0-.554-.986.956.956 0 0 0-1.304.587.95.95 0 0 0-.035.4c0 .687.414 1.08.947 1.08s.928-.393.928-1.08zm7.042-2.242v4.5h-1.501v-.48a1.8 1.8 0 0 1-1.339.555c-1.106 0-1.908-.63-1.908-2.059v-2.52h1.576v2.257c0 .699.274.972.749.972s.846-.306.846-1.08v-2.16zm4.032-.076v1.44a3 3 0 0 0-.36-.025c-.637 0-1.08.324-1.08 1.112v2.067h-1.577v-4.5h1.505v.54a1.84 1.84 0 0 1 1.512-.634"/><path fill="#F5F5F5" d="M95.822 95.196h-5.458l-.252.6s.753 5.084 7.29 6.164c0 0-2.858-3.283-1.58-6.764"/><path fill="#F5F5F5" d="M97.892 78.056h-35.37a4.88 4.88 0 0 0-4.878 4.878v9.036a4.88 4.88 0 0 0 4.878 4.878h35.37a4.88 4.88 0 0 0 4.878-4.878v-9.036a4.88 4.88 0 0 0-4.878-4.878m7.304-48.143h-3.999l-.18.483s.547 4.078 5.335 4.924c0 0-2.088-2.62-1.156-5.407"/><path fill="#F5F5F5" d="M105.405 16.176H82.11a4.88 4.88 0 0 0-4.878 4.878v5.303a4.88 4.88 0 0 0 4.878 4.878h23.295a4.88 4.88 0 0 0 4.878-4.878v-5.303a4.88 4.88 0 0 0-4.878-4.878"/><path fill="#E0E0E0" d="M69.79 87.607c0 .925-.72 1.458-2.073 1.458h-2.581v-5.4h2.426c1.246 0 1.94.525 1.94 1.397a1.28 1.28 0 0 1-.72 1.206 1.31 1.31 0 0 1 1.008 1.339m-3.88-3.327v1.732h1.584c.788 0 1.238-.292 1.238-.864s-.45-.868-1.238-.868zm3.1 3.28c0-.623-.465-.904-1.322-.904H65.91v1.8h1.778c.857-.018 1.321-.288 1.321-.896m1.494-.544a2.13 2.13 0 1 1 2.132 2.096 2.036 2.036 0 0 1-2.132-2.096m3.507 0a1.38 1.38 0 1 0-1.376 1.44 1.343 1.343 0 0 0 1.39-1.44zm5.666-.306v2.355h-.742v-2.272c0-.803-.4-1.199-1.105-1.199-.788 0-1.296.472-1.296 1.361v2.11h-.745v-4.093h.72v.615a1.76 1.76 0 0 1 1.476-.655c.99 0 1.692.572 1.692 1.778m-.036 3.654.241-.572a.9.9 0 0 0 .601.194c.393 0 .612-.248.612-.72v-4.294h.742v4.28c0 .835-.464 1.36-1.307 1.36a1.46 1.46 0 0 1-.889-.248m1.321-6.663a.49.49 0 0 1 .504-.486.48.48 0 0 1 .5.471.504.504 0 0 1-1.004 0zm1.912 3.315a2.128 2.128 0 1 1 2.131 2.096 2.036 2.036 0 0 1-2.131-2.096m3.506 0a1.379 1.379 0 1 0-1.375 1.44 1.34 1.34 0 0 0 1.375-1.44m5.598-2.044v4.093h-.72v-.616a1.67 1.67 0 0 1-1.393.663c-1.058 0-1.76-.58-1.76-1.8v-2.355h.741v2.272c0 .803.4 1.206 1.105 1.206.77 0 1.268-.483 1.268-1.361v-2.117zm3.618-.04v.72a1.4 1.4 0 0 0-.169 0c-.796 0-1.292.49-1.292 1.386v2.038h-.742v-4.104h.72v.687c.256-.482.763-.727 1.483-.727"/><path fill="#263238" d="M216.728 164.017c0 .054-36.655.093-81.86.093-45.206 0-81.868-.039-81.868-.093s36.648-.094 81.868-.094 81.86.043 81.86.094"/><path fill="#F5F5F5" d="M173.413 163.279h6.872v-13.018h-6.872z"/><path fill="#455A64" d="M180.289 163.92h32.252v-14.116h-32.252z"/><path fill="#455A64" d="M172.88 163.916h8.28v-.914h-8.28a.46.46 0 0 0-.326.132.46.46 0 0 0 0 .649.46.46 0 0 0 .326.133m8.291-13.198h-8.352a.4.4 0 0 1-.28-.116.4.4 0 0 1-.116-.28v-.122a.396.396 0 0 1 .396-.396h8.352z"/><path fill="#E0E0E0" d="M173.416 152c0 .022 1.538.04 3.435.04s3.434-.018 3.434-.04-1.537-.04-3.434-.04-3.435.04-3.435.04m0 1.674c0 .022 1.538.04 3.435.04s3.434-.018 3.434-.04-1.537-.04-3.434-.04-3.435.018-3.435.04m0 1.67c0 .022 1.538.04 3.435.04s3.434 0 3.434-.04c0-.039-1.537-.039-3.434-.039s-3.435.018-3.435.039m0 1.671c0 .021 1.538.039 3.435.039s3.434-.018 3.434-.039-1.537-.04-3.434-.04-3.435.018-3.435.04m0 1.67c0 .022 1.538.036 3.435.036s3.434 0 3.434-.036-1.537-.039-3.434-.039-3.435.014-3.435.039m0 1.667c0 .022 1.538.04 3.435.04s3.434-.018 3.434-.04-1.537-.04-3.434-.04-3.435.018-3.435.04m0 1.67c0 .022 1.538.04 3.435.04s3.434-.018 3.434-.04c0-.021-1.537-.039-3.434-.039s-3.435.018-3.435.039"/><path fill="#F5F5F5" d="M210.59 136.272h-6.631v7.88h6.631z"/><path fill="#AD88C6" d="M204.189 135.76h-29.963v8.892h29.963z"/><path fill="#AD88C6" d="M210.792 136.52h-7.406v-.745h7.406a.36.36 0 0 1 .36.36.363.363 0 0 1-.36.385m0 8.129h-7.406v-.745h7.406a.36.36 0 0 1 .36.36.4.4 0 0 1-.02.145.4.4 0 0 1-.077.126.34.34 0 0 1-.12.084.4.4 0 0 1-.143.03"/><path fill="#000" d="M201.831 135.76h-3.539v8.892h3.539zm-21.409 0h-3.539v8.892h3.539z" opacity=".4"/><path fill="#E0E0E0" d="M210.59 137.578c0 .022-1.44.036-3.204.036s-3.204 0-3.204-.036 1.44-.039 3.204-.039 3.204.014 3.204.039m0 1.181c0 .022-1.44.04-3.204.04s-3.204-.018-3.204-.04c0-.021 1.44-.039 3.204-.039s3.204.018 3.204.039m0 1.455c0 .021-1.44.039-3.204.039s-3.204-.018-3.204-.039 1.44-.04 3.204-.04 3.204.018 3.204.04m0 1.454c0 .022-1.44.04-3.204.04s-3.204-.018-3.204-.04 1.44-.04 3.204-.04 3.204.018 3.204.04m0 1.458c0 .022-1.44.04-3.204.04s-3.204 0-3.204-.04 1.44-.04 3.204-.04 3.204.018 3.204.04"/><path fill="#000" d="M196.388 139.414H182.91v1.602h13.478z" opacity=".2"/><path fill="#FAFAFA" d="M210.522 144.825h-6.732v4.803h6.732z"/><path fill="#263238" d="M203.869 144.649H175.22v5.151h28.649z"/><path fill="#263238" d="M203.656 144.998h7.236a.2.2 0 0 0 .068-.012.2.2 0 0 0 .057-.037.18.18 0 0 0 .052-.124.176.176 0 0 0-.177-.176h-7.236zm0 4.457h7.258c.04 0 .079.016.107.044a.15.15 0 0 1 .044.107v.047q-.001.062-.044.107a.15.15 0 0 1-.107.044h-7.258v-.36z"/><path fill="#E0E0E0" d="M210.522 145.736c0 .022-1.491.04-3.327.04s-3.33 0-3.33-.04 1.491-.04 3.33-.04c1.84 0 3.327.018 3.327.04m0 .911c0 .021-1.491.039-3.327.039s-3.33-.018-3.33-.039 1.491-.04 3.33-.04c1.84 0 3.327.018 3.327.04m0 .907c0 .022-1.491.04-3.327.04s-3.33-.018-3.33-.04 1.491-.04 3.33-.04c1.84 0 3.327.018 3.327.04m0 .907c0 .025-1.491.04-3.327.04s-3.33 0-3.33-.04c0-.039 1.491-.036 3.33-.036 1.84 0 3.327.015 3.327.036"/><path fill="#fff" d="M184.022 155.96h1.242c.904 0 1.523.536 1.523 1.357s-.619 1.361-1.523 1.361h-1.256zm1.224 2.2a.85.85 0 0 0 .631-.226.85.85 0 0 0 .197-.95.85.85 0 0 0-.828-.506h-.583v1.682zm2.038-2.2h.637v2.718h-.637zm1.119 1.357a1.4 1.4 0 0 1 .445-1.026 1.4 1.4 0 0 1 1.053-.378 1.45 1.45 0 0 1 1.137.483l-.41.36a.9.9 0 0 0-.695-.317.867.867 0 0 0-.927.869.865.865 0 0 0 .927.87.89.89 0 0 0 .695-.324l.41.36a1.44 1.44 0 0 1-1.141.482 1.4 1.4 0 0 1-1.042-.369 1.4 1.4 0 0 1-.452-1.01m3.611-.842h-.886v-.515h2.416v.515h-.886v2.203h-.637zm1.865-.515h.637v2.718h-.637zm1.105 1.357a1.51 1.51 0 0 1 .855-1.477 1.51 1.51 0 0 1 1.688.255 1.518 1.518 0 0 1-.178 2.363 1.5 1.5 0 0 1-.853.263 1.42 1.42 0 0 1-1.059-.376 1.42 1.42 0 0 1-.453-1.028m2.376 0a.86.86 0 0 0-.538-.793.87.87 0 0 0-.939.192.86.86 0 0 0 .134 1.327.86.86 0 0 0 .479.145.85.85 0 0 0 .342-.053.85.85 0 0 0 .48-.477.8.8 0 0 0 .056-.341zm3.676-1.357v2.718h-.526l-1.375-1.638v1.649h-.634v-2.729h.529l1.372 1.649v-1.649zm2.473 2.135h-1.282l-.245.583h-.655l1.217-2.718h.63l1.235 2.718h-.67zm-.202-.479-.435-1.037-.44 1.037zm3.165 1.062-.533-.76h-.587v.76h-.648v-2.718h1.195c.738 0 1.199.378 1.199.986a.88.88 0 0 1-.565.857l.619.875zm-.602-2.203h-.518v.943h.518c.393 0 .591-.176.591-.472 0-.295-.198-.471-.591-.471m3.028 1.238v.965h-.641v-.972l-1.08-1.746h.677l.72 1.206.738-1.206h.626zm-24.973-11.408-.195.968h1.206l-.032.151h-1.202l-.202 1.001h-.166l.454-2.268h1.516l-.033.148zm2.509.414-.029.158h-.061c-.382 0-.634.227-.72.681l-.176.867h-.162l.338-1.692h.158l-.072.36a.77.77 0 0 1 .724-.374m.227.896a1 1 0 0 0 0 .105c0 .36.212.572.626.572a.8.8 0 0 0 .58-.227l.072.112a.92.92 0 0 1-.666.259.684.684 0 0 1-.771-.72.944.944 0 0 1 .922-1.008.66.66 0 0 1 .72.72 2 2 0 0 1-.018.191zm.018-.126h1.303v-.086a.518.518 0 0 0-.572-.544.75.75 0 0 0-.731.63m3.506-.227a1 1 0 0 1-.018.184l-.194.979h-.162l.194-.979a1 1 0 0 0 0-.162c0-.263-.158-.418-.475-.418a.724.724 0 0 0-.742.638l-.183.921h-.162l.335-1.692h.158l-.065.321a.8.8 0 0 1 .309-.256.8.8 0 0 1 .393-.079.5.5 0 0 1 .233.012.52.52 0 0 1 .379.531m.429.472a.96.96 0 0 1 .972-1.015.69.69 0 0 1 .64.32l-.133.079a.55.55 0 0 0-.518-.252.8.8 0 0 0-.586.256.8.8 0 0 0-.213.601q-.009.121.036.235a.53.53 0 0 0 .576.334.72.72 0 0 0 .558-.248l.115.093a.86.86 0 0 1-.688.299.67.67 0 0 1-.708-.415.7.7 0 0 1-.051-.287m3.52-.472a1 1 0 0 1-.018.184l-.194.979h-.162l.194-.979a.6.6 0 0 0 0-.162c0-.263-.158-.418-.475-.418a.72.72 0 0 0-.741.638l-.184.921h-.162l.479-2.405h.162l-.205 1.026a.82.82 0 0 1 .694-.327.5.5 0 0 1 .233.012.52.52 0 0 1 .379.531m-9.907-8.445h.421l-.464 2.264h-.421zm1.113 1.685v.075a.2.2 0 0 0 .009.08.17.17 0 0 0 .112.108.2.2 0 0 0 .08.007c.081 0 .16-.024.227-.069l.072.299a.76.76 0 0 1-.418.104.45.45 0 0 1-.354-.118.46.46 0 0 1-.142-.346.6.6 0 0 1 0-.137l.165-.813h-.281l.065-.324h.281l.079-.396h.403l-.079.396h.465l-.065.324h-.468zm2.775-1.149-.342 1.728h-.385l.036-.176a.83.83 0 0 1-.565.201.72.72 0 0 1-.76-.763.96.96 0 0 1 .271-.714.98.98 0 0 1 .705-.294.65.65 0 0 1 .587.274l.05-.256zm-.554.767a.41.41 0 0 0-.127-.325.41.41 0 0 0-.33-.111.6.6 0 0 0-.241.051.605.605 0 0 0-.357.597.41.41 0 0 0 .457.436.6.6 0 0 0 .44-.194.6.6 0 0 0 .127-.21.6.6 0 0 0 .031-.244m1.22-1.44h.407l-.479 2.401h-.407zm.803.673h.407l-.342 1.728h-.425zm.054-.511a.25.25 0 0 1 .169-.245.3.3 0 0 1 .105-.014q.046-.004.09.009.044.015.079.045a.2.2 0 0 1 .054.073.25.25 0 0 1 .003.196.26.26 0 0 1-.259.163.2.2 0 0 1-.092-.013.23.23 0 0 1-.153-.214zm2.57.511-.36 1.728h-.388l.036-.176a.82.82 0 0 1-.562.201.716.716 0 0 1-.763-.763.97.97 0 0 1 .27-.714.98.98 0 0 1 .705-.294.65.65 0 0 1 .591.274l.047-.256zm-.558.767a.41.41 0 0 0-.279-.417.4.4 0 0 0-.178-.019.62.62 0 0 0-.438.195.62.62 0 0 0-.156.453.41.41 0 0 0 .457.436.6.6 0 0 0 .594-.648m2.661-.202a1 1 0 0 1-.022.206l-.191.957h-.403l.187-.947a1 1 0 0 0 0-.133c0-.201-.108-.313-.36-.313a.54.54 0 0 0-.565.497l-.183.896h-.404l.342-1.728h.386l-.04.191a.9.9 0 0 1 .598-.209.55.55 0 0 1 .469.133.57.57 0 0 1 .186.45"/><path fill="#FAFAFA" d="M168.247 72.8h30.179a3.376 3.376 0 0 1 3.376 3.377v9.878a3.374 3.374 0 0 1-3.376 3.377h-4.036c.133 2.293 1.71 4.104 1.71 4.104-3.74-.601-5.4-2.671-6.084-4.104h-21.769a3.376 3.376 0 0 1-3.377-3.377v-9.889a3.377 3.377 0 0 1 3.377-3.366"/><path fill="#263238" d="M168.247 72.8q-.41.03-.81.119a3.35 3.35 0 0 0-2.52 2.88c-.029.31-.022.64-.022.983v9.082a3.5 3.5 0 0 0 .281 1.52 3.3 3.3 0 0 0 2.491 1.93q.43.06.864.046h21.503l.025.05a6.9 6.9 0 0 0 2.434 2.73 8.2 8.2 0 0 0 1.706.845q.918.32 1.876.479l-.083.151a8.2 8.2 0 0 1-1.166-1.911 6.7 6.7 0 0 1-.569-2.247v-.1h4.431a3.275 3.275 0 0 0 2.88-2.416c.101-.43.139-.873.116-1.314v-9.105a3.43 3.43 0 0 0-.652-2.278 3.3 3.3 0 0 0-1.937-1.25 5.2 5.2 0 0 0-1.159-.079h-13.712l-11.693-.032 11.693-.029h13.741a5.4 5.4 0 0 1 1.195.08c.816.175 1.54.642 2.038 1.313.504.687.749 1.53.691 2.38v9.104c.026.457-.014.916-.119 1.361a3.47 3.47 0 0 1-3.035 2.556c-.479.029-.932 0-1.4 0h-2.949l.094-.1a7.46 7.46 0 0 0 1.688 4.05l.159.197-.245-.043a12 12 0 0 1-1.912-.486 8.7 8.7 0 0 1-1.742-.868 7.1 7.1 0 0 1-2.498-2.804l.082.05h-21.441a5 5 0 0 1-.886-.05 3.4 3.4 0 0 1-1.58-.698 3.5 3.5 0 0 1-1.015-1.322 3.6 3.6 0 0 1-.285-1.57v-9.082q-.013-.495.029-.99a3.39 3.39 0 0 1 2.574-2.88q.3-.075.608-.083z"/><path fill="#FF725E" d="m171.321 83.42.497-1.105a3.76 3.76 0 0 0 2.099.662c.871 0 1.224-.291 1.224-.68 0-1.188-3.694-.36-3.694-2.733 0-1.08.871-1.976 2.679-1.976a4.27 4.27 0 0 1 2.203.562l-.454 1.116a3.6 3.6 0 0 0-1.76-.5c-.871 0-1.206.327-1.206.72 0 1.17 3.693.36 3.693 2.696 0 1.062-.882 1.969-2.696 1.969a4.5 4.5 0 0 1-2.585-.731m10.509-2.156v2.782h-1.325v-.604c-.263.443-.771.68-1.491.68-1.141 0-1.821-.637-1.821-1.48 0-.842.608-1.461 2.095-1.461h1.127c0-.608-.36-.961-1.127-.961a2.36 2.36 0 0 0-1.408.453l-.507-.99a3.75 3.75 0 0 1 2.106-.59c1.487 0 2.351.691 2.351 2.17m-1.415 1.256v-.5h-.972c-.663 0-.871.245-.871.572 0 .328.298.59.799.59a1.05 1.05 0 0 0 1.044-.662m2.689-5.204h1.415v6.731h-1.415zm7.654 1.85v4.881h-1.343v-.58a1.97 1.97 0 0 1-1.516.656c-1.224 0-2.088-.691-2.088-2.196v-2.761h1.419v2.552c0 .814.36 1.177.986 1.177s1.127-.417 1.127-1.314v-2.415zm4.464 4.648a2 2 0 0 1-1.152.31c-1.152 0-1.822-.591-1.822-1.754V80.36h-.756v-1.08h.756v-1.192h1.415v1.192h1.217v1.08h-1.217v1.987a.56.56 0 0 0 .15.468.57.57 0 0 0 .458.177 1 1 0 0 0 .573-.18z"/><path fill="#FAFAFA" d="M148.44 21.68h-20.988a5.37 5.37 0 0 0-5.372 5.371v9.486a5.37 5.37 0 0 0 5.372 5.368h13.532c0 2.743-1.937 4.957-1.937 4.957 4.515-.72 6.311-3.348 7.002-4.957h2.409a5.37 5.37 0 0 0 5.371-5.368v-9.504a5.4 5.4 0 0 0-1.586-3.793 5.38 5.38 0 0 0-3.803-1.56"/><path fill="#263238" d="M148.44 21.68q.068-.003.136 0h.4a5.6 5.6 0 0 1 1.512.36 5.4 5.4 0 0 1 3.348 4.522c0 .158.018.32.025.482v8.608c0 .435 0 .878-.021 1.335q-.032.345-.101.684a5 5 0 0 1-.195.67 5.42 5.42 0 0 1-4.381 3.571q-.78.085-1.562.058h-1.577l.076-.05a7.87 7.87 0 0 1-2.765 3.358 9.6 9.6 0 0 1-2.034 1.062 13 13 0 0 1-2.265.59l-.237.044.155-.191a9.4 9.4 0 0 0 1.339-2.247c.358-.84.553-1.74.572-2.653l.094.094h-13.507c-.22 0-.447 0-.666-.043a5.5 5.5 0 0 1-2.448-.933 5.6 5.6 0 0 1-1.714-1.93 5.6 5.6 0 0 1-.63-2.458V27.08a5.4 5.4 0 0 1 .461-2.214 5.48 5.48 0 0 1 3.074-2.912 5.7 5.7 0 0 1 2.023-.36h5.656l11.16.028h4.086l-.27.058h-3.816l-11.16.029h-5.656a5.31 5.31 0 0 0-4.928 3.211c-.641 1.336-.389 2.905-.439 4.45-.051 1.544 0 3.15 0 4.777v2.47a5.36 5.36 0 0 0 .608 2.372c.4.741.967 1.38 1.656 1.865a5.35 5.35 0 0 0 2.365.9c.213.028.432.025.645.043h13.608v.093a7.3 7.3 0 0 1-.587 2.718 9.5 9.5 0 0 1-1.372 2.297l-.082-.147a13.6 13.6 0 0 0 2.232-.58 9.3 9.3 0 0 0 1.994-1.04 7.7 7.7 0 0 0 2.714-3.284l.022-.05h1.642q.772.023 1.54-.054a5.28 5.28 0 0 0 4.457-4.115c.04-.22.079-.443.101-.662.032-.443.022-.89.025-1.325v-8.604l-.021-.475a5.36 5.36 0 0 0-3.273-4.479 5.9 5.9 0 0 0-2.019-.41"/><path fill="#FF725E" d="M134.378 28.75v5.505h-.785V31.8h-3.161v2.455h-.784V28.75h.784v2.366h3.161V28.75zm1.156 3.42a2.16 2.16 0 0 1 1.313-2.016 2.16 2.16 0 1 1 .847 4.148 2.074 2.074 0 0 1-2.16-2.132m3.567 0a1.406 1.406 0 0 0-1.717-1.303 1.4 1.4 0 0 0-1.067 1.12 1.405 1.405 0 0 0 1.384 1.652 1.37 1.37 0 0 0 1.324-.906c.064-.18.09-.372.076-.563m1.807-3.747h.756v5.832h-.756zm5.494 3.315v2.52h-.72v-.554a1.55 1.55 0 0 1-1.368.598c-.943 0-1.541-.504-1.541-1.228 0-.666.436-1.217 1.678-1.217h1.213v-.151c0-.637-.36-1.004-1.116-1.004a2.1 2.1 0 0 0-1.318.446l-.316-.565a2.78 2.78 0 0 1 1.72-.537c1.124 0 1.768.551 1.768 1.692m-.738 1.242v-.583h-1.163c-.745 0-.957.292-.957.645 0 .417.36.676.918.676a1.21 1.21 0 0 0 1.202-.738"/><path fill="#FAFAFA" d="M74.992 105.063H94.22a3.217 3.217 0 0 1 3.218 3.219v8.103a3.21 3.21 0 0 1-1.987 2.971c-.39.162-.808.244-1.231.244H80.68c-.828 1.375-2.494 3.049-5.803 3.6a7.95 7.95 0 0 0 1.667-3.6h-1.552a3.21 3.21 0 0 1-2.973-1.984 3.2 3.2 0 0 1-.245-1.231v-8.103a3.217 3.217 0 0 1 3.218-3.219"/><path fill="#263238" d="M74.992 105.063c-.47.024-.932.138-1.36.335a3.24 3.24 0 0 0-1.264 1.08 3.3 3.3 0 0 0-.44.968 4 4 0 0 0-.107 1.203c0 1.728 0 3.827.018 6.231v.918c0 .31 0 .627.025.936a3.15 3.15 0 0 0 2.52 2.726q.526.08 1.058.061h1.196v.093a7.9 7.9 0 0 1-1.67 3.626l-.08-.141a9.5 9.5 0 0 0 3.208-1.08 7 7 0 0 0 2.52-2.451l.025-.044h13.295c.336.015.674-.013 1.004-.082a3.12 3.12 0 0 0 2.408-2.787c.03-2.646 0-5.227.018-7.668a4.6 4.6 0 0 0-.19-1.76 3.14 3.14 0 0 0-2.499-2.031 6 6 0 0 0-.824-.036H86.98l-8.762-.028-2.394-.047h-.828.828l2.383-.018 8.763-.029h6.854q.424-.016.846.032a3.3 3.3 0 0 1 2.635 2.132c.11.288.175.591.195.9.021.313 0 .608 0 .918 0 2.448.018 5.004 0 7.682a3.31 3.31 0 0 1-2.55 2.956q-.517.107-1.047.086H80.68l.076-.047a7.15 7.15 0 0 1-2.6 2.52 9.7 9.7 0 0 1-3.264 1.109l-.22.036.14-.176a7.74 7.74 0 0 0 1.642-3.586l.08.094h-1.102a5.3 5.3 0 0 1-1.08-.065 3.3 3.3 0 0 1-1.8-1.048 3.24 3.24 0 0 1-.807-1.8 10 10 0 0 1-.021-.954v-.918c0-2.405 0-4.503.018-6.231-.022-.412.02-.825.122-1.224.098-.352.254-.686.46-.987a3.25 3.25 0 0 1 2.32-1.357c.222-.05.348-.047.348-.047"/><path fill="#FF725E" d="M80.882 110.355v4.205h-.968v-1.717h-1.905v1.717h-.968v-4.205h.968v1.649h1.905v-1.649zm4.061 2.841h-2.434a.854.854 0 0 0 .918.648 1.1 1.1 0 0 0 .81-.314l.497.54a1.68 1.68 0 0 1-1.328.519c-1.113 0-1.836-.699-1.836-1.656a1.635 1.635 0 0 1 1.061-1.553c.21-.079.433-.114.656-.103a1.6 1.6 0 0 1 1.207.461 1.6 1.6 0 0 1 .467 1.206c0 .072-.011.176-.018.252m-2.448-.544h1.587a.805.805 0 0 0-1.311-.476.8.8 0 0 0-.276.476m3.085-2.549h.936v4.457h-.936zm1.8 0h.936v4.457h-.936zm1.562 2.83a1.773 1.773 0 0 1 2.041-1.865 1.768 1.768 0 0 1 .725 3.212c-.293.201-.64.308-.995.309a1.645 1.645 0 0 1-1.635-.995 1.7 1.7 0 0 1-.136-.661m2.592 0a.82.82 0 0 0-.554-.712.828.828 0 0 0-1.08.645.825.825 0 0 0 .813.96.81.81 0 0 0 .783-.556.8.8 0 0 0 .038-.337"/><path fill="#FAFAFA" d="M102.414 42.718h-31.89a6.2 6.2 0 0 0-6.198 6.2V59.07a6.203 6.203 0 0 0 6.199 6.202h26.77c.572 1.7 2.465 5.4 8.33 6.35 0 0-2.578-2.955-2.2-6.44a6.2 6.2 0 0 0 5.188-6.12V48.91a6.2 6.2 0 0 0-6.199-6.192"/><path fill="#263238" d="M102.414 42.718h.518a6 6 0 0 1 1.48.296c.78.256 1.5.67 2.116 1.213l.274.248c.09.09.173.187.263.285q.27.3.504.63c.33.492.594 1.026.785 1.587.196.632.3 1.29.309 1.951v9.756q.013.715-.09 1.422a6.3 6.3 0 0 1-2.25 3.827 6.7 6.7 0 0 1-1.35.832 7 7 0 0 1-1.555.475l.065-.068c-.216 2.188.687 4.518 2.185 6.379l.137.172-.213-.035a12.2 12.2 0 0 1-5-1.926 9.4 9.4 0 0 1-2.037-1.94 9 9 0 0 1-1.361-2.542l.082.06H71.275q-.862.026-1.718-.082a6.3 6.3 0 0 1-3.092-1.375 6.8 6.8 0 0 1-1.134-1.25 6.3 6.3 0 0 1-.752-1.493 7 7 0 0 1-.227-.8 7 7 0 0 1-.105-.824c-.043-.554 0-1.08-.021-1.63V50.02c0-.508 0-1.016.022-1.53a6.1 6.1 0 0 1 .918-2.856 6.1 6.1 0 0 1 2.062-2.059 6.2 6.2 0 0 1 2.69-.9c.471-.032.932-.032 1.39-.029h11.336l14.457.03h3.928l-3.928.017-14.457.029H71.32c-.457 0-.917 0-1.371.032a6.05 6.05 0 0 0-2.62.882q-.61.376-1.12.875a6.5 6.5 0 0 0-.89 1.134 5.94 5.94 0 0 0-.885 2.776c-.036.493 0 1.008-.022 1.519v7.952c0 1.08-.054 2.16.36 3.194.176.509.418.993.72 1.44q.473.677 1.102 1.213a6.04 6.04 0 0 0 2.988 1.353q.841.113 1.688.083h26.086l.021.061a8.9 8.9 0 0 0 1.329 2.488 9.3 9.3 0 0 0 1.998 1.908 12 12 0 0 0 4.928 1.904l-.076.134a10.6 10.6 0 0 1-1.756-3.122 7.7 7.7 0 0 1-.454-3.384v-.054h.058a6.6 6.6 0 0 0 1.519-.46 6.17 6.17 0 0 0 3.121-3.168q.284-.665.41-1.376.105-.695.09-1.4V48.95a6.7 6.7 0 0 0-.298-1.922 6.6 6.6 0 0 0-.742-1.588 7 7 0 0 0-.493-.626c-.087-.094-.169-.191-.256-.281l-.27-.249a6.1 6.1 0 0 0-2.088-1.22 6.4 6.4 0 0 0-1.469-.317zm51.847 51.79a2.8 2.8 0 0 1-2.625-1.174c.677.105 1.408.202 2.016-.111.609-.314.958-1.21.479-1.7-.36-.381-.99-.316-1.523-.36a3.29 3.29 0 0 1-2.8-2.16c-.45-1.296-.036-2.71.126-4.075a11.23 11.23 0 0 0-4.702-10.328l-8.539-4.936c-3.1 3.96-4.065 9.31-3.424 14.3s2.761 9.68 5.307 14.04a16.5 16.5 0 0 0 2.577 3.546 6.58 6.58 0 0 0 3.838 1.972 3.96 3.96 0 0 0-.634-3.575 8.63 8.63 0 0 0 6.347-2.307l-1.832-1.404a6.68 6.68 0 0 0 5.389-1.728"/><path fill="#FFBF9D" d="M121.364 80.576c.151-3.571 2.372-6.56 5.807-7.542l10.71-3.06c4.647-.637 7.92 5.011 8.363 9.68.489 5.192.853 10.67.36 14.57-.998 7.837-6.945 9-6.945 9s.198 7.063.259 9.342l-5.45 11.404-10.555-14.569-2.574-28.731c-.007-.134.018.082.025-.094"/><path fill="#263238" d="M143.04 86.48a1.01 1.01 0 0 1-.936 1.04.96.96 0 0 1-1.059-.87 1.01 1.01 0 0 1 .933-1.041.96.96 0 0 1 1.062.87m2.12-3.736c-.119.137-.893-.403-1.969-.36s-1.851.601-1.969.472c-.062-.058.057-.295.396-.558a2.74 2.74 0 0 1 1.569-.537c.56-.02 1.111.14 1.573.454.342.238.461.472.4.53m-11.617 3.736a1.003 1.003 0 0 1-.936 1.04.96.96 0 0 1-1.059-.87 1.004 1.004 0 0 1 .933-1.041.96.96 0 0 1 .954.506q.09.173.108.365m1.393-3.445c-.119.137-.896-.4-1.969-.36s-1.851.601-1.973.471c-.058-.057.061-.295.4-.558a2.74 2.74 0 0 1 1.569-.536c.559-.02 1.11.14 1.573.454.328.237.461.471.4.529m3.607 8.359c0-.058.659-.195 1.739-.36.274-.036.533-.1.572-.288a1.4 1.4 0 0 0-.205-.81l-.878-2.067c-1.221-2.948-2.113-5.37-1.995-5.421.119-.05 1.206 2.3 2.427 5.245.291.72.576 1.44.842 2.085.185.327.247.71.177 1.08a.7.7 0 0 1-.44.417 2 2 0 0 1-.464.08c-1.091.075-1.768.1-1.775.039"/><path fill="#FF9A6C" d="M129.23 100.758s2.689 5.284 10.476 4.32l-.05-1.836a19.7 19.7 0 0 1-10.426-2.484"/><path fill="#263238" d="M134.504 79.564c-.097.296-1.177.191-2.437.382-1.26.19-2.268.565-2.445.31-.079-.123.09-.404.494-.72a4.29 4.29 0 0 1 3.718-.526c.454.19.695.414.67.554m10.213-.104c-.183.252-.932.022-1.825.036s-1.642.216-1.822-.036c-.082-.122.029-.36.36-.612a2.52 2.52 0 0 1 1.469-.447 2.56 2.56 0 0 1 1.469.447c.317.245.428.493.349.612"/><path fill="#FF9A6C" d="M134.504 93.496a1.4 1.4 0 0 1 1.418-1.105 1.44 1.44 0 0 1 1.152.77 1.8 1.8 0 0 1 .105 1.404l-.018.101a1.605 1.605 0 0 1-1.8.432 1.49 1.49 0 0 1-.857-1.602"/><path fill="#263238" d="M137.946 94.666c0-.165-1.08-.082-1.937-.95s-.814-2.038-.969-2.034c-.068 0-.19.274-.165.767.042.637.307 1.238.749 1.699.424.442 1.004.7 1.616.72.457.014.716-.13.706-.202m-12.982-26.517c1.206-1.915 4.05-3.913 6.278-4.32 2.542-.443 4.072 0 5.742 1.515 0 0 1.3 1.253 2.52 1.49 1.221.238 2.236.037 3.69.782 1.984 1.015 2.855 3.668 3.773 5.699 1.145 2.52 2.772 4.845 3.517 7.513s.36 5.947-1.897 7.56c.385-2.045.72-4.295-.137-6.145.11.74.064 1.493-.136 2.214-.422-1.199-.864-2.437-1.736-3.366-.82-.875-1.958-1.397-2.808-2.247-1.242-1.249-1.8-3.153-3.33-4.057-1.573-.943-3.56-.475-5.4-.464a10.34 10.34 0 0 1-8.038-3.874l.453-.04a13 13 0 0 1-2.491-2.26"/><path fill="#263238" d="M113.491 87.232c.72-2.296 1.929-4.395 2.7-6.667.749-2.214 1.058-4.579 2.052-6.692 1.339-2.844 3.841-6.527 7.736-6.325l.267.234c1.327-.16 2.674 0 3.927.468l.061 3.038.746.659a124 124 0 0 0-.897 1.757 19 19 0 0 1-.979 3.344 8.6 8.6 0 0 1-1.868 2.844c-6.714 16.074-.627 17.09-3.651 26.302l-1.901-5.274a9.4 9.4 0 0 1-3.762-4.054l-.338 1.67a9.7 9.7 0 0 1-2.621-5.986l-.871 1.602c-1.397-1.959-1.3-4.626-.601-6.92"/><path fill="#FFBF9D" d="M124.946 86.646c-.104-.263-4.957-1.858-4.874 3.24.079 4.96 5.04 3.844 5.061 3.7.022-.144-.187-6.94-.187-6.94"/><path fill="#FF9A6C" d="M123.567 91.743c-.021 0-.086.061-.23.133a.87.87 0 0 1-.645.025c-.529-.183-.986-1.007-1.026-1.9-.02-.425.054-.85.216-1.242a1 1 0 0 1 .638-.677.44.44 0 0 1 .514.227c.069.14.04.237.065.248.025.01.108-.086.061-.291a.56.56 0 0 0-.198-.306.67.67 0 0 0-.482-.12 1.22 1.22 0 0 0-.889.79 2.95 2.95 0 0 0-.27 1.389c.05.997.579 1.922 1.299 2.116a.93.93 0 0 0 .789-.147c.151-.108.176-.238.158-.245"/><path fill="#fff" d="M123.027 92.636a.984.984 0 1 0 .234.068"/><path fill="#263238" d="M123.261 92.704c.218.165.38.392.465.652a.84.84 0 0 1-.17.785.865.865 0 0 1-1.341.02.86.86 0 0 1-.199-.463.85.85 0 0 1 .27-.756c.21-.175.469-.282.741-.306 0 0-.075-.05-.234-.047-.224.008-.439.09-.612.234a.98.98 0 0 0-.36.904 1.08 1.08 0 0 0 1.905.547.99.99 0 0 0 .165-.965 1 1 0 0 0-.396-.522c-.151-.086-.23-.097-.234-.083"/><path fill="#455A64" d="M130.587 73.189c-.101.04-.558-1.642-1.94-3.2-1.383-1.56-2.963-2.265-2.913-2.355.375.066.731.208 1.048.418a8.06 8.06 0 0 1 3.532 4.046c.163.341.256.712.273 1.09m17.017 36.03c-.471-.123 5.469 27.68 5.469 27.68l9.72 14.04h9.291l2.672-2.066s-4.972-9.893-7.319-13.464c-2.347-3.572-11.538-24.059-19.833-26.19"/><path fill="#455A64" d="m147.604 109.218-7.531-1.498c-1.8 6.905-11.372 6.296-16.56 0l-4.154 1.127c-5.551 1.634-6.84 2.257-6.84 2.257-4.043 1.58-6.559 5.922-7.56 8.932l9.911 27.482-2.52 16.56 42.717-.047-3.884-14.04.849-4.518 1.257-3.913c1.253-4.021-.436-11.398-1.667-15.43l-1.339-5.846z"/><path fill="#000" d="M117.584 120.842s.482 5.76 0 8.64-1.638 17.082-1.638 17.082l14.418 4.291 7.92-2.761-4.612 11.106-8.42 1.206-9.526-10.206-2.462-7.322 1.354-3.96z" opacity=".3"/><path fill="#FFBF9D" d="m147.126 154.981-7.676-3.827 1.25-.72 2.39.763c0 .108 2.228 1.08 3.049.868.528-.143.982-.48 1.271-.943.115-.224-2.822-1.725-2.822-1.725l-3.701-1.893-3.96 1.04-7.063 4.406-5.296-1.648c-.133.219-2.027 8.589-2.027 8.589s5.202 1.703 8.19 1.44c2.031-.169 3.773-1.58 4.785-2.585l.907.486s3.319 1.617 4.73 1.682.497-1.264.497-1.264l-2.466-1.595-1.004-.885 1.526.543s2.588 1.325 3.114 1.473c.673.187 1.206.039 1.462-.9.255-.94-5.04-4.043-5.04-4.043l5.158 2.16a2.9 2.9 0 0 0 1.523.219 1.22 1.22 0 0 0 1.055-.658c.382-.947.148-.983.148-.983"/><path fill="#FF9A6C" d="M135.094 151.856a1.7 1.7 0 0 1 .522-.45 4.03 4.03 0 0 1 3.24-.486c.228.046.443.141.63.277a6 6 0 0 1-.662-.147 4.65 4.65 0 0 0-3.125.468 6 6 0 0 1-.605.338m5.055 2.902a3.6 3.6 0 0 1-.681-.418 7 7 0 0 0-1.684-.86 3.15 3.15 0 0 0-1.84-.04 6 6 0 0 0-.72.331c.172-.215.406-.373.67-.453a3 3 0 0 1 1.944-.018 5.8 5.8 0 0 1 1.706.932q.337.223.605.526m-3.093 1.13c0 .025-.162-.068-.417-.155a2.4 2.4 0 0 0-1.023-.115 2.3 2.3 0 0 0-.975.335c-.231.14-.36.263-.36.241s.072-.169.295-.36a2.06 2.06 0 0 1 2.128-.234c.244.137.367.274.352.288m2.074 2.282a4.94 4.94 0 0 1-1.721-1.67q.489.355.889.806.466.386.832.864"/><path fill="#455A64" d="M118.347 125.562c2.131-11.337-10.181-14.631-13.129-6.272 0 0-2.948 8.522-4.194 13.266-1.16 4.418-2.52 10.08-3.41 15.567-.615 3.787.418 8.28 2.568 9.191 5.612 2.383 27.878 5.947 27.878 5.947l1.382-11.351-16.502-3.902s.688-1.858-.583-2.031l3.978-13.777z"/><path fill="#263238" d="m112.357 145.977.147.072a.8.8 0 0 1 .17.108 1 1 0 0 1 .208.187c.178.198.277.454.278.72-.009.36-.12.71-.321 1.008l-.032-.079c1.343.241 3.189.645 5.357 1.167l7.336 1.8a95 95 0 0 0 3.96.867h.087v.083l-1.023 8.129c-.133.993-.237 1.8-.313 2.361q-.06.393-.093.634a1 1 0 0 1-.044.216 2 2 0 0 1 0-.22c.018-.162.036-.36.065-.637.061-.569.151-1.371.259-2.369.242-2.034.573-4.867.958-8.136l.072.101a90 90 0 0 1-3.96-.86c-2.671-.637-5.166-1.282-7.33-1.818-2.163-.537-4.003-.958-5.338-1.224h-.072l.039-.065c.195-.28.307-.61.324-.95a1.06 1.06 0 0 0-.237-.688 1.2 1.2 0 0 0-.191-.191 1 1 0 0 0-.162-.119.7.7 0 0 1-.144-.097m5.043-16.981a.6.6 0 0 1-.032.176l-.144.508-.515 1.829a533 533 0 0 1-1.757 6.012c-.698 2.343-1.335 4.464-1.8 5.997l-.568 1.8q-.103.294-.166.49a.8.8 0 0 1-.068.166.6.6 0 0 1 .032-.177l.13-.5.511-1.829c.443-1.541 1.08-3.668 1.757-6.012s1.339-4.464 1.8-5.998c.234-.741.428-1.353.568-1.8.065-.194.119-.36.166-.489.047-.13.079-.177.086-.173m.638-7.085a15 15 0 0 0-.321-1.8 7.9 7.9 0 0 0-2.233-3.758 7.9 7.9 0 0 0-3.887-2.002 14 14 0 0 0-1.829-.209q.247-.048.497-.039.684-.007 1.357.119a7.78 7.78 0 0 1 6.416 7.203q.024.244 0 .486m-5.681 24.21c0 .029-.256-.039-.659-.061a3.44 3.44 0 0 0-2.786 1.148c-.27.303-.396.522-.422.508.059-.219.169-.422.321-.59.335-.437.78-.778 1.289-.987a3.2 3.2 0 0 1 1.612-.212c.228.011.449.078.645.194"/><path fill="#263238" d="M112.778 147.716c0 .058-.652.115-1.386.428-.734.314-1.238.742-1.274.699a3.3 3.3 0 0 1 2.66-1.127m36.983-26.442q.076.1.129.216c.09.162.202.36.342.634.141.273.328.615.512 1.022.183.407.417.857.622 1.375.206.519.458 1.08.674 1.707.108.309.234.626.36.961s.212.68.32 1.037a31 31 0 0 1 1.019 4.712c.203 1.597.27 3.208.201 4.817-.061.738-.097 1.44-.208 2.095-.051.328-.087.644-.144.943-.058.299-.126.587-.184.864-.101.551-.263 1.033-.378 1.462-.065.216-.115.414-.176.597-.062.184-.126.339-.18.49l-.256.673q-.038.12-.097.231a1 1 0 0 1 .065-.242q.08-.262.219-.687.076-.222.162-.493c.058-.18.105-.382.162-.598.108-.428.256-.911.36-1.462q.082-.41.169-.86c.058-.299.087-.612.134-.94.104-.648.133-1.346.19-2.08a29.4 29.4 0 0 0-.216-4.788 33 33 0 0 0-.997-4.68c-.104-.36-.212-.695-.313-1.03s-.223-.652-.331-.961c-.209-.623-.443-1.188-.648-1.707-.205-.518-.421-.979-.598-1.386a25 25 0 0 0-.479-1.033c-.136-.281-.23-.482-.309-.648a1.6 1.6 0 0 1-.126-.241m.461-2.488c.046.029-.206.537-.335 1.217-.13.681-.094 1.246-.148 1.249a2.2 2.2 0 0 1-.036-1.285c.054-.436.234-.846.519-1.181"/><path fill="#000" d="M155.024 129.216c-.464-1.829-1.336-3.518-2.2-5.192q-1.061-2.04-2.12-4.064c-.137-.259-.306-.547-.594-.605-.36-.068-.67.277-.72.63-.01.358.079.711.256 1.023a75 75 0 0 1 3.218 8.312c.882 2.765 1.516 6.458 1.022 9.317 1.66-2.79 1.93-6.261 1.138-9.421" opacity=".3"/><path fill="#263238" d="M141.906 136.7a.5.5 0 0 1-.022.166c-.022.104-.043.262-.097.464a11 11 0 0 1-.547 1.663 12.52 12.52 0 0 1-8.435 7.359q-.849.222-1.721.316c-.205.026-.36.026-.475.033a.6.6 0 0 1-.169 0q.313-.068.633-.101a14 14 0 0 0 1.699-.36 12.86 12.86 0 0 0 8.345-7.279q.347-.806.587-1.649a5 5 0 0 1 .202-.612"/><path fill="#fff" d="m186.29 142.237-.943-1.037s-6.901 3.1-9.249 4.414c-3.387 1.893-3.819 2.858-3.819 2.858l-.447 2.16 1.595 1.08z"/><path fill="#263238" d="m173.427 151.701-1.598-1.08.446-2.16c.168-.277.385-.521.641-.72a18 18 0 0 1 3.179-2.142c2.322-1.299 9.18-4.385 9.252-4.417l.954 1.062zm-1.584-1.08 1.581 1.08 12.852-9.446-.933-1.055c-.237.104-6.951 3.128-9.241 4.41a18 18 0 0 0-3.175 2.138 2.8 2.8 0 0 0-.637.72z"/><path fill="#fff" d="M173.125 151.485s-.472-4.59-3.46-5.889-12.103 3.366-12.297 3.43-18.688 12.035-18.688 12.035l1.026 1.26 16.808-2.041z"/><path fill="#E0E0E0" d="m139.296 161.572 18.262-11.88s9.684-4.892 12.381-3.322c2.696 1.569 2.405 4.579 2.405 4.579l-17.604 10.098-14.584 1.767z"/><path fill="#fff" d="M172.214 149.372s-1.498-2.462-7.938-1.357a40.3 40.3 0 0 0-7.132 1.958l-17.463 11.913.605.72 27.72-10.325 4.352-.864.36-.763z"/><path fill="#FF725E" d="m138.27 163.29 16.052-10.811 16.268-2.463 2.459 1.178 13.583-9.63.652.748-21.582 17.432-4.63-1.113-5.044 3.55-17.348 1.836z"/><path fill="#263238" d="m138.68 164.017-.108-.169a20 20 0 0 0-.317-.551c1.771-1.217 7.614-5.177 16.024-10.858l16.265-2.477h.05l2.462 1.178h-.09l13.58-9.638.068-.046.058.064.176.202.475.547.069.076-.083.061-13.792 10.148-.047.033-.05-.025-2.704-1.44h.054l-15.966 2.599h.029l-11.822 7.56-3.24 2.055-.843.533-.291.173s.093-.068.277-.191l.835-.547 3.208-2.088 11.79-7.621 16.027-2.675h.058l2.707 1.44h-.097l13.788-10.156v.137l-.479-.547-.177-.202h.126l-13.597 9.688-.043.032-.036-.032-2.462-1.181h.05l-16.268 2.448h.028c-8.424 5.656-14.292 9.58-16.084 10.761v-.022c.14.252.237.436.306.558z"/><path fill="#263238" d="M154.138 152.742c.044-.029.206.144.36.381.155.238.249.457.206.486s-.206-.144-.36-.381c-.155-.238-.249-.458-.206-.486m16.726-1.595a.8.8 0 0 1-.137.129q-.171.137-.417.342l-1.559 1.224a566 566 0 0 1-5.181 3.993c-1.018.77-1.969 1.53-2.88 2.16l-2.415 1.677-1.638 1.116-.45.296q-.159.103-.166.093a1 1 0 0 1 .144-.122l.429-.324 1.605-1.167 2.391-1.71c.9-.64 1.846-1.404 2.88-2.16 2.03-1.548 3.873-2.941 5.212-3.96l1.592-1.177.439-.313a.7.7 0 0 1 .151-.097"/><path fill="#FFBF9D" d="M176.599 151.777c-.439.601-1.678 2.57-1.678 2.57a21.5 21.5 0 0 1-.972 3.517 6.31 6.31 0 0 1-4.885 3.708c-2.473.31-6.599-1.274-6.599-1.274l-5.281-1.973s-1.188-1.019-.202-1.634c0 0-.874-.987.857-1.422 1.732-.436 6.48 1.8 6.48 1.8s-1.976-1.667-3.153-2.099-.677-1.44.309-1.548c.987-.108 1.725.245 3.391.799 1.667.555 3.161 1.674 3.842 1.674.68 0 .255-1.101-.36-1.533-2.502-1.725-1.671-2.297-1.671-2.297s.249-.864 1.545-.31a33 33 0 0 1 3.542 1.995c1.44-.094 1.897-.45 2.221-1.3.2-.493.525-.925.943-1.253l.63-.511a.77.77 0 0 1 1 .029.76.76 0 0 1 .241.476.76.76 0 0 1-.128.517z"/><path fill="#FF9A6C" d="M163.387 159.657a35 35 0 0 1-3.323-1.44 35 35 0 0 1-3.24-1.605q1.697.635 3.323 1.44a35 35 0 0 1 3.24 1.605m2.549-1.152a4 4 0 0 1-1.026-.695 4.1 4.1 0 0 1-.886-.842c.373.18.718.414 1.022.695.337.235.636.519.89.842m6.368-2.664c.022 0 .083.119.065.339a1.026 1.026 0 0 1-1.231.9c-.213-.051-.314-.144-.303-.162s.13.021.321.028c.244.015.487-.053.687-.194.195-.149.333-.36.393-.598.036-.194.025-.309.068-.313m-3.395 3.042c.018 0 0 .115-.093.252a.97.97 0 0 1-.537.36.98.98 0 0 1-.641-.043c-.151-.072-.216-.158-.201-.173.26.067.531.079.795.036.436-.115.63-.457.677-.432m-3.085 1.588c.029.039-.241.227-.616.169-.374-.058-.579-.31-.54-.342.04-.032.256.115.566.158.309.044.565-.032.59.015m8.017-7.751c.018 0 0 .176-.151.403-.214.28-.511.485-.85.583a1.9 1.9 0 0 1-1.029.051c-.263-.072-.389-.198-.36-.213s.155.051.399.083c.32.036.643.002.947-.101.305-.09.582-.257.803-.486.144-.172.209-.32.241-.32"/><path fill="#263238" d="M172.131 149.181a.3.3 0 0 1-.043-.075c-.025-.062-.061-.134-.104-.227a8 8 0 0 0-.443-.85 4.2 4.2 0 0 0-.994-1.134 3.6 3.6 0 0 0-.824-.457 4.7 4.7 0 0 0-1.033-.241 7.4 7.4 0 0 0-1.181-.043c-.202.021-.414.021-.623.064-.209.044-.425.072-.644.123q-1.392.338-2.729.853a64 64 0 0 0-6.084 2.678l-2.009 1.257a776 776 0 0 0-11.477 7.333l-3.445 2.275-.925.623-.245.158-.086.047s.021-.025.075-.065l.234-.172.915-.652c.799-.558 1.962-1.357 3.412-2.322 2.88-1.94 6.945-4.554 11.448-7.384l2.013-1.256a62 62 0 0 1 6.12-2.668q1.349-.511 2.754-.842c.223-.05.443-.079.655-.122.212-.044.432-.036.641-.058q.601-.021 1.199.058c.362.043.718.131 1.058.262q.456.181.846.479c.4.328.736.727.99 1.177q.329.563.529 1.181"/><path fill="#263238" d="M172.056 149.707a.6.6 0 0 1-.108-.13 2.2 2.2 0 0 0-.299-.36c-.41-.414-.9-.741-1.44-.961a8 8 0 0 0-2.502-.594 18.3 18.3 0 0 0-3.175.162 26.4 26.4 0 0 0-5.588 1.48 33 33 0 0 0-1.623.673l-.439.194a1 1 0 0 1-.155.061 3 3 0 0 1 .561-.324c.36-.187.918-.442 1.61-.72a23.8 23.8 0 0 1 5.608-1.54c1.063-.15 2.136-.2 3.208-.152.88.07 1.742.287 2.549.645a4.2 4.2 0 0 1 1.44 1.033q.161.182.277.396c.054.079.083.133.076.137m-14.512 2.246c-.043.04-.36-.299-.572-.788a1.7 1.7 0 0 1-.256-.94q.435.855.828 1.728"/><path fill="#E0E0E0" d="m61.626 137.503 5.421 26.622h47.07a.94.94 0 0 0 .665-.275.943.943 0 0 0 0-1.329.94.94 0 0 0-.665-.275h-9.475l-5.04-24.758a1.02 1.02 0 0 0-.994-.824l-35.974-.392a1.02 1.02 0 0 0-.797.376 1.02 1.02 0 0 0-.211.855"/><path fill="#263238" d="M61.626 137.503v-.079a1.05 1.05 0 0 1 .806-1.145q.18-.029.36-.022h2.966l13.601.13 9.483.093 5.313.054 2.787.029h1.8q.188.023.36.105c.232.113.416.306.518.543q.071.175.097.36l.076.36.144.72c.097.483.198.969.295 1.44l.605 2.963q.608 2.996 1.245 6.12c.85 4.176 1.732 8.518 2.643 12.989l-.065-.051h9.317q.18-.01.36.022a1.011 1.011 0 0 1 .27 1.868 1.04 1.04 0 0 1-.443.119h-47.16v-.039a4713 4713 0 0 0-3.96-19.44c-.46-2.308-.824-4.101-1.08-5.321-.119-.609-.212-1.08-.274-1.386-.06-.306-.09-.475-.09-.475s.04.162.105.471l.288 1.386c.252 1.217.623 3.01 1.098 5.314l3.981 19.44-.05-.043h47.102a1 1 0 0 0 .386-.105.87.87 0 0 0 .445-.894.88.88 0 0 0-.679-.733 2 2 0 0 0-.342-.018h-9.36v-.05c-.911-4.475-1.8-8.817-2.636-12.993-.424-2.084-.838-4.133-1.245-6.12l-.598-2.959-.295-1.44q-.073-.362-.148-.72l-.072-.36a1.7 1.7 0 0 0-.09-.338.96.96 0 0 0-.788-.58h-.36l-1.44-.018-2.786-.032-5.31-.062-9.483-.111-13.579-.166-2.12-.029h-.846a1.7 1.7 0 0 0-.36.022q-.161.036-.306.115a1.03 1.03 0 0 0-.497.76 1.4 1.4 0 0 0 .01.306"/><path fill="#fff" d="M83.316 149.689a1.557 1.557 0 0 1-1.859 1.525 1.56 1.56 0 0 1-1.222-1.222 1.554 1.554 0 0 1 1.525-1.858 1.54 1.54 0 0 1 1.101.454 1.56 1.56 0 0 1 .455 1.101"/><path fill="#263238" d="M61.669 137.719h2.47l6.728.032 22.205.155 3.21.025h.79q.202-.008.402.025.207.04.382.155c.235.149.406.38.479.648.057.259.1.508.155.76l1.144 5.781c.72 3.687 1.386 7.002 1.937 9.792s.987 5.04 1.293 6.606c.151.774.266 1.379.36 1.8a20 20 0 0 1 .111.627s0-.051-.036-.155-.057-.266-.101-.468a136 136 0 0 1-.36-1.8c-.316-1.559-.774-3.812-1.335-6.595l-1.962-9.789c-.36-1.839-.756-3.776-1.156-5.76-.05-.248-.097-.507-.155-.752a.98.98 0 0 0-.42-.572 1.1 1.1 0 0 0-.34-.137 2 2 0 0 0-.36-.022h-.788l-3.21-.025-22.206-.194-6.728-.072-1.832-.029h-.476z"/><path fill="#767676" d="M70.682 57.5q-.342 0-.636-.114a1.34 1.34 0 0 1-.498-.324q-.21-.21-.33-.516a2 2 0 0 1-.114-.69q0-.486.174-.816.18-.336.492-.534.312-.204.726-.27.33-.054.468-.18a.46.46 0 0 0 .138-.348q0-.162-.108-.276-.108-.12-.312-.12-.198 0-.306.114a.4.4 0 0 0-.102.282q0 .042.006.09l.012.09h-.828a1 1 0 0 1-.036-.15 2 2 0 0 1-.006-.138q0-.282.156-.492a1 1 0 0 1 .438-.324q.288-.12.666-.12.396 0 .678.132.288.132.438.348a.8.8 0 0 1 .156.48.86.86 0 0 1-.132.468q-.126.21-.444.324v.018q.306.114.504.324.198.204.294.486.102.276.102.612 0 .384-.114.69a1.36 1.36 0 0 1-.318.516 1.3 1.3 0 0 1-.498.324 1.8 1.8 0 0 1-.666.114m.012-.72a.58.58 0 0 0 .384-.12.63.63 0 0 0 .216-.324q.072-.204.072-.48t-.072-.48a.63.63 0 0 0-.216-.318.63.63 0 0 0-.39-.114q-.354 0-.516.252-.156.246-.156.66 0 .276.066.48.072.21.222.324.15.12.39.12m3.437-.72q-.432 0-.768-.144-.336-.15-.528-.432a1.2 1.2 0 0 1-.192-.69q0-.168.024-.288.03-.126.072-.24h.858q-.024.108-.042.228a1.5 1.5 0 0 0-.018.234q0 .162.066.306a.6.6 0 0 0 .204.222.6.6 0 0 0 .324.084.55.55 0 0 0 .51-.3.64.64 0 0 0 .072-.3.68.68 0 0 0-.144-.45 3 3 0 0 0-.33-.348 7 7 0 0 1-.288-.294 1.4 1.4 0 0 1-.24-.384 1.4 1.4 0 0 1-.096-.54h.894q0 .246.15.432t.342.372q.15.144.294.312.144.162.234.378.096.216.096.51 0 .396-.186.696t-.522.468q-.33.168-.786.168m3.594 0q-.48 0-.834-.192a1.3 1.3 0 0 1-.54-.558 2 2 0 0 1-.186-.888q0-.786.348-1.188t.912-.402q.234 0 .408.054a.8.8 0 0 1 .294.156 1 1 0 0 1 .216.234h.03l-.036-.216a2 2 0 0 1-.012-.252v-.234a.6.6 0 0 0-.06-.276.4.4 0 0 0-.18-.198.56.56 0 0 0-.312-.078.64.64 0 0 0-.276.054.44.44 0 0 0-.18.15.4.4 0 0 0-.06.216v.06l.012.06h-.876a.7.7 0 0 1-.03-.222q0-.3.186-.516.192-.216.51-.33t.714-.114q.45 0 .774.168.33.162.504.456t.174.678v1.74q0 .78-.39 1.212-.384.426-1.11.426m0-.72q.336 0 .498-.228.162-.234.162-.6v-.12q0-.39-.144-.63t-.534-.24q-.3 0-.468.246-.162.246-.162.672 0 .39.144.648.15.252.504.252m3.59.72q-.432 0-.768-.144-.336-.15-.528-.432a1.2 1.2 0 0 1-.192-.69q0-.168.024-.288.03-.126.072-.24h.858q-.024.108-.042.228a1.5 1.5 0 0 0-.018.234q0 .162.066.306a.6.6 0 0 0 .204.222.6.6 0 0 0 .324.084.55.55 0 0 0 .51-.3.64.64 0 0 0 .072-.3.68.68 0 0 0-.144-.45 3 3 0 0 0-.33-.348 7 7 0 0 1-.288-.294 1.4 1.4 0 0 1-.24-.384 1.4 1.4 0 0 1-.096-.54h.894q0 .246.15.432t.342.372q.15.144.294.312.144.162.234.378.096.216.096.51 0 .396-.186.696t-.522.468q-.33.168-.786.168m2.418-.06a5 5 0 0 1-.216-.558 3.7 3.7 0 0 1-.168-1.128v-.234q0-.738.18-1.248a1.7 1.7 0 0 1 .6-.822q.414-.306 1.098-.432.3-.054.648-.102.348-.054.726-.096l.096.732q-.192.024-.39.054a11 11 0 0 0-.378.054 24 24 0 0 0-.63.09 3 3 0 0 0-.492.114 1.5 1.5 0 0 0-.444.222.87.87 0 0 0-.288.39h.024a.8.8 0 0 1 .204-.186.7.7 0 0 1 .216-.09q.114-.024.228-.024.312 0 .54.174a.97.97 0 0 1 .33.474h.036a.96.96 0 0 1 .342-.474q.234-.174.6-.174.432 0 .726.21.3.21.45.576.156.36.156.828 0 .318-.042.588-.042.264-.132.522a5 5 0 0 1-.216.54h-.888a3.5 3.5 0 0 0 .276-.792q.09-.402.09-.84 0-.264-.054-.468a.65.65 0 0 0-.162-.324.4.4 0 0 0-.3-.12.35.35 0 0 0-.33.198q-.108.192-.108.534v.756h-.858v-.756q0-.336-.102-.534a.34.34 0 0 0-.324-.198.43.43 0 0 0-.39.228q-.138.222-.138.69 0 .294.036.57.042.27.12.534.084.258.21.522zm6.58-1.842q0 .144.072.276.078.132.198.264.128.132.276.276a2.5 2.5 0 0 1 .27.306q.126.168.198.384.079.21.079.486 0 .402-.187.702-.18.306-.521.474a1.74 1.74 0 0 1-.81.174q-.35 0-.63-.102a1.35 1.35 0 0 1-.48-.276 1.2 1.2 0 0 1-.402-.9q0-.192.03-.318t.084-.24h.84a3 3 0 0 0-.049.222 2 2 0 0 0-.012.234q0 .174.066.324.066.156.199.246.137.09.353.09.204 0 .343-.084a.5.5 0 0 0 .203-.222.6.6 0 0 0 .072-.294.8.8 0 0 0-.066-.342 1.1 1.1 0 0 0-.18-.282 4 4 0 0 0-.234-.258q-.144-.15-.282-.312a1.7 1.7 0 0 1-.221-.372q-.09-.21-.09-.486v-.192l-.996-.174v-.696l.995.174v-.576h.889v.732l1.026.18v.696l-1.032-.18zM92.306 56a6 6 0 0 1-.222-.552 3.5 3.5 0 0 1-.126-.54 4 4 0 0 1-.042-.594q0-.486.15-.858.156-.372.456-.582t.732-.21q.39 0 .624.18.24.174.342.474h.036a1 1 0 0 1 .342-.48q.24-.174.612-.174.444 0 .744.21t.45.582q.156.372.156.858 0 .318-.042.594a3.5 3.5 0 0 1-.126.54q-.084.264-.222.552h-.876q.192-.396.276-.81.09-.42.09-.858 0-.276-.054-.486a.7.7 0 0 0-.174-.336.4.4 0 0 0-.312-.126q-.24 0-.348.186t-.108.54v.846h-.852v-.846q0-.348-.108-.534-.102-.192-.348-.192a.44.44 0 0 0-.402.228q-.138.222-.138.732 0 .294.036.576.042.282.12.552.084.264.21.528zm6.866-3.276q.33.084.576.3.252.216.39.552t.138.78q0 .408-.114.726a1.45 1.45 0 0 1-.318.54 1.34 1.34 0 0 1-.498.33 1.9 1.9 0 0 1-.666.108 1.8 1.8 0 0 1-.636-.108 1.4 1.4 0 0 1-.498-.33 1.6 1.6 0 0 1-.33-.54 2.1 2.1 0 0 1-.114-.726q0-.474.144-.816.15-.348.426-.564a1.45 1.45 0 0 1 .66-.282.5.5 0 0 0 .06-.24.32.32 0 0 0-.066-.204.8.8 0 0 0-.15-.156 1.3 1.3 0 0 1-.222-.228q-.102-.144-.102-.426h.84a.38.38 0 0 0 .084.228q.078.09.18.18.114.096.204.222.09.12.09.312a.7.7 0 0 1-.024.186.7.7 0 0 1-.054.156m-.48 2.622a.58.58 0 0 0 .384-.12q.15-.12.216-.342a1.7 1.7 0 0 0 .072-.528q0-.306-.072-.522a.63.63 0 0 0-.216-.336.63.63 0 0 0-.39-.114q-.354 0-.516.258-.156.252-.156.714 0 .306.066.528a.7.7 0 0 0 .222.342q.15.12.39.12m3.583.714q-.432 0-.768-.144-.336-.15-.528-.432a1.2 1.2 0 0 1-.192-.69q0-.168.024-.288.03-.126.072-.24h.858q-.024.108-.042.228a1.5 1.5 0 0 0-.018.234q0 .162.066.306a.6.6 0 0 0 .204.222.6.6 0 0 0 .324.084.55.55 0 0 0 .51-.3.64.64 0 0 0 .072-.3.68.68 0 0 0-.144-.45 3 3 0 0 0-.33-.348 7 7 0 0 1-.288-.294 1.4 1.4 0 0 1-.24-.384 1.4 1.4 0 0 1-.096-.54h.894q0 .246.15.432t.342.372q.15.144.294.312.144.162.234.378.096.216.096.51 0 .396-.186.696t-.522.468q-.33.168-.786.168"/></svg>