<svg width="270" height="180" viewBox="0 0 270 180" fill="none" xmlns="http://www.w3.org/2000/svg">
<path d="M211.126 24.0084C185.406 20.646 170.801 34.9632 136.222 36.522C101.88 33.84 88.785 19.0404 62.7566 21.546C34.7519 24.2388 13.0598 60.8652 19.2324 97.506C25.4051 134.147 63.6569 154.627 83.2114 154.501C98.8421 154.4 112.647 148.021 130.469 146.488C148.098 148.604 161.214 155.434 176.805 156.053C196.313 156.83 236.638 137.65 246.631 101.279C256.623 64.908 238.801 27.6228 211.126 24.0084Z" fill="#FF725E"/>
<path opacity="0.7" d="M211.126 24.0084C185.406 20.646 170.801 34.9632 136.222 36.522C101.88 33.84 88.785 19.0404 62.7566 21.546C34.7519 24.2388 13.0598 60.8652 19.2324 97.506C25.4051 134.147 63.6569 154.627 83.2114 154.501C98.8421 154.4 112.647 148.021 130.469 146.488C148.098 148.604 161.214 155.434 176.805 156.053C196.313 156.83 236.638 137.65 246.631 101.279C256.623 64.908 238.801 27.6228 211.126 24.0084Z" fill="white"/>
<path d="M12.199 163.04H263.068" stroke="#263238" stroke-width="0.5" stroke-linecap="round" stroke-linejoin="round"/>
<g opacity="0.15">
<path d="M72.1249 28.6632C70.6114 30.1572 66.1316 31.7628 66.128 31.7628C66.1244 31.7628 65.9702 28.476 65.9881 28.2672C66.1818 25.848 67.9752 21.2832 70.6149 20.6604C72.5159 20.2104 74.2016 21.6396 74.4563 23.5044C74.7109 25.3692 73.4161 27.3888 72.1249 28.6632Z" fill="black"/>
<path d="M69.4134 89.2152C69.435 89.3232 69.4565 89.424 69.4744 89.532L68.0684 90.8352C67.9895 90.3996 67.9106 89.9604 67.8353 89.5032C67.6094 88.2144 67.3977 86.832 67.1933 85.41C65.828 85.3883 64.4651 85.2861 63.1117 85.104C62.3513 87.012 59.6613 89.9352 59.3098 90.3096C60.185 91.2492 61.0493 92.1564 61.8779 93.0024C62.4445 93.5832 62.9945 94.1376 63.5277 94.6656L61.8492 95.3136L60.7158 94.1184C59.8227 93.1644 58.8866 92.1276 57.9325 91.0584C57.4949 91.3392 53.9047 93.6288 51.932 93.9168C50.1387 94.176 47.7894 94.0068 46.4301 92.6532C45.0707 91.2996 44.9954 89.1108 46.4982 87.8652C48.5893 86.1336 53.295 87.462 55.3322 88.7724C55.4541 88.8516 56.6664 89.8344 57.4196 90.468C57.0323 90.0288 56.6521 89.604 56.2611 89.1468C55.4757 88.2468 54.7225 87.3252 53.9083 86.3352L52.7641 84.8484C52.3732 84.3588 52.0217 83.79 51.6451 83.2608C50.7915 82.0116 49.9916 80.7012 49.2133 79.3656C48.4279 80.0532 45.5944 82.4472 43.8584 82.9656C42.1225 83.484 39.7804 83.6856 38.231 82.5552C36.6815 81.4248 36.2762 79.272 37.5746 77.8104C39.3679 75.78 44.235 76.3704 46.4444 77.364C46.5843 77.4252 48.0907 78.3108 48.9121 78.804C48.4494 77.9976 47.9867 77.1948 47.5455 76.3632C46.2723 73.9656 45.06 71.496 43.8405 69.0372C43.4818 68.2848 43.0837 67.5396 42.7035 66.7908C42.4274 67.0392 39.1169 69.9588 37.1765 70.5528C35.4477 71.082 33.0984 71.2728 31.5526 70.1424C30.0067 69.012 29.5943 66.8592 30.8962 65.3976C32.6896 63.3672 37.5531 63.9576 39.7661 64.9512C39.931 65.0268 42.101 66.3048 42.6354 66.654C41.7997 65.0088 40.9532 63.3744 40.053 61.7976C38.8477 59.663 37.5059 57.6091 36.0359 55.6488C35.9068 55.764 32.4744 58.8276 30.4802 59.436C28.7514 59.9652 26.4021 60.156 24.8527 59.0256C23.3033 57.8952 22.898 55.7424 24.1999 54.2808C25.9933 52.2504 30.8568 52.8408 33.0698 53.8344C33.2419 53.9136 35.5804 55.2744 35.9785 55.566C35.8925 55.4544 35.8171 55.3284 35.7275 55.206C34.2004 53.2802 32.5043 51.4958 30.6595 49.8744C29.6552 48.9636 28.6402 48.15 27.6395 47.3832C27.0549 48.0168 24.3685 50.8968 22.6361 51.642C20.9719 52.362 18.6585 52.8048 16.9979 51.8544C15.3373 50.904 14.6953 48.8088 15.8251 47.2104C17.3996 44.9964 22.2811 45.0504 24.5945 45.792C24.72 45.8316 25.9502 46.3788 26.8397 46.7892C26.3806 46.4508 25.9144 46.0908 25.4696 45.774C23.8018 44.5788 22.1986 43.5924 20.7747 42.7248C19.9605 42.2388 19.2145 41.8176 18.5115 41.4288C17.6148 41.7528 13.9923 43.02 12.1451 42.8688C10.298 42.7176 8.08144 42.12 7.0449 40.4964C6.00835 38.8728 6.3993 36.72 8.13883 35.8344C10.5491 34.596 14.8602 36.9144 16.5711 38.628C16.7181 38.7792 18.7625 41.3676 18.7231 41.3856L18.6693 41.4036C19.3543 41.7636 20.0824 42.1596 20.8679 42.606C22.3026 43.4412 23.9453 44.406 25.6454 45.5616C27.4904 46.7928 29.2617 48.1319 30.95 49.572C32.8528 51.1742 34.6089 52.944 36.1973 54.8604C36.2172 54.8828 36.2352 54.9069 36.2511 54.9324C35.9534 54.1908 35.1751 52.0956 35.1536 51.93C34.5869 49.5684 34.8738 44.6688 37.1872 43.2504C38.855 42.2316 40.9102 43.056 41.7208 44.7516C42.5314 46.4472 41.9396 48.7692 41.1075 50.382C40.1749 52.2 36.703 54.9468 36.4269 55.1664C37.9984 57.155 39.4362 59.2464 40.7309 61.4268C41.4877 62.694 42.2158 63.9936 42.9259 65.304C42.6892 64.656 42.4848 64.0764 42.4632 63.9936C41.8965 61.632 42.1835 56.7324 44.4969 55.3176C46.1647 54.2952 48.2198 55.1232 49.0304 56.8152C49.841 58.5072 49.2492 60.8328 48.4207 62.4456C47.5922 64.0584 44.6654 66.4848 43.8871 67.1076C44.1526 67.6152 44.4287 68.1156 44.6941 68.6232C45.9674 71.0568 47.2299 73.4904 48.5426 75.8232C49.0017 76.6512 49.4895 77.4468 49.9773 78.2496C49.7693 77.6736 49.5971 77.1876 49.5792 77.112C49.0125 74.7504 49.2994 69.8508 51.6128 68.4324C53.277 67.4136 55.3358 68.238 56.1464 69.9336C56.957 71.6292 56.3616 73.9512 55.533 75.564C54.7045 77.1768 52.0612 79.3656 51.1394 80.1144C51.6594 80.9172 52.1759 81.7236 52.7139 82.4832C53.0941 82.9908 53.4313 83.5056 53.833 83.9952L55.0094 85.4604C55.7877 86.3604 56.5875 87.3 57.3694 88.1604C57.911 88.7652 58.4454 89.3268 58.9655 89.8992C58.4956 89.082 57.6097 87.4584 57.5523 87.3144C56.8182 85.3082 56.6095 83.1464 56.9462 81.036C56.8558 80.8159 56.785 80.5882 56.7346 80.3556C56.3508 78.516 57.4842 76.6044 59.4246 76.3956C62.1218 76.1076 65.3139 79.8228 66.293 82.044C66.354 82.1736 66.8203 83.6676 67.1 84.6108C67.0211 84.0312 66.9351 83.466 66.8597 82.8684C66.7019 81.684 66.58 80.496 66.4437 79.2216C66.4006 78.6024 66.354 77.976 66.311 77.346C66.2679 76.716 66.2715 76.0536 66.2464 75.402C66.2249 73.89 66.2751 72.3528 66.3612 70.8084C65.3282 70.9452 61.6483 71.3736 59.9052 70.8552C58.1621 70.3368 56.1105 69.1956 55.4362 67.3956C54.7619 65.5956 55.612 63.576 57.4985 63.0756C60.1204 62.3844 63.8398 65.5704 65.1417 67.6152C65.2242 67.7448 65.9953 69.318 66.4006 70.1892C66.4616 69.2604 66.5154 68.3352 66.6051 67.3992C66.8597 64.692 67.2041 61.9632 67.5376 59.238C67.6416 58.4028 67.7313 57.5676 67.8281 56.718C67.4695 56.7684 63.1009 57.3732 61.1498 56.7936C59.4174 56.2752 57.3551 55.134 56.6844 53.334C56.0137 51.534 56.8565 49.5144 58.7467 49.014C61.365 48.3228 65.0843 51.5088 66.3863 53.5536C66.4867 53.7084 67.5914 55.9764 67.8461 56.5632C68.0541 54.7308 68.2442 52.8984 68.359 51.084C68.5291 48.6369 68.5399 46.1813 68.3912 43.7328C68.2191 43.7544 63.6712 44.4096 61.6734 43.812C59.9411 43.2972 57.8787 42.1524 57.208 40.356C56.5373 38.5596 57.3802 36.5328 59.2704 36.036C61.8886 35.3412 65.608 38.5272 66.91 40.572C67.014 40.734 68.2012 43.1748 68.3877 43.632C68.3877 43.488 68.3877 43.3404 68.3877 43.2C68.1567 40.7658 67.7139 38.3566 67.0642 36C66.7055 34.6824 66.3253 33.444 65.9129 32.2488C65.0772 32.4576 61.2502 33.3684 59.3959 33.03C57.6026 32.7096 55.4506 31.8024 54.579 30.0888C53.7074 28.3752 54.3315 26.2692 56.1535 25.5672C58.6821 24.588 62.7279 27.3456 64.2486 29.2356C64.3311 29.3364 65.0556 30.4776 65.5721 31.3128C65.3749 30.7764 65.1848 30.2328 64.9875 29.7072C64.2702 27.7884 63.4596 26.0748 62.7458 24.5628C62.3334 23.706 61.9424 22.9428 61.5694 22.23C60.644 22.0032 56.9283 21.0528 55.4721 19.9188C54.0159 18.7848 52.5274 16.9956 52.5489 15.0768C52.5705 13.158 54.084 11.574 56.0244 11.7936C58.718 12.096 61.0458 16.4124 61.5228 18.792C61.5622 18.9972 61.842 22.2912 61.7954 22.2804H61.7416C62.1002 22.9572 62.5019 23.6916 62.9144 24.498C63.6604 25.9956 64.4925 27.6984 65.2744 29.61C66.1359 31.6513 66.8808 33.7403 67.5053 35.8668C68.21 38.2568 68.7021 40.7048 68.9759 43.182C68.9741 43.212 68.9741 43.242 68.9759 43.272C69.1337 42.4908 69.6502 40.3236 69.7111 40.1616C70.5361 37.8756 73.4664 33.9516 76.1671 34.0416C78.1183 34.1136 79.3951 35.9424 79.1226 37.8036C78.85 39.6648 77.0961 41.274 75.5359 42.1596C73.7426 43.1604 69.3489 43.5276 69.001 43.5564C69.2154 46.0849 69.2621 48.6249 69.1409 51.1596C69.0799 52.6356 68.9687 54.1224 68.8432 55.6092C69.001 54.9396 69.148 54.342 69.1767 54.2592C70.0017 51.9768 72.9356 48.0492 75.6327 48.1392C77.5839 48.2076 78.8607 50.0364 78.5881 51.8976C78.3156 53.7588 76.5617 55.3716 75.0015 56.2572C73.4413 57.1428 69.6538 57.546 68.6602 57.636C68.6029 58.2048 68.5562 58.7772 68.4988 59.346C68.2263 62.082 67.9393 64.8108 67.7421 67.4964C67.6739 68.4396 67.638 69.3756 67.6022 70.3116C67.7421 69.714 67.8676 69.2136 67.8927 69.1416C68.7176 66.8556 71.6515 62.9316 74.3487 63.0216C76.2999 63.0936 77.5767 64.9224 77.3041 66.7836C77.0315 68.6448 75.2776 70.254 73.6995 71.1396C72.1214 72.0252 68.714 72.3888 67.534 72.5004C67.534 73.4616 67.5125 74.4192 67.534 75.348C67.5699 75.9852 67.5627 76.5972 67.6345 77.2308C67.7062 77.8644 67.7528 78.4836 67.8102 79.1028C67.9644 80.2872 68.1151 81.5112 68.2944 82.6632C68.4128 83.466 68.5419 84.2292 68.6531 84.996C68.714 84.0528 68.8647 82.2096 68.897 82.0584C69.3668 79.6752 71.673 75.3516 74.363 75.0348C76.3034 74.808 77.8242 76.4244 77.8529 78.3036C77.8816 80.1828 76.3752 82.044 74.9513 83.16C73.3803 84.3876 69.2556 85.3992 68.7392 85.5216C68.9651 86.8176 69.1875 88.0524 69.4134 89.2152Z" fill="black"/>
<path d="M27.5606 46.9008C27.5319 46.9404 25.6202 44.2476 25.5198 44.064C24.3541 41.9364 23.3427 37.1376 25.2006 35.1576C26.5384 33.7176 28.737 33.984 29.9673 35.4024C31.1975 36.8208 31.2334 39.2184 30.8568 40.9932C30.4156 43.0776 27.5606 46.8972 27.5606 46.9008Z" fill="black"/>
</g>
<g opacity="0.15">
<path d="M173.624 38.1168C175.138 39.6108 179.617 41.2164 179.621 41.2164C179.624 41.2164 179.779 37.9296 179.761 37.7208C179.567 35.3016 177.774 30.7368 175.134 30.114C173.233 29.664 171.547 31.0932 171.296 32.958C171.045 34.8228 172.336 36.8424 173.624 38.1168Z" fill="black"/>
<path d="M176.336 98.6687C176.314 98.7767 176.296 98.8775 176.275 98.9855L177.684 100.289C177.759 99.8531 177.838 99.4139 177.917 98.9567C178.14 97.6679 178.351 96.2855 178.556 94.8635C179.922 94.8418 181.286 94.7396 182.641 94.5575C183.398 96.4655 186.091 99.3887 186.439 99.7631C185.564 100.703 184.7 101.61 183.875 102.452C183.304 103.036 182.756 103.59 182.221 104.119L183.9 104.764C184.259 104.378 184.646 103.982 185.033 103.572C185.926 102.618 186.862 101.581 187.816 100.512C188.254 100.793 191.848 103.082 193.821 103.37C195.614 103.63 197.96 103.46 199.319 102.107C200.678 100.753 200.754 98.5643 199.251 97.3187C197.16 95.5871 192.436 96.9155 190.417 98.2259C190.295 98.3015 189.086 99.2879 188.329 99.9215C188.717 99.4823 189.097 99.0575 189.491 98.6003C190.273 97.7003 191.027 96.7787 191.841 95.7887L192.985 94.3019C193.376 93.8123 193.727 93.2435 194.107 92.7143C194.958 91.4651 195.757 90.1547 196.536 88.8191C197.325 89.5067 200.155 91.9007 201.891 92.4191C203.626 92.9375 205.969 93.1391 207.518 92.0087C209.067 90.8783 209.473 88.7255 208.174 87.2639C206.381 85.2335 201.518 85.8239 199.305 86.8175C199.165 86.8787 197.658 87.7643 196.837 88.2575C197.3 87.4511 197.766 86.6483 198.203 85.8167C199.477 83.4155 200.689 80.9495 201.912 78.4907C202.271 77.7383 202.665 76.9931 203.045 76.2443C203.322 76.4927 206.632 79.4123 208.573 80.0063C210.301 80.5319 212.651 80.7263 214.196 79.5959C215.742 78.4655 216.155 76.3127 214.853 74.8511C213.059 72.8207 208.196 73.4111 205.983 74.4047C205.818 74.4767 203.648 75.7547 203.114 76.1075C203.949 74.4623 204.796 72.8279 205.696 71.2511C206.901 69.1166 208.243 67.0627 209.713 65.1023C209.842 65.2175 213.275 68.2811 215.269 68.8895C216.998 69.4151 219.347 69.6095 220.896 68.4791C222.446 67.3487 222.851 65.1959 221.549 63.7343C219.756 61.7039 214.892 62.2943 212.679 63.2879C212.507 63.3635 210.169 64.7279 209.77 65.0195C209.857 64.9079 209.932 64.7819 210.022 64.6595C211.549 62.7338 213.245 60.9494 215.089 59.3279C216.094 58.4171 217.109 57.6035 218.113 56.8367C218.694 57.4703 221.38 60.3503 223.134 61.0955C224.795 61.8155 227.108 62.2583 228.769 61.3079C230.43 60.3575 231.075 58.2587 229.942 56.6639C228.367 54.4499 223.486 54.5039 221.172 55.2455C221.047 55.2851 219.82 55.8323 218.927 56.2427C219.386 55.9043 219.853 55.5443 220.297 55.2275C221.965 54.0323 223.568 53.0423 224.992 52.1783C225.81 51.6923 226.552 51.2711 227.255 50.8823C228.152 51.2063 231.775 52.4735 233.622 52.3223C235.469 52.1711 237.685 51.5159 238.722 49.9031C239.759 48.2903 239.368 46.1339 237.628 45.2231C235.218 43.9847 230.907 46.3031 229.196 48.0167C229.049 48.1643 227.004 50.7563 227.044 50.7743L227.098 50.7923C226.413 51.1523 225.685 51.5483 224.899 51.9947C223.464 52.8299 221.825 53.7947 220.122 54.9503C218.269 56.2075 216.492 57.573 214.799 59.0399C212.892 60.6369 211.131 62.4019 209.537 64.3139L209.484 64.3823C209.781 63.6443 210.56 61.5491 210.581 61.3835C211.148 59.0219 210.861 54.1223 208.547 52.7039C206.883 51.6851 204.824 52.5095 204.014 54.2051C203.203 55.9007 203.799 58.2227 204.627 59.8355C205.56 61.6355 209.032 64.4003 209.29 64.6199C207.717 66.6076 206.279 68.6992 204.986 70.8803C204.225 72.1475 203.497 73.4471 202.787 74.7575C203.024 74.1095 203.228 73.5299 203.25 73.4471C203.817 71.0855 203.53 66.1859 201.216 64.7675C199.548 63.7487 197.493 64.5731 196.683 66.2687C195.872 67.9643 196.464 70.2863 197.292 71.8991C198.121 73.5119 201.048 75.9383 201.826 76.5611C201.561 77.0687 201.288 77.5691 201.019 78.0767C199.746 80.5103 198.483 82.9439 197.171 85.2947C196.711 86.1227 196.224 86.9183 195.736 87.7211C195.944 87.1451 196.116 86.6591 196.134 86.5835C196.701 84.2183 196.414 79.3223 194.104 77.9039C192.436 76.8851 190.377 77.7095 189.57 79.4051C188.763 81.1007 189.352 83.4227 190.18 85.0355C191.009 86.6483 193.652 88.8371 194.574 89.5859C194.054 90.3887 193.537 91.1951 192.999 91.9547C192.619 92.4623 192.282 92.9771 191.88 93.4667L190.707 94.9283C189.925 95.8319 189.126 96.7679 188.344 97.6319C187.802 98.2367 187.268 98.7983 186.748 99.3707C187.218 98.5499 188.103 96.9299 188.161 96.7859C188.895 94.7797 189.104 92.6179 188.767 90.5075C188.857 90.2875 188.928 90.0598 188.979 89.8271C189.362 87.9875 188.229 86.0759 186.289 85.8671C183.591 85.5827 180.399 89.2979 179.42 91.5191C179.363 91.6487 178.893 93.1427 178.613 94.0859C178.692 93.5063 178.778 92.9411 178.853 92.3435C179.011 91.1591 179.133 89.9711 179.269 88.6967C179.312 88.0775 179.359 87.4511 179.402 86.8211C179.445 86.1911 179.445 85.5287 179.467 84.8771C179.488 83.3651 179.438 81.8279 179.352 80.2835C180.388 80.4203 184.065 80.8487 185.808 80.3303C187.551 79.8119 189.606 78.6707 190.277 76.8707C190.948 75.0707 190.101 73.0511 188.215 72.5507C185.593 71.8595 181.873 75.0455 180.571 77.0903C180.489 77.2199 179.718 78.7931 179.312 79.6643C179.255 78.7355 179.201 77.8103 179.112 76.8743C178.853 74.1671 178.509 71.4383 178.176 68.7095C178.071 67.8779 177.982 67.0427 177.885 66.2111C178.244 66.2615 182.612 66.8663 184.563 66.2867C186.296 65.7683 188.358 64.6271 189.029 62.8271C189.699 61.0271 188.857 59.0075 186.97 58.5071C184.348 57.8159 180.629 61.0019 179.327 63.0467C179.226 63.2015 178.122 65.4659 177.867 66.0563C177.659 64.2239 177.469 62.3915 177.354 60.5771C177.184 58.1301 177.173 55.6744 177.322 53.2259C177.494 53.2475 182.042 53.9027 184.04 53.3051C185.772 52.7867 187.834 51.6455 188.505 49.8491C189.176 48.0527 188.333 46.0259 186.446 45.5291C183.825 44.8379 180.105 48.0239 178.803 50.0687C178.699 50.2307 177.512 52.6715 177.329 53.1287C177.329 52.9847 177.329 52.8371 177.329 52.6967C177.568 50.2417 178.024 47.8129 178.692 45.4391C179.033 44.1215 179.431 42.8831 179.843 41.6879C180.679 41.8967 184.506 42.8075 186.36 42.4691C188.154 42.1487 190.306 41.2379 191.181 39.5279C192.056 37.8179 191.425 35.7083 189.603 35.0027C187.092 34.0271 183.028 36.8027 181.511 38.6747C181.429 38.7755 180.701 39.9167 180.188 40.7519C180.381 40.2155 180.571 39.6719 180.769 39.1463C181.504 37.2275 182.297 35.5139 183.01 34.0019C183.423 33.1451 183.814 32.3783 184.187 31.6691C185.112 31.4423 188.828 30.4919 190.284 29.3579C191.74 28.2239 193.229 26.4347 193.207 24.5159C193.186 22.5971 191.676 21.0131 189.739 21.2399C187.045 21.5423 184.718 25.8587 184.241 28.2383C184.198 28.4435 183.918 31.7375 183.964 31.7267H184.022C183.663 32.4035 183.258 33.1379 182.845 33.9443C182.099 35.4419 181.267 37.1447 180.489 39.0563C179.624 41.1059 178.881 43.2047 178.262 45.3419C177.554 47.7311 177.061 50.1794 176.791 52.6571C176.791 52.6859 176.791 52.7183 176.791 52.7471C176.633 51.9659 176.117 49.7987 176.056 49.6367C175.231 47.3507 172.301 43.4267 169.6 43.5167C167.649 43.5887 166.372 45.4175 166.644 47.2787C166.917 49.1399 168.671 50.7491 170.231 51.6347C172.024 52.6355 176.418 53.0027 176.77 53.0315C176.552 55.5599 176.504 58.1 176.626 60.6347C176.687 62.1107 176.798 63.5975 176.924 65.0843C176.766 64.4147 176.619 63.8171 176.59 63.7343C175.765 61.4519 172.831 57.5243 170.134 57.6143C168.183 57.6827 166.924 59.5115 167.179 61.3727C167.433 63.2339 169.205 64.8467 170.783 65.7323C172.362 66.6179 176.131 67.0211 177.128 67.1111C177.182 67.6799 177.229 68.2487 177.286 68.8211C177.562 71.5571 177.846 74.2859 178.043 76.9715C178.111 77.9147 178.147 78.8507 178.186 79.7867C178.043 79.1891 177.917 78.6887 177.892 78.6167C177.067 76.3307 174.137 72.4067 171.436 72.4967C169.485 72.5687 168.226 74.3975 168.481 76.2587C168.735 78.1199 170.507 79.7291 172.067 80.6147C173.628 81.5003 177.053 81.8639 178.233 81.9755C178.233 82.9367 178.254 83.8943 178.233 84.8231C178.193 85.4603 178.204 86.0723 178.129 86.7059C178.054 87.3395 178.014 87.9587 177.957 88.5779C177.802 89.7623 177.648 90.9863 177.469 92.1383C177.351 92.9411 177.221 93.7043 177.11 94.4711C177.053 93.5279 176.899 91.6847 176.866 91.5335C176.397 89.1503 174.09 84.8267 171.4 84.5099C169.46 84.2831 167.939 85.8995 167.91 87.7787C167.882 89.6579 169.388 91.5191 170.816 92.6315C172.383 93.8627 176.508 94.8743 177.024 94.9967C176.784 96.2711 176.562 97.5059 176.336 98.6687Z" fill="black"/>
<path d="M218.188 56.3543C218.221 56.3939 220.129 53.7011 220.229 53.5175C221.398 51.3899 222.41 46.5911 220.552 44.6111C219.211 43.1711 217.012 43.4375 215.785 44.8559C214.559 46.2743 214.516 48.6719 214.892 50.4467C215.333 52.5311 218.188 56.3507 218.188 56.3543Z" fill="black"/>
</g>
<path d="M176.608 155.254V141.962C176.609 139.898 177.427 137.918 178.881 136.457C180.336 134.997 182.309 134.177 184.366 134.176H111.22C109.162 134.176 107.189 134.996 105.734 136.456C104.279 137.917 103.462 139.897 103.462 141.962V155.254C103.461 156.276 103.662 157.289 104.051 158.234C104.441 159.179 105.012 160.038 105.733 160.761C106.453 161.484 107.309 162.058 108.25 162.449C109.192 162.84 110.201 163.041 111.22 163.04H184.366C182.309 163.04 180.335 162.22 178.88 160.76C177.426 159.299 176.608 157.319 176.608 155.254Z" fill="#263238" stroke="#263238" stroke-width="0.5" stroke-linecap="round" stroke-linejoin="round"/>
<path d="M249.504 135.23L250.375 134.654C250.421 134.623 250.455 134.578 250.473 134.525C250.491 134.473 250.493 134.416 250.477 134.363C250.461 134.31 250.429 134.263 250.385 134.229C250.34 134.196 250.287 134.177 250.232 134.176H184.366C182.309 134.177 180.336 134.997 178.881 136.457C177.427 137.918 176.609 139.898 176.608 141.962V155.254C176.608 157.319 177.426 159.299 178.88 160.76C180.335 162.22 182.309 163.04 184.366 163.04H250.232C250.288 163.042 250.344 163.025 250.39 162.991C250.435 162.958 250.469 162.91 250.485 162.856C250.502 162.802 250.5 162.743 250.48 162.69C250.46 162.637 250.423 162.592 250.375 162.562L249.504 161.986V135.23Z" fill="#949494" stroke="#263238" stroke-width="0.5" stroke-linecap="round" stroke-linejoin="round"/>
<path d="M188.247 135.23H249.504V162H188.247C185.542 162 182.947 160.921 181.034 159.001C179.121 157.081 178.046 154.477 178.046 151.762V145.469C178.046 142.753 179.121 140.149 181.034 138.229C182.947 136.309 185.542 135.23 188.247 135.23Z" fill="white" stroke="#263238" stroke-width="0.5" stroke-linecap="round" stroke-linejoin="round"/>
<path d="M180.281 140.155H205.979" stroke="#263238" stroke-width="0.5" stroke-linecap="round" stroke-linejoin="round"/>
<path d="M199.233 142.603H223.21" stroke="#263238" stroke-width="0.5" stroke-linecap="round" stroke-linejoin="round"/>
<path d="M213.734 145.631H190.761" stroke="#263238" stroke-width="0.5" stroke-linecap="round" stroke-linejoin="round"/>
<path d="M180.855 154.854H195.929" stroke="#263238" stroke-width="0.5" stroke-linecap="round" stroke-linejoin="round"/>
<path d="M192.056 157.014H214.595" stroke="#263238" stroke-width="0.5" stroke-linecap="round" stroke-linejoin="round"/>
<path d="M189.326 159.034H195.356" stroke="#263238" stroke-width="0.5" stroke-linecap="round" stroke-linejoin="round"/>
<path d="M206.27 152.838H244.601" stroke="#263238" stroke-width="0.5" stroke-linecap="round" stroke-linejoin="round"/>
<path d="M249.052 146.639H241.157" stroke="#263238" stroke-width="0.5" stroke-linecap="round" stroke-linejoin="round"/>
<path d="M247.76 144.623H239.719" stroke="#263238" stroke-width="0.5" stroke-linecap="round" stroke-linejoin="round"/>
<path d="M247.76 157.594H227.661" stroke="#263238" stroke-width="0.5" stroke-linecap="round" stroke-linejoin="round"/>
<path d="M173.158 126.252V112.961C173.157 111.938 173.358 110.925 173.747 109.98C174.137 109.035 174.708 108.177 175.429 107.454C176.149 106.731 177.005 106.157 177.946 105.766C178.888 105.375 179.897 105.174 180.916 105.174H107.766C106.747 105.174 105.738 105.376 104.797 105.767C103.856 106.158 103.001 106.732 102.281 107.455C101.561 108.178 100.99 109.037 100.601 109.981C100.211 110.926 100.011 111.938 100.011 112.961V126.252C100.011 128.317 100.828 130.297 102.282 131.757C103.736 133.217 105.709 134.038 107.766 134.039H180.934C179.913 134.041 178.903 133.842 177.959 133.451C177.016 133.061 176.159 132.488 175.436 131.765C174.714 131.041 174.141 130.182 173.75 129.236C173.359 128.29 173.158 127.276 173.158 126.252Z" fill="#8C8C8C" stroke="#263238" stroke-width="0.5" stroke-linecap="round" stroke-linejoin="round"/>
<path d="M246.05 106.229L246.925 105.653C246.973 105.623 247.009 105.578 247.029 105.524C247.049 105.471 247.051 105.413 247.035 105.359C247.019 105.304 246.985 105.257 246.939 105.223C246.893 105.19 246.838 105.173 246.781 105.174H180.916C179.897 105.174 178.888 105.375 177.946 105.766C177.005 106.157 176.149 106.731 175.429 107.454C174.708 108.177 174.137 109.035 173.747 109.98C173.358 110.925 173.157 111.938 173.158 112.961V126.252C173.158 128.317 173.975 130.298 175.43 131.758C176.885 133.218 178.858 134.039 180.916 134.039H246.781C246.837 134.038 246.89 134.019 246.934 133.985C246.978 133.952 247.01 133.905 247.026 133.852C247.042 133.799 247.041 133.742 247.023 133.689C247.005 133.637 246.97 133.592 246.925 133.56L246.05 132.984V106.229Z" fill="#949494" stroke="#263238" stroke-width="0.5" stroke-linecap="round" stroke-linejoin="round"/>
<path d="M184.789 106.229H246.05V132.984H184.789C182.087 132.983 179.496 131.906 177.584 129.989C175.672 128.072 174.596 125.472 174.592 122.76V116.467C174.592 113.753 175.667 111.149 177.579 109.229C179.491 107.309 182.085 106.23 184.789 106.229Z" fill="white" stroke="#263238" stroke-width="0.5" stroke-linecap="round" stroke-linejoin="round"/>
<path d="M176.831 111.154H202.529" stroke="#263238" stroke-width="0.5" stroke-linecap="round" stroke-linejoin="round"/>
<path d="M195.782 113.602H219.759" stroke="#263238" stroke-width="0.5" stroke-linecap="round" stroke-linejoin="round"/>
<path d="M210.283 116.629H187.311" stroke="#263238" stroke-width="0.5" stroke-linecap="round" stroke-linejoin="round"/>
<path d="M177.404 125.852H192.479" stroke="#263238" stroke-width="0.5" stroke-linecap="round" stroke-linejoin="round"/>
<path d="M188.602 128.012H211.144" stroke="#263238" stroke-width="0.5" stroke-linecap="round" stroke-linejoin="round"/>
<path d="M185.876 130.028H191.905" stroke="#263238" stroke-width="0.5" stroke-linecap="round" stroke-linejoin="round"/>
<path d="M202.816 123.833H241.15" stroke="#263238" stroke-width="0.5" stroke-linecap="round" stroke-linejoin="round"/>
<path d="M245.601 117.637H237.707" stroke="#263238" stroke-width="0.5" stroke-linecap="round" stroke-linejoin="round"/>
<path d="M244.31 115.621H236.269" stroke="#263238" stroke-width="0.5" stroke-linecap="round" stroke-linejoin="round"/>
<path d="M244.31 128.589H224.21" stroke="#263238" stroke-width="0.5" stroke-linecap="round" stroke-linejoin="round"/>
<path d="M233.823 149.411L227.915 143.482L222.023 149.411V115.6H233.823V149.411Z" fill="#263238" stroke="#263238" stroke-width="0.5" stroke-linecap="round" stroke-linejoin="round"/>
<path d="M179.567 97.2505V83.9557C179.566 81.8911 178.748 79.9114 177.294 78.4519C175.839 76.9924 173.866 76.1725 171.809 76.1725H244.956C245.974 76.172 246.983 76.373 247.924 76.7639C248.865 77.1548 249.721 77.7281 250.441 78.4509C251.162 79.1736 251.733 80.0318 252.123 80.9764C252.513 81.9209 252.714 82.9333 252.714 83.9557V97.2505C252.714 98.2729 252.513 99.2853 252.123 100.23C251.733 101.174 251.162 102.033 250.441 102.755C249.721 103.478 248.865 104.051 247.924 104.442C246.983 104.833 245.974 105.034 244.956 105.034H171.809C173.866 105.034 175.839 104.214 177.294 102.754C178.748 101.295 179.566 99.3151 179.567 97.2505Z" fill="#AD88C6" stroke="#263238" stroke-width="0.5" stroke-linecap="round" stroke-linejoin="round"/>
<path d="M106.672 77.2236L105.8 76.6512C105.752 76.6211 105.715 76.576 105.696 76.5228C105.676 76.4696 105.674 76.4113 105.69 76.3569C105.706 76.3025 105.74 76.255 105.786 76.2217C105.832 76.1883 105.887 76.171 105.944 76.1724H171.809C173.866 76.1724 175.839 76.9923 177.294 78.4519C178.748 79.9114 179.566 81.8911 179.567 83.9556V97.2504C179.566 99.315 178.748 101.295 177.294 102.754C175.839 104.214 173.866 105.034 171.809 105.034H105.944C105.887 105.035 105.832 105.018 105.786 104.984C105.74 104.951 105.706 104.904 105.69 104.849C105.674 104.795 105.676 104.736 105.696 104.683C105.715 104.63 105.752 104.585 105.8 104.555L106.672 103.982V77.2236Z" fill="#949494" stroke="#263238" stroke-width="0.5" stroke-linecap="round" stroke-linejoin="round"/>
<path d="M167.928 103.982H106.672V77.2272H167.928C170.633 77.2272 173.227 78.3054 175.14 80.2247C177.053 82.144 178.128 84.7473 178.129 87.462V93.726C178.131 95.0721 177.869 96.4054 177.358 97.6496C176.846 98.8939 176.095 100.025 175.148 100.977C174.2 101.93 173.075 102.686 171.836 103.201C170.597 103.717 169.269 103.982 167.928 103.982Z" fill="white" stroke="#263238" stroke-width="0.5" stroke-linecap="round" stroke-linejoin="round"/>
<path d="M175.894 82.1484H150.192" stroke="#263238" stroke-width="0.5" stroke-linecap="round" stroke-linejoin="round"/>
<path d="M156.942 84.6001H132.966" stroke="#263238" stroke-width="0.5" stroke-linecap="round" stroke-linejoin="round"/>
<path d="M142.442 87.624H165.411" stroke="#263238" stroke-width="0.5" stroke-linecap="round" stroke-linejoin="round"/>
<path d="M175.317 96.8473H160.242" stroke="#263238" stroke-width="0.5" stroke-linecap="round" stroke-linejoin="round"/>
<path d="M164.119 99.0109H141.577" stroke="#263238" stroke-width="0.5" stroke-linecap="round" stroke-linejoin="round"/>
<path d="M166.849 101.027H160.816" stroke="#263238" stroke-width="0.5" stroke-linecap="round" stroke-linejoin="round"/>
<path d="M149.905 94.8313H111.571" stroke="#263238" stroke-width="0.5" stroke-linecap="round" stroke-linejoin="round"/>
<path d="M107.12 88.6356H115.018" stroke="#263238" stroke-width="0.5" stroke-linecap="round" stroke-linejoin="round"/>
<path d="M108.415 86.6161H116.453" stroke="#263238" stroke-width="0.5" stroke-linecap="round" stroke-linejoin="round"/>
<path d="M108.415 99.5868H128.515" stroke="#263238" stroke-width="0.5" stroke-linecap="round" stroke-linejoin="round"/>
<path d="M240.802 98.3016H188.48V99.5076H240.802V98.3016Z" fill="#263238" stroke="#263238" stroke-width="0.5" stroke-linecap="round" stroke-linejoin="round"/>
<path d="M240.802 82.1161H188.48V83.3221H240.802V82.1161Z" fill="#263238" stroke="#263238" stroke-width="0.5" stroke-linecap="round" stroke-linejoin="round"/>
<path d="M178.868 54.4428C178.867 54.0452 178.709 53.6643 178.428 53.3836C178.148 53.1028 177.768 52.9452 177.372 52.9452H65.9703C65.7679 52.9352 65.5657 52.9666 65.3758 53.0375C65.1859 53.1083 65.0124 53.2172 64.8657 53.3574C64.719 53.4976 64.6022 53.6663 64.5224 53.8531C64.4425 54.04 64.4014 54.2412 64.4014 54.4446C64.4014 54.6479 64.4425 54.8491 64.5224 55.036C64.6022 55.2229 64.719 55.3915 64.8657 55.5317C65.0124 55.6719 65.1859 55.7808 65.3758 55.8516C65.5657 55.9225 65.7679 55.9539 65.9703 55.944H175.722L167.695 159.984H101.109L97.3428 155.984L92.3215 159.984H46.4516C46.2493 159.974 46.047 160.005 45.8572 160.076C45.6673 160.147 45.4937 160.256 45.347 160.396C45.2003 160.536 45.0835 160.705 45.0037 160.892C44.9239 161.079 44.8828 161.28 44.8828 161.483C44.8828 161.687 44.9239 161.888 45.0037 162.075C45.0835 162.262 45.2003 162.43 45.347 162.571C45.4937 162.711 45.6673 162.82 45.8572 162.89C46.047 162.961 46.2493 162.993 46.4516 162.983H168.649C168.746 163.011 168.846 163.03 168.947 163.037C169.143 163.052 169.34 163.028 169.526 162.967C169.713 162.906 169.886 162.808 170.035 162.68C170.184 162.551 170.306 162.395 170.394 162.219C170.483 162.043 170.536 161.851 170.55 161.654L178.8 54.8316C178.839 54.7054 178.862 54.5748 178.868 54.4428Z" fill="#263238" stroke="#263238" stroke-width="0.5" stroke-linecap="round" stroke-linejoin="round"/>
<path d="M97.6908 157.514C98.2826 157.752 99.4375 159.764 100.126 161.042H169.209L163.653 147.758C163.653 147.758 158.334 145.339 144.447 140.753C130.559 136.166 121.772 134.579 112.453 136.519C103.135 138.46 99.4482 139.68 99.4482 139.68C99.4482 139.68 96.2848 137.034 86.6151 136.858C76.9455 136.681 48.2127 147.744 48.2127 147.744L46.1862 161.028H94.7138C95.6069 159.552 97.0918 157.273 97.6908 157.514Z" fill="white" stroke="#263238" stroke-width="0.5" stroke-linecap="round" stroke-linejoin="round"/>
<path d="M109.964 42.5592L98.6627 145.44C98.6627 145.44 110.994 140.285 118.956 140.04C125.484 139.828 145.139 144.472 152.007 146.16C153.64 146.561 155.297 146.854 156.968 147.038L163.653 147.787L171.616 45.9396C171.616 45.9396 158.517 42.8472 149.02 39.7512C139.522 36.6552 120.753 34.308 109.964 42.5592Z" fill="white" stroke="#263238" stroke-width="0.5" stroke-linecap="round" stroke-linejoin="round"/>
<path d="M109.964 42.5592L98.6627 145.44C98.6627 145.44 90.7039 140.285 84.5527 140.04C79.8542 139.842 65.4717 143.852 58.9224 145.76C56.6374 146.424 54.307 146.918 51.95 147.24L48.2126 147.762L62.05 47.4732C62.05 47.4732 68.298 45.378 76.3106 42.282C84.3232 39.186 103.185 34.308 109.964 42.5592Z" fill="white" stroke="#263238" stroke-width="0.5" stroke-linecap="round" stroke-linejoin="round"/>
<path d="M171.616 45.9108L176.612 56.0664L169.209 161.042L163.653 147.758L171.616 45.9108Z" fill="white" stroke="#263238" stroke-width="0.5" stroke-linecap="round" stroke-linejoin="round"/>
<path d="M94.7138 161.042C94.7138 161.042 91.2993 158.695 87.8776 157.838C84.4559 156.982 74.6966 158.18 65.2816 159.041" stroke="#263238" stroke-width="0.5" stroke-linecap="round" stroke-linejoin="round"/>
<path d="M94.8931 158.695C94.8931 158.695 91.3065 155.776 86.6797 155.434" stroke="#263238" stroke-width="0.5" stroke-linecap="round" stroke-linejoin="round"/>
<path d="M96.4354 156.978C96.4354 156.978 90.7864 152.341 83.7673 152.341C78.4375 152.341 71.9564 153.544 71.9564 153.544" stroke="#263238" stroke-width="0.5" stroke-linecap="round" stroke-linejoin="round"/>
<path d="M96.9483 152.856C96.9483 152.856 92.4973 149.591 88.5591 149.256C84.6209 148.921 79.6606 149.76 79.6606 149.76" stroke="#263238" stroke-width="0.5" stroke-linecap="round" stroke-linejoin="round"/>
<path d="M97.2747 148.734C97.2747 148.734 94.0251 145.811 89.5741 145.134C86.7925 144.726 83.9665 144.726 81.1849 145.134" stroke="#263238" stroke-width="0.5" stroke-linecap="round" stroke-linejoin="round"/>
<path d="M98.9999 149.936C98.9999 149.936 104.48 145.976 113.705 147.013" stroke="#263238" stroke-width="0.5" stroke-linecap="round" stroke-linejoin="round"/>
<path d="M98.6591 153.72C98.6591 153.72 101.399 151.661 108.415 151.661" stroke="#263238" stroke-width="0.5" stroke-linecap="round" stroke-linejoin="round"/>
<path d="M99.172 157.32C99.172 157.32 104.821 155.084 109.957 155.599C115.093 156.114 115.775 156.46 122.109 157.147" stroke="#263238" stroke-width="0.5" stroke-linecap="round" stroke-linejoin="round"/>
<path d="M102.253 159.728C105.049 158.733 108.033 158.38 110.983 158.695" stroke="#263238" stroke-width="0.5" stroke-linecap="round" stroke-linejoin="round"/>
<path d="M111.668 151.826C111.668 151.826 117.145 152.168 119.881 153.198" stroke="#263238" stroke-width="0.5" stroke-linecap="round" stroke-linejoin="round"/>
<path d="M78.8033 145.469L75.3817 146.326" stroke="#263238" stroke-width="0.5" stroke-linecap="round" stroke-linejoin="round"/>
<path d="M69.9048 154.231L67.3368 154.915" stroke="#263238" stroke-width="0.5" stroke-linecap="round" stroke-linejoin="round"/>
<path d="M115.775 147.528L118.515 148.046" stroke="#263238" stroke-width="0.5" stroke-linecap="round" stroke-linejoin="round"/>
<path d="M155.827 158.18C155.827 158.18 163.187 158.695 165.923 158.695" stroke="#263238" stroke-width="0.5" stroke-linecap="round" stroke-linejoin="round"/>
<path d="M165.923 157.493L163.015 157.324" stroke="#263238" stroke-width="0.5" stroke-linecap="round" stroke-linejoin="round"/>
<path d="M155.655 153.886C155.655 153.886 161.476 154.246 164.385 154.573" stroke="#263238" stroke-width="0.5" stroke-linecap="round" stroke-linejoin="round"/>
<path d="M49.0233 151.139C52.5006 150.76 55.9373 150.07 59.2919 149.076" stroke="#263238" stroke-width="0.5" stroke-linecap="round" stroke-linejoin="round"/>
<path d="M52.9578 152.683C52.9578 152.683 57.0681 152.341 59.464 151.481" stroke="#263238" stroke-width="0.5" stroke-linecap="round" stroke-linejoin="round"/>
<path d="M162.33 150.793C162.33 150.793 157.538 151.481 150.691 149.936C146.793 149.038 142.851 148.349 138.88 147.874" stroke="#263238" stroke-width="0.5" stroke-linecap="round" stroke-linejoin="round"/>
<path d="M147.782 158.526L152.402 158.695" stroke="#263238" stroke-width="0.5" stroke-linecap="round" stroke-linejoin="round"/>
<path d="M173.968 52.0092L172.085 76.4064" stroke="#263238" stroke-width="0.5" stroke-linecap="round" stroke-linejoin="round"/>
<path d="M174.998 58.3668L174.141 69.0192" stroke="#263238" stroke-width="0.5" stroke-linecap="round" stroke-linejoin="round"/>
<path d="M171.917 98.3951L170.202 120.902" stroke="#263238" stroke-width="0.5" stroke-linecap="round" stroke-linejoin="round"/>
<path d="M169.349 127.429L167.638 149.936" stroke="#263238" stroke-width="0.5" stroke-linecap="round" stroke-linejoin="round"/>
<path d="M170.629 95.8176L169.521 110.423" stroke="#263238" stroke-width="0.5" stroke-linecap="round" stroke-linejoin="round"/>
<path d="M169.259 112.997L168.151 127.602" stroke="#263238" stroke-width="0.5" stroke-linecap="round" stroke-linejoin="round"/>
<path d="M112.873 54.3851C112.873 54.3851 120.129 49.2839 133.195 51.4691" stroke="#B2B2B2" stroke-width="0.5" stroke-linecap="round" stroke-linejoin="round"/>
<path d="M112.489 57.636C112.489 57.636 119.767 52.5168 132.833 54.6552" stroke="#B2B2B2" stroke-width="0.5" stroke-linecap="round" stroke-linejoin="round"/>
<path d="M112.109 60.8868C112.109 60.8868 119.404 55.7496 132.471 57.8376" stroke="#B2B2B2" stroke-width="0.5" stroke-linecap="round" stroke-linejoin="round"/>
<path d="M111.729 64.134C111.729 64.134 119.042 58.9788 132.105 61.02" stroke="#B2B2B2" stroke-width="0.5" stroke-linecap="round" stroke-linejoin="round"/>
<path d="M111.345 67.3848C111.345 67.3848 118.68 62.2116 131.743 64.206" stroke="#B2B2B2" stroke-width="0.5" stroke-linecap="round" stroke-linejoin="round"/>
<path d="M110.965 70.6355C110.965 70.6355 118.314 65.4443 131.38 67.3955" stroke="#B2B2B2" stroke-width="0.5" stroke-linecap="round" stroke-linejoin="round"/>
<path d="M110.581 73.8864C110.581 73.8864 117.952 68.6736 131.025 70.5708" stroke="#B2B2B2" stroke-width="0.5" stroke-linecap="round" stroke-linejoin="round"/>
<path d="M110.187 77.1371C110.187 77.1371 117.575 71.9063 130.631 73.7531" stroke="#B2B2B2" stroke-width="0.5" stroke-linecap="round" stroke-linejoin="round"/>
<path d="M109.828 80.388C109.828 80.388 117.234 75.1391 130.297 76.9391" stroke="#B2B2B2" stroke-width="0.5" stroke-linecap="round" stroke-linejoin="round"/>
<path d="M109.437 83.6388C109.437 83.6388 116.865 78.3684 129.928 80.1216" stroke="#B2B2B2" stroke-width="0.5" stroke-linecap="round" stroke-linejoin="round"/>
<path d="M109.057 86.8895C109.057 86.8895 116.499 81.6011 129.565 83.2895" stroke="#B2B2B2" stroke-width="0.5" stroke-linecap="round" stroke-linejoin="round"/>
<path d="M108.677 90.1367C108.677 90.1367 116.137 84.8339 129.203 86.4863" stroke="#B2B2B2" stroke-width="0.5" stroke-linecap="round" stroke-linejoin="round"/>
<path d="M108.293 93.3876C108.293 93.3876 115.775 88.0632 128.841 89.6724" stroke="#B2B2B2" stroke-width="0.5" stroke-linecap="round" stroke-linejoin="round"/>
<path d="M107.913 96.6384C107.913 96.6384 115.412 91.296 128.479 92.8548" stroke="#B2B2B2" stroke-width="0.5" stroke-linecap="round" stroke-linejoin="round"/>
<path d="M107.529 99.8891C107.529 99.8891 115.061 94.5287 128.113 96.0371" stroke="#B2B2B2" stroke-width="0.5" stroke-linecap="round" stroke-linejoin="round"/>
<path d="M107.149 103.14C107.149 103.14 114.681 97.7615 127.751 99.2195" stroke="#B2B2B2" stroke-width="0.5" stroke-linecap="round" stroke-linejoin="round"/>
<path d="M106.769 106.391C106.769 106.391 114.322 100.991 127.388 102.406" stroke="#B2B2B2" stroke-width="0.5" stroke-linecap="round" stroke-linejoin="round"/>
<path d="M106.385 109.642C106.385 109.642 113.96 104.224 127.044 105.588" stroke="#B2B2B2" stroke-width="0.5" stroke-linecap="round" stroke-linejoin="round"/>
<path d="M106.005 112.892C106.005 112.892 113.598 107.456 126.664 108.77" stroke="#B2B2B2" stroke-width="0.5" stroke-linecap="round" stroke-linejoin="round"/>
<path d="M105.624 116.14C105.624 116.14 113.235 110.686 126.298 111.96" stroke="#B2B2B2" stroke-width="0.5" stroke-linecap="round" stroke-linejoin="round"/>
<path d="M105.241 119.39C105.241 119.39 112.873 113.918 125.936 115.139" stroke="#B2B2B2" stroke-width="0.5" stroke-linecap="round" stroke-linejoin="round"/>
<path d="M104.86 122.641C104.86 122.641 112.507 117.151 125.573 118.321" stroke="#B2B2B2" stroke-width="0.5" stroke-linecap="round" stroke-linejoin="round"/>
<path d="M104.477 125.892C104.477 125.892 112.145 120.38 125.211 121.504" stroke="#B2B2B2" stroke-width="0.5" stroke-linecap="round" stroke-linejoin="round"/>
<path d="M104.089 129.143C104.089 129.143 111.776 123.613 124.842 124.69" stroke="#B2B2B2" stroke-width="0.5" stroke-linecap="round" stroke-linejoin="round"/>
<path d="M103.731 132.394C103.731 132.394 111.435 126.846 124.501 127.872" stroke="#B2B2B2" stroke-width="0.5" stroke-linecap="round" stroke-linejoin="round"/>
<path d="M103.333 135.644C103.333 135.644 111.058 130.075 124.135 131.054" stroke="#B2B2B2" stroke-width="0.5" stroke-linecap="round" stroke-linejoin="round"/>
<path d="M102.952 138.895C102.952 138.895 110.696 133.308 123.755 134.237" stroke="#B2B2B2" stroke-width="0.5" stroke-linecap="round" stroke-linejoin="round"/>
<path d="M139.239 51.9552C139.239 51.9552 149.4 50.5152 163.675 58.0284" stroke="#B2B2B2" stroke-width="0.5" stroke-linecap="round" stroke-linejoin="round"/>
<path d="M138.88 55.17C138.88 55.17 149.199 53.7948 163.363 61.2216" stroke="#B2B2B2" stroke-width="0.5" stroke-linecap="round" stroke-linejoin="round"/>
<path d="M138.521 58.3812C138.521 58.3812 148.998 57.0924 163.051 64.4148" stroke="#B2B2B2" stroke-width="0.5" stroke-linecap="round" stroke-linejoin="round"/>
<path d="M138.184 61.596C138.184 61.596 148.819 60.39 162.756 67.6116" stroke="#B2B2B2" stroke-width="0.5" stroke-linecap="round" stroke-linejoin="round"/>
<path d="M137.829 64.8C137.829 64.8 148.625 63.6804 162.452 70.7976" stroke="#B2B2B2" stroke-width="0.5" stroke-linecap="round" stroke-linejoin="round"/>
<path d="M137.474 68.04C137.474 68.04 148.428 67.0032 162.143 74.016" stroke="#B2B2B2" stroke-width="0.5" stroke-linecap="round" stroke-linejoin="round"/>
<path d="M137.123 71.2332C137.123 71.2332 148.241 70.2828 161.838 77.1948" stroke="#B2B2B2" stroke-width="0.5" stroke-linecap="round" stroke-linejoin="round"/>
<path d="M136.767 74.448C136.767 74.448 148.037 73.5768 161.515 80.388" stroke="#B2B2B2" stroke-width="0.5" stroke-linecap="round" stroke-linejoin="round"/>
<path d="M136.416 77.6592C136.416 77.6592 147.843 76.8744 161.221 83.5812" stroke="#B2B2B2" stroke-width="0.5" stroke-linecap="round" stroke-linejoin="round"/>
<path d="M136.061 80.8739C136.061 80.8739 147.646 80.1539 160.917 86.7743" stroke="#B2B2B2" stroke-width="0.5" stroke-linecap="round" stroke-linejoin="round"/>
<path d="M135.706 84.0852C135.706 84.0852 147.452 83.4696 160.608 89.9712" stroke="#B2B2B2" stroke-width="0.5" stroke-linecap="round" stroke-linejoin="round"/>
<path d="M135.354 87.2999C135.354 87.2999 147.255 86.7671 160.303 93.1643" stroke="#B2B2B2" stroke-width="0.5" stroke-linecap="round" stroke-linejoin="round"/>
<path d="M134.999 90.5112C134.999 90.5112 147.061 90.0648 159.995 96.3576" stroke="#B2B2B2" stroke-width="0.5" stroke-linecap="round" stroke-linejoin="round"/>
<path d="M134.648 93.726C134.648 93.726 146.864 93.366 159.686 99.5544" stroke="#B2B2B2" stroke-width="0.5" stroke-linecap="round" stroke-linejoin="round"/>
<path d="M134.293 96.9372C134.293 96.9372 146.67 96.6564 159.399 102.748" stroke="#B2B2B2" stroke-width="0.5" stroke-linecap="round" stroke-linejoin="round"/>
<path d="M133.938 100.152C133.938 100.152 146.473 99.954 159.073 105.941" stroke="#B2B2B2" stroke-width="0.5" stroke-linecap="round" stroke-linejoin="round"/>
<path d="M133.586 103.363C133.586 103.363 146.279 103.252 158.764 109.123" stroke="#B2B2B2" stroke-width="0.5" stroke-linecap="round" stroke-linejoin="round"/>
<path d="M133.231 106.578C133.231 106.578 146.082 106.549 158.46 112.338" stroke="#B2B2B2" stroke-width="0.5" stroke-linecap="round" stroke-linejoin="round"/>
<path d="M132.88 109.8C132.88 109.8 145.888 109.858 158.151 115.535" stroke="#B2B2B2" stroke-width="0.5" stroke-linecap="round" stroke-linejoin="round"/>
<path d="M132.524 113.004C132.524 113.004 145.691 113.144 157.846 118.717" stroke="#B2B2B2" stroke-width="0.5" stroke-linecap="round" stroke-linejoin="round"/>
<path d="M132.173 116.215C132.173 116.215 145.497 116.438 157.538 121.914" stroke="#B2B2B2" stroke-width="0.5" stroke-linecap="round" stroke-linejoin="round"/>
<path d="M131.818 119.43C131.818 119.43 145.3 119.736 157.229 125.107" stroke="#B2B2B2" stroke-width="0.5" stroke-linecap="round" stroke-linejoin="round"/>
<path d="M131.463 122.641C131.463 122.641 145.092 123.034 156.928 128.3" stroke="#B2B2B2" stroke-width="0.5" stroke-linecap="round" stroke-linejoin="round"/>
<path d="M131.111 125.856C131.111 125.856 144.909 126.331 156.616 131.497" stroke="#B2B2B2" stroke-width="0.5" stroke-linecap="round" stroke-linejoin="round"/>
<path d="M130.756 129.067C130.756 129.067 144.716 129.629 156.311 134.69" stroke="#B2B2B2" stroke-width="0.5" stroke-linecap="round" stroke-linejoin="round"/>
<path d="M130.405 132.282C130.405 132.282 144.518 132.926 156.003 137.884" stroke="#B2B2B2" stroke-width="0.5" stroke-linecap="round" stroke-linejoin="round"/>
<path d="M130.05 135.493C130.05 135.493 144.325 136.213 155.694 141.08" stroke="#B2B2B2" stroke-width="0.5" stroke-linecap="round" stroke-linejoin="round"/>
<path d="M65.9703 55.9439C65.9703 55.9439 69.5569 51.7139 81.1777 51.4691" stroke="#B2B2B2" stroke-width="0.5" stroke-linecap="round" stroke-linejoin="round"/>
<path d="M65.5327 59.1696C65.5327 59.1696 69.1193 55.0008 80.7581 54.684" stroke="#B2B2B2" stroke-width="0.5" stroke-linecap="round" stroke-linejoin="round"/>
<path d="M65.0916 62.3987C65.0916 62.3987 68.6782 58.2875 80.3385 57.8951" stroke="#B2B2B2" stroke-width="0.5" stroke-linecap="round" stroke-linejoin="round"/>
<path d="M64.6539 65.628C64.6539 65.628 68.2406 61.578 79.9224 61.11" stroke="#B2B2B2" stroke-width="0.5" stroke-linecap="round" stroke-linejoin="round"/>
<path d="M64.2164 68.8536C64.2164 68.8536 67.803 64.8648 79.5027 64.3212" stroke="#B2B2B2" stroke-width="0.5" stroke-linecap="round" stroke-linejoin="round"/>
<path d="M63.7752 72.0828C63.7752 72.0828 67.3619 68.1516 79.0831 67.536" stroke="#B2B2B2" stroke-width="0.5" stroke-linecap="round" stroke-linejoin="round"/>
<path d="M63.3376 75.3084C63.3376 75.3084 66.9243 71.4384 78.6635 70.7472" stroke="#B2B2B2" stroke-width="0.5" stroke-linecap="round" stroke-linejoin="round"/>
<path d="M62.9001 78.5375C62.9001 78.5375 66.4867 74.7287 78.2474 73.9619" stroke="#B2B2B2" stroke-width="0.5" stroke-linecap="round" stroke-linejoin="round"/>
<path d="M62.4589 81.7667C62.4589 81.7667 66.0671 78.0155 77.8278 77.1731" stroke="#B2B2B2" stroke-width="0.5" stroke-linecap="round" stroke-linejoin="round"/>
<path d="M62.0214 84.9923C62.0214 84.9923 65.6295 81.3023 77.4082 80.3879" stroke="#B2B2B2" stroke-width="0.5" stroke-linecap="round" stroke-linejoin="round"/>
<path d="M61.5837 88.2215C61.5837 88.2035 65.1919 84.5891 76.9885 83.5991" stroke="#B2B2B2" stroke-width="0.5" stroke-linecap="round" stroke-linejoin="round"/>
<path d="M61.1462 91.44C61.1462 91.422 64.7544 87.8724 76.5688 86.8068" stroke="#B2B2B2" stroke-width="0.5" stroke-linecap="round" stroke-linejoin="round"/>
<path d="M60.6907 94.68C60.7086 94.6584 64.3024 91.17 76.1384 90.0288" stroke="#B2B2B2" stroke-width="0.5" stroke-linecap="round" stroke-linejoin="round"/>
<path d="M60.2675 97.92C60.2854 97.8948 63.8792 94.4676 75.7332 93.24" stroke="#B2B2B2" stroke-width="0.5" stroke-linecap="round" stroke-linejoin="round"/>
<path d="M59.8299 101.131C59.8478 101.106 63.4417 97.74 75.3135 96.4512" stroke="#B2B2B2" stroke-width="0.5" stroke-linecap="round" stroke-linejoin="round"/>
<path d="M59.3887 104.36C59.4103 104.332 63.0041 101.03 74.8975 99.6804" stroke="#B2B2B2" stroke-width="0.5" stroke-linecap="round" stroke-linejoin="round"/>
<path d="M58.9512 107.586C58.9727 107.557 62.5665 104.317 74.4779 102.877" stroke="#B2B2B2" stroke-width="0.5" stroke-linecap="round" stroke-linejoin="round"/>
<path d="M58.5135 110.815C58.5351 110.783 62.1289 107.604 74.0582 106.092" stroke="#B2B2B2" stroke-width="0.5" stroke-linecap="round" stroke-linejoin="round"/>
<path d="M58.0724 114.044C58.0975 114.012 61.6913 110.891 73.6385 109.303" stroke="#B2B2B2" stroke-width="0.5" stroke-linecap="round" stroke-linejoin="round"/>
<path d="M57.6348 117.27C57.6599 117.238 61.2538 114.181 73.2225 112.518" stroke="#B2B2B2" stroke-width="0.5" stroke-linecap="round" stroke-linejoin="round"/>
<path d="M57.1973 120.499C57.2224 120.463 60.8162 117.468 72.8029 115.729" stroke="#B2B2B2" stroke-width="0.5" stroke-linecap="round" stroke-linejoin="round"/>
<path d="M56.7454 123.725C56.7776 123.689 60.3679 120.755 72.3725 118.944" stroke="#B2B2B2" stroke-width="0.5" stroke-linecap="round" stroke-linejoin="round"/>
<path d="M56.3185 126.954C56.3508 126.914 59.9411 124.042 71.9636 122.155" stroke="#B2B2B2" stroke-width="0.5" stroke-linecap="round" stroke-linejoin="round"/>
<path d="M55.881 130.183C55.9133 130.14 59.5035 127.332 71.5475 125.37" stroke="#B2B2B2" stroke-width="0.5" stroke-linecap="round" stroke-linejoin="round"/>
<path d="M55.4398 133.409C55.4757 133.366 59.0695 130.619 71.1279 128.581" stroke="#B2B2B2" stroke-width="0.5" stroke-linecap="round" stroke-linejoin="round"/>
<path d="M55.0022 136.638C55.0381 136.591 58.6319 133.906 70.7082 131.796" stroke="#B2B2B2" stroke-width="0.5" stroke-linecap="round" stroke-linejoin="round"/>
<path d="M54.5646 139.864C54.6005 139.817 58.1943 137.192 70.2886 135.007" stroke="#B2B2B2" stroke-width="0.5" stroke-linecap="round" stroke-linejoin="round"/>
<path d="M85.7758 50.5008C85.7758 50.5008 94.5165 47.3436 102.712 52.9272" stroke="#B2B2B2" stroke-width="0.5" stroke-linecap="round" stroke-linejoin="round"/>
<path d="M85.3741 53.7047C85.3741 53.7047 94.0862 50.5656 102.386 56.0952" stroke="#B2B2B2" stroke-width="0.5" stroke-linecap="round" stroke-linejoin="round"/>
<path d="M84.9724 56.9052C84.9724 56.9052 93.6557 53.7876 102.059 59.2596" stroke="#B2B2B2" stroke-width="0.5" stroke-linecap="round" stroke-linejoin="round"/>
<path d="M84.5743 60.1199C84.5743 60.1199 93.2289 57.0203 101.733 62.4383" stroke="#B2B2B2" stroke-width="0.5" stroke-linecap="round" stroke-linejoin="round"/>
<path d="M84.1726 63.3132C87.0414 62.4633 90.056 62.227 93.0214 62.6195C95.9869 63.0121 98.8374 64.0247 101.389 65.592" stroke="#B2B2B2" stroke-width="0.5" stroke-linecap="round" stroke-linejoin="round"/>
<path d="M83.7745 66.5171C86.6566 65.6686 89.6829 65.4299 92.6618 65.8159C95.6406 66.202 98.5072 67.2045 101.08 68.7599" stroke="#B2B2B2" stroke-width="0.5" stroke-linecap="round" stroke-linejoin="round"/>
<path d="M83.3727 69.7212C86.2667 68.8767 89.3024 68.6365 92.2924 69.0154C95.2824 69.3944 98.1633 70.3844 100.757 71.9244" stroke="#B2B2B2" stroke-width="0.5" stroke-linecap="round" stroke-linejoin="round"/>
<path d="M82.9747 72.9252C82.9747 72.9252 91.5109 69.8976 100.431 75.0852" stroke="#B2B2B2" stroke-width="0.5" stroke-linecap="round" stroke-linejoin="round"/>
<path d="M82.5693 76.1291C82.5693 76.1291 91.0769 73.1195 100.101 78.2567" stroke="#B2B2B2" stroke-width="0.5" stroke-linecap="round" stroke-linejoin="round"/>
<path d="M82.1748 79.3331C82.1748 79.3331 90.6537 76.3415 99.7782 81.4247" stroke="#B2B2B2" stroke-width="0.5" stroke-linecap="round" stroke-linejoin="round"/>
<path d="M81.7731 82.5371C81.7731 82.5371 90.2233 79.5671 99.4518 84.5891" stroke="#B2B2B2" stroke-width="0.5" stroke-linecap="round" stroke-linejoin="round"/>
<path d="M81.3714 85.7375C81.3714 85.7375 89.7929 82.7891 99.129 87.7571" stroke="#B2B2B2" stroke-width="0.5" stroke-linecap="round" stroke-linejoin="round"/>
<path d="M80.9733 88.9416C80.9733 88.9416 89.3661 86.0112 98.8026 90.9216" stroke="#B2B2B2" stroke-width="0.5" stroke-linecap="round" stroke-linejoin="round"/>
<path d="M80.5716 92.1599C80.5716 92.1599 88.9357 89.2475 98.4762 94.1039" stroke="#B2B2B2" stroke-width="0.5" stroke-linecap="round" stroke-linejoin="round"/>
<path d="M80.1735 95.3495C80.1735 95.3495 88.5053 92.4695 98.1498 97.2539" stroke="#B2B2B2" stroke-width="0.5" stroke-linecap="round" stroke-linejoin="round"/>
<path d="M79.7717 98.5535C79.7717 98.5535 88.0784 95.6735 97.8234 100.422" stroke="#B2B2B2" stroke-width="0.5" stroke-linecap="round" stroke-linejoin="round"/>
<path d="M79.3737 101.758C79.3737 101.758 87.6481 98.8992 97.5007 103.586" stroke="#B2B2B2" stroke-width="0.5" stroke-linecap="round" stroke-linejoin="round"/>
<path d="M78.9827 104.962C78.9827 104.962 87.232 102.121 97.185 106.762" stroke="#B2B2B2" stroke-width="0.5" stroke-linecap="round" stroke-linejoin="round"/>
<path d="M78.5738 108.166C78.5738 108.166 86.7908 105.343 96.8479 109.922" stroke="#B2B2B2" stroke-width="0.5" stroke-linecap="round" stroke-linejoin="round"/>
<path d="M78.1721 111.37C78.1721 111.37 86.3605 108.565 96.5215 113.087" stroke="#B2B2B2" stroke-width="0.5" stroke-linecap="round" stroke-linejoin="round"/>
<path d="M77.7704 114.574C77.7704 114.574 85.9301 111.787 96.1951 116.255" stroke="#B2B2B2" stroke-width="0.5" stroke-linecap="round" stroke-linejoin="round"/>
<path d="M77.3723 117.774C77.3723 117.774 85.4996 115.009 95.8723 119.419" stroke="#B2B2B2" stroke-width="0.5" stroke-linecap="round" stroke-linejoin="round"/>
<path d="M76.9706 120.978C76.9706 120.978 85.0729 118.235 95.5459 122.587" stroke="#B2B2B2" stroke-width="0.5" stroke-linecap="round" stroke-linejoin="round"/>
<path d="M76.5724 124.2C76.5724 124.2 84.6424 121.475 95.2231 125.77" stroke="#B2B2B2" stroke-width="0.5" stroke-linecap="round" stroke-linejoin="round"/>
<path d="M76.1707 127.386C76.1707 127.386 84.212 124.679 94.8931 128.92" stroke="#B2B2B2" stroke-width="0.5" stroke-linecap="round" stroke-linejoin="round"/>
<path d="M75.7726 130.59C75.7726 130.59 83.7853 127.901 94.5668 132.084" stroke="#B2B2B2" stroke-width="0.5" stroke-linecap="round" stroke-linejoin="round"/>
<path d="M75.3709 133.794C75.3709 133.794 83.3548 131.123 94.244 135.252" stroke="#B2B2B2" stroke-width="0.5" stroke-linecap="round" stroke-linejoin="round"/>
<path d="M112.55 40.7411L107.554 86.5331L112.027 80.2007L115.445 83.8799L120.179 37.9547C120.179 37.9547 115.968 38.2355 112.55 40.7411Z" fill="#263238" stroke="#263238" stroke-width="0.5" stroke-linecap="round" stroke-linejoin="round"/>
<path d="M29.4185 164.052C29.4185 164.052 28.9594 164.225 29.3611 164.628C29.7628 165.031 31.3768 165.323 32.8151 165.208C34.0629 165.048 35.283 164.718 36.4412 164.225C37.0151 163.994 36.6134 162.724 36.6134 162.724L29.4185 164.052Z" fill="#263238" stroke="#263238" stroke-width="0.5" stroke-linecap="round" stroke-linejoin="round"/>
<path d="M31.9973 153.551C31.9973 153.551 32.8617 159.952 32.8617 160.24C32.8617 160.528 30.6165 163.069 29.5225 163.645C28.4286 164.221 31.2513 164.743 32.46 164.628C33.6687 164.513 35.4513 164.167 35.7956 163.937C36.1399 163.706 36.5452 163.53 36.6026 162.724C36.66 161.917 36.2009 159.43 36.2009 159.43L36.3013 153.338L31.9973 153.551Z" fill="white" stroke="#263238" stroke-width="0.5" stroke-linecap="round" stroke-linejoin="round"/>
<path d="M36.226 159.516C35.1013 159.771 33.9377 159.803 32.8008 159.61C32.8438 159.97 32.8725 160.189 32.8725 160.24C32.71 160.573 32.4944 160.877 32.2341 161.14C32.8043 161.035 33.9628 160.927 34.7017 161.532C35.2505 161.982 35.4872 162.781 35.3975 163.904C35.3941 163.967 35.4039 164.029 35.4262 164.088C35.5587 164.054 35.6864 164.003 35.8064 163.937C35.955 163.846 36.0965 163.743 36.2296 163.631C36.2655 162.396 35.9283 161.471 35.2182 160.891C35.0561 160.759 34.8792 160.647 34.6909 160.556C35.2547 160.531 35.8152 160.457 36.3659 160.333C36.3013 159.959 36.2511 159.656 36.226 159.516Z" fill="#263238"/>
<path d="M34.2641 162.202C33.5249 161.755 32.6625 161.558 31.8036 161.64C31.5239 161.946 31.2154 162.263 30.907 162.562C31.7785 162.414 33.059 162.356 33.7763 162.886C33.9983 163.052 34.1769 163.27 34.2968 163.521C34.4167 163.771 34.4744 164.048 34.465 164.326C34.465 164.326 34.465 164.326 34.465 164.344C34.7662 164.282 35.046 164.218 35.272 164.153C35.2617 163.772 35.1657 163.399 34.9911 163.061C34.8166 162.723 34.568 162.429 34.2641 162.202Z" fill="#263238"/>
<path d="M51.9213 163.66C51.867 163.697 51.8207 163.744 51.7853 163.8C51.75 163.855 51.7262 163.917 51.7154 163.982C51.7047 164.047 51.7072 164.114 51.7229 164.178C51.7386 164.242 51.767 164.302 51.8065 164.354C52.0935 164.758 53.13 164.758 53.7039 164.758C54.2777 164.758 57.2726 164.815 57.2726 164.815C57.2726 164.815 61.6447 164.758 62.2939 164.585C62.9431 164.412 62.9826 164.066 62.753 163.89C62.5406 163.782 62.3003 163.742 62.0644 163.775C61.0134 163.901 59.9523 163.921 58.8974 163.832C57.6313 163.66 53.833 163.717 53.2591 163.66C52.8138 163.627 52.3666 163.627 51.9213 163.66Z" fill="#263238" stroke="#263238" stroke-width="0.5" stroke-linecap="round" stroke-linejoin="round"/>
<path d="M49.884 153.817C49.884 153.817 51.8065 159.617 51.8639 159.905C51.9497 160.501 51.9881 161.103 51.9787 161.705C51.9787 162.511 51.4586 163.379 52.3804 163.955C53.3021 164.531 55.8343 164.131 57.1004 164.246C58.4033 164.333 59.7106 164.333 61.0135 164.246C62.7386 164.189 63.3735 163.264 62.9682 163.091C62.5629 162.918 62.3943 163.379 60.4934 162.281C58.5925 161.183 55.2569 159.566 55.1421 159.221C55.0273 158.875 54.3961 153.792 54.3961 153.792L49.884 153.817Z" fill="white" stroke="#263238" stroke-width="0.5" stroke-linecap="round" stroke-linejoin="round"/>
<path d="M58.5387 161.201C58.1787 162.191 57.9989 163.239 58.0078 164.293C58.2804 164.293 58.553 164.293 58.8328 164.293C58.8277 163.373 58.9756 162.458 59.2703 161.586L58.5387 161.201Z" fill="#263238"/>
<path d="M54.4965 164.268C54.6423 162.691 55.2543 161.195 56.2539 159.97C55.967 159.808 55.7195 159.66 55.5366 159.538C54.4638 160.888 53.8169 162.529 53.6787 164.25C53.9334 164.268 54.2095 164.272 54.4965 164.268Z" fill="#263238"/>
<path d="M55.1421 159.214C55.1242 159.16 55.0955 158.99 55.056 158.746C53.963 159.06 52.8353 159.236 51.6989 159.271C51.7922 159.613 51.8531 159.851 51.8639 159.905L51.8926 160.096C53.0999 160.049 54.296 159.844 55.4506 159.487C55.3295 159.419 55.2244 159.326 55.1421 159.214Z" fill="#263238"/>
<path d="M45.3612 72.4104C45.3612 72.4104 45.6338 74.8656 46.1431 75.9204C46.6524 76.9752 47.8755 77.832 47.5778 80.0136C47.2801 82.1952 45.6733 83.322 44.8232 83.4948C44.3519 83.596 43.8704 83.6407 43.3886 83.628L43.5572 86.0508C44.9514 85.9984 46.3464 86.1291 47.7069 86.4396C49.4787 86.9328 52.3696 87.9192 53.6536 88.1172C54.9376 88.3152 59.8442 88.5672 60.827 89.6508C61.8097 90.7344 61.5622 91.7244 60.974 92.3148C60.3858 92.9052 57.2905 92.754 53.2125 92.754H49.138C49.138 92.754 50.0705 95.1696 49.9235 96.8976C49.7764 98.6256 48.3023 101.682 48.3023 101.682C48.3023 101.682 48.4494 105.134 48.7435 107.802C49.0376 110.47 49.1021 112.19 49.1021 112.19C49.1021 112.19 50.7233 123.188 52.6386 130.489C54.5539 137.79 54.3602 148.687 54.8516 150.61C55.3429 152.532 55.6227 154.44 55.6227 154.44C55.6227 154.44 50.9062 155.376 49.2348 155.477C48.4173 155.536 47.5973 155.553 46.778 155.527L45.7952 145.908C45.7952 145.908 43.88 133.135 43.7795 132.948C43.6791 132.761 40.9317 123.379 40.9317 123.379L39.2101 140.04L37.5889 155.228L30.204 154.307L30.351 135.911C30.351 135.911 29.9601 125.208 30.0569 120.769C30.1538 116.33 31.5311 112.385 32.7577 110.804C33.9843 109.224 37.033 104.684 37.033 104.684L36.495 101.578L33.6257 95.9076C33.6257 95.9076 27.019 100.674 25.8892 101.466C24.7594 102.258 23.3786 101.664 23.0199 99.7884C22.6612 97.9128 31.445 90.1368 32.8223 89.1504C34.1995 88.164 38.9196 85.5 38.9196 85.5L38.7223 83.1312C38.7223 83.1312 37.0509 82.5912 36.4627 81.2592C35.8745 79.9272 38.0337 78.2496 38.0839 77.166C38.1341 76.0824 37.2984 74.106 38.6721 73.6128C40.0458 73.1196 45.3612 72.4104 45.3612 72.4104Z" fill="white" stroke="#263238" stroke-width="0.5" stroke-linecap="round" stroke-linejoin="round"/>
<path d="M46.778 155.542C47.5972 155.567 48.4173 155.551 49.2348 155.491C50.9062 155.39 55.6227 154.454 55.6227 154.454C55.6227 154.454 55.3286 152.532 54.8372 150.606C54.3458 148.68 54.5431 137.783 52.6242 130.486C50.7054 123.188 49.0878 112.187 49.0878 112.187C49.0878 112.187 49.0376 110.459 48.7291 107.798C48.6036 106.675 48.5067 105.412 48.435 104.328L36.99 104.429L37.033 104.688C37.033 104.688 33.9879 109.228 32.7577 110.808C31.5275 112.388 30.1538 116.334 30.0569 120.773C29.9601 125.212 30.351 135.914 30.351 135.914L30.204 154.307L37.5746 155.243L39.2101 140.04L40.9317 123.368C40.9317 123.368 43.6827 132.728 43.7795 132.937C43.8764 133.146 45.7952 145.897 45.7952 145.897L46.778 155.542Z" fill="#92E3A9" stroke="#263238" stroke-width="0.5" stroke-linecap="round" stroke-linejoin="round"/>
<path d="M44.5758 108.162L48.0836 108.112" stroke="#263238" stroke-width="0.5" stroke-linecap="round" stroke-linejoin="round"/>
<path d="M39.4971 108.238L43.7114 108.176" stroke="#263238" stroke-width="0.5" stroke-linecap="round" stroke-linejoin="round"/>
<path d="M46.1611 108.173L46.9968 115.571" stroke="#263238" stroke-width="0.5" stroke-linecap="round" stroke-linejoin="round"/>
<path d="M46.7385 109.138L48.661 117.824" stroke="#263238" stroke-width="0.5" stroke-linecap="round" stroke-linejoin="round"/>
<path d="M38.9196 108.882L37.2554 115.186" stroke="#263238" stroke-width="0.5" stroke-linecap="round" stroke-linejoin="round"/>
<path d="M38.4426 116.636L38.3422 117.63" stroke="#263238" stroke-width="0.5" stroke-linecap="round" stroke-linejoin="round"/>
<path d="M39.1133 109.912L38.5609 115.445" stroke="#263238" stroke-width="0.5" stroke-linecap="round" stroke-linejoin="round"/>
<path d="M40.7165 75.6467C40.9267 75.4402 41.1786 75.2813 41.4551 75.1807C41.7317 75.0801 42.0265 75.0401 42.3197 75.0635" stroke="#263238" stroke-width="0.5" stroke-miterlimit="10"/>
<path d="M44.3677 74.2787C44.6034 74.0076 44.9329 73.8364 45.2895 73.7999" stroke="#263238" stroke-width="0.5" stroke-miterlimit="10"/>
<path d="M47.8397 75.7223C47.8397 76.0691 47.7372 76.408 47.5453 76.6963C47.3534 76.9847 47.0806 77.2094 46.7614 77.3421C46.4422 77.4748 46.091 77.5095 45.7522 77.4418C45.4134 77.3742 45.1021 77.2072 44.8579 76.962C44.6136 76.7168 44.4472 76.4044 44.3798 76.0643C44.3124 75.7243 44.347 75.3718 44.4792 75.0514C44.6114 74.731 44.8353 74.4572 45.1225 74.2646C45.4098 74.0719 45.7475 73.9691 46.093 73.9691C46.5562 73.9691 47.0005 74.1538 47.3281 74.4826C47.6556 74.8114 47.8397 75.2573 47.8397 75.7223Z" stroke="#263238" stroke-width="0.5" stroke-linecap="round" stroke-linejoin="round"/>
<path d="M43.4352 79.7832C43.753 79.9673 44.1067 80.0801 44.472 80.1136C44.8374 80.1472 45.2056 80.1008 45.5514 79.9776" stroke="#263238" stroke-width="0.5" stroke-linecap="round" stroke-linejoin="round"/>
<path d="M43.7795 77.1911C43.7795 77.5372 43.6773 77.8754 43.4857 78.1632C43.2942 78.4509 43.022 78.6751 42.7035 78.8075C42.3849 78.94 42.0345 78.9746 41.6963 78.9071C41.3582 78.8396 41.0476 78.673 40.8038 78.4283C40.56 78.1836 40.394 77.8718 40.3268 77.5325C40.2595 77.1931 40.294 76.8413 40.426 76.5216C40.5579 76.2019 40.7813 75.9286 41.068 75.7364C41.3546 75.5441 41.6916 75.4415 42.0364 75.4415C42.4987 75.4415 42.9421 75.6259 43.269 75.954C43.5959 76.2821 43.7795 76.7271 43.7795 77.1911Z" stroke="#263238" stroke-width="0.5" stroke-linecap="round" stroke-linejoin="round"/>
<path d="M42.8434 77.0904C42.8972 77.4 42.8147 77.6736 42.6533 77.7024C42.4919 77.7312 42.3198 77.5044 42.2624 77.1984C42.205 76.8924 42.2911 76.6152 42.4525 76.5864C42.6139 76.5576 42.786 76.7808 42.8434 77.0904Z" fill="#263238"/>
<path d="M45.7056 76.0643C45.763 76.3703 45.6805 76.6439 45.5191 76.6727C45.3577 76.7015 45.1819 76.4784 45.1281 76.1688C45.0743 75.8592 45.1568 75.5892 45.3146 75.5568C45.4724 75.5244 45.6518 75.7547 45.7056 76.0643Z" fill="#263238"/>
<path d="M40.3901 77.8103L37.7862 79.0415" stroke="#263238" stroke-width="0.5" stroke-linecap="round" stroke-linejoin="round"/>
<path d="M43.7329 76.6799C43.7933 76.5899 43.8756 76.517 43.9721 76.468C44.0686 76.4191 44.176 76.3959 44.284 76.4006C44.392 76.4053 44.497 76.4378 44.5889 76.4949C44.6808 76.552 44.7566 76.6318 44.8089 76.7267" stroke="#263238" stroke-width="0.5" stroke-linecap="round" stroke-linejoin="round"/>
<path d="M44.192 76.23C44.3419 76.4632 44.5674 76.6374 44.8304 76.7232C45.225 76.824 46.3548 76.9212 46.2651 77.4648C46.2283 77.6883 46.1374 77.8994 46.0005 78.0795C45.8636 78.2596 45.6847 78.4033 45.4796 78.498" stroke="#263238" stroke-width="0.5" stroke-linecap="round" stroke-linejoin="round"/>
<path d="M38.6004 74.322C38.6004 74.322 38.9053 76.3596 38.6506 77.688C38.396 79.0164 37.2805 79.5204 37.4312 80.5932C37.5818 81.666 39.2245 83.2428 39.2245 83.2428C38.7908 83.7671 38.2476 84.1894 37.6335 84.4799C37.0193 84.7704 36.3491 84.922 35.6701 84.924C33.267 84.96 31.28 84.0564 31.28 80.0316C31.28 76.0068 31.8395 71.4672 34.734 70.0416C37.6284 68.616 43.0622 69.174 44.2817 69.6348C45.5012 70.0956 46.8713 71.6724 46.4122 72.4356C45.9531 73.1988 40.6305 74.5776 38.6004 74.322Z" fill="#263238" stroke="#263238" stroke-width="0.5" stroke-linecap="round" stroke-linejoin="round"/>
<path d="M38.5717 79.6824C38.5717 79.6824 37.0976 78.4008 36.5094 79.0416C35.9212 79.6824 36.6564 80.8164 37.1944 81.4572C37.2797 81.5691 37.3904 81.6589 37.5173 81.7193C37.6441 81.7796 37.7835 81.8087 37.9238 81.8041C38.064 81.7995 38.2012 81.7614 38.3239 81.6929C38.4466 81.6245 38.5512 81.5276 38.6291 81.4104" fill="white"/>
<path d="M38.5717 79.6824C38.5717 79.6824 37.0976 78.4008 36.5094 79.0416C35.9212 79.6824 36.6564 80.8164 37.1944 81.4572C37.2797 81.5691 37.3904 81.6589 37.5173 81.7193C37.6441 81.7796 37.7835 81.8087 37.9238 81.8041C38.064 81.7995 38.2012 81.7614 38.3239 81.6929C38.4466 81.6245 38.5512 81.5276 38.6291 81.4104" stroke="#263238" stroke-width="0.5" stroke-linecap="round" stroke-linejoin="round"/>
<path d="M43.3922 83.6315L41.6419 83.3939L43.489 85.6295L43.3922 83.6315Z" fill="#263238" stroke="#263238" stroke-width="0.5" stroke-linecap="round" stroke-linejoin="round"/>
<path d="M59.6685 92.2067C58.974 92.1245 58.3089 91.8777 57.7281 91.4867C56.8745 90.8675 56.5445 88.9667 55.7877 87.5879C55.0309 86.2091 51.125 79.4915 51.125 79.4915C50.7444 79.4735 50.3743 79.3596 50.049 79.1603C49.529 78.8255 49.0089 78.3971 48.2055 78.3035C47.4021 78.2099 46.9717 78.3503 46.6883 78.2567C46.405 78.1631 46.5951 77.3531 47.2586 77.1767C47.9221 77.0003 48.9156 77.3675 48.9156 77.3675C48.9664 76.8566 48.9177 76.3406 48.7722 75.8483C48.5355 75.2291 47.732 74.5163 47.1618 74.1851C46.5915 73.8539 45.9782 73.8503 46.2149 73.5191C46.4516 73.1879 46.7852 73.0907 47.4953 73.1843C48.2055 73.2779 49.4357 74.5631 49.4357 74.5631C49.4357 74.5631 50.5117 75.4199 50.7592 75.4199C51.0067 75.4199 51.993 75.3731 52.4664 76.1399C52.9399 76.9067 53.3631 78.5159 53.3165 78.9443C53.2889 79.2124 53.2889 79.4827 53.3165 79.7507C53.3165 79.7507 58.657 85.9967 59.7725 87.0875C60.8879 88.1783 61.6662 90.6875 61.4762 91.3175C61.369 91.679 61.2043 92.0206 60.9884 92.3291" fill="white"/>
<path d="M59.6685 92.2067C58.974 92.1245 58.3089 91.8777 57.7281 91.4867C56.8745 90.8675 56.5445 88.9667 55.7877 87.5879C55.0309 86.2091 51.125 79.4915 51.125 79.4915C50.7444 79.4735 50.3743 79.3596 50.049 79.1603C49.529 78.8255 49.0089 78.3971 48.2055 78.3035C47.4021 78.2099 46.9717 78.3503 46.6883 78.2567C46.405 78.1631 46.5951 77.3531 47.2586 77.1767C47.9221 77.0003 48.9156 77.3675 48.9156 77.3675C48.9664 76.8566 48.9177 76.3406 48.7722 75.8483C48.5355 75.2291 47.732 74.5163 47.1618 74.1851C46.5915 73.8539 45.9782 73.8503 46.2149 73.5191C46.4516 73.1879 46.7852 73.0907 47.4953 73.1843C48.2055 73.2779 49.4357 74.5631 49.4357 74.5631C49.4357 74.5631 50.5117 75.4199 50.7592 75.4199C51.0067 75.4199 51.993 75.3731 52.4664 76.1399C52.9399 76.9067 53.3631 78.5159 53.3165 78.9443C53.2889 79.2124 53.2889 79.4827 53.3165 79.7507C53.3165 79.7507 58.657 85.9967 59.7725 87.0875C60.8879 88.1783 61.6662 90.6875 61.4762 91.3175C61.369 91.679 61.2043 92.0206 60.9884 92.3291" stroke="#263238" stroke-width="0.5" stroke-linecap="round" stroke-linejoin="round"/>
<path d="M50.5404 74.88C50.4863 74.7649 50.4035 74.6657 50.3001 74.592C49.5828 74.0664 49.2958 75.0852 49.3173 75.5568C49.3492 75.9305 49.4451 76.2958 49.6007 76.6368C49.6509 76.7592 49.737 76.8996 49.8769 76.8924C49.9111 76.8903 49.9445 76.8809 49.9748 76.8647C50.0052 76.8486 50.0317 76.8261 50.0526 76.7988C50.318 76.5 50.0921 76.0392 50.2427 75.6828C50.3288 75.474 50.544 75.3228 50.5727 75.0924C50.5802 75.02 50.5691 74.9469 50.5404 74.88Z" fill="white" stroke="#263238" stroke-width="0.5" stroke-linecap="round" stroke-linejoin="round"/>
<path d="M51.4873 74.9304C51.4331 74.8153 51.3504 74.7161 51.247 74.6424C50.5297 74.1204 50.2427 75.1356 50.2642 75.6072C50.2961 75.9809 50.3919 76.3462 50.5476 76.6872C50.5978 76.806 50.6839 76.95 50.8238 76.9428C50.8581 76.9394 50.8914 76.929 50.9216 76.9123C50.9518 76.8956 50.9783 76.8729 50.9995 76.8456C51.2649 76.5504 51.039 76.0896 51.1896 75.7332C51.2757 75.5244 51.4909 75.3732 51.5196 75.1392C51.5261 75.068 51.515 74.9963 51.4873 74.9304Z" fill="white" stroke="#263238" stroke-width="0.5" stroke-linecap="round" stroke-linejoin="round"/>
<path d="M52.3588 75.3263C52.3111 75.2224 52.2369 75.133 52.1436 75.0671C51.5088 74.5919 51.2362 75.5135 51.2541 75.9383C51.282 76.2805 51.3681 76.6154 51.5088 76.9283C51.5554 77.0363 51.6343 77.1659 51.7598 77.1587C51.7912 77.156 51.8216 77.1469 51.8493 77.1321C51.8771 77.1172 51.9015 77.0969 51.9212 77.0723C52.1616 76.8059 51.9535 76.3883 52.0898 76.0643C52.1687 75.8771 52.3624 75.7295 52.3911 75.5279C52.3982 75.4591 52.3871 75.3895 52.3588 75.3263Z" fill="white" stroke="#263238" stroke-width="0.5" stroke-linecap="round" stroke-linejoin="round"/>
<path d="M50.9672 77.8391C51.016 78.259 51.1438 78.6659 51.3438 79.0379C51.5882 79.2875 51.9174 79.4353 52.2656 79.4519" stroke="#263238" stroke-width="0.5" stroke-linecap="round" stroke-linejoin="round"/>
<path d="M48.3023 101.682C48.3023 101.682 49.7765 98.6219 49.9235 96.8975C50.0706 95.1731 49.138 92.7539 49.138 92.7539C49.138 92.7539 46.3476 87.4403 45.5514 86.0975C45.1604 86.0651 44.8018 86.0507 44.4754 86.0471C44.8184 86.5417 45.1104 87.07 45.3469 87.6239C45.494 88.1675 46.7242 91.2707 46.7242 91.2707L43.6289 94.3739L38.8443 92.1599C38.6555 90.7782 38.2588 89.4333 37.6679 88.1711C37.4151 87.6713 37.1275 87.1901 36.8071 86.7311L36.183 87.0911C36.384 87.3679 36.5685 87.6564 36.7353 87.9551C37.5675 89.4347 37.7647 92.4371 37.7647 92.4371C37.7647 92.4371 35.8997 95.0507 35.4585 96.4295C35.2713 97.0071 35.0423 97.5702 34.7734 98.1143L36.5094 101.567L36.7676 103.05L48.3203 102.089C48.3095 101.837 48.3023 101.682 48.3023 101.682Z" fill="#92E3A9" stroke="#263238" stroke-width="0.5" stroke-linecap="round" stroke-linejoin="round"/>
<path d="M24.9962 96.8184C24.9962 96.8184 22.3887 98.8956 22.3456 99.9972C22.3026 101.099 31.1652 109.238 31.8431 109.717C32.521 110.196 33.1522 110.351 33.5324 110.182C33.9126 110.012 36.0646 108.785 36.0646 108.785C36.0646 108.785 38.6793 108.572 38.8479 108.32C39.0164 108.068 38.8909 108.022 38.3852 107.978C37.8795 107.935 37.2446 107.809 37.1191 107.809C36.9936 107.809 36.3587 107.726 36.3587 107.726C36.3587 107.726 39.1886 106.668 39.3572 106.625C39.5257 106.582 40.2861 106.538 40.157 106.243C40.0279 105.948 39.2281 105.523 38.5107 105.311C37.7934 105.098 36.0216 104.929 35.5159 105.311C35.0101 105.692 32.9837 108.065 32.9837 108.065C32.0152 106.954 31.2829 105.657 30.8317 104.252C30.1143 101.963 27.3311 98.7768 26.4021 98.1324" fill="white"/>
<path d="M24.9962 96.8184C24.9962 96.8184 22.3887 98.8956 22.3456 99.9972C22.3026 101.099 31.1652 109.238 31.8431 109.717C32.521 110.196 33.1522 110.351 33.5324 110.182C33.9126 110.012 36.0646 108.785 36.0646 108.785C36.0646 108.785 38.6793 108.572 38.8479 108.32C39.0164 108.068 38.8909 108.022 38.3852 107.978C37.8795 107.935 37.2446 107.809 37.1191 107.809C36.9936 107.809 36.3587 107.726 36.3587 107.726C36.3587 107.726 39.1886 106.668 39.3572 106.625C39.5257 106.582 40.2861 106.538 40.157 106.243C40.0279 105.948 39.2281 105.523 38.5107 105.311C37.7934 105.098 36.0216 104.929 35.5159 105.311C35.0101 105.692 32.9837 108.065 32.9837 108.065C32.0152 106.954 31.2829 105.657 30.8317 104.252C30.1143 101.963 27.3311 98.7768 26.4021 98.1324" stroke="#263238" stroke-width="0.5" stroke-linecap="round" stroke-linejoin="round"/>
<path d="M36.2332 106.826C36.2332 106.826 37.2877 106.445 38.0481 106.189C38.8084 105.934 39.3967 105.725 39.7768 105.977" stroke="#263238" stroke-width="0.5" stroke-linecap="round" stroke-linejoin="round"/>
<path d="M35.8961 106.02C36.7334 105.669 37.6121 105.427 38.5107 105.3" stroke="#263238" stroke-width="0.5" stroke-linecap="round" stroke-linejoin="round"/>
<path d="M35.6414 105.595C36.0224 105.357 36.4338 105.171 36.8645 105.044" stroke="#263238" stroke-width="0.5" stroke-linecap="round" stroke-linejoin="round"/>
</svg>
