<svg xmlns="http://www.w3.org/2000/svg" width="16" height="16" fill="none"><path stroke="#8D91AB" d="M9.267 12H6.733a.4.4 0 0 1-.4-.4v-1.533a.4.4 0 0 0-.4-.4H4.4a.4.4 0 0 1-.4-.4V6.733a.4.4 0 0 1 .4-.4h1.533a.4.4 0 0 0 .4-.4V4.4a.4.4 0 0 1 .4-.4h2.534a.4.4 0 0 1 .4.4v1.533a.4.4 0 0 0 .4.4H11.6a.4.4 0 0 1 .4.4v2.534a.4.4 0 0 1-.4.4h-1.533a.4.4 0 0 0-.4.4V11.6a.4.4 0 0 1-.4.4Z"/><path stroke="#8D91AB" stroke-linecap="round" stroke-linejoin="round" d="M8 14.667A6.667 6.667 0 1 0 8 1.334a6.667 6.667 0 0 0 0 13.333"/></svg>