<svg width="317" height="117" viewBox="0 0 317 117" fill="none" xmlns="http://www.w3.org/2000/svg">
<rect x="-1.17806" y="0.781874" width="285.842" height="41.3283" rx="5" transform="matrix(-0.980133 -0.198343 -0.197926 0.980217 314.757 56.8734)" fill="#B6A8CD" stroke="white" stroke-width="2"/>
<g filter="url(#filter0_d_1072_2790)">
<rect width="287.832" height="43.8715" rx="6" transform="matrix(-0.997454 -0.0713175 -0.0711622 0.997465 305.221 42.8249)" fill="#FECE27"/>
</g>
<path d="M49.903 44.7027L48.6657 44.6209L48.8476 41.8669C48.899 41.0886 49.5798 40.4922 50.3581 40.5436C50.7772 40.5713 51.1259 40.7547 51.3855 41.0725C51.6846 40.7916 52.0544 40.6557 52.4735 40.6834C53.2518 40.7348 53.8482 41.4156 53.7968 42.1939L53.0665 53.2498C52.9808 54.547 52.3241 55.3855 50.8673 55.2893C49.4105 55.193 48.8698 54.2754 48.9555 52.9782L49.2916 47.8893C49.372 46.672 50.025 46.194 50.9629 46.2559C51.5017 46.2915 51.8864 46.5374 52.2458 46.8618L52.5674 41.9924C52.578 41.8327 52.4475 41.6838 52.2878 41.6733C52.1082 41.6614 51.9593 41.7919 51.9488 41.9515L51.8328 43.7077L50.5955 43.626L50.7115 41.8698C50.722 41.7102 50.5915 41.5612 50.4319 41.5507C50.2523 41.5388 50.1034 41.6693 50.0928 41.8289L49.903 44.7027ZM51.8081 53.4874L52.1574 48.1989C52.1891 47.7199 51.8549 47.317 51.3959 47.2867C50.9369 47.2564 50.5526 47.6118 50.521 48.0908L50.1717 53.3793C50.14 53.8582 50.4742 54.2611 50.9332 54.2914C51.3922 54.3218 51.7765 53.9663 51.8081 53.4874ZM57.3617 41.0063C58.2398 41.0643 59.3962 41.4613 59.2762 43.2774L58.5907 53.6548C58.4708 55.4708 57.2722 55.7123 56.3942 55.6543C55.5161 55.5963 54.3597 55.1993 54.4797 53.3832L54.7117 49.8709L55.949 49.9526L55.7078 53.6046C55.684 53.9639 55.6419 54.6025 56.4601 54.6565C57.2783 54.7106 57.3205 54.072 57.3442 53.7127L58.0481 43.056C58.0719 42.6967 58.114 42.0581 57.2958 42.0041C56.4776 41.95 56.4354 42.5886 56.4117 42.9479L56.2865 44.8437L55.0492 44.762L55.1652 43.0058C55.2851 41.1898 56.4837 40.9483 57.3617 41.0063ZM61.9557 43.1738L61.8028 45.4887L60.5655 45.407L60.6973 43.4113C60.783 42.1142 61.4397 41.2756 62.8966 41.3719C64.3534 41.4681 64.8941 42.3857 64.8084 43.6829L64.1282 53.9805C64.0425 55.2776 63.3858 56.1162 61.929 56.0199C60.4721 55.9237 59.9315 55.0061 60.0171 53.7089L60.3533 48.62C60.4337 47.4026 61.0866 46.9246 62.0246 46.9866C62.5634 47.0222 62.948 47.2681 63.3074 47.5925L63.5922 43.2819C63.6238 42.8029 63.2896 42.4 62.8107 42.3684C62.3118 42.3354 61.9874 42.6948 61.9557 43.1738ZM61.5827 48.8215L61.2333 54.1099C61.2017 54.5889 61.5359 54.9918 61.9949 55.0221C62.4539 55.0524 62.8381 54.697 62.8698 54.218L63.2191 48.9296C63.2508 48.4506 62.9166 48.0477 62.4576 48.0174C61.9986 47.9871 61.6143 48.3425 61.5827 48.8215ZM71.5446 41.9431C72.4426 42.0024 73.3794 42.385 73.2595 44.2011L72.4409 56.5941L71.2036 56.5123L72.0314 43.9796C72.0551 43.6204 72.0973 42.9818 71.2791 42.9278C70.4609 42.8737 70.4187 43.5123 70.395 43.8715L69.9626 50.4173L68.7053 50.3342L69.1377 43.7885C69.1614 43.4293 69.2036 42.7907 68.3854 42.7366C67.5672 42.6826 67.525 43.3212 67.5013 43.6804L66.6734 56.2131L65.4361 56.1313L66.2548 43.7384C66.3747 41.9223 67.3537 41.6663 68.2518 41.7256C68.9902 41.7744 69.3934 42.0415 69.5971 42.2955C69.7276 42.4444 69.7969 42.6094 69.8262 42.7717C69.8767 42.6146 69.9671 42.4603 70.116 42.3298C70.3513 42.1048 70.7663 41.8917 71.5446 41.9431ZM78.7818 44.6059L78.6157 47.1204C78.5432 48.2181 78.1921 48.3753 77.4725 48.6484L77.4699 48.6883C78.1791 48.8755 78.4786 49.1959 78.4167 50.1339L78.1016 54.9035C78.0159 56.2007 77.3592 57.0392 75.9024 56.943C74.4456 56.8467 73.9049 55.9291 73.9906 54.6319L74.2925 50.0619C74.4124 48.2458 75.611 48.0043 76.489 48.0623C76.988 48.0953 77.3349 47.6973 77.3666 47.2183L77.563 44.2448C77.5946 43.7658 77.303 43.3257 76.8041 43.2927C76.3052 43.2598 75.9582 43.6578 75.9266 44.1367L75.7947 46.1324L74.5574 46.0506L74.6708 44.3344C74.7565 43.0372 75.4132 42.1987 76.87 42.2949C78.3268 42.3911 78.8675 43.3088 78.7818 44.6059ZM76.8459 55.1011L77.1741 50.132C77.2058 49.653 76.9141 49.2128 76.4152 49.1799C75.597 49.1258 75.5548 49.7644 75.5311 50.1237L75.2094 54.9931C75.1778 55.472 75.4694 55.9122 75.9683 55.9451C76.4672 55.9781 76.8142 55.5801 76.8459 55.1011ZM81.2303 49.518L81.3041 48.4004L82.0425 48.4492C82.5414 48.4822 82.8884 48.0842 82.92 47.6052L83.1164 44.6317C83.1481 44.1527 82.8565 43.7126 82.3575 43.6796C81.8586 43.6466 81.5116 44.0446 81.48 44.5236L81.3482 46.5192L80.1109 46.4375L80.2243 44.7213C80.3099 43.4241 80.9666 42.5855 82.4235 42.6818C83.8803 42.778 84.421 43.6956 84.3353 44.9928L84.1692 47.5073C84.0967 48.6049 83.7456 48.7621 83.026 49.0353L83.0234 49.0752C83.7326 49.2624 84.0321 49.5828 83.9701 50.5208L83.6551 55.2904C83.5694 56.5875 82.9127 57.4261 81.4559 57.3298C79.999 57.2336 79.4584 56.316 79.544 55.0188L79.7734 51.5464L81.0107 51.6281L80.7629 55.3799C80.7313 55.8589 81.0229 56.2991 81.5218 56.332C82.0207 56.365 82.3677 55.967 82.3993 55.488L82.7276 50.5189C82.7592 50.0399 82.4676 49.5997 81.9687 49.5668L81.2303 49.518ZM87.029 44.9703L86.2012 57.503L84.9639 57.4213L85.7825 45.0283C85.9025 43.2122 87.101 42.9707 87.9791 43.0287C88.8572 43.0867 90.0135 43.4838 89.8936 45.2998L89.0749 57.6928L87.8376 57.6111L88.6655 45.0784C88.6892 44.7192 88.7314 44.0806 87.9132 44.0265C87.095 43.9725 87.0528 44.6111 87.029 44.9703ZM93.5134 43.3943C94.3915 43.4523 95.5479 43.8494 95.4279 45.6654L94.7424 56.0428C94.6225 57.8588 93.4239 58.1004 92.5458 58.0424C91.6678 57.9844 90.5114 57.5873 90.6314 55.7712L90.8634 52.2589L92.1007 52.3406L91.8594 55.9927C91.8357 56.3519 91.7935 56.9905 92.6118 57.0445C93.43 57.0986 93.4722 56.46 93.4959 56.1008L94.1998 45.444C94.2235 45.0848 94.2657 44.4462 93.4475 44.3921C92.6293 44.3381 92.5871 44.9767 92.5634 45.3359L92.4382 47.2318L91.2008 47.15L91.3169 45.3938C91.4368 43.5778 92.6353 43.3363 93.5134 43.3943ZM101.788 49.6132C102.686 49.6725 103.623 50.0551 103.503 51.8712L103.058 58.6165L101.82 58.5347L102.275 51.6497C102.299 51.2905 102.341 50.6519 101.523 50.5979C100.705 50.5438 100.663 51.1824 100.639 51.5416L100.363 55.7126L99.106 55.6295L99.3908 51.3189C99.4224 50.8399 99.0882 50.437 98.6292 50.4067C98.1702 50.3764 97.8072 50.7132 97.757 51.1709L97.2903 58.2355L96.053 58.1538L96.4709 51.8276L96.7807 47.1378C96.8861 45.5412 98.1072 45.2611 98.9654 45.3178L100.602 45.4259C101.42 45.48 101.462 44.8413 101.486 44.4821L101.515 44.0431L102.752 44.1248L102.732 44.4242C102.613 46.2402 101.414 46.4817 100.536 46.4237L98.8995 46.3156C98.0812 46.2616 98.0391 46.9002 98.0153 47.2594L97.8426 49.8737C98.2416 49.5994 98.6552 49.4063 99.194 49.4419C99.7329 49.4774 100.099 49.7021 100.252 50.113C100.491 49.8282 100.91 49.5552 101.788 49.6132ZM110.6 44.5229C111.498 44.5823 112.435 44.9648 112.315 46.7809L111.496 59.1739L110.259 59.0922L111.087 46.5595C111.111 46.2002 111.153 45.5616 110.335 45.5076C109.516 45.4535 109.474 46.0922 109.45 46.4514L108.756 56.9685C108.636 58.7845 107.437 59.026 106.559 58.968C105.681 58.91 104.525 58.5129 104.645 56.6969L105.33 46.3195C105.45 44.5035 106.429 44.2474 107.327 44.3068C108.066 44.3555 108.469 44.6227 108.673 44.8767C108.803 45.0256 108.872 45.1905 108.902 45.3528C108.952 45.1958 109.043 45.0414 109.191 44.9109C109.427 44.686 109.862 44.4742 110.6 44.5229ZM107.509 57.0264L108.213 46.3696C108.237 46.0104 108.279 45.3718 107.461 45.3178C106.643 45.2637 106.6 45.9023 106.577 46.2615L105.873 56.9183C105.849 57.2775 105.807 57.9161 106.625 57.9702C107.443 58.0242 107.486 57.3856 107.509 57.0264ZM119.019 45.079C119.917 45.1384 120.854 45.521 120.734 47.337L120.421 52.0667C120.301 53.8827 119.103 54.1243 118.225 54.0663C117.347 54.0083 116.19 53.6112 116.31 51.7951L116.632 46.9257C116.656 46.5665 116.698 45.9279 115.88 45.8739C115.061 45.8198 115.019 46.4584 114.995 46.8176L114.396 55.8979C114.372 56.2571 114.33 56.8957 115.148 56.9497L116.784 57.0578C117.662 57.1158 118.819 57.5129 118.699 59.329L118.678 59.6483L117.44 59.5665L117.471 59.1075C117.494 58.7483 117.537 58.1097 116.718 58.0557L115.082 57.9476C114.204 57.8896 113.049 57.4725 113.154 55.876L113.749 46.8756C113.869 45.0596 114.848 44.8035 115.746 44.8629C116.484 44.9116 116.888 45.1788 117.091 45.4328C117.222 45.5817 117.291 45.7466 117.32 45.9089C117.371 45.7519 117.461 45.5975 117.61 45.467C117.845 45.2421 118.24 45.0276 119.019 45.079ZM119.175 52.1247L119.506 47.1156C119.529 46.7563 119.572 46.1177 118.753 46.0637C117.935 46.0096 117.893 46.6483 117.869 47.0075L117.538 52.0166C117.515 52.3758 117.472 53.0144 118.291 53.0684C119.109 53.1225 119.151 52.4839 119.175 52.1247ZM123.415 47.3738L122.587 59.9065L121.349 59.8247L122.168 47.4317C122.288 45.6157 123.487 45.3742 124.365 45.4322C125.243 45.4902 126.399 45.8873 126.279 47.7033L125.46 60.0963L124.223 60.0146L125.051 47.4819C125.075 47.1227 125.117 46.484 124.299 46.43C123.481 46.376 123.438 47.0146 123.415 47.3738ZM132.391 50.1515L131.573 50.0974L131.441 52.0931C131.84 51.8188 132.254 51.6256 132.793 51.6612C133.731 51.7232 134.315 52.2829 134.235 53.5003L133.763 60.6447L132.525 60.563L132.989 53.5383C133.021 53.0593 132.687 52.6564 132.228 52.6261C131.769 52.5958 131.385 52.9512 131.353 53.4302L130.889 60.4549L129.652 60.3731L130.47 47.9801C130.59 46.1641 131.789 45.9226 132.667 45.9806C133.545 46.0386 134.7 46.4556 134.585 48.1918C134.469 49.948 133.269 50.2095 132.391 50.1515ZM131.717 47.9222L131.639 49.0996L132.457 49.1537C133.295 49.209 133.328 48.4095 133.353 48.0303C133.38 47.6312 133.419 47.0325 132.601 46.9784C131.783 46.9244 131.741 47.563 131.717 47.9222ZM137.027 53.2037L137.1 52.0861L137.839 52.1349C138.338 52.1678 138.685 51.7698 138.716 51.2909L138.913 48.3173C138.944 47.8384 138.653 47.3982 138.154 47.3653C137.655 47.3323 137.308 47.7303 137.276 48.2093L137.145 50.2049L135.907 50.1232L136.021 48.4069C136.106 47.1097 136.763 46.2712 138.22 46.3674C139.677 46.4637 140.217 47.3813 140.132 48.6785L139.966 51.193C139.893 52.2906 139.542 52.4478 138.822 52.721L138.82 52.7609C139.529 52.948 139.828 53.2685 139.767 54.2064L139.451 58.976C139.366 60.2732 138.709 61.1117 137.252 61.0155C135.795 60.9193 135.255 60.0016 135.34 58.7045L135.57 55.232L136.807 55.3138L136.559 59.0656C136.528 59.5445 136.819 59.9847 137.318 60.0177C137.817 60.0506 138.164 59.6526 138.196 59.1737L138.524 54.2045C138.556 53.7256 138.264 53.2854 137.765 53.2524L137.027 53.2037ZM143.755 46.713C144.634 46.7711 145.79 47.1681 145.67 48.9842L144.984 59.3616C144.865 61.1776 143.666 61.4191 142.788 61.3611C141.91 61.3031 140.753 60.906 140.873 59.09L141.105 55.5777L142.343 55.6594L142.102 59.3114C142.078 59.6706 142.036 60.3093 142.854 60.3633C143.672 60.4173 143.714 59.7787 143.738 59.4195L144.442 48.7627C144.466 48.4035 144.508 47.7649 143.69 47.7109C142.871 47.6568 142.829 48.2954 142.805 48.6547L142.68 50.5505L141.443 50.4688L141.559 48.7126C141.679 46.8966 142.877 46.655 143.755 46.713ZM151.18 48.2057L149.244 48.0778C148.765 48.0462 148.381 48.4016 148.349 48.8806L148.065 53.1912C148.464 52.9169 148.877 52.7237 149.416 52.7593C150.354 52.8213 150.938 53.381 150.858 54.5983L150.522 59.6873C150.436 60.9844 149.78 61.823 148.323 61.7267C146.866 61.6305 146.325 60.7129 146.411 59.4157L147.091 49.1181C147.177 47.821 147.833 46.9824 149.29 47.0787L151.246 47.2078L151.18 48.2057ZM148.851 53.7242C148.392 53.6939 148.008 54.0493 147.976 54.5283L147.627 59.8167C147.595 60.2957 147.93 60.6986 148.389 60.7289C148.848 60.7592 149.232 60.4038 149.264 59.9248L149.613 54.6363C149.645 54.1574 149.31 53.7545 148.851 53.7242ZM155.282 53.2671L156.52 53.3488L156.074 60.0941C155.954 61.9101 154.756 62.1517 153.877 62.0937C152.999 62.0357 151.843 61.6386 151.963 59.8225L152.782 47.4295L154.019 47.5113L153.191 60.044C153.167 60.4032 153.125 61.0418 153.943 61.0958C154.762 61.1499 154.804 60.5113 154.828 60.1521L155.282 53.2671Z" fill="black"/>
<g clip-path="url(#clip0_1072_2790)">
<path d="M186.907 50.9086C186.822 50.3641 186.62 49.8593 186.32 49.4447C186.021 49.0301 185.634 48.7201 185.199 48.5456C183.607 47.9024 177.058 47.4697 177.058 47.4697C177.058 47.4697 170.507 47.0534 168.845 47.4816C168.391 47.5975 167.967 47.8539 167.615 48.2255C167.263 48.5971 166.996 49.0708 166.84 49.5995C166.117 53.0577 165.574 58.3637 166.049 61.7606C166.134 62.3052 166.336 62.8099 166.635 63.2245C166.935 63.6391 167.321 63.9491 167.756 64.1237C169.348 64.7669 175.898 65.1995 175.898 65.1995C175.898 65.1995 182.447 65.6321 184.11 65.2039C184.564 65.0881 184.988 64.8316 185.34 64.46C185.691 64.0884 185.958 63.6147 186.114 63.0861C186.865 59.6248 187.377 54.32 186.907 50.9088" fill="#FF0000"/>
<path d="M174.135 59.9956L179.82 56.5555L174.638 52.3974L174.135 59.9956Z" fill="white"/>
<path d="M229.247 56.0863C229.96 56.1334 230.487 56.3312 230.843 56.6645C231.199 56.998 231.436 57.5027 231.554 58.1791C231.671 58.8554 231.678 59.7689 231.6 60.9379L231.475 62.8375L228.018 62.6092L227.98 63.1936L227.927 64.8045C227.944 65.1643 227.994 65.4286 228.091 65.5979C228.188 65.7675 228.357 65.8601 228.586 65.8753C228.895 65.8957 229.12 65.7639 229.247 65.4788C229.387 65.1945 229.473 64.7109 229.531 64.0462L231.311 64.2943C231.318 64.3925 231.309 64.5224 231.298 64.6847C231.231 65.7075 230.951 66.4556 230.447 66.9277C229.943 67.3998 229.281 67.617 228.433 67.561C227.411 67.4935 226.724 67.0569 226.371 66.2672C226.019 65.4774 225.883 64.2617 225.989 62.6545L226.119 60.69C226.348 57.9331 226.884 55.9383 229.247 56.0863ZM204.367 54.6548L203.828 62.7887C203.796 63.2758 203.813 63.6356 203.893 63.8529C204.054 64.3168 204.557 64.2342 204.84 64.0296C205.004 63.9132 205.141 63.748 205.237 63.5504L205.819 54.7506L207.877 54.8865L207.143 65.9752L205.529 65.8686L205.444 64.4933L205.404 64.4906C204.893 65.4841 204.199 65.9601 203.325 65.9023C201.98 65.8094 201.728 64.6175 201.729 63.4238L201.729 63.3397C201.731 63.159 201.737 62.9784 201.748 62.7979L202.296 54.518L204.367 54.6548ZM214.978 55.3557L214.439 63.4896C214.407 63.9767 214.424 64.3365 214.504 64.5538C214.665 65.0178 215.168 64.9351 215.451 64.7305C215.615 64.6141 215.752 64.4489 215.848 64.2513L216.43 55.4515L218.488 55.5874L217.754 66.6761L216.14 66.5695L216.055 65.1942L216.015 65.1915C215.504 66.1851 214.81 66.661 213.936 66.6032C212.591 66.5103 212.339 65.3184 212.339 64.1247L212.34 64.0406C212.342 63.8599 212.348 63.6793 212.359 63.4988L212.907 55.2189L214.978 55.3557ZM198.41 54.0493C199.082 54.0938 199.623 54.2924 200.004 54.66C200.385 55.0276 200.659 55.5677 200.8 56.2944C200.941 57.0212 200.972 57.9852 200.894 59.1705L200.787 60.7776C200.709 61.9629 200.552 62.8984 200.317 63.6002C200.081 64.3023 199.751 64.8022 199.311 65.1156C198.873 65.4128 198.296 65.554 197.597 65.5078C196.87 65.4761 196.317 65.2602 195.921 64.908C195.527 64.5395 195.265 64.0004 195.138 63.2746C195.01 62.5486 194.992 61.6016 195.071 60.4165L195.177 58.809C195.255 57.6238 195.414 56.6559 195.663 55.9549C195.913 55.2377 196.257 54.7385 196.709 54.4424C197.161 54.146 197.724 54.0039 198.41 54.0492M222.024 51.1412L221.637 56.9859L221.651 56.9868C221.867 56.5771 222.131 56.2522 222.485 56.0146C222.816 55.7804 223.195 55.6692 223.573 55.6952C224.071 55.7281 224.437 55.9152 224.699 56.2423C224.959 56.5858 225.128 57.1023 225.203 57.8084C225.275 58.4925 225.28 59.4323 225.206 60.6121L225.198 60.7271L225.082 62.4804C224.974 64.1201 224.718 65.3263 224.344 66.0843C223.956 66.8414 223.419 67.1973 222.72 67.1511C222.33 67.1254 221.988 66.9886 221.679 66.7563C221.407 66.5366 221.189 66.2331 221.048 65.8761L221.025 65.8161L220.985 65.8134L220.7 66.8546L218.992 66.7417L220.034 51.0099L222.024 51.1412ZM213.756 51.1658L213.623 53.1788L211.578 53.0437L210.707 66.2106L208.689 66.0774L209.561 52.9107L207.504 52.7747L207.637 50.7617L213.756 51.1658ZM191.579 49.7009L191.58 49.7072C191.593 49.8139 191.768 51.2912 191.954 53.0112L191.969 53.1474L191.991 53.3534L192.006 53.4917L192.014 53.5611L192.028 53.7001L192.036 53.7698L192.05 53.9093L192.072 54.1134C192.196 55.3041 192.31 56.4976 192.369 57.3518L192.423 57.3554C192.584 56.6032 192.809 55.6419 193.046 54.6609L193.108 54.4047C193.139 54.2764 193.17 54.1481 193.201 54.0202L193.25 53.8217C193.569 52.522 193.895 51.2246 194.228 49.9295L194.234 49.9089L194.242 49.8768L196.3 50.0127L193.241 60.1L192.915 65.0192L190.885 64.8851L191.209 59.982L191.196 59.9811L189.522 49.5648L191.579 49.7009ZM198.255 55.7675C197.973 55.7488 197.773 55.9151 197.627 56.2805C197.481 56.6458 197.39 57.2105 197.337 58.0062L197.108 61.4643C197.055 62.2761 197.069 62.8802 197.153 63.2447C197.236 63.6088 197.426 63.8008 197.722 63.8204C198.005 63.839 198.218 63.6737 198.363 63.3246C198.508 62.9753 198.601 62.3782 198.655 61.5664L198.884 58.1082C198.937 57.3127 198.921 56.7246 198.824 56.3594C198.728 55.9781 198.538 55.7861 198.255 55.7675ZM221.957 57.6594C221.781 57.8313 221.65 58.0488 221.562 58.3259L221.545 58.3822L221.128 64.6814C221.272 65.0334 221.493 65.2763 221.909 65.3201C222.124 65.3343 222.306 65.2485 222.453 65.0626C222.6 64.8767 222.716 64.558 222.8 64.107C222.881 63.6741 222.947 63.0748 223 62.3095L223.102 60.7679C223.16 59.8913 223.177 59.2239 223.168 58.7503C223.145 58.2759 223.101 57.9306 222.993 57.7278C222.786 57.3064 222.28 57.2779 221.957 57.6594ZM229.096 57.7559C228.867 57.757 228.7 57.8275 228.596 57.9674C228.478 58.1226 228.394 58.3617 228.33 58.7162C228.268 59.0636 228.173 60.2858 228.169 60.3347L228.116 61.1318L229.623 61.2313L229.669 60.5284L229.668 60.5418C229.651 60.7875 229.672 60.3989 229.695 59.9215L229.698 59.8574C229.717 59.4378 229.736 58.9699 229.729 58.8086C229.713 58.4325 229.663 58.1683 229.565 58.0151C229.467 57.8619 229.311 57.7701 229.096 57.7559" fill="#222222"/>
</g>
<path d="M243.05 53.9335C244.307 54.0165 244.885 54.676 244.802 55.9333L244.143 65.9115C244.023 67.7276 242.824 67.9691 241.946 67.9111C241.068 67.8531 239.912 67.456 240.032 65.64L240.262 62.1476L241.5 62.2293L241.26 65.8614C241.236 66.2206 241.194 66.8592 242.012 66.9133C242.83 66.9673 242.872 66.3287 242.896 65.9695L243.579 55.632C243.605 55.2329 243.403 54.959 242.984 54.9313C242.385 54.8917 241.309 54.4999 241.392 53.2427L242.449 53.3125C242.43 53.6119 242.491 53.8966 243.05 53.9335ZM251.188 59.4819C252.086 59.5413 253.023 59.9238 252.903 61.7399L252.458 68.4852L251.22 68.4035L251.675 61.5185C251.699 61.1592 251.741 60.5206 250.923 60.4666C250.105 60.4125 250.062 61.0511 250.039 61.4104L249.763 65.5813L248.506 65.4982L248.791 61.1876C248.822 60.7087 248.488 60.3058 248.029 60.2754C247.57 60.2451 247.207 60.5819 247.157 61.0396L246.69 68.1042L245.453 68.0225L245.871 61.6963L246.181 57.0065C246.286 55.41 247.507 55.1298 248.365 55.1865L250.002 55.2946C250.82 55.3487 250.862 54.7101 250.886 54.3509L250.915 53.9118L252.152 53.9935L252.132 54.2929C252.012 56.1089 250.814 56.3505 249.936 56.2925L248.299 56.1844C247.481 56.1303 247.439 56.7689 247.415 57.1281L247.243 59.7424C247.641 59.4681 248.055 59.275 248.594 59.3106C249.133 59.3462 249.499 59.5708 249.652 59.9818C249.891 59.6969 250.31 59.4239 251.188 59.4819ZM254.823 54.17L256.061 54.2517L255.661 60.2985C256.06 60.0242 256.474 59.8311 257.013 59.8667C257.951 59.9286 258.535 60.4884 258.455 61.7057L258.118 66.7946C258.033 68.0918 257.376 68.9303 255.919 68.8341C254.462 68.7379 253.922 67.8202 254.007 66.5231L254.823 54.17ZM255.573 61.6356L255.224 66.9241C255.192 67.4031 255.526 67.806 255.985 67.8363C256.444 67.8666 256.828 67.5112 256.86 67.0322L257.209 61.7437C257.241 61.2648 256.907 60.8619 256.448 60.8315C255.989 60.8012 255.605 61.1567 255.573 61.6356ZM264.661 62.1157L264.323 67.2445C264.203 69.0606 263.004 69.3021 262.126 69.2441C261.248 69.1861 260.092 68.789 260.211 66.973L260.74 58.9704C260.341 59.2447 259.928 59.4379 259.389 59.4023C258.451 59.3403 257.866 58.7806 257.947 57.5632L258.023 56.4058C258.143 54.5897 259.342 54.3482 260.22 54.4062C261.098 54.4642 262.254 54.8613 262.134 56.6773L261.868 60.7085C262.267 60.4342 262.681 60.2411 263.219 60.2767C264.157 60.3386 264.742 60.8984 264.661 62.1157ZM260.831 57.5934L260.906 56.4559C260.93 56.0967 260.972 55.4581 260.154 55.404C259.336 55.35 259.293 55.9886 259.27 56.3478L259.191 57.5452L259.192 57.5252C259.16 58.0042 259.495 58.4071 259.954 58.4374C260.413 58.4677 260.797 58.1123 260.828 57.6333L260.831 57.5934ZM263.076 67.3025L263.416 62.1537C263.448 61.6748 263.114 61.2719 262.655 61.2415C262.196 61.2112 261.811 61.5667 261.78 62.0456L261.44 67.1944C261.416 67.5536 261.374 68.1922 262.192 68.2463C263.01 68.3003 263.052 67.6617 263.076 67.3025ZM268.619 54.961C269.497 55.019 270.653 55.4161 270.533 57.2321L269.848 67.6095C269.728 69.4256 268.53 69.6671 267.651 69.6091C266.773 69.5511 265.617 69.154 265.737 67.338L265.969 63.8256L267.206 63.9073L266.965 67.5594C266.941 67.9186 266.899 68.5572 267.717 68.6113C268.536 68.6653 268.578 68.0267 268.601 67.6675L269.305 57.0107C269.329 56.6515 269.371 56.0129 268.553 55.9588C267.735 55.9048 267.693 56.5434 267.669 56.9026L267.544 58.7985L266.306 58.7167L266.422 56.9606C266.542 55.1445 267.741 54.903 268.619 54.961Z" fill="black"/>
<defs>
<filter id="filter0_d_1072_2790" x="-15" y="12.2975" width="330.221" height="104.288" filterUnits="userSpaceOnUse" color-interpolation-filters="sRGB">
<feFlood flood-opacity="0" result="BackgroundImageFix"/>
<feColorMatrix in="SourceAlpha" type="matrix" values="0 0 0 0 0 0 0 0 0 0 0 0 0 0 0 0 0 0 127 0" result="hardAlpha"/>
<feOffset dx="-10" dy="10"/>
<feGaussianBlur stdDeviation="10"/>
<feComposite in2="hardAlpha" operator="out"/>
<feColorMatrix type="matrix" values="0 0 0 0 0 0 0 0 0 0 0 0 0 0 0 0 0 0 0.2 0"/>
<feBlend mode="normal" in2="BackgroundImageFix" result="effect1_dropShadow_1072_2790"/>
<feBlend mode="normal" in="SourceGraphic" in2="effect1_dropShadow_1072_2790" result="shape"/>
</filter>
<clipPath id="clip0_1072_2790">
<rect width="65.8125" height="18" fill="white" transform="matrix(0.997825 0.0659119 -0.0660673 0.997815 166.583 46.7778)"/>
</clipPath>
</defs>
</svg>
