<svg xmlns="http://www.w3.org/2000/svg" width="20" height="20" fill="none"><path stroke="#8D91AB" stroke-linecap="round" stroke-linejoin="round" d="M10.406 3.036a3.703 3.703 0 0 0 .727 6.146c1.494.75 2.065-.26 2.874.285.526.353.664 1.066.311 1.591-.37.55-.95.829-.85 1.73.057.509.369.946.774 1.32M3.74 7.651c.83.2 1.564.684 2.078 1.367.549.725.81 1.628.734 2.535-.038.464.264.932.653 1.188a2.008 2.008 0 0 1 .237 3.174"/><path stroke="#8D91AB" stroke-linecap="round" stroke-linejoin="round" d="M9.665 16.33a6.665 6.665 0 1 0 0-13.33 6.665 6.665 0 0 0 0 13.33"/></svg>