<svg xmlns="http://www.w3.org/2000/svg" xmlns:xlink="http://www.w3.org/1999/xlink" width="4096" height="4096"><desc>Color #ad88c6. An image with only the hex colour #ad88c6</desc><style>.x{font:20px verdana;fill:#fff;stroke:#555;stroke-width:20px;opacity:.35}.o{stroke:none;opacity:.01}</style><path fill="#ad88c6" d="M0 0h4096v4096H0z"/><path d="M5 5h2v1H6v1h1v1H5zM4 3h4v1h1v5H8v1H4V9H3V4h1v5h4V4H4zm7 1h1v2h1V4h1v2h-1v1h1v2h-1V7h-1v2h-1V7h1V6h-1zm4 0h5v5h-1V5h-1v4h-1V5h-1v4h-1zm6 0h3l-1 1h-1v3h1V5l1-1v5h-2v2h-1zm4-2h1v6h1v1h-2zm3 2h3l-1 1h-1v1h1V5l1-1v3h-2v1h2v1h-3zm4 4h1v1h-1zm2-4h3v1h-2v3h2v1h-3zm4 0h3v5h-3l1-1h1V5h-1v3l-1 1zm4 0h5v5h-1V5h-1v4h-1V5h-1v4h-1z" class="x o"/><text x="4" y="4090" class="x o">xmple.com</text><a xlink:href="https://xmple.com"><text x="4086" y="22" class="x o" text-anchor="end">xmple.com</text></a><a xlink:href="https://xmple.com"><path id="a" d="M937 367 751 144c-5-5-7-12-7-20s3-16 9-21c6-6 13-9 22-9q12 0 21 9l181 216 180-216c7-6 14-9 22-9 9 0 16 3 22 9s9 13 9 22c0 8-3 15-7 20l-187 223 188 225c4 6 6 12 6 19 0 9-3 16-9 22s-13 9-22 9c-8 0-15-3-20-9L977 417 795 634c-5 6-12 9-20 9-9 0-16-3-22-9q-9-9-9-21 0-10.5 6-18zm412 244c0 9-3 16-9 22s-13 9-22 9q-12 0-21-9t-9-21V126c0-8 3-16 9-21q9-9 21-9c9 0 16 3 22 9s9 13 9 22v33c49-42 100-63 152-63q87 0 150 63c10 10 21 23 32 38 11-15 22-28 32-38 42-42 92-62 150-62 59 0 109 21 151 63 41 41 62 92 62 150v304c0 9-3 16-9 22s-13 9-22 9q-12 0-21-9t-9-21V312c0-42-15-78-45-107-30-30-65-45-107-45-41 0-77 15-107 45s-45 65-45 107v304c0 9-3 16-9 22q-9 9-21 9c-9 0-16-3-22-9q-9-9-9-21V313c0-42-14-78-44-107-30-30-66-45-107-45q-63 0-108 45c-29 30-44 65-44 107zm861-243q0 88.5 63 150 61.5 63 150 63c59 0 109-21 150-62 42-41 62-91 62-150s-20-109-62-150c-41-42-91-62-150-62q-88.5 0-150 63-63 63-63 150zm0 478c0 9-3 16-9 22-6 5-13 8-21 8-9 0-16-3-22-8-6-6-8-13-8-22V369c0-75 26-140 80-193 53-53 117-80 193-80 75 0 140 27 193 80 54 53 80 118 80 193 0 76-26 140-80 193-53 53-118 80-193 80-76 0-140-27-193-80l-20-19zm568-956c0-8 3-16 9-21q9-9 21-9c9 0 16 3 22 9q9 9 9 21v691h50c9 0 16 3 22 9s9 13 9 22-3 16-9 22-13 9-22 9h-81q-12 0-21-9t-9-21zm716 448c-9-48-30-89-61-120-42-42-92-62-151-62q-87 0-150 63c-31 31-52 71-62 120zm-56 186c9 0 16 3 22 9 5 6 8 13 8 22 0 8-2 15-7 21-51 44-111 66-179 66-75 0-140-27-193-80s-80-118-80-193 27-140 80-193 118-80 193-80c76 0 140 27 194 80 53 53 80 118 80 193 0 9-3 16-9 22s-13 9-22 9h-455c10 49 31 89 62 120q63 63 150 63c27 0 52-4 75-13 22-9 43-21 62-37 6-4 12-7 19-7zm307 67q0 21-15 36-13.5 15-36 15-21 0-36-15c-9-10-14-22-14-36s5-26 14-36q15-15 36-15 22.5 0 36 15 15 13.5 15 36zm515-68q12 0 21 9c6 6 9 13 9 22s-3 16-9 22c-25 21-52 37-83 49-30 11-62 17-95 17-76 0-140-27-194-80-53-53-80-118-80-193s27-140 80-193c54-53 118-80 194-80 33 0 65 6 96 17 30 11 57 28 82 49 3 3 5 7 7 11 3 4 4 9 4 13 0 8-3 16-9 21-6 6-13 9-22 9-7 0-14-2-19-7-40-35-86-52-139-52-59 0-109 21-151 63-41 41-62 91-62 150s21 109 62 150c42 42 92 63 151 63 25 0 50-5 74-14s46-22 65-38q7.5-6 18-6zm663-155c0 76-27 140-80 193-54 53-118 80-193 80-76 0-140-27-194-80-53-53-80-118-80-193s27-140 80-193c54-53 118-80 194-80 75 0 139 27 193 80 53 53 80 118 80 193zm-273-213c-59 0-109 21-151 63s-62 92-62 150c0 59 20 109 62 150 42 42 92 63 151 63 58 0 108-21 150-62 41-41 62-91 62-150s-21-109-62-150c-42-42-92-62-150-62zm410 456c0 9-3 16-9 22s-13 9-22 9q-12 0-21-9t-9-21V126c0-8 3-16 9-21q9-9 21-9c9 0 16 3 22 9s9 13 9 22v33c49-42 100-63 152-63q87 0 150 63c10 10 21 23 32 38 11-15 21-28 32-38 42-42 92-62 150-62 59 0 109 21 151 63 41 41 62 92 62 150v304c0 9-3 16-9 22s-13 9-22 9q-12 0-21-9t-9-21V312c0-42-15-78-45-107-30-30-65-45-107-45-41 0-77 15-107 45s-45 65-45 107v304c0 9-3 16-9 22q-9 9-21 9c-9 0-16-3-22-9q-9-9-9-21V313c0-42-14-78-44-107-30-30-66-45-107-45q-63 0-108 45c-30 30-44 65-44 107z" class="x" transform="matrix(.1156 0 0 .1156 3390 3986)"/></a></svg>