<svg xmlns="http://www.w3.org/2000/svg" width="20" height="20" fill="none"><path fill="#8D91AB" d="M17.848 15.441H15.33v-2.073h1.925a.445.445 0 0 0 .431-.553l-2.37-9.479a.444.444 0 0 0-.861 0l-2.37 9.48a.444.444 0 0 0 .43.552h1.926v2.073H9.405v-1.48h.741a.444.444 0 1 0 0-.89h-.74v-1.48h.74a.444.444 0 1 0 0-.89H3.629a.444.444 0 1 0 0 .89h.74v1.48h-.74a.444.444 0 1 0 0 .89h.74v1.48H2.445a.445.445 0 0 0 0 .889h15.404a.445.445 0 0 0 0-.889M14.886 5.277l1.8 7.202h-3.601zM5.258 11.59h3.259v1.48H5.258zm0 2.37h3.259v1.48H5.258zm4-5.925a1.925 1.925 0 1 0 0-3.85 1.925 1.925 0 0 0 0 3.85m0-2.962a1.037 1.037 0 1 1 0 2.073 1.037 1.037 0 0 1 0-2.073"/></svg>