<svg xmlns="http://www.w3.org/2000/svg" width="20" height="20" fill="none"><path fill="#8D91AB" d="M13.354 8.894a.45.45 0 0 0 .146-.33.45.45 0 0 0-.146-.33.52.52 0 0 0-.354-.136.52.52 0 0 0-.354.137L9 11.637 7.354 10.1A.5.5 0 0 0 7 9.963a.53.53 0 0 0-.354.137.47.47 0 0 0-.147.33.44.44 0 0 0 .147.331l2 1.867a.5.5 0 0 0 .354.137.53.53 0 0 0 .354-.137zM11.003 2.86a1.56 1.56 0 0 0-1.002-.359c-.37 0-.728.128-1.003.359l-5.5 4.613a1.4 1.4 0 0 0-.368.471c-.086.18-.13.374-.13.57V15.1c0 .371.158.727.44.99.28.262.662.41 1.06.41h11c.398 0 .78-.148 1.06-.41.282-.263.44-.619.44-.99V8.514c0-.197-.044-.391-.13-.57a1.4 1.4 0 0 0-.367-.472zm-1.337.694a.52.52 0 0 1 .334-.12.52.52 0 0 1 .334.12l5.5 4.613a.5.5 0 0 1 .123.157.44.44 0 0 1 .043.19V15.1a.45.45 0 0 1-.146.33.52.52 0 0 1-.354.137h-11a.52.52 0 0 1-.354-.137A.45.45 0 0 1 4 15.1V8.514a.44.44 0 0 1 .043-.19.5.5 0 0 1 .123-.158z"/></svg>