<svg xmlns="http://www.w3.org/2000/svg" width="20" height="20" fill="none"><path stroke="#8D91AB" stroke-miterlimit="10" d="M16.045 13.191c-.229-.212-.566-.264-.854-.312-.4-.066-.552-.14-.785-.348-.496-.44-.496-1.08 0-1.52l1.053-.935c1.61-1.423 1.61-3.757 0-5.18-1.188-1.045-2.782-1.563-4.438-1.563A8.4 8.4 0 0 0 5.508 5.42c-2.9 2.563-2.9 6.76 0 9.323 1.44 1.274 3.385 1.91 5.308 1.924h.06c1.923 0 3.819-.622 5.166-1.82.5-.44.416-1.27.003-1.656Z"/><path fill="#8D91AB" d="M6 12a1 1 0 1 0 0-2 1 1 0 0 0 0 2m.833-3.333a1 1 0 1 0 0-2 1 1 0 0 0 0 2m3.834 6a1.5 1.5 0 1 0 0-3 1.5 1.5 0 0 0 0 3M10.167 7a1 1 0 1 0 0-2 1 1 0 0 0 0 2"/></svg>