<svg xmlns="http://www.w3.org/2000/svg" width="21" height="20" fill="none"><path fill="#474F7A" fill-rule="evenodd" d="M10.5 3c.684 0 1.386.018 2.066.047l.803.04.769.045.72.05.657.052a3.02 3.02 0 0 1 1.897.873c.51.51.83 1.185.898 1.908l.032.346.06.739c.056.766.098 1.601.098 2.4s-.042 1.634-.098 2.4l-.06.74q-.015.177-.032.345a3.1 3.1 0 0 1-.899 1.908 3.02 3.02 0 0 1-1.897.873l-.656.051-.72.05-.77.047-.802.039q-1.033.045-2.066.047a49 49 0 0 1-2.066-.047l-.803-.04-.769-.045-.72-.05-.657-.052a3.02 3.02 0 0 1-1.897-.873 3.1 3.1 0 0 1-.898-1.908l-.032-.345-.06-.74A34 34 0 0 1 2.5 9.5c0-.799.042-1.634.098-2.4l.06-.74q.014-.177.032-.345c.069-.723.387-1.399.898-1.907a3.02 3.02 0 0 1 1.896-.874l.657-.052.72-.05.77-.046.803-.039Q9.466 3.002 10.5 3M8.9 7.53v3.94c0 .376.4.61.72.423l3.36-1.97a.48.48 0 0 0 .24-.423.5.5 0 0 0-.24-.422l-3.36-1.97a.474.474 0 0 0-.656.179.5.5 0 0 0-.064.244z" clip-rule="evenodd"/></svg>