<svg xmlns="http://www.w3.org/2000/svg" width="1280" height="1280" viewBox="0 0 2048 675"><path fill="#FDCB2E" d="M1862 4h9l8 4 5 6 4 12 21 104 4 22 19-2 27-2h18l7 3 5 5 4 8 2 20 15 210 1 13v11l-3 7-5 6-7 3-25 3-151 11-1051 75-51 4-30 5-68 14-447 90-65 13H93l-8-6-5-12-4-18-16-78-27-135-1-6v-8l3-6 4-5 8-4 26-6 34-7h3l-3-42v-21l3-6 7-7 5-2 19-2 557-40 39-7 97-20 317-64 282-57 193-39 174-35 55-11z"/><path fill="#B3A7CA" d="M1862 4h9l8 4 5 6 4 12 21 104 4 21-24 3-36 3-154 11-377 27-170 12-300 21-47 3-10 1-40 2-17 1h-17v-1l237-48 193-39 282-57 193-39 174-35 55-11z"/><path fill="#A196B2" d="M107 358h3l2 7 4 65 4 54 3 42 2 22 3 9 3 4v2l11 3h20l43-3 20-2 22-1 19-2 34-2 22-2 72-5 22-2 31-2 25-2 21-1 20-2 38-2 58-4 38-3 27-2h9l10 1v1l-73 15-447 90-65 13H93l-8-6-5-12-4-18-16-78-27-135-1-6v-8l3-6 4-5 8-4 26-6z"/><path fill="#C6BAD8" d="M1862 4h9l8 4 5 6 4 12 21 104 4 21-24 3-36 3-154 11-377 27-170 12-300 21-47 3-10 1-40 2-17 1h-17v-1l237-48 193-39 282-57 193-39 174-35 55-11zm-5 13-12 2-9 1-5 1-6 2-7 1v2l-2-1h-9l-7 2-12 2-11 3-12 2-15 3-17 4-19 3-3 1v2l-3-1-12 2-13 2-11 3-8 1-7 2-10 1-11 3-8 1-6 2-14 2-5 2-7 1-2 1-8 1-11 2-6 2-16 3-18 4-14 2-20 4-9 2-9 1-13 3-14 3-20 4-6 1-10 2-12 3-7 1-45 9-11 2-5 2-15 2-12 3-23 5-2 1-15 2-11 3-5 1-14 3-12 2-2 2-2-1-33 6-9 2-21 4-13 2-12 3-24 5-12 2-12 3-37 7-12 3-13 2-5 2-8 1-9 2-15 2-1 1-25 4-20 4-8 2-31 5-8 2-19 3-24 5-31 6-5 2-15 2-5 2-8 1-4 3 14-1 76-5 63-5 32-2 66-5 154-11 168-12 199-14 156-11 59-4 37-3 71-5 23-2-3-10-4-14-2-11-1-3-1-12-3-12-1-9h-2l-2-15-3-8-3-16h-2l-1-10-5-8-10-5z"/><path fill="#FE120F" d="M1198 290h45l5 3 5 6 5 16 3 24 1 26-1 15-4 11-6 5-12 3-24 3-23 2-20 1h-17l-10-2-6-4-4-5-4-13-4-34v-27l2-12 4-6 5-4 11-3 23-3z"/><path fill="#FCFBFC" d="M1862 4h9l8 4 5 6 4 12 21 104 3 15v5l-4-2-4-9-3-16-8-37-7-35-3-14-4-20-3-5-4-2h-10l-27 5-47 10-31 6-58 12-31 6-44 9-85 17-26 5-32 7-26 5-28 6-30 6-86 17-24 5-174 35-124 25-98 21-63 12-26 4-22 5-9 1-3 3-13 2-17 1h-17v-1l237-48 193-39 282-57 193-39 174-35 55-11z"/><path fill="#FBFAFB" d="M107 358h3l2 7v17h-1l-1-16-1-2h-6l-7 3-12 3-18 3-19 5-5 3-2 3v10l4 24 14 69 6 27 6 31 8 39 5 26 4 17 4 11 1 4h9l30-5 89-18 62-12 28-6 77-15 25-5 13-2 2-1h7v-2h7l13-4 11-2 74-15 10-2h5v-2l13-3 12-2 17-4 18-3 12-3 7-2h5v-2l36-3h9l10 1v1l-73 15-447 90-65 13H93l-8-6-5-12-4-18-16-78-27-135-1-6v-8l3-6 4-5 8-4 26-6z"/><path fill="#FDCB2E" d="M549 342h12l6 7 2 6 1 13v14l-5 2 1 2 5 3 2 21 1 25-4 7-5 3h-12l-6-5-3-10v-14h-2v11l-2 6-1 4-2 1-3 5-10 5h-8l-7-3-3-5-2-14-2-30 5-8 8-3 6-2v-11l-2-20h-8l-2 6v15h-8l-1-4v-16l6-7 7-2 9 1 5 5 1 3 3-2 6 1 1 2 1 10v-12l3-6z"/><path fill="#B4A8CB" d="M103 363h6v2l-18 5-14 5-6 3-3 1-3 10-3 9-2 14v26l3 15v14l1 2 2 17 2 11v9l2 6v14l3 7v17h2l1 6 1 10 3 6-1 5 2 5 3 4 1 9 5 5 3 4v2l7 2 6 3 6 2 18 3h24l17 3 7 1 15-1 8-1 4 1 5-1 19-3 15-3 2-1 9-1 9-2 12-2 19-4 17-3 115-23 71-14h6v1l-39 8-16 3-9 3-6-1v2l-26 5-16 3-20 4-67 13-48 10-52 10-90 18-14 2-9-1-4-8-4-17-2-7-6-32-9-42-6-31-8-37-11-55-3-19v-10l4-5 8-3 25-6 16-3 10-3z"/><path fill="#FDCB2E" d="m988 310 10 1 5 6 2 10 5 65v12l-4 7-6 3h-11l-6-5-2-5-2-10-2 8-4 5h-2l-4 6-4 3-3 1h-10l-5-3-3-5-2-18v-13h8l1 1 2 27 2 3h8v-15l-2-25v-6l-11-1-1-1v-5l10-5v-11l-2-18-1-1h-6l-2 1v19l-7 1-2-2-1-5v-12l4-6 4-3 4-1h7l6 3 3 5 1 4 2-1 3 1v3l4 2 1 5v-11l2-8 5-4z"/><path fill="#1C1824" d="m753 327 9 1 3 3 3 14 6 78v6l-9 1-1-3-5-73-1-14-1-5h-7l-2 1v18l4 52v18l-4 6-9 3-10-2-5-6-2-12-4-64v-12l4-6 5-2h9l6 4 6-5z"/><path fill="#1B1825" d="M810 323h9l5 3 3 8 3 32v10l-3 6-6 4-10 1-6-3-3-4-2-7-3-38-2-3h-6l-2 1v12l3 39 2 23 1 2h20l6 2 4 6 2 5-1 4h-8l-2-9h-23l-5-2-3-5-2-14-3-46v-19l7-6 9-1 7 4h2l3-4z"/><path fill="#161725" d="m1470 275 5 1 3 33 7-6 2-1h7l5 6 2 5 3 24v25l-3 8-4 4-7 1-7-4-3-2v5l-6 2-5-1-2-19-2-35-2-29v-15z"/><path fill="#1B1824" d="m1717 258 9 1 5 4 3 10 1 14v13l6-3h9l5 3 2 9 3 32v8l-4 8-5 3-8 1-7-2-5-6-2-18-3-44-7 3h-7l-5-4-2-7-1-14 3-6 5-4z"/><path fill="#E1E0E1" d="M674 529h9l10 1v1l-73 15-269 54-63 13-6-1v-1h-10v-2l38-8 77-15 25-5 13-2 2-1h7v-2h7l13-4 11-2 74-15 10-2h5v-2l13-3 12-2 17-4 18-3 12-3 7-2h5v-2z"/><path fill="#1B1825" d="M337 357h8l5 5 2 14 4 54v22l-4 6-7 3h-8l-5-3-3-4-2-7-2-25v-19l5-5h11l3 1-3-35h-2l-1 14-1 1h-6l-1-1-2-12-4-1 1 14 1 7-4 2-5-1-1-2v-20l3-5 4-2h7l3 2z"/><path fill="#181725" d="M474 347h7l5 3 3 6 2 15 5 68v9l-3 2h-5l-1-1-5-66-2-29-10 2v11l3 34v7l-7 1-3-1-3-46-1-6h-7l-2 1v18l5 70v6l-1 1h-8l-6-81v-14l3-5 5-3h11l5 4 6-5z"/><path fill="#1B1824" d="M409 352h13l6 5 2 8 5 66v15l-4 6-5 3h-11l-5-3-3-4-2-11-2-28v-11l7-6h9l4 2-3-35h-8l-2 1v21l-1 1h-7l-1-2v-21l5-5z"/><path fill="#2B1C22" d="M1325 314h11l6 3 3 3 4 14 2 18v17l-3 10-7 6-4 1h-10l-6-4-4-6-3-12-1-11v-25l3-8 6-5z"/><path fill="#1B1825" d="m513 344 9 1 5 5 2 6 1 9v19l-4 3v2l5 3 2 15 1 13v19l-4 6-6 3h-8l-7-3-3-5-2-14-2-30 5-8 8-3 6-2v-11l-2-20h-8l-2 6v15h-8l-1-4v-16l6-7z"/><path fill="#1C1824" d="M1033 307h9v6l-17 3-1 1 1 34 6-3 8-1 4 1 3 8 3 29v17l-3 5-6 4-8 1-7-3-4-5-2-16-5-67 3-9 4-3z"/><path fill="#1A1825" d="M691 332h6l1 6-3 8-5 3-20 3h-3l2 24 7-3h7l3 3 3-3 2-1h12l5 5 2 5 3 32 1 19-9 1-1-1-3-48-1-5h-10l2 29v6l-1 1h-8l-1-4-2-28-1-3h-6l-4 1 4 50v4l-2 1h-7l-1-6-4-54-1-23 4-6 5-3 20-3h2l1-9z"/><path fill="#1B1824" d="M1683 261h5l1 1 3 40 9-3 6 1 4 4 2 11 2 24v16l-4 6-8 3-9-1-4-2-3-5-2-11-5-82z"/><path fill="#E1E0E1" d="m1905 142 2 3v2l2 1 4 3-24 3-36 3-154 11-377 27-170 12-300 21-47 3-10 1h-15v-1l22-2 76-5 63-5 32-2 66-5 154-11 168-12 199-14 156-11 59-4 37-3 71-5 9-1h14l-1-2z"/><path fill="#1C1824" d="m1655 263 6 1-1 10-4 5-7 2-17 2-1 1 1 22h3l4-2h6l1 1 7-1 3-1h11l4 4 2 5 2 17 2 24v12h-9l-4-50-1-5-9 1v14l1 22-9 1-3-35-2-1-9 1 4 48v6l-1 1h-8l-5-67v-18l4-5 9-3 17-2 1-9zM908 316h8l6 3 3 6 1 10-5 8-4 2-10 1v12l6-2h9l5 5 1 2 4 47v8l-2 1h-6l-1-1-4-53-7-1-3 1v13l3 40-4 2h-5l-1-4-6-87 3-8 5-4z"/><path fill="#2B1C22" d="M1520 300h12l6 5 3 6 2 10 1 10v9l-2 1-18 1v9l2 11 5-2 2-9 2-2h8l2 1v8l-3 7-4 5-5 2-9 1-6-3-4-5-4-12-2-21v-16l3-9 7-6zM1380 311h9l1 1 4 50v19l-8 1-2-1-1-6-8 8-9 1-5-4-3-10-2-19-2-36 1-2h12l2 16 4 42 7-1-4-54v-4z"/><path fill="#171725" d="M1447 306h9l1 1 4 52v17l-1 1h-8l-2-5-3-1-2 5-2 2-7 1-7-3-3-5-2-14-3-47 2-2h11l2 16 3 35 1 8 7-2-4-57z"/><path fill="#2C1D22" d="M1302 291h10v7l-8 51v20l1 17-1 1-11 1-2-4-2-23-6-23-11-37-1-6 2-2 9-1 3 7 8 31v4h2l1-14 4-28z"/><path fill="#1D1924" d="m850 320 10 1 5 6 2 8 6 81v6l-9 1-2-23-4-58-2-14h-8l-1 1v14l6 74v6l-1 1h-8l-1-2-5-74v-20l4-5z"/><path fill="#1B1825" d="M589 339h11l6 5 2 5 6 77 1 14-1 1h-8l-1-1-5-69-1-18-2-6-1-1h-6l-2 3 3 46 3 42v5l-8 1-1-1-3-35-3-46v-14l4-5z"/><path fill="#FAF9FA" d="M69 575h2l1 5 4-1v6l-2-1v9l1 3 2-2 2 4h2l3 18 2 7 4 13 2 6h9l30-5 89-18 46-9h17l2 3-28 6-98 20-51 10H93l-8-6-5-12-4-18-7-34z"/><path fill="#2B1C22" d="M1405 283h18l1 1v11l-12 2 5 74v8l-1 1h-12l-2-23-4-55-1-4h-11l-1-1v-12z"/><path fill="#1C1824" d="M948 313h7l6 3 3 5 3 20v11l-3 3-2 1v2l5 2 2 15 1 12v22l-5 6-5 2h-10l-5-3-3-5-2-18v-13h8l1 1 2 27 2 3h8v-15l-2-25v-6l-11-1-1-1v-5l10-5v-11l-2-18-1-1h-6l-2 1v19l-7 1-2-2-1-5v-12l4-6 4-3z"/><path fill="#1B1825" d="M549 342h12l6 7 2 6 1 13v14l-5 2 1 2 5 3 2 21 1 25-4 7-5 3h-12l-6-5-3-10-1-23 1-1h7l4 30v2l8-1 1-1v-17l-2-24-2-4h-8l-2-3 1-4 9-4v-19l-1-9-1-3h-6l-3 2v18l-2 1h-7l-1-18 3-6z"/><path fill="#1C1824" d="M628 336h11l6 4 2 6 4 45 2 28v10l-3 6-3 3-7 2-8-1-6-4-3-9-1-12v-13l7-1 2 3 2 23 1 6h6l3-2v-12l-5-74-8-1-2 1v19l-6 2-3-1-1-4v-14l3-5 4-4z"/><path fill="#1A1825" d="m988 310 10 1 5 6 2 10 5 65v12l-4 7-6 3h-11l-6-5-2-5-2-19v-9l7-2 2 2 2 26 1 4 6 1 4-1-3-45-3-43h-8l-2 1v18l-2 2-7-1-1-6v-8l2-8 5-4z"/><path fill="#1C1824" d="M370 355h14l4 4 2 6 3 31 3 42v9l-3 6-5 4-2 1h-11l-6-5-3-10-2-23 5-2 4 1 3 27 1 5 8-1 1-2v-15l-5-67-1-4h-10v20l-1 1h-6l-1-1-1-18 3-5 3-3zM1774 254h11l5 3 3 8 3 35 2 28v22l-5 6-7 2h-7l-5-3-3-4-2-9-1-23 7-1 2 2 2 26 2 4h7l1-1v-15l-5-69-1-3h-10l1 19-6 2-3-2-1-17 4-7z"/><path fill="#1A1825" d="M1056 306h5l1 1 5 62 2 28 2 4h8v-15l-2-30v-11h8l3 35v21l-4 5-8 3-9-1-5-4-2-5-3-32-3-46v-14z"/><path fill="#F3CC18" d="M511 351h6l3 3 2 18v11l-7 3-8 3-4 7 1 23-1 22-3 6-3 1-2-9-6-79 1-5 7-1 3 1 1 18h8l-1-15 2-6z"/><path fill="#F4CC1A" d="m412 358 8 1 2 12 1 13v10l-4-1h-9l-6 5v19l-1 1v21l-3 8-4 1-6-76 1-9 6-2 2 3 2-2 1 20 7-1v-21z"/><path fill="#1B1824" d="M1586 268h5l3 3 13 2 3 6 2 17 4 52v14l-4 6-8 3-10-1-5-4-2-6-1-8v-20l6-1 2 3 3 27 1 2h6l2-1v-18l-4-65-9-1-6-3-2-2z"/><path fill="#2C1D22" d="M1463 277h1l1 7 1 22 2 25 4 1 1 6v15l1 3v5l4 4 2-1-1-2-2-22v-23l4-4 6-2 1 1 1 11v9h2l1 10v20l-2 2-6 1 3 2h-3l3 4 5 1v-2l7 1 2-5 1 3-5 5-7 1-7-4-3-2v5l-6 2-5-1-2-19-2-35-2-29z"/><path fill="#F3CC19" d="M848 327h8l2 5 4 53 1 23-2 5-3 8-4 1-1 2-3-31-4-50v-14zM730 335l6 1 2 2 1 6 4 59v21l-3 2h-6l-2-3-6-76v-10zM750 334h7l2 6 3 43v40l-3 3h-8v-20l-4-52v-18zM590 345h6l3 3 1 5v39l3 32v6l-4 5-4 4v-2h-2l-6-84 1-6zM767 333h6l3 2 2-2 4 63 2 16-3 1-1 9-3 3h-2l-1 2-2-16-5-66z"/><path fill="#2B1C22" d="M1423 308h11l2 16 3 35 1 8 5-1-2 2h-5l-1-3-2 2v5h-2l-1 3 3 1 1-3 2 3 5-1 2-1-2 4-7 1-7-3-3-5-2-14-3-47z"/><path fill="#161725" d="M1273 293h8l3 8 5 22 3 14 3 11h2l1-3h2l1-3h1v8l-1 10 2 23v2l-2 1h-8l-2-20v-8l-3-7-1-7-2-4-1-11-4-7-1-4h-2l-6-21z"/><path fill="#F3CC19" d="m569 346 6 1 2 3 2 17h1l1 7 1 27v19l-3 13-3 1v2h-2l-1 2v-13l-2-29-1-7-5-3v-2l4-2v-14l-1-19-1-2zM1000 318h6l2 5 4 2 4 51v14l-2 9-2 4-5 1-6-77zM429 357l8 1 2 4 1 22 2 5 2 23v12l-1 15-3 6-5 1-6-81-1-7z"/><path fill="#C4B8D7" d="M674 529h9l10 1v1l-73 15-25 5h-14l-1-1h-7l-6 2h-13v-1l13-3 12-2 17-4 18-3 12-3 7-2h5v-2z"/><path fill="#F3CC19" d="m648 346 5 2 4 9 2 2 3 44v21l-1 3-6 5-3-1v-12l-5-65v-6z"/><path fill="#FBFAFB" d="m1180 326 4 1 10 5v2l5 1v2l5 2 3 1v2l5 1 1 4-4 2v2l-5 3-2 3-3 1-4 4h-2v2l-6 4-2 2-3-5v-7l-1-9v-8l-1-10-1-3z"/><path fill="#161725" d="M1381 312h7l2 16 3 44v7l-4 1-3-8-1-3h-2l-1 5h-2v3l-6 5-5-1-2-3h2v-2l12-6-1-16v-16l2-3v-5l-3-1-1-2v-14z"/><path fill="#171725" d="M1520 300h12l6 5 3 6 2 10 1 10v9h-13v-8l1-6-3-16h-9l-1 18-2-4-8-2 1-10 2-6 6-5z"/><path fill="#F3CC19" d="m531 351 6 1 1 2 1 10h1l-1 15-2 5-1 9 4 2 1 5-1 2h-2l2 9v4h2v12l-2 6-1 4-2 1-3 5h-2l1-4v-19l-2-24-1-4-5-3 1-3 3-2v-19l-1-11zM789 331h6l3 4 1 9v46l-2 5-4 3v10l-2-1-2-23-3-39v-12z"/><path fill="#F4CC1A" d="M1064 326h1l1 7v11h3l4 5 3 2 2 5 2 30v13l-1 2-8 1-3-5-4-54z"/><path fill="#161725" d="M1328 315h7l6 3 3 4 4 17 1 28-1 7-4-3-3 1-1 3-2-1v-18l-2-22-3-11-3-1-5 3h-6v-2h-2l1-3 4-3 8 1v-2z"/><path fill="#F3CC18" d="m1614 280 4 1 1 11 2 3 1 21 2 3v32l-3 8-4 2-1-1-5-64v-14z"/><path fill="#F4CC1A" d="M1395 302h2l1 3v13l2 4 3 35v15l-1 3v5l-6 1-2-6-4-52v-11l1-7 4-1z"/><path fill="#F3CC18" d="m609 347 4 1 2 4 2 10 1 3v19l1 11-1 8 3 10v19l-3 5-4-1-6-73v-13zM1713 294h6l2 1v2l5 1v5l-1 1v33l-1 8-3 5h-2v4h-4l-3-39-2-13zM452 355l7 1 2 6v40l1 8-3 5-4 8h-2l-4-48v-18z"/><path fill="#F4CC1A" d="m1412 301 2 4v2l3 1 4 10h1l4 48 2 9h-5v2l-4 1v-3h-2l-1-4-4-58z"/><path fill="#F3CC18" d="M511 351h6l3 3 2 18v11l-7 3-8 3-5 10-2-2v-10l2-5-2-5-2-11 1-7h1l1 14h8l-1-15 2-6z"/><path fill="#A196B2" d="M1852 152h10l7 1v1l-85 6-24 2-75 5-24 2-59 4h-16v-1l29-3 26-1 25-3h14l36-4 27-1 12-2h25l18-2 15-2 34-1z"/><path fill="#F4CC1A" d="M1029 355h7l2 2 3 36-1 9-3 3h-6l-2-3-2-18-1-26z"/><path fill="#F3CC19" d="M1740 304h7l1 1 2 23 1 21-2 4-2 1h-6l-2-3-3-38v-7zM809 330h8l2 7 2 26v14l-3 3h-7l-2-5-2-24v-19zM337 404l7 1 1 1 3 33v11l-4 4h-5l-3-4-2-19-1-23 1-3zM1054 327h1l3 40v27l-1 3h-2v3l-6 2-3-39-1-12 4-7 3-3z"/><path fill="#BCB0D2" d="M498 562h6v1l-39 8-16 3-9 3-6-1v2l-26 5-16 3-20 4-67 13-48 10-43 8h-4v-2l7-2 12-2 15-3 2-1 9-1 9-2 12-2 19-4 17-3 115-23z"/><path fill="#F3CC19" d="M412 399h9l2 1 2 12 1 13v21l-7 3-4-3-2-18-1-15z"/><path fill="#F4CC1A" d="M1697 307h6l2 12 2 25v9l-4 4h-5l-3-4-3-37v-7z"/><path fill="#F3CC19" d="m350 362 8 2 1 2 1 11 1 8-1 28-2-1-1 5h2l3 12v16l-1 3h-2l-2 5-2 1v-24l-4-54zM719 370h1l3 43 2 14-5-1-3 3h-3l-1-3-3-37-2-12 1-2 6-3 2 5h2zM516 393l6 1 1 1 2 18 1 24-1 3-2 1h-7l-2-5-2-19v-22z"/><path fill="#F3CC18" d="m1309 312 4 2 1 7v32l1 14-1 4-2 5-3 3h-2l-1 8h-1l-2-18v-20z"/><path fill="#F3CC19" d="M472 354h8l2 12-1 32-4 8-4 2-3-28-1-13v-11z"/><path fill="#F3CC18" d="M1483 314h4l2 9 2 23v15l-3 2h-5l-2-2-2-20-1-23zM912 363l7 1 1 1v31l-1 9-2 7-1 5-3 1v-6h-2l-2-20-1-14v-13z"/><path fill="#F4CC1A" d="M1434 308h5l6 13 2 31v13l-7 2-2-8-4-46z"/><path fill="#F3CC19" d="m383 405 2 3 2 25v15l-2 3h-8l-2-5-2-19v-8l4-8 4-4h2zM1457 307l5 5 1 2 2-2 2 26 2 29v8l-3 1h-4l-2-17-3-42zM559 395h2v5h2l2 19v17l-5 3-5-1-2-7-2-25v-6l3-3h5z"/><path fill="#161725" d="M1408 296h1l2 12 2 34 2 21v15h-4v-2h-3l1-18-2-11-2-4-2-1-1-4v-8l2-4 1-7v-6l1-2 1-14z"/><path fill="#F4CC1A" d="m1368 314 3 1v2l3 1 3 3 2 22 1 14v13l-4 2-4-1-4-42z"/><path fill="#F3CC18" d="M991 366h8l2 21v19l-4 2-6-1-2-5-1-13v-13l2-9z"/><path fill="#F3CC19" d="M957 369h3l2 25v13l-3 3h-6l-3-4-2-30 2-6z"/><path fill="#F3CC18" d="m829 328 5 2 3 4 2 14v15l-2 10-7 8-2-2 1-3v-10l-3-32v-5z"/><path fill="#F3CC19" d="M673 380h6l2 4 1 9v10l-1 14-4 3-3 1-2 2-1-2-2-26v-13zM1327 325h6l2 5 2 19v24l-3 2-4-1-3-17-1-13v-17z"/><path fill="#CBC2D9" d="m905 203 3 1-3 3-25 4-24 5-31 6-5 2-15 2-5 2-7 1v1l-24 3h-8v-1l9-1 1-3 12-2 24-5 27-4 20-4 37-7z"/><path fill="#F3CC19" d="M692 379h8l2 6-1 34-5 3-3-6h-1l-2-19v-17zM1676 311l5 2 3 1v27l1 14h-2l-1 5-3 2v-2h-2l-3-31-1-15z"/><path fill="#161726" d="M1424 309h9l3 34v11l-4-1-2-5-1-5-1-3-2-1-1 2-1-2-1-12v-17z"/><path fill="#C4B9D7" d="m638 532 5 1-3 2-17 5 1 5-29 6h-14l-1-1h-7l-6 2h-13v-1l13-3 12-2 17-4 18-3 12-3 7-2h5z"/><path fill="#F3CC19" d="m1641 311 3 2v6l-1 1 1 11v17h-2v2l-6 1-2-7-2-21v-10z"/><path fill="#2B1C22" d="M787 330h9l3 4 1 3 1 20 1 7 3-2v-29l2-3 2 1-1 1v19l2 24 1 4 7 1-3 2-5-1-4-5-5 1-2-15-2-27-2-3h-6l-2 1v12l3 39 2 23 1 2 13 1v1h-14l-3-6-5-65 1-8z"/><path fill="#F3CC19" d="m928 364 1 3 7 1 2 2-1 8-2 3h2l3 3-1 20-2 7h-2v3h-2l-1 4-4-45z"/><path fill="#E1E0E1" d="M107 358h3l2 7v17h-1l-1-16-1-2h-6l-7 3-12 3-18 3-19 5-4 1 5-6h2v-3z"/><path fill="#2C1D22" d="m326 402 1 3v11l2 15v16h3l1 2-1-19v-25l4-2h5l-4 2h-3l1 26 2 19 2 3 7-1 1-2v-11l-2-24v-9h1l3 28v17l-3 4-6 1v2h7l7-4-2 4-7 3h-8l-5-3-3-4-2-7-2-25v-19z"/><path fill="#F3CC19" d="M1654 310h7l2 4v15l1 9v2h-2l1 4h2l-1 4-2 5-4-1-1-4-2-1-1-6-1-16v-14z"/><path fill="#F3CC18" d="m1344 318 6 3 4 1 1 2 2 27v16l-3 7-5 2 1-7v-17l-3-23z"/><path fill="#161726" d="M1356 314h10l3 35v10l-3 1-4-6v-15l-3-5-2-1-1-5z"/><path fill="#C3B6D7" d="M76 370h8l-4 2-24 6-8 4-4 5-1 2v14l9 46 6 31 6 28v6l-2-4-9-42-11-55-3-19v-10l4-5 8-3z"/><path fill="#2C1D22" d="M1056 306h5l1 1 5 62 2 28 2 4h8l-3 2h-6l-3-4-3-29-3-46-1-7v-10l-5 1 2 14 4 67v10h-1l-3-32-3-46v-14z"/><path fill="#F3CC18" d="m552 348 6 1 2 3 1 9v12l-1 4h-9l-1-1v-6l-2-1v-18zM634 396h3l4 6 1 12v15l-7 2h-2l-2-17-1-13 2-1zM968 364l7 2-1 11 4 3h1l1 5v9h-1l-2 8-4 5h-2l-3-32z"/><path fill="#F3CC19" d="M948 320h6l2 2 1 6v12l-1 8-7-1-3-6-1-5v-14z"/><path fill="#161726" d="M1303 292h8l-2 14-4 24-2-4-5-4 1-15 2-14z"/><path fill="#F3CC18" d="m1501 313 4 2 3 4 3 37-5 9-2-1-1-27-2-17z"/><path fill="#2C1D22" d="m694 377 7 1 2 6 3 44v4h6l-4-49-1-6 2 2 2 10 3 37v7l-9 1-1-1-3-48-1-5h-10l2 29v6l-1 1h-8l-1-4-1-28h1l1 6 1 25 6-1-2-22v-11l2-3z"/><path fill="#F3CC18" d="m1598 327 3 2 3 11 1 1v17l-4 2-5 1-3-29h2l2-4z"/><path fill="#161726" d="M1411 284h11v7l-1-2-16 4-2-1v2l-4 1h-11l-2-2v-7z"/><path fill="#2C1D22" d="M451 354h7l1 2h-7l-2 1v18l5 70v6l-1 1h-8l-5-66v-15h1l3 35 2 32 2 12 4 1-1-9-2-36-3-37v-11l1-3zM488 356l2 4 6 79v9l-3 2h-5l-1-1-5-66v-16h1l4 49 2 31 5 1-3-39-2-32z"/><path fill="#F4CC1A" d="M1716 265h7l2 2 1 17-5 3h-5l-2-2-1-7v-11z"/><path fill="#191725" d="M1535 349h8l2 1v8l-3 7-7 5h-4l-3-3h-3l-2-1 2-3 6-1 2-11z"/><path fill="#F3CC18" d="M372 361h8l2 5v8l-2-2-2 7-1 9-3 3-3-9-1-5v-15z"/><path fill="#F4CC1A" d="m1284 296 2 2 1 3 7 1 4 4-1 14-2 14h-2l-9-35z"/><path fill="#FDCB2E" d="M499 359h1l1 14h8v-5h1v8l-1 4 4 2v2l8-4v4l-12 4-4 4-3 7-2-2v-10l2-5-2-5-2-11z"/><path fill="#F3CC19" d="m966 324 4 1v3l4 2 3 9-4 15h-7v-13l-1-14z"/><path fill="#2C1D22" d="m980 313 2 1-4 5-1 8 2 8 1 2h2v-17l4-4 6-1 4 2 2 13 2 23 2 31 1 10v10l-2 2-3-45-3-43h-8l-2 1v18l-2 2-7-1-1-6v-8l2-8z"/><path fill="#F3CC19" d="M1780 316h7v7l-2 5v7l1 9-4 1-2-2-2 2-1-9v-16z"/><path fill="#BAAED0" d="M298 601h7v2l-48 10-43 8h-4v-2l7-2 12-2 15-3 2-1 9-1 9-2 12-2 19-4z"/><path fill="#F3CC19" d="m630 342 6 1 2 1 1 3v7l-4 7-1 3-5 1-1-1-1-7v-13z"/><path fill="#F3CC18" d="m1759 315 3 4 4 6h1l1 6-3 15-4 4-1-1-2-18v-13z"/><path fill="#E1E0E1" d="M45 428h1l12 59 6 27 5 26-1 4-2-3-2-15-2-3-1-12-4-12-1-8-2-6-1-11-2-7-3-15-3-18z"/><path fill="#F3CC19" d="m1690 269 4 1 3 8v3l2 1 1 7-2 3h-2l-2 6h-2l-1 3-2-24v-7zM987 317h6l2 1 1 3v15h-1l-1-8-3 7-2 1-1 2-4 1v-20z"/><path fill="#FCCB2B" d="M1787 308h1l2 26v15l-2 2h-7l-3-5 2-4 4 2h2l-2-12 1-8 1-1z"/><path fill="#F4CC1B" d="m1524 310 5 2 2 12v7l-2 1h-7l-1-6v-14z"/><path fill="#F3CC19" d="M907 323h8l2 3v10l-2 2-8 1-2-5v-9z"/><path fill="#2C1D22" d="M1447 306h9l1 1 4 52v17l-1 1h-8l-2-5-3-2 4-6 4 4-2 6 7 1-2-20-2-32-1-7v-9h-8z"/><path fill="#C9BED9" d="M1893 86h1l8 37 3 16v8l-2-4-4-11-3-16-1-3-1-12-3-12z"/><path fill="#2C1D22" d="m515 391 7 1 2 3 3 28v16l-3 3-7 1-4-4-1-4-2-23v-16zm1 2-4 2v22l2 19 2 5h7l2-1 1-3-1-24-2-18-3-2zM728 334h7l2 1-1 2-6-1-3 1v10l6 76-1 2-2-3-1-7-2-39-3-36 2-5zM607 349h1l6 77 1 14-1 1h-8l-1-1v-14h1l1 13h5l-3-45-2-25zM906 322h9v1l-8 1-1 1v9l1 4 8-1 1-1v-12l2 1 1 9-3 5-8 2-1 3 11-2 5-3-2 4-4 2-10 1v12l4 1-2 2h-3l-1-2-1-14-1-8v-11z"/><path fill="#B3A7C9" d="m638 532 5 1-3 2-17 5-1 3-6 1-1-1-2 2-5-1v3l-5-1v-2h-10l3-2 18-3 12-3 7-2h5z"/><path fill="#E1E0E1" d="M73 564h1l6 30-1 4-2-3-2 2-2-4v-10l2 1 1-5-4 1-1-5-2-1v-6l4-1z"/><path fill="#FDCB2D" d="m337 404 7 1 1 1 3 33v6l-2 1-1-10-1-4h-2v-20l-4-4-2-3z"/><path fill="#2C1D22" d="M1033 307h9v6l-17 3-1 1 1 34 3-2 3 1-4 4h-2l-2-4-2-26v-6l4-5 11-2 4 1v-4l-15 2-4-1zM567 352l2 3 1 13v14l-5 2 1 2 5 3 2 21 1 25-2 4-1-2 1-3-1-23-2-21-7-3-1-3 5-1v-2h2v-12z"/><path fill="#E1E0E1" d="M807 221h8l-4 2-23 5-3 2h-6l-2 2-16 1v-1l9-1 1-3 12-2z"/><path fill="#FCCB2C" d="m1659 309 5 1 2 15 1 14v10l-2-2v-3h-2l-1-4 1-2-1-17v-8l-1-3z"/><path fill="#FDCB2D" d="M1747 312h2l2 29v8l-2 4-3 1-4-2 6-5-1-14z"/><path fill="#2C1D22" d="M1325 314h11l6 3 3 3 4 14v8l-2-3-4-17-5-5-8-1v2h-10l-1 3-2 2h2l-1 2-3-1 1-4 6-5z"/><path fill="#BBAFD1" d="M298 601h7v2l-43 9h-5l5-4 11-1 6-2 16-3z"/><path fill="#F3CC18" d="m1504 345 5 2 2 6-1 6-4 6-2-1z"/><path fill="#2A1C22" d="m367 356 2 1-5 5-1 19 5-1v-16l1-3 6-2 5 1v1l-10 1v20l-1 1h-6l-1-1-1-18 3-5z"/><path fill="#A196B2" d="m1543 175 3 2-43 3h-13v-1l15-2 4-1h23z"/><path fill="#F5CC1D" d="m324 365 5 1 1 4v9l-2 3-1 5h-1l-2-8z"/><path fill="#2C1D22" d="m1499 311 2 2 3 24v25l-2 4v-16l-3-33zM958 315l4 2 3 8 2 16v11l-3 3-2 1v3l-3-1 2-4 3-2-1-25-3-9z"/><path fill="#F4CC1A" d="m339 363 3 1 1 8v10l-4-1-3-2 1-1 1-14z"/><path fill="#FCFBFC" d="M271 610h12l2 3-18 4h-5l2-3 2 1v-2zM306 604l10 1-4 3-15 3-5-1-2-2 4-2h11z"/><path fill="#2C1D22" d="m1588 331 5 1 1 2 3 27 1 2h8l-1 2h-8l-3-4-1-3-1-19-1-6z"/><path fill="#CABFD9" d="m905 203 3 1-3 3-25 4-6 1 1-3z"/><path fill="#F3CC19" d="M1524 341h14v1l-10 2-2 1 3 3v5l-4 4h-1l-1-6v-9z"/><path fill="#E1E0E1" d="M674 529h9l10 1v1l-11 2-2-1h-19l-10 1h-10v-1l17-2z"/><path fill="#FCCB2A" d="m641 403 2 1 1 14v12l-4 3h-6l-1-2 7-2h1z"/><path fill="#2C1D22" d="m407 353 2 1-6 6v19l6 1-2-17 2-3 1 21-1 1h-7l-1-2v-21l5-5z"/><path fill="#F3CD18" d="m333 381 5 1 1 4 2 1-3 4h-5l-3-6-1-3z"/><path fill="#FDCB2D" d="M385 440h1v10l-1 1h-8l-2-6h7l2-4zM997 378h1l1 7 2 2v19l-4 2-4-1 4-1 2-4v-8l-3-4z"/><path fill="#C3B6D7" d="M808 223h3v2l-18 4v1l-16 2-1-2 9-1 3-2z"/><path fill="#A196B2" d="m1467 179 21 1v1l-28 2h-13v-1l10-2z"/><path fill="#FDCB2E" d="m407 387 3 1 1 2 5 1v1l-8 2-4 4-2 4h-1v-6l1-5h2v-2z"/><path fill="#FCCB2C" d="m738 373 3 1 2 29v6l-2 1-3-32z"/><path fill="#FCCB2B" d="m460 375 2 3 1 18v12l-2-1-1-5z"/><path fill="#161726" d="m1322 333 2 2 2 23-3 1-2-5z"/><path fill="#2C1D22" d="m1470 275 5 1 3 33 1 4h-3l-1-3-2-33z"/><path fill="#FDCB2C" d="m859 371 2 2 2 31-2 2-2-21z"/><path fill="#2C1D22" d="M624 400h5l2 3 2 23v6l-2-2-2-7v-15l-1-6z"/><path fill="#A196B2" d="M1258 194h12l8 1v1l-28 2h-10v-1zM1410 183h20l2 2-27 2h-12v-1l13-2z"/><path fill="#B8ACCE" d="M74 561h2l3 9 1 2-2 12h-1l-3-15z"/><path fill="#B4A8CB" d="M607 540h6v3l-5 1v3l-5-1v-2h-10l3-2z"/><path fill="#F6CC1E" d="M325 428h1l2 19 1 9-4-4z"/><path fill="#FDFCFD" d="M69 575h2l1 5 4-1v6l-2-1v12l-2-2-3-15z"/><path fill="#FDCB2C" d="M563 422h1l1 14-5 3h-2l-1-4 3-2 2-5z"/><path fill="#C8BDD8" d="M821 219h9v2l-10 3h-9l1-2h3v-2z"/><path fill="#FDCB2D" d="M959 379h1l2 17h-3l-2-3v-10zM1705 338h1l1 6v9l-4 4h-5l-1-2h3v-2l4-2z"/><path fill="#C3B6D7" d="m85 618 2 4 4 13 5 5 5 1v2l-9-1-4-8-3-11z"/><path fill="#A196B2" d="M1359 187h20l-3 2-15 1h-13v-1z"/><path fill="#FDCB2D" d="M1507 332h2l1 16-5-3 1-12z"/><path fill="#A196B2" d="M1211 197h9l3 1v2l-13 1h-12v-1l11-2z"/><path fill="#2A1C22" d="m980 313 2 1-4 5-1 8 2 8 2 4-5-1-1-6v-8l2-8z"/><path fill="#FDCB2D" d="M1725 277h1v7l-5 3h-5l-2-3 4-2 6-1z"/><path fill="#BEB1D3" d="m575 547 4 1-12 4h-13v-1l13-3z"/><path fill="#BDB1D2" d="M103 363h6v2l-18 5-5 1-2-2 18-5z"/><path fill="#FDFCFD" d="M66 560h2v2l5 1v4l-3 1v6h-2l-2-10z"/><path fill="#BDB1D2" d="M421 577h5l-1 3-17 3-3-1 1-2z"/><path fill="#E1E0E1" d="M266 610h5l-2 3h-3v2l-6 1v-1l-9-1v-1zM70 550h1l2 9-1 4-4-1-1-7h2z"/><path fill="#FCCB2B" d="M1726 290h1v9l-4-1-2-1v-2h-2v-2z"/><path fill="#F4CC1A" d="M1775 261h3v2h-2l3 4v2l-4 2-2 2v-11z"/><path fill="#FDCB2D" d="M425 435h1v11l-7 3-2-2 2-3 2 1v-2l3-1z"/><path fill="#2C1D22" d="M666 352h1l2 24v3l-2-1-1-3z"/><path fill="#C8BED8" d="m614 542 6 1 3-1 1 3-10 2h-6v-3l4-1 1 1z"/><path fill="#FCCB2C" d="m382 420 1 2h2l1-2v13l-3-1-1-3z"/><path fill="#2C1D22" d="M1689 277h1l2 25 5-1-4 4-3-1-1-12z"/><path fill="#F8F7F8" d="m306 604 10 1-4 3-10 1 1-3h2z"/><path fill="#DFDDE0" d="M771 228h8v2l-2 2-16 1v-1l9-1z"/><path fill="#F5CC1C" d="M1024 330h1l2 17 3 1-3 3h-2l-1-6z"/><path fill="#FCCB2B" d="m1486 316 2 1 1 6v8l-2-2v-4l-2-1-1-7z"/><path fill="#FACB26" d="M643 422h1v8l-4 3h-6l-1-2 7-2 2-1z"/><path fill="#FDCB2D" d="m526 386 6 1-1 3 2 2v7l-2-3-1-4-5-3z"/><path fill="#281B22" d="m407 353 2 1-6 6-1 19h-1v-20l5-5z"/><path fill="#B8ACCE" d="m255 610 4 1h-2v2l-6 1h-10l4-3z"/><path fill="#FCCB2B" d="M741 412h2v12l-3 2h-6v-2l7-1z"/><path fill="#F4CC1A" d="M1476 293h1v5h2l2 7-4 2-1-6z"/><path fill="#B5A9CC" d="M72 550h3l1 6-2 8h-1z"/><path fill="#F4CC1A" d="m667 354 2 3 2 6h-2v13h-1z"/><path fill="#FECB2F" d="M1312 336h1l1 22-2 3-1-7z"/><path fill="#A196B2" d="m1162 201 13 1v1l-8 1h-12l3-2z"/><path fill="#FDCB2D" d="M525 428h1v9l-1 3-6 1 3-5 2-1z"/><path fill="#CEC6DA" d="M837 216h5l-3 3-9 1-2-2z"/><path fill="#B9ACCF" d="M298 601h7v2l-4 1h-10l4-2z"/><path fill="#FECB2F" d="m1420 323 2 1 1 10-2 3z"/><path fill="#FBCB29" d="m1643 319 2 3v9h-2l-1-11z"/></svg>